<svg viewBox="0 0 95.9888 87.5001" fill="none" xmlns="http://www.w3.org/2000/svg" xmlns:xlink="http://www.w3.org/1999/xlink" x="0" y="0"><g id="Group 10">
<g id="Flat">
<g id="Antibodies">
<path id="Vector_292" d="M18.9028,23.823l-8.084,-8.18c-5.377,-5.44 -13.499,2.78 -8.125,8.22l8.084,8.18l6.441,-1.25z" fill="currentColor"/>
<path id="Vector_293" d="M18.9028,23.823c-2.949,2.99 -5.765,5.84 -8.125,8.22l8.074,8.18c5.3,5.36 13.571,-2.72 8.126,-8.23z" fill="white"/>
<path id="Vector_294" d="M30.1628,12.423l-9.585,-9.7c-5.374,-5.43 -13.503,2.78 -8.125,8.23l9.585,9.7l5.713,-1.77z" fill="currentColor"/>
<path id="Vector_295" d="M42.1938,24.603l-12.03,-12.18l-8.125,8.23l10.347,10.47v49.69c0,7.69 11.491,7.69 11.491,0v-52.1c0,-0.76 -0.148,-1.52 -0.437,-2.23c-0.289,-0.7 -0.712,-1.34 -1.246,-1.88z" fill="white"/>
<path id="Vector_296" d="M77.0858,23.823l8.084,-8.18c5.377,-5.44 13.499,2.78 8.125,8.22l-8.084,8.18l-6.44,-1.25z" fill="currentColor"/>
<path id="Vector_297" d="M77.0848,23.823c2.949,2.99 5.765,5.84 8.125,8.22l-8.074,8.17c-5.301,5.37 -13.571,-2.71 -8.126,-8.22z" fill="white"/>
<path id="Vector_298" d="M65.8238,12.423l9.586,-9.7c5.374,-5.43 13.502,2.78 8.125,8.23l-9.585,9.7l-5.713,-1.77z" fill="currentColor"/>
<path id="Vector_299" d="M53.7958,24.603l12.03,-12.18l8.125,8.23l-10.347,10.47v49.69c0,7.69 -11.491,7.69 -11.491,0v-52.1c0,-0.76 0.149,-1.52 0.438,-2.22c0.289,-0.71 0.712,-1.35 1.245,-1.89z" fill="white"/>
</g>
</g>
<g id="Antibodies_2">
<path id="Vector_300" d="M11.4678,14.983c-6.237,-6.31 -15.65,3.24 -9.426,9.54l16.159,16.35c6.14,6.22 15.752,-3.13 9.426,-9.54zM10.1678,16.303l7.434,7.52c-2.449,2.48 -4.785,4.84 -6.825,6.91l-7.435,-7.53c-4.508,-4.56 2.315,-11.47 6.826,-6.9zM19.5008,39.563l-7.424,-7.52c2.039,-2.06 4.377,-4.43 6.825,-6.9l7.425,7.51c4.599,4.66 -2.395,11.39 -6.826,6.91z" fill="currentColor"/>
<path id="Vector_301" d="M30.8148,11.773l-9.586,-9.7c-6.234,-6.31 -15.65,3.23 -9.425,9.53l9.586,9.71l10.078,10.19v49.31c0,8.92 13.329,8.91 13.329,0v-52.1c0.002,-0.89 -0.169,-1.76 -0.504,-2.58c-0.335,-0.82 -0.827,-1.56 -1.448,-2.19zM19.9288,3.383l8.936,9.04l-6.825,6.91l-8.936,-9.04c-4.504,-4.56 2.31,-11.48 6.825,-6.91zM42.9578,80.813c0,6.44 -9.652,6.46 -9.652,0v-49.69c0,-0.25 -0.097,-0.48 -0.269,-0.66l-9.697,-9.81l6.825,-6.91l11.38,11.52c0.449,0.45 0.806,0.99 1.048,1.58c0.243,0.59 0.367,1.23 0.365,1.87z" fill="currentColor"/>
<path id="Vector_302" d="M93.9458,24.523c6.234,-6.31 -3.2,-15.84 -9.426,-9.54l-16.159,16.35c-6.326,6.41 3.284,15.76 9.426,9.54zM76.4868,39.563c-4.42,4.47 -11.433,-2.25 -6.826,-6.91l7.425,-7.51c2.448,2.47 4.785,4.84 6.825,6.9zM92.6458,23.203l-7.435,7.53c-2.04,-2.07 -4.376,-4.43 -6.825,-6.91l7.434,-7.52c4.509,-4.57 11.336,2.34 6.826,6.9z" fill="currentColor"/>
<path id="Vector_303" d="M53.1438,23.943c-0.621,0.63 -1.113,1.37 -1.448,2.19c-0.335,0.82 -0.507,1.69 -0.504,2.58v52.1c0,8.93 13.329,8.9 13.329,0v-49.31l19.663,-19.9c6.233,-6.3 -3.2,-15.83 -9.425,-9.53zM76.0588,3.383c4.509,-4.56 11.336,2.34 6.825,6.91l-8.935,9.04l-6.825,-6.91zM62.9518,30.463c-0.173,0.18 -0.27,0.41 -0.27,0.66v49.69c0,6.43 -9.652,6.47 -9.652,0v-52.1c-0.002,-0.64 0.122,-1.28 0.365,-1.87c0.243,-0.59 0.599,-1.13 1.049,-1.58l11.38,-11.52l6.825,6.91z" fill="currentColor"/>
</g>
</g></svg>