<svg viewBox="0 0 28.0001 26.4963" fill="none" xmlns="http://www.w3.org/2000/svg" xmlns:xlink="http://www.w3.org/1999/xlink" id="b40e2d1f" x="0" y="0"><g id="Design guide-elements-1200" data-node-id="7842:53597" clip-path="url(#clip0_7842_53597)"><g id="Design guide-elements" data-node-id="7842:53598"><g id="03.Card Deck" data-node-id="8023:68607"><g id="Services" data-node-id="7957:65153"><g id="Services_3" data-node-id="7957:65262" clip-path="url(#clip8_7842_53597)"><g id="icon" data-node-id="I7957:65262;6848:34926"><g id="icon_2" data-node-id="I7957:65262;6848:34927" clip-path="url(#clip9_7842_53597)"><g id="Protein Expression" data-node-id="I7957:65262;6848:34929"><path id="Vector_304" data-node-id="I7957:65262;6848:34929;820:14231" d="M18.5001,26.4993h9v-9c0,4.97 -4.029,9 -9,9z" fill="#F2F2F2"/><g id="Vector2_2" data-node-id="I7957:65262;6848:34929;820:14232">
<path fill-rule="evenodd" clip-rule="evenodd" d="M15.2321,3.9093c0.585,0.01 1.067,0.49 1.077,1.08l0.191,10.47c0.01,0.58 -0.455,1.05 -1.039,1.04l-10.471,-0.19c-0.584,-0.01 -1.066,-0.5 -1.076,-1.08c-0.011,-0.58 0.454,-1.05 1.038,-1.04l9.413,0.17l-0.171,-9.41c-0.011,-0.59 0.454,-1.05 1.038,-1.04z" fill="#EA8D28"/>
<path fill-rule="evenodd" clip-rule="evenodd" d="M0.7831,0.7793c0.395,-0.39 1.057,-0.37 1.477,0.05l12.185,12.18c0.42,0.42 0.441,1.08 0.046,1.48c-0.395,0.39 -1.057,0.37 -1.477,-0.05l-12.185,-12.18c-0.42,-0.42 -0.441,-1.08 -0.046,-1.48z" fill="#EA8D28"/>
</g></g></g></g></g></g></g></g></g><defs><clipPath id="clip0_7842_53597">
<rect width="1200" height="11618" fill="white" x="-568.4999" y="-2711.2107"/>
</clipPath><clipPath id="clip8_7842_53597">
<rect width="1200" height="326" fill="white" transform="translate(-568.4999, -229.50070000000005)"/>
</clipPath><clipPath id="clip9_7842_53597">
<rect width="3116" height="256" fill="white" transform="translate(-508.4999, -229.50070000000005)"/>
</clipPath></defs></svg>