<svg viewBox="0 0 41 41" fill="none" xmlns="http://www.w3.org/2000/svg" xmlns:xlink="http://www.w3.org/1999/xlink" x="0" y="0"><defs><radialGradient id="paint19_radial_7842_53597" cx="0" cy="0" r="1" gradientUnits="userSpaceOnUse" gradientTransform="translate(479.501 1370.5) scale(20.6037 20.3991)">
<stop offset="0.4637" stop-color="#FDFFFF" stop-opacity="0"/>
<stop offset="0.5759" stop-color="#FAFEFF" stop-opacity="0.1046"/>
<stop offset="0.6528" stop-color="#F1FAFF" stop-opacity="0.1764"/>
<stop offset="0.7192" stop-color="#E2F2FF" stop-opacity="0.2382"/>
<stop offset="0.7796" stop-color="#CCE8FF" stop-opacity="0.2945"/>
<stop offset="0.836" stop-color="#B0DBFF" stop-opacity="0.3471"/>
<stop offset="0.8894" stop-color="#8ECBFF" stop-opacity="0.3968"/>
<stop offset="0.9404" stop-color="#65B8FF" stop-opacity="0.4444"/>
<stop offset="0.9883" stop-color="#37A3FF" stop-opacity="0.4891"/>
<stop offset="1" stop-color="#2A9DFF" stop-opacity="0.5"/>
</radialGradient><radialGradient id="paint20_radial_7842_53597" cx="0" cy="0" r="1" gradientUnits="userSpaceOnUse" gradientTransform="translate(479.074 1369.85) scale(14.6747 14.529)">
<stop offset="0.4637" stop-color="#FDFFFF" stop-opacity="0"/>
<stop offset="0.5759" stop-color="#FAFEFF" stop-opacity="0.1046"/>
<stop offset="0.6528" stop-color="#F1FAFF" stop-opacity="0.1764"/>
<stop offset="0.7192" stop-color="#E2F2FF" stop-opacity="0.2382"/>
<stop offset="0.7796" stop-color="#CCE8FF" stop-opacity="0.2945"/>
<stop offset="0.836" stop-color="#B0DBFF" stop-opacity="0.3471"/>
<stop offset="0.8894" stop-color="#8ECBFF" stop-opacity="0.3968"/>
<stop offset="0.9404" stop-color="#65B8FF" stop-opacity="0.4444"/>
<stop offset="0.9883" stop-color="#37A3FF" stop-opacity="0.4891"/>
<stop offset="1" stop-color="#2A9DFF" stop-opacity="0.5"/>
</radialGradient><radialGradient id="paint21_radial_7842_53597" cx="0" cy="0" r="1" gradientTransform="matrix(16.8153 -0.124863 0.126115 16.6484 475.977 1363.88)" gradientUnits="userSpaceOnUse">
<stop offset="0.4685" stop-color="#C6F5FD"/>
<stop offset="0.6234" stop-color="#9FE2EF"/>
<stop offset="0.8779" stop-color="#65C6D9"/>
<stop offset="1" stop-color="#4EBBD0"/>
</radialGradient></defs><g id="Group_32" opacity="0.6">
<path id="Vector_176" d="M41,20.48c0,1.81 -0.815,3.49 -1.268,5.16c-0.465,1.73 -1.521,3.07 -2.404,4.59c-0.898,1.54 -0.953,3.7 -2.207,4.95c-1.26,1.25 -2.727,2.53 -4.282,3.42c-1.528,0.87 -3.611,0.67 -5.358,1.13c-1.692,0.45 -3.378,1.27 -5.207,1.27c-1.829,0 -3.419,-1.19 -5.111,-1.64c-1.748,-0.46 -3.426,-0.74 -4.954,-1.62c-1.555,-0.89 -2.789,-2.04 -4.049,-3.29c-1.261,-1.25 -2.33,-2.53 -3.228,-4.07c-0.883,-1.51 -1.747,-2.99 -2.213,-4.72c-0.452,-1.67 -0.719,-3.37 -0.719,-5.18c0,-1.81 0.644,-3.41 1.096,-5.09c0.466,-1.73 0.562,-3.53 1.453,-5.05c0.897,-1.53 1.617,-3.32 2.877,-4.57c1.261,-1.25 3.413,-1.36 4.961,-2.26c1.528,-0.87 2.7,-2.67 4.447,-3.13c1.685,-0.44 3.604,-0.38 5.44,-0.38c1.829,0 3.576,0.56 5.269,1.01c1.747,0.46 3.679,0.62 5.207,1.5c1.555,0.89 2.412,2.71 3.672,3.95c1.261,1.25 2.734,2.32 3.632,3.85c0.884,1.51 0.938,3.35 1.404,5.08c0.446,1.67 1.542,3.28 1.542,5.09z" fill="url(#paint19_radial_7842_53597)"/>
<g id="Group_33" opacity="0.6">
<path id="Vector_177" d="M35.074,20.48c0,0.94 -1.528,1.7 -1.699,2.58c-0.185,0.91 -1.446,1.22 -1.802,2.06c-0.357,0.85 2.062,3.11 1.555,3.87c-0.514,0.76 -1.041,1.9 -1.699,2.55c-0.651,0.64 -3.001,-0.61 -3.769,-0.1c-0.767,0.51 -0.87,2.23 -1.733,2.58c-0.843,0.35 -2.33,-1.72 -3.248,-1.54c-0.89,0.18 -1.466,1.19 -2.411,1.19c-0.946,0 -1.624,-0.48 -2.522,-0.66c-0.918,-0.18 -1.631,-0.25 -2.473,-0.6c-0.857,-0.35 -1.789,-0.24 -2.556,-0.74c-0.767,-0.51 -1.466,-0.97 -2.117,-1.62c-0.651,-0.64 -0.315,-1.86 -0.829,-2.62c-0.514,-0.76 -2.22,-0.73 -2.576,-1.58c-0.343,-0.85 -1.919,-1.47 -2.104,-2.38c-0.178,-0.88 2.741,-2.05 2.741,-2.99c0,-0.94 -2.926,-2.11 -2.754,-2.99c0.185,-0.91 1.274,-1.74 1.623,-2.57c0.357,-0.85 1.528,-1.31 2.042,-2.07c0.514,-0.75 0.028,-2.46 0.678,-3.11c0.651,-0.64 2.844,0.53 3.611,0.02c0.768,-0.51 0.905,-2 1.761,-2.35c0.843,-0.35 2.083,0.98 3.001,0.8c0.891,-0.18 1.521,-1.47 2.467,-1.47c0.945,0 2.083,-1.24 2.973,-1.06c0.918,0.18 1.884,0.82 2.734,1.16c0.857,0.36 2.261,0.2 3.022,0.71c0.767,0.51 0.692,2.31 1.343,2.96c0.65,0.64 1.157,1.44 1.671,2.2c0.514,0.76 2.535,0.92 2.892,1.77c0.349,0.84 -0.925,2.36 -0.747,3.27c0.192,0.88 0.925,1.79 0.925,2.73z" fill="url(#paint20_radial_7842_53597)"/>
</g>
<g id="Group_34">
<path id="Vector_178" d="M34.391,20.38c0.062,7.72 -6.214,14.03 -14.018,14.09c-7.797,0.05 -14.169,-6.16 -14.224,-13.88c-0.062,-7.73 6.214,-14.03 14.011,-14.09c7.804,-0.06 14.17,6.15 14.231,13.88z" fill="url(#paint21_radial_7842_53597)"/>
</g>
<path id="Vector_179" opacity="0.4" d="M6.673,10.43c1.028,-1.36 1.524,-2.72 1.108,-3.02c-0.415,-0.31 -1.585,0.55 -2.612,1.91c-1.028,1.36 -1.524,2.72 -1.108,3.02c0.415,0.31 1.585,-0.54 2.612,-1.91z" fill="white"/>
<path id="Vector_180" opacity="0.4" d="M3.413,16.79c0.266,-1.2 0.185,-2.24 -0.18,-2.32c-0.366,-0.08 -0.879,0.83 -1.145,2.03c-0.267,1.2 -0.186,2.24 0.18,2.32c0.366,0.08 0.878,-0.83 1.145,-2.03z" fill="white"/>
<path id="Vector_181" opacity="0.4" d="M1.726,23.95c0.249,0 0.452,-0.67 0.452,-1.5c0,-0.82 -0.203,-1.5 -0.452,-1.5c-0.25,0 -0.453,0.68 -0.453,1.5c0,0.83 0.203,1.5 0.453,1.5z" fill="white"/>
</g></svg>