<svg viewBox="0 0 143.996 48.0004" fill="none" xmlns="http://www.w3.org/2000/svg" xmlns:xlink="http://www.w3.org/1999/xlink" x="0" y="0"><g id="logo">
<path fill-rule="evenodd" clip-rule="evenodd" d="M44.591,28.7402c5.1958,-5.9685 2.5171,-14.5776 -4.5373,-16.9144c1.023,-1.6073 1.133,-3.2332 -0.0516,-4.7967c-1.2912,-1.7036 -3.1653,-1.6327 -5.1545,-1.5162c0,0.2921 0,0.5741 0,0.856c-0.0103,2.4702 0.0499,4.9437 -0.0481,7.4104c-0.1651,4.1906 -3.4937,7.5353 -7.737,7.9135c-0.4419,0.0389 -0.6465,-0.0827 -0.8012,-0.5099c-2.6976,-7.4593 2.4999,-15.9249 10.4861,-17.0545c8.4591,-1.1953 15.6992,5.1057 15.3295,13.492c-0.2149,4.8727 -2.6821,8.5062 -7.0028,10.9138c-0.1169,0.0659 -0.2493,0.1081 -0.4831,0.206z" fill="currentColor"/>
<path fill-rule="evenodd" clip-rule="evenodd" d="M27.4366,23.687c5.8095,-1.1464 8.9267,-4.5586 9.4751,-10.2992c1.4047,-0.0506 2.7131,0.3141 3.9424,0.9573c3.1773,1.6597 4.9861,5.2577 4.3809,8.6649c-0.6499,3.652 -3.4542,6.4598 -7.106,6.9224c-0.913,0.1165 -1.9153,-0.1249 -2.8283,-0.3697c-3.3819,-0.905 -5.9626,-2.8838 -7.8641,-5.8757z" fill="currentColor"/>
<path fill-rule="evenodd" clip-rule="evenodd" d="M32.724,29.6418c7.4928,2.6643 14.1723,-0.5082 17.5267,-4.8997c3.7688,-4.9318 4.0766,-11.6179 0.6964,-16.8485c-1.9343,-2.9952 -4.6388,-5.0517 -8.0774,-6.1475c-3.4249,-1.0907 -6.8274,-0.9353 -10.199,0.2803c5.2405,-3.1252 13.868,-3.0222 19.5401,3.0611c5.5552,5.9583 5.7182,14.9254 0.4298,20.9867c-5.5035,6.3096 -14.2085,6.86 -19.9166,3.5676z" fill="currentColor"/>
<path fill-rule="evenodd" clip-rule="evenodd" d="M44.5511,32.1222c-5.2215,3.0543 -13.6892,2.8332 -19.3286,-3.0712c-5.5688,-5.8317 -5.8199,-14.8579 -0.5708,-20.9884c5.3162,-6.2116 13.9661,-7.0491 19.8908,-3.7365c-7.6939,-2.1662 -14.107,-0.3697 -18.3623,6.4801c-3.2547,5.2391 -3.0088,10.8058 0.6138,15.8169c4.4238,6.1171 10.5945,7.5978 17.7571,5.4991z" fill="currentColor"/>
<path fill-rule="evenodd" clip-rule="evenodd" d="M36.8713,7.5102c1.1399,0 1.9772,0.8222 1.9772,1.9113c0,1.0839 -0.8236,1.891 -1.9772,1.9129z" fill="currentColor"/>
<path d="M0,3.2695h7.9175c3.7189,0 6.4096,0.5453 8.0705,1.6377c1.6608,1.0924 2.493,2.8179 2.493,5.1766c0,1.631 -0.4642,2.9784 -1.3892,4.0387c-0.9267,1.0603 -2.2781,1.7475 -4.0542,2.0615v0.1891c4.2553,0.7159 6.3838,2.9125 6.3838,6.5881c0,2.46 -0.8459,4.3797 -2.5394,5.7608c-1.6935,1.3811 -4.061,2.07 -7.1025,2.07h-9.7795zM3.2581,15.0545h5.3677c2.3005,0 3.9545,-0.3546 4.9654,-1.0637c1.0093,-0.7092 1.5148,-1.9045 1.5148,-3.5862c0,-1.5432 -0.5623,-2.6575 -1.6867,-3.3413c-1.1244,-0.6838 -2.9142,-1.0266 -5.3677,-1.0266h-4.7935zM3.2581,28.0636h5.8474c2.2627,0 3.9648,-0.4306 5.1081,-1.29c1.1434,-0.8594 1.7159,-2.205 1.7159,-4.0386c0,-1.707 -0.5846,-2.9615 -1.7537,-3.7651c-1.1691,-0.8037 -2.9486,-1.2056 -5.3385,-1.2056h-5.5792z" fill="currentColor"/>
<path d="M74.967,23.4781c0,2.4229 -0.896,4.3105 -2.684,5.6663c-1.789,1.3558 -4.217,2.0328 -7.284,2.0328c-3.324,0 -5.879,-0.4204 -7.669,-1.2612v-3.0864c1.151,0.4778 2.402,0.8543 3.757,1.1295c1.355,0.2769 2.696,0.4137 4.025,0.4137c2.173,0 3.808,-0.4052 4.907,-1.214c1.099,-0.8087 1.649,-1.9349 1.649,-3.3785c0,-0.9539 -0.194,-1.7339 -0.585,-2.3434c-0.39,-0.6079 -1.042,-1.1701 -1.955,-1.6851c-0.914,-0.5149 -2.303,-1.0974 -4.169,-1.7508c-2.606,-0.9151 -4.47,-2.0008 -5.588,-3.257c-1.117,-1.2544 -1.678,-2.8922 -1.678,-4.9132c0,-2.1206 0.812,-3.809 2.435,-5.0635c1.623,-1.2545 3.77,-1.8825 6.44,-1.8825c2.786,0 5.349,0.5014 7.687,1.506l-1.012,2.7859c-2.314,-0.954 -4.563,-1.4301 -6.749,-1.4301c-1.724,0 -3.074,0.3647 -4.045,1.0924c-0.972,0.7277 -1.456,1.739 -1.456,3.0306c0,0.954 0.178,1.7357 0.536,2.3435c0.358,0.6096 0.961,1.1667 1.812,1.6749c0.85,0.5082 2.149,1.0705 3.901,1.6851c2.94,1.0299 4.962,2.1341 6.068,3.3126c1.104,1.1802 1.657,2.7115 1.657,4.5924z" fill="currentColor"/>
<path d="M89.325,30.802h-3.26v-24.6809h-8.875v-2.8416h21.01v2.8432h-8.875z" fill="currentColor"/>
<path d="M102.42,30.802v-27.5225h15.623v2.8432h-12.365v8.8675h11.617v2.823h-11.617v10.1287h12.365v2.8601z" fill="currentColor"/>
<path d="M127.511,30.803h-3.26v-27.5225h7.687c3.437,0 5.979,0.6466 7.62,1.9383c1.642,1.2933 2.464,3.2383 2.464,5.8351c0,3.6401 -1.879,6.1001 -5.636,7.3799l7.61,12.3676h-3.853l-6.786,-11.4457h-5.846zM127.511,16.6087h4.467c2.3,0 3.987,-0.4491 5.062,-1.3457c1.073,-0.8965 1.611,-2.2438 1.611,-4.0386c0,-1.8201 -0.547,-3.132 -1.639,-3.934c-1.093,-0.8036 -2.847,-1.2055 -5.263,-1.2055h-4.236v10.5238z" fill="currentColor"/>
<path d="M4.8395,45.5263l-0.1685,-0.7851h-0.0412c-0.2803,0.3461 -0.5588,0.5791 -0.8373,0.7024c-0.2786,0.1215 -0.6259,0.184 -1.042,0.184c-0.557,0 -0.992,-0.1401 -1.3084,-0.4221c-0.3163,-0.2819 -0.4728,-0.6821 -0.4728,-1.2021c0,-1.1127 0.9061,-1.6969 2.7183,-1.7492l0.9525,-0.0304v-0.3427c0,-0.4323 -0.0946,-0.7514 -0.2837,-0.9574c-0.1891,-0.2059 -0.4917,-0.3089 -0.9095,-0.3089c-0.4677,0 -0.9972,0.1401 -1.587,0.4221l-0.2613,-0.6382c0.2768,-0.1469 0.5794,-0.2634 0.9095,-0.3462c0.3301,-0.0844 0.6602,-0.1266 0.9904,-0.1266c0.6688,0 1.1657,0.1452 1.4872,0.4373c0.3232,0.2921 0.4831,0.7598 0.4831,1.4031v3.7617h-0.6293zM2.919,44.9371c0.5296,0 0.9457,-0.1419 1.2465,-0.4272c0.3026,-0.2853 0.454,-0.6838 0.454,-1.1971v-0.498l-0.8494,0.0354c-0.6757,0.0236 -1.164,0.1266 -1.4614,0.309c-0.2992,0.1823 -0.4488,0.466 -0.4488,0.8526c0,0.3022 0.0929,0.5319 0.2786,0.6889c0.1857,0.1587 0.4453,0.2364 0.7805,0.2364z" fill="currentColor"/>
<path d="M11.4798,45.5271v-3.5659c0,-0.4491 -0.1049,-0.7851 -0.3129,-1.0063c-0.2081,-0.2212 -0.5347,-0.3309 -0.9783,-0.3309c-0.588,0 -1.0179,0.1553 -1.2912,0.4677c-0.2734,0.3123 -0.4092,0.8256 -0.4092,1.5432v2.8922h-0.8494v-5.5109h0.6912l0.1375,0.7547h0.0413c0.1736,-0.2719 0.4178,-0.4812 0.7324,-0.6315c0.3147,-0.1486 0.6637,-0.2245 1.0505,-0.2245c0.6757,0 1.1846,0.1604 1.5268,0.4795c0.3421,0.3208 0.5123,0.8323 0.5123,1.5364v3.5946h-0.851z" fill="currentColor"/>
<path d="M16.3088,44.9371c0.1495,0 0.2957,-0.0101 0.4349,-0.0321c0.1393,-0.0219 0.2511,-0.0439 0.3336,-0.0675v0.6382c-0.0929,0.0439 -0.2287,0.0794 -0.4075,0.1081c-0.1788,0.0287 -0.3404,0.0422 -0.4831,0.0422c-1.0849,0 -1.6282,-0.5622 -1.6282,-1.685v-3.2789h-0.8047v-0.4018l0.8047,-0.3478l0.3576,-1.1769h0.4917v1.2765h1.6282v0.6483h-1.6282v3.2434c0,0.3326 0.0808,0.5859 0.2407,0.7649c0.1599,0.1806 0.38,0.2684 0.6603,0.2684z" fill="currentColor"/>
<path d="M18.546,38.521c0,-0.1908 0.0482,-0.3309 0.1427,-0.4204c0.0963,-0.0895 0.215,-0.1334 0.3577,-0.1334c0.1358,0 0.2544,0.0456 0.3541,0.1351c0.0998,0.0912 0.1479,0.2296 0.1479,0.417c0,0.1875 -0.0499,0.3276 -0.1479,0.4205c-0.0997,0.0928 -0.2166,0.1384 -0.3541,0.1384c-0.1427,0 -0.2631,-0.0456 -0.3577,-0.1384c-0.0945,-0.0912 -0.1427,-0.2313 -0.1427,-0.4188zM19.4676,45.5262h-0.8494v-5.5109h0.8494z" fill="currentColor"/>
<path d="M24.3009,39.9244c0.7376,0 1.3101,0.2465 1.7176,0.7412c0.4074,0.4947 0.612,1.1937 0.612,2.0986c0,0.905 -0.2063,1.6091 -0.6172,2.1089c-0.4109,0.5014 -0.9817,0.7513 -1.7124,0.7513c-0.3663,0 -0.6998,-0.0659 -1.0007,-0.1992c-0.3026,-0.1317 -0.5553,-0.336 -0.7599,-0.6112h-0.0619l-0.1788,0.7091h-0.6087v-7.824h0.8494v1.9011c0,0.4255 -0.0138,0.8087 -0.0413,1.1464h0.0413c0.3954,-0.547 0.9834,-0.8222 1.7606,-0.8222zM24.1788,40.6234c-0.5811,0 -0.9989,0.1637 -1.2551,0.4896c-0.2562,0.3259 -0.3834,0.878 -0.3834,1.6512c0,0.775 0.1306,1.3288 0.3937,1.6614c0.2631,0.3343 0.6843,0.4998 1.2654,0.4998c0.5227,0 0.9113,-0.1874 1.1674,-0.5606c0.2562,-0.3731 0.3834,-0.9117 0.3834,-1.6107c0,-0.7175 -0.1272,-1.2528 -0.3834,-1.604c-0.2561,-0.3511 -0.6516,-0.5267 -1.188,-0.5267z" fill="currentColor"/>
<path d="M33.3803,42.7659c0,0.8982 -0.2304,1.6006 -0.6912,2.1037c-0.4607,0.5048 -1.0969,0.7564 -1.9101,0.7564c-0.5021,0 -0.9474,-0.1148 -1.3359,-0.3461c-0.3886,-0.2313 -0.6895,-0.5639 -0.901,-0.9962c-0.2114,-0.4322 -0.318,-0.9387 -0.318,-1.5178c0,-0.8983 0.2286,-1.5989 0.686,-2.0987c0.4573,-0.5015 1.0917,-0.7513 1.905,-0.7513c0.7857,0 1.4098,0.2566 1.8723,0.7699c0.4608,0.5099 0.6929,1.2038 0.6929,2.0801zM29.1044,42.7659c0,0.704 0.1427,1.2409 0.4298,1.609c0.2871,0.3681 0.7083,0.5538 1.2654,0.5538c0.5571,0 0.9783,-0.184 1.2671,-0.5504c0.2889,-0.3664 0.4333,-0.905 0.4333,-1.6107c0,-0.7007 -0.1444,-1.2326 -0.4333,-1.5973c-0.2888,-0.363 -0.7135,-0.5453 -1.2774,-0.5453c-0.5571,0 -0.9766,0.179 -1.2603,0.5386c-0.2837,0.3562 -0.4246,0.8915 -0.4246,1.6023z" fill="currentColor"/>
<path d="M39.1089,44.7866h-0.0464c-0.392,0.5605 -0.98,0.8391 -1.7623,0.8391c-0.7342,0 -1.305,-0.2465 -1.7125,-0.7395c-0.4074,-0.493 -0.612,-1.1937 -0.612,-2.1021c0,-0.9083 0.2046,-1.6141 0.6138,-2.1172c0.4092,-0.5031 0.98,-0.7547 1.7107,-0.7547c0.7616,0 1.3445,0.2718 1.752,0.8155h0.067l-0.0361,-0.3968l-0.0206,-0.3866v-2.2422h0.8493v7.824h-0.6911zM37.4085,44.9267c0.5811,0 1.0006,-0.1553 1.262,-0.4643c0.2613,-0.309 0.392,-0.8104 0.392,-1.501v-0.1756c0,-0.7817 -0.1324,-1.3389 -0.3972,-1.6715c-0.2648,-0.3343 -0.6877,-0.4997 -1.2671,-0.4997c-0.4986,0 -0.8803,0.1907 -1.1451,0.5706c-0.2648,0.3799 -0.3971,0.9185 -0.3971,1.6125c0,0.704 0.1306,1.2359 0.3937,1.5938c0.2648,0.3563 0.6499,0.5352 1.1588,0.5352z" fill="currentColor"/>
<path d="M41.2444,40.0143h0.9112l1.2293,3.1438c0.27,0.7176 0.4367,1.2359 0.5021,1.5533h0.0412c0.0447,-0.1705 0.1376,-0.4626 0.2786,-0.878c0.1409,-0.4136 0.6052,-1.6867 1.3909,-3.8191h0.9112l-2.4122,6.2758c-0.239,0.6196 -0.5175,1.0603 -0.8373,1.3203c-0.3198,0.26 -0.7118,0.39 -1.176,0.39c-0.2596,0 -0.5158,-0.0287 -0.7685,-0.0861v-0.6686c0.1874,0.0405 0.3971,0.0608 0.6292,0.0608c0.5846,0 1.0007,-0.3225 1.25,-0.9658l0.3129,-0.7851z" fill="currentColor"/>
<path d="M54.4338,45.5263l-0.1685,-0.7851h-0.0413c-0.2803,0.3461 -0.5588,0.5791 -0.8373,0.7024c-0.2785,0.1215 -0.6258,0.184 -1.0419,0.184c-0.5571,0 -0.9921,-0.1401 -1.3084,-0.4221c-0.3164,-0.2819 -0.4728,-0.6821 -0.4728,-1.2021c0,-1.1127 0.906,-1.6969 2.7182,-1.7492l0.9525,-0.0304v-0.3427c0,-0.4323 -0.0945,-0.7514 -0.2837,-0.9574c-0.1891,-0.2059 -0.4917,-0.3089 -0.9095,-0.3089c-0.4676,0 -0.9972,0.1401 -1.5869,0.4221l-0.2614,-0.6382c0.2768,-0.1469 0.5795,-0.2634 0.9096,-0.3462c0.3301,-0.0844 0.6602,-0.1266 0.9903,-0.1266c0.6688,0 1.1657,0.1452 1.4872,0.4373c0.3232,0.2921 0.4831,0.7598 0.4831,1.4031v3.7617h-0.6292zM52.515,44.9371c0.5295,0 0.9456,-0.1419 1.2465,-0.4272c0.3026,-0.2853 0.4539,-0.6838 0.4539,-1.1971v-0.498l-0.8493,0.0354c-0.6757,0.0236 -1.164,0.1266 -1.4615,0.309c-0.2991,0.1823 -0.4487,0.466 -0.4487,0.8526c0,0.3022 0.0928,0.5319 0.2785,0.6889c0.1857,0.1587 0.4453,0.2364 0.7806,0.2364z" fill="currentColor"/>
<path d="M61.075,45.5271v-3.5659c0,-0.4491 -0.105,-0.7851 -0.313,-1.0063c-0.208,-0.2212 -0.535,-0.3309 -0.978,-0.3309c-0.588,0 -1.018,0.1553 -1.291,0.4677c-0.274,0.3123 -0.41,0.8256 -0.41,1.5432v2.8922h-0.849v-5.5109h0.691l0.138,0.7547h0.041c0.174,-0.2719 0.418,-0.4812 0.732,-0.6315c0.315,-0.1486 0.664,-0.2245 1.051,-0.2245c0.676,0 1.185,0.1604 1.527,0.4795c0.342,0.3208 0.512,0.8323 0.512,1.5364v3.5946h-0.851z" fill="currentColor"/>
<path d="M67.911,44.7866h-0.046c-0.392,0.5605 -0.98,0.8391 -1.763,0.8391c-0.734,0 -1.305,-0.2465 -1.712,-0.7395c-0.408,-0.493 -0.612,-1.1937 -0.612,-2.1021c0,-0.9083 0.204,-1.6141 0.614,-2.1172c0.409,-0.5031 0.98,-0.7547 1.71,-0.7547c0.762,0 1.345,0.2718 1.752,0.8155h0.067l-0.036,-0.3968l-0.02,-0.3866v-2.2422h0.849v7.824h-0.691zM66.211,44.9267c0.581,0 1,-0.1553 1.262,-0.4643c0.261,-0.309 0.392,-0.8104 0.392,-1.501v-0.1756c0,-0.7817 -0.133,-1.3389 -0.398,-1.6715c-0.264,-0.3343 -0.687,-0.4997 -1.267,-0.4997c-0.498,0 -0.88,0.1907 -1.145,0.5706c-0.265,0.3799 -0.397,0.9185 -0.397,1.6125c0,0.704 0.131,1.2359 0.394,1.5938c0.265,0.3563 0.65,0.5352 1.159,0.5352z" fill="currentColor"/>
<path d="M78.382,45.5264h-4.173v-7.3512h4.173v0.7597h-3.303v2.3689h3.103v0.7547h-3.103v2.7048h3.303z" fill="currentColor"/>
<path d="M80.461,38.1752h0.87v6.578h3.303v0.7749h-4.173z" fill="currentColor"/>
<path d="M86.324,45.5264v-7.3512h0.87v7.3512z" fill="currentColor"/>
<path d="M93.892,43.5695c0,0.6466 -0.239,1.1515 -0.717,1.5128c-0.478,0.3613 -1.126,0.5437 -1.946,0.5437c-0.887,0 -1.57,-0.1132 -2.048,-0.3377v-0.824c0.308,0.1267 0.642,0.228 1.004,0.3023c0.363,0.0743 0.721,0.1114 1.075,0.1114c0.581,0 1.018,-0.1081 1.31,-0.3242c0.294,-0.2161 0.44,-0.5166 0.44,-0.9033c0,-0.2549 -0.051,-0.4626 -0.156,-0.6264c-0.105,-0.1621 -0.279,-0.3123 -0.523,-0.4508c-0.244,-0.1384 -0.615,-0.2937 -1.114,-0.4677c-0.696,-0.2448 -1.193,-0.5352 -1.492,-0.8695c-0.3,-0.336 -0.449,-0.7733 -0.449,-1.3119c0,-0.5656 0.216,-1.0181 0.65,-1.3524c0.433,-0.3343 1.007,-0.5031 1.721,-0.5031c0.744,0 1.429,0.1334 2.053,0.4018l-0.272,0.7446c-0.617,-0.2549 -1.219,-0.3816 -1.802,-0.3816c-0.461,0 -0.822,0.098 -1.08,0.2921c-0.259,0.1942 -0.388,0.4643 -0.388,0.8088c0,0.2549 0.048,0.4643 0.143,0.6264c0.096,0.1621 0.256,0.3123 0.483,0.4474c0.227,0.1351 0.574,0.2853 1.042,0.4508c0.785,0.2752 1.325,0.5707 1.621,0.8847c0.297,0.314 0.445,0.7226 0.445,1.2258z" fill="currentColor"/>
<path d="M100.547,45.5267l-0.932,-2.3384h-3l-0.922,2.3384h-0.88l2.959,-7.3817h0.733l2.945,7.3817zM99.344,42.4184l-0.87,-2.2777c-0.114,-0.2887 -0.229,-0.6416 -0.349,-1.0603c-0.076,0.3225 -0.183,0.6754 -0.324,1.0603l-0.88,2.2777z" fill="currentColor"/>
<path d="M108.284,45.6264c-0.83,0 -1.484,-0.2482 -1.963,-0.7446c-0.48,-0.4964 -0.719,-1.1853 -0.719,-2.0666c0,-0.8881 0.224,-1.5938 0.669,-2.1173c0.445,-0.5234 1.044,-0.7851 1.795,-0.7851c0.703,0 1.26,0.228 1.669,0.6822c0.41,0.4541 0.614,1.0535 0.614,1.7981v0.5285h-3.867c0.018,0.6466 0.184,1.1379 0.499,1.4739c0.316,0.336 0.76,0.5032 1.334,0.5032c0.604,0 1.202,-0.1233 1.792,-0.3715v0.7446c-0.301,0.1266 -0.585,0.2178 -0.853,0.2735c-0.268,0.0541 -0.591,0.0811 -0.97,0.0811zM108.054,40.6135c-0.451,0 -0.81,0.1435 -1.078,0.4323c-0.268,0.2887 -0.427,0.6871 -0.473,1.197h2.935c0,-0.5267 -0.12,-0.9286 -0.358,-1.2089c-0.24,-0.2802 -0.583,-0.4204 -1.026,-0.4204z" fill="currentColor"/>
<path d="M113.358,42.7049l-1.951,-2.6896h0.967l1.481,2.1122l1.475,-2.1122h0.958l-1.952,2.6896l2.053,2.8213h-0.963l-1.571,-2.232l-1.587,2.232h-0.963z" fill="currentColor"/>
<path d="M120.532,45.6264c-0.366,0 -0.7,-0.0659 -1,-0.1993c-0.303,-0.1316 -0.556,-0.3359 -0.76,-0.6112h-0.062c0.041,0.3225 0.062,0.6264 0.062,0.9152v2.2675h-0.85v-7.9861h0.692l0.116,0.7547h0.042c0.218,-0.3022 0.472,-0.52 0.763,-0.6534c0.291,-0.1334 0.622,-0.201 0.999,-0.201c0.744,0 1.319,0.2499 1.723,0.7497c0.404,0.4998 0.607,1.2004 0.607,2.102c0,0.905 -0.207,1.6091 -0.618,2.1089c-0.412,0.5031 -0.985,0.753 -1.714,0.753zM120.408,40.6237c-0.574,0 -0.988,0.1553 -1.244,0.4676c-0.256,0.3124 -0.387,0.8088 -0.394,1.4892v0.1857c0,0.775 0.131,1.3288 0.394,1.6614c0.263,0.3343 0.684,0.4998 1.265,0.4998c0.485,0 0.865,-0.1925 1.14,-0.5774c0.275,-0.385 0.413,-0.9168 0.413,-1.5939c0,-0.6872 -0.138,-1.214 -0.413,-1.582c-0.275,-0.3681 -0.662,-0.5504 -1.161,-0.5504z" fill="currentColor"/>
<path d="M127.137,45.6264c-0.831,0 -1.484,-0.2482 -1.964,-0.7446c-0.48,-0.4964 -0.719,-1.1853 -0.719,-2.0666c0,-0.8881 0.224,-1.5938 0.669,-2.1173c0.446,-0.5234 1.044,-0.7851 1.795,-0.7851c0.703,0 1.261,0.228 1.67,0.6822c0.409,0.4541 0.613,1.0535 0.613,1.7981v0.5285h-3.866c0.017,0.6466 0.184,1.1379 0.498,1.4739c0.317,0.336 0.76,0.5032 1.335,0.5032c0.603,0 1.201,-0.1233 1.791,-0.3715v0.7446c-0.301,0.1266 -0.584,0.2178 -0.853,0.2735c-0.266,0.0541 -0.589,0.0811 -0.969,0.0811zM126.906,40.6135c-0.45,0 -0.81,0.1435 -1.078,0.4323c-0.268,0.2887 -0.426,0.6871 -0.473,1.197h2.935c0,-0.5267 -0.12,-0.9286 -0.357,-1.2089c-0.241,-0.2802 -0.581,-0.4204 -1.027,-0.4204z" fill="currentColor"/>
<path d="M133.631,39.9149c0.249,0 0.472,0.0202 0.67,0.0607l-0.119,0.775c-0.232,-0.0506 -0.436,-0.076 -0.613,-0.076c-0.454,0 -0.843,0.1807 -1.166,0.5437c-0.323,0.3613 -0.483,0.8138 -0.483,1.3524v2.9564h-0.85v-5.5109h0.702l0.098,1.0214h0.041c0.208,-0.3579 0.459,-0.6348 0.753,-0.829c0.291,-0.1975 0.614,-0.2937 0.967,-0.2937z" fill="currentColor"/>
<path d="M137.583,44.9371c0.149,0 0.296,-0.0101 0.435,-0.0321c0.139,-0.0219 0.251,-0.0439 0.333,-0.0675v0.6382c-0.092,0.0439 -0.228,0.0794 -0.407,0.1081c-0.179,0.0287 -0.341,0.0422 -0.483,0.0422c-1.085,0 -1.628,-0.5622 -1.628,-1.685v-3.2789h-0.805v-0.4018l0.805,-0.3478l0.357,-1.1769h0.492v1.2765h1.628v0.6483h-1.628v3.2434c0,0.3326 0.081,0.5859 0.241,0.7649c0.16,0.1806 0.38,0.2684 0.66,0.2684z" fill="currentColor"/>
<path d="M143.511,44.0227c0,0.5133 -0.194,0.9084 -0.584,1.187c-0.391,0.2786 -0.936,0.417 -1.639,0.417c-0.744,0 -1.324,-0.1148 -1.741,-0.3461v-0.775c0.269,0.1334 0.558,0.2398 0.868,0.3174c0.309,0.0777 0.607,0.1165 0.894,0.1165c0.443,0 0.786,-0.0692 1.025,-0.2093c0.239,-0.1385 0.357,-0.3512 0.357,-0.6366c0,-0.2144 -0.094,-0.3984 -0.283,-0.5504c-0.19,-0.1519 -0.559,-0.3326 -1.109,-0.5403c-0.523,-0.1908 -0.894,-0.3579 -1.115,-0.4997c-0.22,-0.1419 -0.383,-0.3039 -0.491,-0.4863c-0.109,-0.1807 -0.162,-0.3968 -0.162,-0.6483c0,-0.4492 0.186,-0.8037 0.559,-1.0637c0.371,-0.26 0.882,-0.39 1.532,-0.39c0.603,0 1.195,0.1198 1.771,0.3613l-0.303,0.6787c-0.564,-0.2279 -1.074,-0.3411 -1.532,-0.3411c-0.402,0 -0.706,0.0625 -0.911,0.1858c-0.205,0.1232 -0.308,0.2954 -0.308,0.5132c0,0.1469 0.038,0.2736 0.115,0.3766c0.078,0.1046 0.202,0.2026 0.372,0.2971c0.17,0.0946 0.498,0.2296 0.983,0.4069c0.666,0.2381 1.116,0.4778 1.35,0.7193c0.235,0.2414 0.352,0.5453 0.352,0.91z" fill="currentColor"/>
</g></svg>