<svg viewBox="0 0 266.5278 200" fill="none" xmlns="http://www.w3.org/2000/svg" xmlns:xlink="http://www.w3.org/1999/xlink" x="0" y="0"><defs><mask id="path-576-inside-1_7842_53597" fill="white">
<path d="M28.893,102.403c-6.4707,1.78 -11.4929,7.79 -12.5475,15.04l-0.0026,-0.01c-3.8348,26.25 34.4764,28.14 33.4249,2.11c-0.4043,-9.94 -10.3827,-11.76 -6.1869,-19.74c1.5889,-3.03 16.8085,1.83 22.6889,-0.42l3.1577,22.46c-0.0975,-0.67 -11.103,10.87 -11.735,15.22c-0.7115,4.89 0.4029,9.96 3.0621,13.95c7.7903,11.68 24.8114,9.01 29.3674,-4.53c2.361,-7.01 0.595,-15.09 -4.401,-20.14c-1.2194,-1.24 -12.9109,-6.49 -12.7292,-5.22c-0.9575,-6.77 -0.4989,-17.24 -3.3827,-23.3c3.2906,-1.85 8.0811,-10.12 10.922,-7.87c2.9925,2.37 5.9879,4.75 8.9799,7.11l20.08,15.89c-1.418,-1.11 -5.808,15.92 -5.887,17.76c-0.337,7.65 1.97,15.31 6.433,21.2c9.349,12.34 26.342,14.61 38.066,4.99c4.285,-3.52 5.216,0.02 9.177,3.79c4.888,4.65 0.084,5.61 -1.124,12.12c-3.033,16.32 12.955,29.74 26.434,22.13c4.667,-2.63 7.048,-11.66 11.364,-9.84c4.467,1.88 2.792,9.15 6.866,13.3c11.552,11.75 29.393,-4.99 20.646,-19.41c-3.491,-5.75 -10.299,-8.16 -16.182,-5.74c-4.748,1.97 -6.347,9.69 -10.476,7.95c-1.739,-0.73 -5.323,-15.22 -4.979,-15.52c2.445,-2.16 4.896,-4.31 7.341,-6.46c3.841,-3.39 12.129,-14.12 17.007,-14.98c10.2,11.02 27.415,-1.16 22.622,-15.95c-4.78,-14.72 -24.963,-12.23 -26.672,3.28c-0.693,6.3 3.587,7.96 -0.994,12c-3.485,3.06 -6.964,6.13 -10.449,9.19c-3.223,2.85 -6.453,5.68 -9.676,8.52c-3.108,2.74 -4.562,-1.76 -8.133,-3.29c-8.497,-3.67 -18.369,2.42 -18.342,2.44c-2.975,-2.84 -5.957,-5.68 -8.938,-8.51c0.757,0.71 5.751,-16.86 5.77,-19.42c0.045,-6.15 2.54,-4.68 7.924,-5.89c6.348,-1.42 7.236,6.13 13.691,8.42c7.405,2.61 15.677,-0.81 19.707,-8.1c8.404,-15.2 -6.227,-33.89 -21.11,-27.02c-4.677,2.16 -8.297,6.63 -9.726,12c-1.494,5.63 0.828,4.59 -2.594,5.35c-2.216,0.5 -8.262,3.21 -10.345,2.32c-5.655,-13.8 -20.064,-21.08 -33.245,-16.85c-3.74,1.2 -10.232,8.43 -13.002,6.23l-9.141,-7.23l-19.9416,-15.79c0,0 2.3645,-17.69 1.5846,-21.12c-1.6762,-7.38 -6.0144,-13.89 -11.9155,-17.84c-5.2846,-3.55 -2.8489,-4.36 -0.444,-10.59c1.7598,-4.58 1.4871,-8.64 5.9532,-7.73c16.1853,3.29 26.5993,-19.4 14.5483,-31.79c-11.7597,-12.09 -31.093,0 -27.9847,17.2c1.2056,6.69 8.5066,9.46 6.2785,15.24l-4.9437,12.83c-1.0622,2.74 -10.2657,0.56 -13.5522,1.46c-6.7037,1.85 -12.6043,6.63 -16.197,13.13c-4.3475,7.87 -5.0438,17.82 -1.8287,26.31c1.9518,5.16 9.628,10.31 7.2578,14.82c-3.6428,6.92 -4.7333,2.66 -11.546,4.54z"/>
</mask></defs><g id="Vector_311" opacity="0.2">
<mask id="path-576-inside-1_7842_53597" fill="white">
<path d="M43.44 5298.11C36.9693 5299.89 31.9471 5305.9 30.8925 5313.15L30.8899 5313.14C27.0551 5339.39 65.3663 5341.28 64.3148 5315.25C63.9105 5305.31 53.9321 5303.49 58.1279 5295.51C59.7168 5292.48 74.9364 5297.34 80.8168 5295.09L83.9745 5317.55C83.877 5316.88 72.8715 5328.42 72.2395 5332.77C71.528 5337.66 72.6424 5342.73 75.3016 5346.72C83.0919 5358.4 100.113 5355.73 104.669 5342.19C107.03 5335.18 105.264 5327.1 100.268 5322.05C99.0486 5320.81 87.3571 5315.56 87.5388 5316.83C86.5813 5310.06 87.0399 5299.59 84.1561 5293.53C87.4467 5291.68 92.2372 5283.41 95.0781 5285.66C98.0706 5288.03 101.066 5290.41 104.058 5292.77L124.138 5308.66C122.72 5307.55 118.33 5324.58 118.251 5326.42C117.914 5334.07 120.221 5341.73 124.684 5347.62C134.033 5359.96 151.026 5362.23 162.75 5352.61C167.035 5349.09 167.966 5352.63 171.927 5356.4C176.815 5361.05 172.011 5362.01 170.803 5368.52C167.77 5384.84 183.758 5398.26 197.237 5390.65C201.904 5388.02 204.285 5378.99 208.601 5380.81C213.068 5382.69 211.393 5389.96 215.467 5394.11C227.019 5405.86 244.86 5389.12 236.113 5374.7C232.622 5368.95 225.814 5366.54 219.931 5368.96C215.183 5370.93 213.584 5378.65 209.455 5376.91C207.716 5376.18 204.132 5361.69 204.476 5361.39C206.921 5359.23 209.372 5357.08 211.817 5354.93C215.658 5351.54 223.946 5340.81 228.824 5339.95C239.024 5350.97 256.239 5338.79 251.446 5324C246.666 5309.28 226.483 5311.77 224.774 5327.28C224.081 5333.58 228.361 5335.24 223.78 5339.28C220.295 5342.34 216.816 5345.41 213.331 5348.47C210.108 5351.32 206.878 5354.15 203.655 5356.99C200.547 5359.73 199.093 5355.23 195.522 5353.7C187.025 5350.03 177.153 5356.12 177.18 5356.14C174.205 5353.3 171.223 5350.46 168.242 5347.63C168.999 5348.34 173.993 5330.77 174.012 5328.21C174.057 5322.06 176.552 5323.53 181.936 5322.32C188.284 5320.9 189.172 5328.45 195.627 5330.74C203.032 5333.35 211.304 5329.93 215.334 5322.64C223.738 5307.44 209.107 5288.75 194.224 5295.62C189.547 5297.78 185.927 5302.25 184.498 5307.62C183.004 5313.25 185.326 5312.21 181.904 5312.97C179.688 5313.47 173.642 5316.18 171.559 5315.29C165.904 5301.49 151.495 5294.21 138.314 5298.44C134.574 5299.64 128.082 5306.87 125.312 5304.67L116.171 5297.44L96.2294 5281.65C96.2294 5281.65 98.5939 5263.96 97.814 5260.53C96.1378 5253.15 91.7996 5246.64 85.8985 5242.69C80.6139 5239.14 83.0496 5238.33 85.4545 5232.1C87.2143 5227.52 86.9416 5223.46 91.4077 5224.37C107.593 5227.66 118.007 5204.97 105.956 5192.58C94.1963 5180.49 74.863 5192.58 77.9713 5209.78C79.1769 5216.47 86.4779 5219.24 84.2498 5225.02L79.3061 5237.85C78.2439 5240.59 69.0404 5238.41 65.7539 5239.31C59.0502 5241.16 53.1496 5245.94 49.5569 5252.44C45.2094 5260.31 44.5131 5270.26 47.7282 5278.75C49.68 5283.91 57.3562 5289.06 54.986 5293.57C51.3432 5300.49 50.2527 5296.23 43.44 5298.11Z"/>
</mask>
<path d="M75.6082,24.183l-0.4026,-0.3h0.0001zM79.7335,24.993l0.0117,0.51h-0.0396h-0.0391zM83.6374,-3.537l0.1204,-0.49h0.0002zM72.3702,22.383l0.4704,0.13l-0.1464,0.74l-0.5926,-0.45zM75.6041,24.193l0.4023,0.3l-0.8176,-0.58zM231.373,125.773l0.35,-0.34l-0.592,0.78zM214.912,138.573l0.353,0.37l-0.463,0.52l-0.316,-0.67zM217.126,141.723l-0.281,0.41l-0.511,-0.42l0.491,-0.41zM218.614,142.943l-0.242,0.44l-0.02,-0.01l-0.019,-0.02zM231.366,125.773l-0.35,0.34l0.592,-0.78zM73.603,125.463l-0.4152,-0.28l0.6844,-1.24l0.2058,1.46zM73.9474,140.993l0.0931,0.51h-0.0004zM70.0494,126.233l-0.1742,-0.49l0.5586,-0.21l0.0906,0.64zM63.0222,132.443l-0.4189,-0.27l0.0037,-0.01zM65.0108,150.373l-0.3356,0.36h-0.0003zM81.3135,152.393l-0.2696,-0.44h0.0006zM73.5989,125.473l0.0447,0.52l-0.9301,0.05l0.4702,-0.85zM188.65,131.703l0.106,0.51v0zM183.874,102.683l0.106,0.51h-0.001zM169.586,120.823l-0.115,-0.51l0.491,-0.11l0.096,0.54zM158.278,123.363l-0.461,0.12l-0.144,-0.52l0.49,-0.11zM203.374,195.483l-0.415,-0.28l0.298,-0.54l0.439,0.45zM220.152,185.873l0.476,-0.05v0zM200.724,183.653l-0.098,0.51l-0.533,-0.15l0.176,-0.54zM200.152,187.683l-0.48,-0.01l-0.019,-0.69l0.618,0.2zM203.37,195.483l0.415,0.28l-0.298,0.54l-0.44,-0.45zM163.147,166.183l-0.393,-0.31l0.253,-0.38l0.382,0.26zM161.642,168.443l-0.415,-0.28l0.01,-0.02l0.011,-0.02zM186.94,185.353l0.416,0.28h-0.001zM165.877,163.513l-0.265,0.42l-0.569,-0.43l0.546,-0.41zM163.154,166.193l0.242,-0.44l0.063,0.04l0.049,0.06zM115.094,151.883l-0.322,0.37l-0.289,-0.3l0.196,-0.35zM155.693,129.243l-0.116,-0.5l0.533,-0.12l0.06,0.59zM155.029,125.323l0.465,-0.11l0.123,0.51l-0.473,0.11zM145.899,125.543l0.258,-0.43h0.001zM153.348,120.403l0.431,-0.21l0.263,0.59l-0.579,0.13zM115.098,151.873l0.322,-0.37l0.29,0.29l-0.197,0.36zM53.9649,96.693l-0.4152,-0.28l0.1598,-0.29l0.3151,0.06zM74.5825,55.083l0.3556,-0.34h0.0001zM47.8812,49.123l-0.2224,-0.47h0.0001zM38.0926,58.803l0.4148,0.28l-0.0122,0.02l-0.0143,0.02zM35.0427,75.763l-0.4749,0.06h-0.0001zM43.6389,91.753l0.4204,0.27l-0.2677,0.51l-0.4416,-0.38zM53.7897,76.443l0.232,-0.45h0.001zM46.665,93.953l-0.2204,0.45l-0.4398,-0.26l0.2398,-0.46zM53.9608,96.703l0.4152,0.27l-0.16,0.29l-0.3154,-0.05zM30.8569,134.763l-0.06,0.51l-0.721,-0.13l0.3657,-0.66zM39.4331,107.713l-0.4201,-0.27l0.2299,-0.44l0.4175,0.26zM36.0204,106.243l0.095,-0.51l0.6439,0.17l-0.3187,0.61zM23.5804,110.133l-0.3618,-0.36h0.0055l0.0057,-0.01zM30.861,134.753l0.06,-0.51l0.721,0.13l-0.3657,0.66zM75.6082,24.183l0.0671,-0.51l4.1253,0.81l-0.0671,0.51l-0.067,0.51l-4.1254,-0.81zM79.7335,24.993l-0.0116,-0.52c7.1841,0.11 11.5971,-5.62 12.4731,-12.02c0.876,-6.39 -1.803,-13.28 -8.6781,-15.49l0.1205,-0.5l0.1206,-0.49c7.472,2.4 10.315,9.9 9.388,16.67c-0.926,6.77 -5.639,12.99 -13.4008,12.86zM83.6374,-3.537l-0.1203,0.5c-6.7372,-2.17 -12.3244,1.83 -14.8036,7.57c-2.4795,5.73 -1.7821,13.04 3.9253,17.43l-0.2686,0.42l-0.2686,0.42c-6.1963,-4.77 -6.883,-12.68 -4.2619,-18.74c2.6216,-6.06 8.6199,-10.44 15.9181,-8.09zM72.3702,22.383l-0.4703,-0.13c0.3244,-1.65 0.9291,-2.79 1.657,-3.43c0.7329,-0.64 1.6081,-0.79 2.349,-0.4c0.7356,0.39 1.2013,1.25 1.2592,2.31c0.0578,1.06 -0.2817,2.35 -1.1544,3.75l-0.4025,-0.3l-0.4025,-0.3c0.7966,-1.28 1.0423,-2.36 1,-3.13c-0.0422,-0.77 -0.3618,-1.22 -0.6978,-1.4c-0.3307,-0.18 -0.8134,-0.17 -1.3257,0.29c-0.5173,0.45 -1.0451,1.35 -1.3416,2.87zM75.6082,24.183l0.4026,0.3c0.006,-0.01 0.0105,-0.01 0.0132,-0.02c0.0014,0 0.0024,0 0.003,0c0.0005,-0.01 0.0009,-0.01 0.0006,-0.01c-0.0001,0 -0.0008,0.01 -0.0017,0.01c-0.0009,0 -0.0023,0 -0.004,0.01c-0.0034,0 -0.0087,0.01 -0.0155,0.02l-0.4023,-0.3l-0.4023,-0.3c-0.0061,0.01 -0.0107,0.02 -0.0134,0.02c-0.0024,0.01 -0.0044,0.01 -0.0037,0.01c0,0 0.0008,0 0.0016,0c0.0009,0 0.0023,-0.01 0.004,-0.01c0.0033,-0.01 0.0085,-0.02 0.0153,-0.03zM75.6041,24.193l-0.4153,-0.28h0.0042l0.4152,0.27l0.4153,0.28l-0.0042,0.01zM231.373,125.773l-0.35,0.34c-3.695,-4.39 -8.86,-4.07 -12.527,-1.23c-3.668,2.84 -5.701,8.11 -3.158,13.47l-0.426,0.22l-0.426,0.22c-2.81,-5.92 -0.518,-11.7 3.43,-14.76c3.948,-3.06 9.69,-3.5 13.807,1.4zM214.912,138.573l-0.353,-0.37c1.58,-1.78 2.996,-2.88 4.135,-3.41c0.568,-0.26 1.093,-0.4 1.55,-0.39c0.462,0.01 0.899,0.18 1.189,0.57c0.285,0.39 0.35,0.89 0.284,1.39c-0.067,0.5 -0.271,1.06 -0.598,1.65c-0.657,1.19 -1.857,2.62 -3.692,4.13l-0.301,-0.42l-0.301,-0.42c1.778,-1.46 2.884,-2.79 3.462,-3.84c0.29,-0.53 0.435,-0.96 0.478,-1.29c0.044,-0.33 -0.02,-0.5 -0.075,-0.57c-0.049,-0.07 -0.162,-0.16 -0.43,-0.16c-0.273,-0.01 -0.66,0.07 -1.155,0.31c-0.989,0.46 -2.308,1.46 -3.84,3.19zM217.126,141.723l0.282,-0.41l1.488,1.23l-0.282,0.4l-0.281,0.41l-1.488,-1.22zM218.614,142.943l0.242,-0.43c4.643,3.11 9.533,1.28 12.366,-2.53c2.834,-3.81 3.502,-9.46 -0.206,-13.87l0.35,-0.34l0.35,-0.34c4.113,4.89 3.31,11.12 0.265,15.22c-3.045,4.09 -8.442,6.2 -13.609,2.73zM231.366,125.773l0.242,-0.44h0.006l-0.241,0.44l-0.242,0.44l-0.007,-0.01zM73.603,125.463l0.475,-0.06c0,0 0,0 0.0002,0c0.0001,0 0.0005,0.01 0.0008,0.01l-0.4749,0.06l-0.475,0.06c0,0 0,0 -0.0002,0c-0.0001,-0.01 -0.0005,-0.01 -0.0009,-0.01zM73.6041,125.473l0.4748,-0.06c0.0805,0.56 0.3479,1.75 0.6658,3.3c0.3135,1.52 0.667,3.35 0.9035,5.13c0.2353,1.76 0.3608,3.52 0.1995,4.89c-0.0805,0.69 -0.237,1.32 -0.5162,1.8c-0.2877,0.51 -0.7112,0.87 -1.291,0.97l-0.0931,-0.51l-0.0931,-0.52c0.2677,-0.04 0.4795,-0.2 0.6536,-0.5c0.1824,-0.32 0.314,-0.79 0.3863,-1.41c0.1445,-1.22 0.0352,-2.87 -0.1972,-4.62c-0.2311,-1.73 -0.5781,-3.53 -0.8901,-5.04c-0.3076,-1.5 -0.5907,-2.76 -0.6777,-3.37zM73.9474,140.993l0.0927,0.51c-0.5796,0.1 -1.0936,-0.11 -1.5174,-0.5c-0.4068,-0.38 -0.7292,-0.93 -0.992,-1.55c-0.5267,-1.25 -0.8863,-2.95 -1.1446,-4.7c-0.2597,-1.75 -0.4229,-3.6 -0.5414,-5.14c-0.1201,-1.56 -0.192,-2.77 -0.2703,-3.32l0.475,-0.06l0.475,-0.06c0.085,0.6 0.1619,1.89 0.2781,3.4c0.1179,1.53 0.2787,3.34 0.5325,5.06c0.2554,1.72 0.599,3.31 1.0673,4.42c0.2346,0.55 0.4826,0.94 0.7319,1.17c0.2322,0.22 0.46,0.3 0.7205,0.25zM70.0494,126.233l0.1742,0.49c-2.8067,1.06 -5.2397,3.2 -6.7862,6l-0.4152,-0.28l-0.4152,-0.28c1.6543,-2.99 4.2561,-5.29 7.2682,-6.42zM63.0222,132.443l0.4188,0.27c-2.2698,4.26 -2.605,7.65 -1.9985,10.42c0.61,2.78 2.1901,5 3.9042,6.88l-0.3359,0.36l-0.3359,0.36c-1.7664,-1.94 -3.4955,-4.34 -4.1671,-7.4c-0.6751,-3.08 -0.2644,-6.74 2.0956,-11.16zM65.0108,150.373l0.3356,-0.36c4.122,4.52 10.7365,5.36 15.6975,1.94l0.2696,0.44l0.2696,0.44c-5.3212,3.67 -12.4441,2.78 -16.9079,-2.1zM81.3135,152.393l-0.269,-0.44c5.4675,-3.75 6.8225,-10.43 5.1945,-16.1c-1.6277,-5.67 -6.2073,-10.24 -12.5897,-9.86l-0.0452,-0.52l-0.0453,-0.52c6.916,-0.41 11.86,4.58 13.5972,10.63c1.736,6.05 0.297,13.23 -5.5735,17.25zM73.6041,125.473l0.0447,0.52c0.0002,0 0.0003,0 -0.0008,0c-0.0007,0 -0.0024,0 -0.0044,0l-0.0447,-0.52l-0.0447,-0.52c-0.0002,0 -0.0003,0 0.0007,0c0.0007,0 0.0025,0 0.0044,0zM73.5989,125.473l-0.4152,-0.28l0.0041,-0.01l0.4152,0.28l0.4153,0.28l-0.0042,0.01zM188.65,131.703l-0.105,-0.51c8.239,-1.65 11.175,-9.44 9.987,-16.48c-0.594,-3.52 -2.216,-6.81 -4.684,-9.01c-2.457,-2.19 -5.784,-3.33 -9.868,-2.51l-0.106,-0.51l-0.106,-0.51c4.354,-0.87 7.981,0.34 10.674,2.74c2.682,2.39 4.406,5.93 5.035,9.65c1.257,7.46 -1.857,15.87 -10.721,17.65zM183.874,102.683l0.105,0.51c-8.237,1.65 -11.173,9.43 -9.986,16.47c0.594,3.52 2.215,6.81 4.683,9.01c2.456,2.19 5.784,3.33 9.869,2.52l0.105,0.51l0.106,0.51c-4.355,0.87 -7.981,-0.35 -10.674,-2.75c-2.682,-2.39 -4.406,-5.92 -5.034,-9.65c-1.256,-7.45 1.859,-15.87 10.721,-17.64zM169.586,120.823l0.115,0.51l-11.308,2.53l-0.115,-0.5l-0.115,-0.51l11.308,-2.54zM158.278,123.363l0.46,-0.13c0.006,0.02 0.051,0.13 0.355,0.25c0.291,0.11 0.715,0.17 1.253,0.19c1.067,0.03 2.458,-0.15 3.837,-0.46c1.378,-0.31 2.71,-0.76 3.662,-1.25c0.479,-0.24 0.835,-0.48 1.053,-0.71c0.232,-0.23 0.217,-0.34 0.216,-0.35l0.472,-0.08l0.472,-0.08c0.095,0.54 -0.184,0.98 -0.487,1.28c-0.318,0.33 -0.771,0.62 -1.287,0.88c-1.039,0.54 -2.446,1 -3.867,1.33c-1.421,0.32 -2.892,0.51 -4.06,0.48c-0.581,-0.02 -1.119,-0.09 -1.547,-0.26c-0.415,-0.15 -0.849,-0.44 -0.993,-0.97zM203.374,195.483l0.322,-0.37c3.205,3.26 7.47,3.38 10.826,1.46c3.357,-1.93 5.733,-5.87 5.153,-10.65l0.477,-0.05l0.476,-0.05c0.638,5.27 -1.987,9.58 -5.629,11.67c-3.645,2.09 -8.377,1.99 -11.947,-1.64zM220.152,185.873l-0.477,0.05c-0.651,-5.35 -4.439,-8.39 -8.507,-8.85c-4.073,-0.45 -8.368,1.71 -9.989,6.77l-0.455,-0.19l-0.455,-0.18c1.78,-5.56 6.513,-7.92 10.96,-7.43c4.453,0.5 8.678,3.87 9.399,9.78zM200.724,183.653l0.098,-0.5c1.161,0.31 2.051,0.84 2.645,1.47c0.589,0.63 0.913,1.39 0.837,2.12c-0.078,0.75 -0.566,1.33 -1.317,1.59c-0.736,0.26 -1.735,0.23 -2.954,-0.15l0.119,-0.5l0.119,-0.5c1.109,0.36 1.894,0.34 2.386,0.17c0.477,-0.17 0.662,-0.47 0.692,-0.77c0.033,-0.31 -0.101,-0.76 -0.543,-1.23c-0.437,-0.47 -1.152,-0.92 -2.18,-1.19zM200.152,187.683h0.48c0.079,2.83 1.188,5.53 3.06,7.43l-0.322,0.37l-0.323,0.37c-2.074,-2.11 -3.29,-5.08 -3.375,-8.18zM203.37,195.483l-0.415,-0.27l0.004,-0.01l0.415,0.28l0.415,0.27l-0.004,0.01zM163.147,166.183l0.394,0.32l-1.506,2.25l-0.393,-0.31l-0.394,-0.32l1.506,-2.25zM161.642,168.443l0.415,0.28c-2.417,4.37 -2.679,8.64 -1.596,12.32c1.087,3.7 3.539,6.83 6.608,8.88c3.07,2.06 6.731,3.01 10.217,2.38c3.474,-0.64 6.811,-2.86 9.24,-7.23l0.414,0.28l0.415,0.28c-2.558,4.61 -6.118,7.01 -9.873,7.69c-3.744,0.68 -7.646,-0.35 -10.895,-2.52c-3.25,-2.17 -5.873,-5.51 -7.041,-9.48c-1.171,-3.98 -0.866,-8.55 1.681,-13.16zM186.94,185.353l-0.415,-0.27c3.928,-7.11 1.943,-14.77 -2.585,-19.47c-4.527,-4.7 -11.562,-6.43 -17.775,-1.67l-0.288,-0.43l-0.288,-0.42c6.631,-5.08 14.181,-3.22 19.003,1.79c4.82,5 6.945,13.19 2.764,20.75zM165.877,163.513l0.265,-0.42c1.87,1.42 3.043,2.77 3.632,3.93c0.573,1.13 0.666,2.26 -0.023,2.93c-0.65,0.63 -1.742,0.57 -2.89,0.03c-1.185,-0.55 -2.59,-1.66 -4.061,-3.46l0.354,-0.33l0.354,-0.34c1.404,1.71 2.693,2.71 3.704,3.18c1.048,0.49 1.652,0.36 1.882,0.14c0.19,-0.19 0.344,-0.69 -0.158,-1.68c-0.487,-0.96 -1.526,-2.2 -3.324,-3.56zM163.154,166.193l-0.242,0.44l-0.007,-0.01l0.242,-0.44l0.242,-0.43h0.007zM115.094,151.883l0.322,-0.37c7.882,8.02 18.414,8.42 26.71,3.82c8.296,-4.61 14.29,-14.19 13.089,-26.05l0.478,-0.04l0.477,-0.03c1.249,12.34 -4.994,22.28 -13.578,27.04c-8.585,4.77 -19.578,4.39 -27.82,-4zM155.693,129.243l0.115,0.51c-2.738,0.62 -4.858,0.83 -6.33,0.77c-0.732,-0.03 -1.335,-0.14 -1.782,-0.32c-0.425,-0.18 -0.858,-0.49 -0.945,-1.02c-0.084,-0.52 0.2,-0.96 0.528,-1.29c0.349,-0.36 0.869,-0.71 1.536,-1.06c1.341,-0.69 3.372,-1.41 6.098,-2.02l0.116,0.51l0.115,0.51c-2.685,0.6 -4.636,1.29 -5.885,1.94c-0.627,0.33 -1.054,0.63 -1.307,0.89c-0.275,0.28 -0.251,0.4 -0.255,0.38c-0.007,-0.05 -0.021,0.06 0.308,0.19c0.305,0.12 0.79,0.22 1.476,0.25c1.363,0.06 3.398,-0.14 6.096,-0.74zM155.029,125.323l-0.465,0.11c-0.074,-0.31 -0.192,-0.46 -0.311,-0.54c-0.13,-0.1 -0.328,-0.16 -0.627,-0.16c-0.617,0.01 -1.438,0.27 -2.396,0.62c-0.923,0.33 -1.955,0.73 -2.898,0.94c-0.927,0.2 -1.919,0.24 -2.691,-0.32l0.258,-0.43l0.259,-0.43c0.419,0.31 1.064,0.35 1.95,0.16c0.868,-0.19 1.822,-0.56 2.785,-0.91c0.928,-0.34 1.894,-0.66 2.691,-0.66c0.408,0 0.823,0.08 1.178,0.33c0.368,0.26 0.609,0.67 0.732,1.18zM145.899,125.543l-0.258,0.43c-0.583,-0.43 -0.996,-0.89 -1.167,-1.4c-0.185,-0.56 -0.054,-1.06 0.229,-1.47c0.269,-0.39 0.688,-0.72 1.155,-1c0.474,-0.28 1.034,-0.53 1.623,-0.75c2.339,-0.87 5.357,-1.37 5.751,-1.46l0.116,0.51l0.115,0.51c-0.475,0.1 -3.372,0.58 -5.635,1.42c-0.562,0.21 -1.07,0.44 -1.483,0.69c-0.421,0.25 -0.707,0.49 -0.863,0.72c-0.143,0.2 -0.156,0.36 -0.105,0.51c0.065,0.2 0.268,0.49 0.78,0.86zM153.348,120.403l-0.432,0.21c-4.075,-9.12 -10.105,-13.38 -16.417,-14.31c-6.34,-0.93 -13.041,1.49 -18.42,5.95c-5.379,4.45 -9.382,10.89 -10.373,17.88c-0.987,6.97 1.006,14.55 7.714,21.37l-0.322,0.37l-0.322,0.37c-6.938,-7.06 -9.058,-14.98 -8.02,-22.31c1.034,-7.29 5.193,-13.94 10.719,-18.51c5.525,-4.58 12.468,-7.13 19.117,-6.15c6.677,0.98 12.98,5.51 17.187,14.92zM115.098,151.873l0.415,0.28l-0.004,0.01l-0.415,-0.28l-0.415,-0.28l0.004,-0.01zM53.9649,96.693l0.0597,-0.51c10.1344,1.8 18.6183,-4.15 22.8581,-12.71c4.2399,-8.56 4.1893,-19.64 -2.6559,-28.06l0.3557,-0.33l0.3557,-0.34c7.1701,8.82 7.1829,20.39 2.7961,29.25c-4.3868,8.85 -13.2194,15.09 -23.8291,13.21zM74.5825,55.083l-0.3556,0.33c-6.494,-7.98 -17.3163,-10.41 -26.1234,-5.82l-0.2223,-0.47l-0.2223,-0.47c9.1797,-4.78 20.4804,-2.27 27.2792,6.09zM47.8812,49.123l0.2223,0.47c-3.947,2.05 -7.3163,5.38 -9.5961,9.49l-0.4148,-0.28l-0.4149,-0.28c2.37,-4.27 5.8721,-7.73 9.9811,-9.87zM38.0926,58.803l0.3883,0.32c-4.7537,6.83 -3.4424,13.21 -2.9633,16.58l-0.4749,0.06l-0.475,0.06c-0.4772,-3.36 -1.8721,-10.14 3.1365,-17.34zM35.0427,75.763l0.4748,-0.06c0.8816,6.17 3.9453,11.83 8.4104,15.65l-0.289,0.4l-0.2889,0.4c-4.6688,-3.99 -7.863,-9.9 -8.7822,-16.33zM43.6389,91.753l-0.4204,-0.27c0.2968,-0.57 0.8804,-1.91 1.6595,-3.63c0.7714,-1.69 1.7206,-3.73 2.7294,-5.63c1.005,-1.9 2.0846,-3.7 3.1208,-4.9c0.5159,-0.6 1.0485,-1.09 1.5831,-1.35c0.5469,-0.27 1.1473,-0.34 1.7104,0.02l-0.232,0.45l-0.232,0.44c-0.201,-0.13 -0.4526,-0.15 -0.8165,0.03c-0.3763,0.19 -0.8134,0.57 -1.2968,1.13c-0.9626,1.12 -2.0003,2.84 -2.9981,4.72c-0.994,1.87 -1.933,3.89 -2.702,5.58c-0.7612,1.68 -1.3702,3.08 -1.685,3.68zM53.7897,76.443l0.233,-0.45c0.5655,0.37 0.8136,0.98 0.8684,1.64c0.0535,0.65 -0.0687,1.41 -0.2895,2.21c-0.4435,1.6 -1.3352,3.55 -2.3433,5.47c-1.0117,1.94 -2.1568,3.88 -3.123,5.48c-0.9759,1.62 -1.7503,2.86 -2.0499,3.43l-0.4204,-0.27l-0.4204,-0.27c0.3181,-0.6 1.1254,-1.9 2.0792,-3.48c0.9634,-1.59 2.0959,-3.52 3.0932,-5.42c1.001,-1.92 1.85,-3.78 2.2626,-5.28c0.2073,-0.75 0.292,-1.36 0.2542,-1.82c-0.0366,-0.44 -0.178,-0.67 -0.3772,-0.8zM46.665,93.953l0.2204,-0.45c2.2376,1.34 4.6129,2.23 7.1355,2.68l-0.0601,0.52l-0.0602,0.51c-2.6331,-0.47 -5.1171,-1.41 -7.456,-2.81zM53.9608,96.703l-0.4153,-0.28l0.0042,-0.01l0.4152,0.28l0.4153,0.28h-0.0042zM30.8569,134.763l0.06,-0.52c6.8348,1.22 11.9249,-3.39 13.7995,-9.32c1.8746,-5.94 0.4876,-13.03 -5.5106,-16.76l0.2273,-0.45l0.2273,-0.45c6.5123,4.05 7.9511,11.74 5.967,18.02c-1.9841,6.28 -7.4373,11.31 -14.8305,9.99zM39.4331,107.713l0.4202,0.27c-1.2117,2.3 -2.3761,4.01 -3.3673,5.13c-0.4943,0.55 -0.9584,0.97 -1.3758,1.24c-0.3957,0.25 -0.8429,0.43 -1.2638,0.31c-0.4973,-0.14 -0.7329,-0.6 -0.8046,-1.08c-0.0701,-0.46 -0.013,-1.05 0.1441,-1.74c0.3169,-1.38 1.0862,-3.34 2.4143,-5.87l0.4202,0.27l0.4202,0.27c-1.3104,2.49 -2.0336,4.36 -2.3212,5.62c-0.1452,0.63 -0.1684,1.07 -0.1292,1.33c0.0191,0.12 0.0485,0.18 0.0597,0.19c0.0047,0.01 0.0004,0.01 0.0007,0.01c0.0357,0.01 0.2024,0.01 0.5458,-0.21c0.3216,-0.21 0.7218,-0.56 1.1846,-1.08c0.923,-1.03 2.0445,-2.67 3.232,-4.93zM36.0204,106.243l-0.0949,0.5c-4.2892,-1.11 -8.8675,0.29 -11.9944,3.76l-0.3507,-0.37l-0.3506,-0.37c3.3468,-3.71 8.2591,-5.23 12.8856,-4.03zM23.5804,110.133l0.3619,0.36c-4.2383,5.05 -4.9151,10.55 -3.3601,14.98c1.5599,4.44 5.3931,7.89 10.3388,8.77l-0.06,0.51l-0.06,0.51c-5.2747,-0.94 -9.421,-4.63 -11.1159,-9.46c-1.6998,-4.84 -0.9066,-10.73 3.5335,-16.03zM30.861,134.753l0.4153,0.28h-0.0042l-0.4152,-0.27l-0.4153,-0.28l0.0042,-0.01zM16.3455,117.443l0.9496,0.2h-1.8841zM28.893,102.403l0.2716,1.01h-0.0004zM40.439,97.863l-0.8405,-0.54h0.0001zM33.1812,83.043l-0.8877,0.36h-0.0001zM51.2069,43.603l0.2719,1.01h-0.0001zM64.7591,42.143l0.8895,0.43h-0.0005zM69.7028,29.313l-0.8895,-0.43v0zM63.4243,14.073l0.9431,-0.16h0.0001zM91.409,-3.127l-0.648,0.74v0zM76.8607,28.663l0.1418,-1.02h0.0002zM70.9075,36.393l0.8899,0.43h-0.0005zM83.267,64.823l-0.9328,0.21h-0.0001zM81.6824,85.943l-0.5483,0.83l-0.4873,-0.39l0.0842,-0.63zM101.624,101.733l-0.549,0.82v0zM110.765,108.963l0.548,-0.83h0.001zM123.767,102.733l-0.308,-1h0.001zM157.012,119.583l-0.322,0.96l-0.386,-0.16l-0.169,-0.41zM167.357,117.263l-0.231,-1.01l0.001,-0.01zM169.951,111.913l-0.924,-0.32v0zM179.677,99.913l-0.407,-0.96v0zM200.787,126.933l-0.831,-0.56v0zM181.08,135.033l-0.266,0.98h-0.001zM167.389,126.613l-0.23,-1.01v0zM159.465,132.503l0.961,0.05v0zM153.695,151.923l-0.62,0.76l1.235,-1.54zM162.633,160.433l0.62,-0.77l-1.104,1.64zM180.975,157.993l-0.325,0.96h-0.001zM189.108,161.283l0.625,0.82v0zM198.784,152.763l-0.625,-0.81h0.001zM209.233,143.573l0.626,0.81h-0.001zM210.227,131.573l0.955,0.16v0zM236.899,128.293l0.905,-0.31v0zM214.277,144.243l-0.192,-1.02l0.494,-0.09l0.364,0.39zM197.27,159.223l0.626,0.81h-0.001zM189.929,165.683l0.625,0.81h-0.001zM194.908,181.203l-0.318,0.97h-0.002zM205.384,173.253l-0.375,-0.97h0.001zM221.566,178.993l0.797,-0.54h0.001zM200.92,198.403l-0.644,0.75l-0.001,-0.01zM194.054,185.103l-0.319,0.97v0zM182.69,194.943l-0.471,-0.92v0zM156.256,172.813l0.943,0.24v0zM157.38,160.693l-0.619,0.77v0zM148.203,156.903l0.6,0.83v0zM110.137,151.913l0.734,-0.64v0zM103.704,130.713l0.96,0.09v0zM109.591,112.953l0.548,-0.83l-1.094,1.66zM89.511,97.063l0.548,-0.83v0zM80.5311,89.953l-0.5476,0.83h-0.0014zM69.6091,97.823l-0.8513,0.44l-0.4333,-0.91l0.8138,-0.45zM72.9918,121.123l0.95,-0.11l-1.8997,0.23zM85.721,126.343l-0.6424,0.74h-0.0007zM90.122,146.483l-0.904,-0.38v0zM60.7546,151.013l-0.7724,0.59h-0.0005zM57.6925,137.063l0.9497,0.2h-0.0001zM69.4275,121.843l0.9501,-0.11l-1.8993,0.23zM66.2698,99.383l-0.3531,-0.98l1.1214,-0.43l0.1818,1.29zM43.5809,99.803l0.8407,0.54h-0.0003zM49.7678,119.543h0.9601v0zM16.3429,117.433l-0.9495,-0.2h1.8839zM16.3455,117.443l-0.9496,-0.2c1.1109,-7.64 6.3923,-13.97 13.2259,-15.85l0.2712,1.01l0.2712,1.01c-6.1079,1.67 -10.8708,7.37 -11.8691,14.23zM28.893,102.403l-0.2717,-1.01c3.5359,-0.97 5.863,-0.38 7.1757,-0.4c0.6374,-0.02 1.1208,-0.15 1.6514,-0.59c0.5783,-0.49 1.2582,-1.39 2.1501,-3.08l0.8405,0.54l0.8404,0.54c-0.9295,1.76 -1.7519,2.93 -2.6155,3.65c-0.9114,0.77 -1.8093,0.99 -2.7516,1.01c-1.8464,0.04 -3.4709,-0.56 -6.7477,0.35zM40.439,97.863l-0.8404,-0.54c0.4245,-0.81 0.4234,-1.64 0.0827,-2.62c-0.3568,-1.03 -1.0668,-2.14 -1.9887,-3.37c-0.4553,-0.61 -0.9454,-1.23 -1.4508,-1.86c-0.5017,-0.63 -1.0181,-1.28 -1.5078,-1.94c-0.9714,-1.29 -1.8948,-2.68 -2.4405,-4.13l0.8877,-0.36l0.8877,-0.35c0.4302,1.13 1.1982,2.32 2.1411,3.58c0.4673,0.62 0.9637,1.25 1.4688,1.88c0.5014,0.63 1.0122,1.27 1.4903,1.91c0.9449,1.26 1.8315,2.61 2.3083,3.97c0.493,1.42 0.5625,2.92 -0.198,4.37zM33.1812,83.043l-0.8878,0.36c-3.3342,-8.81 -2.607,-19.1 1.886,-27.23l0.8305,0.56l0.8305,0.56c-4.2019,7.6 -4.8674,17.21 -1.7714,25.4zM35.0099,56.733l-0.8305,-0.56c3.7134,-6.72 9.8114,-11.66 16.7557,-13.57l0.2718,1l0.2718,1.01c-6.4632,1.78 -12.1663,6.4 -15.6383,12.68zM51.2069,43.603l-0.2719,-1c0.9626,-0.27 2.2762,-0.29 3.6115,-0.26c0.6829,0.02 1.4014,0.05 2.1186,0.09c0.7209,0.03 1.4406,0.07 2.1421,0.09c1.4171,0.05 2.6876,0.03 3.651,-0.15c1.0455,-0.19 1.3483,-0.5 1.4118,-0.67l0.8891,0.44l0.889,0.43c-0.4676,1.21 -1.7135,1.65 -2.7951,1.85c-1.1637,0.21 -2.5987,0.22 -4.026,0.18c-0.7208,-0.03 -1.458,-0.06 -2.174,-0.1c-0.7196,-0.03 -1.4178,-0.07 -2.0764,-0.08c-1.3479,-0.04 -2.4172,0 -3.0978,0.19zM64.7591,42.143l-0.8896,-0.43l4.9438,-12.83l0.8895,0.43l0.8896,0.43l-4.9438,12.83zM69.7028,29.313l-0.8895,-0.43c0.466,-1.21 0.4238,-2.2 0.1145,-3.14c-0.3275,-0.98 -0.9695,-1.96 -1.8124,-3.07c-1.6148,-2.15 -3.9716,-4.77 -4.6342,-8.44l0.9431,-0.16l0.9432,-0.16c0.5429,3.01 2.4394,5.12 4.2195,7.48c0.8545,1.14 1.6953,2.36 2.1478,3.72c0.4707,1.42 0.5056,2.95 -0.1425,4.63zM63.4243,14.073l-0.943,0.16c-1.644,-9.1 2.6588,-16.81 8.8574,-20.65c6.2039,-3.84 14.4613,-3.88 20.7193,2.55l-0.649,0.74l-0.648,0.74c-5.5023,-5.66 -12.7915,-5.7 -18.4172,-2.22c-5.631,3.49 -9.4407,10.42 -7.9764,18.52zM91.409,-3.127l0.649,-0.74c6.405,6.59 6.794,15.88 3.53,23c-3.263,7.12 -10.2764,12.29 -18.8692,10.54l0.1419,-1.01l0.142,-1.02c7.5923,1.54 13.8783,-2.99 16.8563,-9.49c2.977,-6.49 2.548,-14.74 -3.098,-20.54zM76.8607,28.663l-0.1417,1.01c-0.9936,-0.2 -1.5916,-0.1 -1.9838,0.11c-0.3885,0.2 -0.7073,0.56 -1.0095,1.19c-0.3108,0.65 -0.5587,1.47 -0.855,2.49c-0.2885,1 -0.6141,2.16 -1.0733,3.36l-0.8899,-0.43l-0.89,-0.43c0.4208,-1.1 0.7211,-2.16 1.016,-3.18c0.287,-1 0.58,-1.99 0.9793,-2.82c0.4079,-0.85 0.9683,-1.61 1.8398,-2.06c0.8677,-0.45 1.9104,-0.52 3.1499,-0.26zM70.9075,36.393l0.8894,0.43c-0.6189,1.6 -1.2412,2.86 -1.7207,3.86c-0.5001,1.04 -0.7913,1.7 -0.8856,2.24c-0.0748,0.43 -0.0223,0.75 0.2781,1.17c0.3583,0.51 1.0616,1.14 2.3665,2.01l-0.4837,0.88l-0.4837,0.87c-1.3374,-0.9 -2.3114,-1.7 -2.9075,-2.54c-0.654,-0.92 -0.8332,-1.85 -0.6591,-2.85c0.1547,-0.89 0.593,-1.82 1.0609,-2.79c0.4884,-1.02 1.0723,-2.2 1.6559,-3.71zM71.3515,46.983l0.4837,-0.88c6.1319,4.11 10.6279,10.86 12.3648,18.51l-0.933,0.21l-0.9329,0.21c-1.6155,-7.12 -5.796,-13.38 -11.4663,-17.18zM83.267,64.823l0.9329,-0.21c0.1257,0.55 0.1738,1.31 0.1839,2.13c0.0104,0.84 -0.0192,1.84 -0.0758,2.93c-0.1134,2.16 -0.3379,4.72 -0.5855,7.15c-0.2478,2.43 -0.5199,4.76 -0.73,6.48c-0.105,0.85 -0.1946,1.56 -0.258,2.05c-0.0317,0.25 -0.0569,0.44 -0.0741,0.57c-0.0086,0.07 -0.0153,0.12 -0.0198,0.15c-0.0022,0.02 -0.0039,0.03 -0.0051,0.04c-0.0006,0.01 -0.001,0.01 -0.0013,0.01c-0.0002,0 -0.0003,0 -0.0004,0c0,0 0,0 -0.0001,0c0,0 0,0 -0.9513,-0.18c-0.9514,-0.19 -0.9514,-0.19 -0.9514,-0.19h0.0001c0.0001,0 0.0002,0 0.0003,0c0.0003,-0.01 0.0007,-0.01 0.0012,-0.01c0.0012,-0.01 0.0028,-0.02 0.005,-0.04c0.0044,-0.03 0.0109,-0.08 0.0194,-0.15c0.0171,-0.13 0.042,-0.32 0.0734,-0.56c0.0629,-0.49 0.1519,-1.19 0.2563,-2.05c0.209,-1.7 0.4792,-4.01 0.725,-6.43c0.2461,-2.42 0.4665,-4.93 0.5772,-7.04c0.0553,-1.06 0.0825,-2.01 0.073,-2.78c-0.0099,-0.81 -0.0585,-1.36 -0.1277,-1.66zM81.6824,85.943l0.5483,-0.83l19.9413,15.79l-0.548,0.83l-0.549,0.82l-19.9409,-15.78zM101.624,101.733l0.548,-0.83l9.141,7.23l-0.548,0.83l-0.548,0.83l-9.142,-7.24zM110.765,108.963l0.549,-0.83c0.287,0.23 0.809,0.33 1.784,-0.03c0.944,-0.35 2.052,-1.02 3.264,-1.86c0.599,-0.41 1.207,-0.86 1.821,-1.3c0.609,-0.44 1.225,-0.89 1.824,-1.3c1.178,-0.82 2.381,-1.56 3.452,-1.91l0.308,1l0.308,0.99c-0.799,0.26 -1.81,0.87 -2.988,1.68c-0.578,0.4 -1.176,0.83 -1.79,1.28c-0.61,0.44 -1.235,0.89 -1.854,1.32c-1.225,0.85 -2.493,1.64 -3.663,2.07c-1.137,0.41 -2.466,0.59 -3.564,-0.28zM123.767,102.733l-0.307,-1c13.64,-4.37 28.567,3.16 34.428,17.46l-0.876,0.39l-0.877,0.39c-5.448,-13.29 -19.34,-20.32 -32.062,-16.25zM157.012,119.583l0.321,-0.96c0.265,0.11 0.814,0.15 1.691,0.02c0.831,-0.13 1.804,-0.39 2.814,-0.7c1.009,-0.31 2.02,-0.66 2.939,-0.97c0.898,-0.31 1.74,-0.59 2.349,-0.72l0.231,1.01l0.231,1.02c-0.499,0.11 -1.244,0.35 -2.168,0.67c-0.903,0.31 -1.949,0.67 -2.99,0.99c-1.038,0.32 -2.106,0.6 -3.063,0.75c-0.913,0.14 -1.9,0.18 -2.677,-0.15zM167.357,117.263l-0.23,-1.02c0.436,-0.09 0.786,-0.16 1.045,-0.22c0.277,-0.05 0.419,-0.09 0.502,-0.12c0.088,-0.03 -0.027,-0.01 -0.138,0.14c-0.123,0.16 -0.121,0.31 -0.118,0.26c0.005,-0.08 0.001,-0.17 -0.003,-0.45c-0.003,-0.24 -0.002,-0.56 0.023,-0.95c0.051,-0.78 0.199,-1.84 0.589,-3.31l0.924,0.32l0.925,0.32c-0.357,1.35 -0.48,2.27 -0.52,2.9c-0.021,0.31 -0.022,0.56 -0.019,0.77c0.002,0.18 0.011,0.43 -0.001,0.62c-0.014,0.22 -0.06,0.56 -0.297,0.87c-0.225,0.3 -0.522,0.43 -0.722,0.5c-0.203,0.06 -0.453,0.12 -0.71,0.17c-0.275,0.06 -0.6,0.12 -1.02,0.22zM169.951,111.913l-0.924,-0.32c1.503,-5.66 5.309,-10.36 10.243,-12.64l0.407,0.96l0.408,0.95c-4.421,2.05 -7.855,6.28 -9.209,11.37zM179.677,99.913l-0.407,-0.96c15.825,-7.3 31.177,12.57 22.347,28.53l-0.83,-0.55l-0.831,-0.56c7.98,-14.43 -5.93,-31.94 -19.872,-25.51zM200.787,126.933l0.83,0.55c-4.237,7.67 -12.948,11.31 -20.803,8.53l0.266,-0.98l0.265,-0.99c6.956,2.46 14.789,-0.75 18.611,-7.67zM181.08,135.033l-0.267,0.98c-3.516,-1.24 -5.55,-3.96 -7.29,-5.86c-0.897,-0.99 -1.699,-1.75 -2.603,-2.21c-0.869,-0.43 -1.899,-0.62 -3.3,-0.31l-0.231,-1.02l-0.23,-1.01c1.772,-0.4 3.233,-0.18 4.518,0.47c1.25,0.63 2.264,1.64 3.188,2.65c1.905,2.08 3.543,4.28 6.481,5.32zM167.389,126.613l0.231,1.02c-1.394,0.31 -2.603,0.45 -3.583,0.58c-1.015,0.13 -1.71,0.24 -2.23,0.46c-0.461,0.2 -0.755,0.47 -0.969,0.96c-0.239,0.55 -0.401,1.43 -0.412,2.92l-0.961,-0.05l-0.961,-0.05c0.012,-1.59 0.179,-2.82 0.588,-3.76c0.435,-1 1.11,-1.6 1.951,-1.95c0.782,-0.34 1.723,-0.47 2.692,-0.59c1.003,-0.13 2.125,-0.26 3.424,-0.55zM159.465,132.503l0.961,0.05c-0.003,0.43 -0.104,1.08 -0.242,1.8c-0.144,0.74 -0.348,1.65 -0.592,2.66c-0.487,2.02 -1.141,4.45 -1.817,6.77c-0.676,2.32 -1.379,4.55 -1.965,6.17c-0.29,0.8 -0.564,1.49 -0.801,1.96c-0.112,0.22 -0.249,0.47 -0.411,0.66c-0.073,0.08 -0.227,0.24 -0.461,0.34c-0.303,0.12 -0.718,0.09 -1.057,-0.22l0.615,-0.77l0.615,-0.78c-0.292,-0.27 -0.651,-0.28 -0.891,-0.19c-0.095,0.04 -0.159,0.09 -0.19,0.11c-0.033,0.03 -0.053,0.05 -0.058,0.06c-0.006,0 0.042,-0.06 0.139,-0.25c0.181,-0.36 0.422,-0.95 0.706,-1.74c0.564,-1.56 1.253,-3.74 1.923,-6.04c0.669,-2.3 1.314,-4.7 1.792,-6.68c0.239,-0.99 0.435,-1.86 0.57,-2.56c0.141,-0.73 0.201,-1.19 0.203,-1.4zM153.695,151.923l0.619,-0.77c2.982,2.84 5.964,5.68 8.939,8.51l-0.62,0.77l-0.62,0.76c-2.975,-2.83 -5.956,-5.67 -8.938,-8.51zM162.633,160.433l-0.484,0.87c-0.276,-0.27 -0.477,-0.92 -0.438,-1.21c0.042,-0.12 0.134,-0.29 0.172,-0.34c0.059,-0.08 0.117,-0.13 0.125,-0.14c0.035,-0.03 0.064,-0.05 0.071,-0.06c0.023,-0.01 0.044,-0.03 0.057,-0.03c0.029,-0.02 0.065,-0.05 0.106,-0.07c0.083,-0.05 0.201,-0.12 0.35,-0.21c0.299,-0.17 0.732,-0.4 1.276,-0.67c1.087,-0.53 2.628,-1.19 4.447,-1.74c3.61,-1.09 8.446,-1.76 12.986,0.2l-0.326,0.96l-0.326,0.96c-3.957,-1.71 -8.306,-1.16 -11.749,-0.12c-1.708,0.51 -3.161,1.14 -4.183,1.64c-0.51,0.25 -0.911,0.47 -1.18,0.62c-0.134,0.08 -0.234,0.13 -0.297,0.17c-0.032,0.02 -0.051,0.03 -0.058,0.04c-0.005,0 0.003,0 0.016,-0.01c0.003,0 0.029,-0.02 0.062,-0.05c0.007,-0.01 0.064,-0.06 0.123,-0.13c0.038,-0.06 0.129,-0.23 0.172,-0.35c0.039,-0.29 -0.162,-0.94 -0.438,-1.21zM180.975,157.993l0.325,-0.96c1.025,0.44 1.876,1.08 2.598,1.7c0.36,0.32 0.7,0.63 1.008,0.92c0.315,0.29 0.597,0.55 0.868,0.77c0.554,0.45 0.953,0.65 1.303,0.68c0.311,0.03 0.753,-0.06 1.407,-0.63l0.624,0.81l0.625,0.82c-0.901,0.79 -1.806,1.16 -2.753,1.07c-0.909,-0.09 -1.679,-0.59 -2.323,-1.11c-0.328,-0.27 -0.653,-0.57 -0.967,-0.86c-0.32,-0.29 -0.63,-0.58 -0.958,-0.87c-0.651,-0.56 -1.322,-1.05 -2.082,-1.38zM189.108,161.283l-0.625,-0.81c1.612,-1.42 3.225,-2.84 4.838,-4.26c1.614,-1.42 3.227,-2.84 4.838,-4.26l0.625,0.81l0.625,0.82c-1.612,1.42 -3.225,2.84 -4.838,4.26c-1.614,1.42 -3.226,2.84 -4.838,4.26zM198.784,152.763l-0.624,-0.81c1.742,-1.53 3.483,-3.06 5.224,-4.6c1.741,-1.53 3.482,-3.06 5.225,-4.6l0.624,0.82l0.625,0.81c-1.743,1.53 -3.483,3.07 -5.224,4.6c-1.741,1.53 -3.483,3.07 -5.226,4.6zM209.233,143.573l-0.625,-0.82c1.079,-0.95 1.526,-1.66 1.703,-2.24c0.17,-0.55 0.133,-1.1 -0.053,-1.87c-0.369,-1.53 -1.36,-3.83 -0.985,-7.23l0.954,0.16l0.955,0.16c-0.319,2.9 0.483,4.58 0.936,6.46c0.225,0.94 0.356,1.95 0.019,3.05c-0.331,1.07 -1.067,2.07 -2.278,3.14zM210.227,131.573l-0.954,-0.16c0.912,-8.28 6.773,-13.08 12.992,-13.85c6.228,-0.77 12.968,2.5 15.539,10.42l-0.905,0.31l-0.906,0.31c-2.208,-6.8 -7.95,-9.65 -13.436,-8.98c-5.494,0.68 -10.579,4.88 -11.375,12.11zM236.899,128.293l0.905,-0.31c2.57,7.93 -0.784,15.12 -6.046,18.84c-5.265,3.71 -12.644,4.08 -18.148,-1.86l0.667,-0.72l0.666,-0.72c4.697,5.07 11.025,4.86 15.719,1.55c4.698,-3.32 7.554,-9.61 5.331,-16.47zM214.277,144.243l0.191,1.02c-0.998,0.18 -2.287,0.9 -3.786,2.06c-1.475,1.14 -3.054,2.63 -4.624,4.23c-1.569,1.59 -3.105,3.27 -4.505,4.77c-1.386,1.49 -2.656,2.83 -3.657,3.71l-0.626,-0.81l-0.625,-0.82c0.919,-0.81 2.125,-2.08 3.526,-3.58c1.387,-1.49 2.948,-3.19 4.54,-4.81c1.592,-1.61 3.239,-3.18 4.81,-4.39c1.547,-1.2 3.123,-2.15 4.564,-2.4zM197.27,159.223l0.625,0.81c-1.222,1.08 -2.447,2.16 -3.671,3.23c-1.224,1.08 -2.448,2.16 -3.67,3.23l-0.625,-0.81l-0.626,-0.81c1.223,-1.08 2.448,-2.16 3.672,-3.24c1.224,-1.07 2.448,-2.15 3.67,-3.23zM189.929,165.683l0.624,0.81c0.191,-0.16 0.258,-0.36 0.278,-0.43c0.025,-0.08 0.031,-0.15 0.033,-0.17c0.005,-0.05 0.001,-0.06 0.004,-0.02c0.004,0.06 0.019,0.19 0.051,0.4c0.064,0.39 0.177,0.96 0.332,1.65c0.31,1.39 0.774,3.23 1.304,5.09c0.531,1.86 1.12,3.71 1.676,5.13c0.279,0.71 0.538,1.28 0.765,1.68c0.114,0.21 0.205,0.34 0.27,0.42c0.077,0.09 0.066,0.04 -0.038,0l-0.32,0.96l-0.32,0.97c-0.322,-0.14 -0.565,-0.38 -0.731,-0.58c-0.178,-0.22 -0.342,-0.47 -0.492,-0.74c-0.301,-0.53 -0.604,-1.21 -0.9,-1.97c-0.594,-1.51 -1.205,-3.44 -1.745,-5.33c-0.541,-1.9 -1.016,-3.78 -1.337,-5.22c-0.159,-0.71 -0.283,-1.33 -0.357,-1.79c-0.036,-0.22 -0.065,-0.44 -0.076,-0.61c-0.005,-0.09 -0.01,-0.2 0.001,-0.32c0.005,-0.06 0.017,-0.15 0.049,-0.26c0.027,-0.09 0.102,-0.31 0.304,-0.48zM194.908,181.203l0.318,-0.96c0.72,0.3 1.291,0.21 1.883,-0.17c0.652,-0.41 1.299,-1.15 2.056,-2.13c0.722,-0.94 1.544,-2.1 2.46,-3.11c0.929,-1.02 2.026,-1.98 3.384,-2.55l0.375,0.97l0.375,0.97c-1.016,0.43 -1.899,1.17 -2.735,2.09c-0.848,0.94 -1.574,1.97 -2.362,2.99c-0.752,0.98 -1.576,1.97 -2.532,2.57c-1.019,0.65 -2.196,0.86 -3.54,0.3zM205.384,173.253l-0.374,-0.97c6.295,-2.6 13.598,-0.02 17.353,6.17l-0.797,0.54l-0.798,0.55c-3.227,-5.32 -9.539,-7.57 -15.01,-5.32zM221.566,178.993l0.798,-0.54c4.704,7.75 2.207,16.09 -2.862,20.85c-5.071,4.77 -12.986,6.19 -19.226,-0.15l0.644,-0.75l0.645,-0.74c5.311,5.4 12.092,4.33 16.643,0.06c4.553,-4.28 6.602,-11.52 2.56,-18.18zM200.92,198.403l-0.645,0.74c-2.287,-2.33 -2.943,-5.53 -3.567,-8c-0.668,-2.65 -1.273,-4.36 -2.973,-5.07l0.319,-0.97l0.318,-0.96c2.768,1.16 3.559,4.03 4.189,6.52c0.673,2.67 1.218,5.18 3.005,7zM194.054,185.103l-0.319,0.97c-0.721,-0.31 -1.36,-0.19 -2.076,0.31c-0.765,0.53 -1.533,1.46 -2.391,2.64c-0.819,1.12 -1.74,2.51 -2.701,3.72c-0.975,1.22 -2.088,2.38 -3.406,3.13l-0.471,-0.93l-0.471,-0.92c1.016,-0.57 1.95,-1.52 2.87,-2.67c0.932,-1.17 1.752,-2.42 2.65,-3.66c0.861,-1.18 1.789,-2.34 2.83,-3.06c1.09,-0.77 2.367,-1.1 3.803,-0.49zM182.69,194.943l0.471,0.93c-14.216,8.02 -31.036,-6.14 -27.847,-23.31l0.942,0.25l0.943,0.24c-2.879,15.49 12.278,28.16 25.02,20.97zM156.256,172.813l-0.942,-0.25c0.326,-1.75 0.894,-3.13 1.467,-4.26c0.283,-0.56 0.572,-1.07 0.822,-1.52c0.257,-0.46 0.47,-0.85 0.635,-1.21c0.325,-0.72 0.401,-1.21 0.273,-1.7c-0.14,-0.54 -0.58,-1.3 -1.75,-2.41l0.619,-0.77l0.62,-0.77c1.274,1.21 2.066,2.32 2.362,3.47c0.309,1.2 0.025,2.23 -0.391,3.15c-0.205,0.45 -0.458,0.91 -0.711,1.36c-0.258,0.46 -0.523,0.93 -0.783,1.45c-0.515,1.02 -1,2.2 -1.278,3.7zM157.38,160.693l-0.619,0.77c-1.031,-0.99 -1.865,-1.95 -2.567,-2.75c-0.726,-0.82 -1.272,-1.42 -1.795,-1.8c-0.481,-0.35 -0.886,-0.47 -1.353,-0.41c-0.517,0.07 -1.226,0.4 -2.243,1.23l-0.6,-0.83l-0.601,-0.84c1.126,-0.92 2.14,-1.48 3.126,-1.62c1.037,-0.14 1.916,0.2 2.699,0.76c0.741,0.54 1.438,1.32 2.135,2.11c0.72,0.82 1.488,1.71 2.438,2.61zM148.203,156.903l0.6,0.83c-12.11,9.94 -29.698,7.62 -39.401,-5.18l0.735,-0.64l0.734,-0.64c8.996,11.87 25.393,14.1 36.731,4.79zM110.137,151.913l-0.735,0.64c-4.625,-6.11 -7.006,-14.03 -6.658,-21.93l0.96,0.09l0.96,0.09c-0.326,7.4 1.907,14.8 6.207,20.47zM103.704,130.713l-0.96,-0.09c0.014,-0.33 0.111,-0.88 0.238,-1.5c0.134,-0.66 0.321,-1.49 0.545,-2.41c0.449,-1.86 1.054,-4.14 1.701,-6.33c0.646,-2.19 1.343,-4.32 1.977,-5.84c0.312,-0.75 0.634,-1.41 0.956,-1.87c0.153,-0.22 0.368,-0.48 0.65,-0.64c0.15,-0.09 0.357,-0.17 0.608,-0.17c0.265,0.01 0.512,0.1 0.717,0.26l-0.545,0.83l-0.546,0.83c0.117,0.09 0.27,0.16 0.435,0.16c0.151,0 0.252,-0.05 0.293,-0.07c0.062,-0.04 0.037,-0.05 -0.066,0.1c-0.19,0.27 -0.444,0.76 -0.744,1.49c-0.59,1.41 -1.262,3.45 -1.901,5.62c-0.637,2.15 -1.233,4.4 -1.674,6.22c-0.22,0.92 -0.401,1.71 -0.528,2.34c-0.133,0.65 -0.191,1.03 -0.196,1.16zM109.591,112.953l-0.548,0.83l-20.08,-15.89l0.548,-0.83l0.548,-0.83l20.08,15.89zM89.511,97.063l-0.547,0.83c-1.497,-1.18 -2.994,-2.37 -4.4913,-3.56c-1.497,-1.18 -2.9935,-2.37 -4.4892,-3.55l0.5476,-0.83l0.5476,-0.83c1.4967,1.19 2.994,2.37 4.4913,3.56c1.497,1.18 2.993,2.37 4.489,3.55zM80.5311,89.953l-0.549,0.83c-0.272,-0.22 -0.6702,-0.29 -1.436,0.12c-0.7695,0.42 -1.6545,1.21 -2.6308,2.21c-0.4801,0.49 -0.966,1.02 -1.4576,1.56c-0.4884,0.53 -0.9843,1.07 -1.4706,1.58c-0.9544,1 -1.9545,1.96 -2.9073,2.49l-0.4707,-0.92l-0.4708,-0.92c0.6925,-0.39 1.5253,-1.16 2.4833,-2.17c0.47,-0.49 0.9503,-1.01 1.4445,-1.55c0.491,-0.54 0.9942,-1.08 1.496,-1.6c0.9879,-1.01 2.0388,-1.98 3.0693,-2.54c1.0343,-0.56 2.3002,-0.83 3.4486,0.09zM69.6091,97.823l0.8512,-0.45c1.5384,3.24 2.1538,7.55 2.5194,11.78c0.3748,4.33 0.4876,8.5 0.9621,11.86l-0.95,0.11l-0.95,0.12c-0.483,-3.42 -0.6197,-7.87 -0.9759,-11.98c-0.3655,-4.22 -0.9627,-8.17 -2.3081,-11zM72.9918,121.123l-0.9497,0.12c-0.0358,-0.25 -0.0054,-0.55 0.1609,-0.82c0.155,-0.25 0.3667,-0.37 0.5185,-0.43c0.2757,-0.12 0.5665,-0.11 0.7487,-0.09c0.4081,0.03 0.9342,0.16 1.4899,0.33c1.1376,0.35 2.6566,0.94 4.1945,1.6c1.5432,0.66 3.1333,1.4 4.4202,2.06c0.6426,0.32 1.2189,0.64 1.6799,0.91c0.4273,0.25 0.8513,0.53 1.1103,0.79l-0.644,0.75l-0.6431,0.74c0.0004,0 -0.0143,-0.02 -0.0521,-0.05c-0.0362,-0.03 -0.0849,-0.06 -0.1479,-0.11c-0.1267,-0.08 -0.2933,-0.19 -0.4991,-0.31c-0.4112,-0.25 -0.9471,-0.54 -1.5692,-0.85c-1.2426,-0.64 -2.7927,-1.36 -4.3021,-2.01c-1.5147,-0.65 -2.9608,-1.21 -4.0023,-1.52c-0.5339,-0.17 -0.9009,-0.25 -1.1022,-0.26c-0.1225,-0.01 -0.0654,0.01 0.0583,-0.04c0.0759,-0.03 0.2322,-0.11 0.3534,-0.31c0.1326,-0.21 0.1512,-0.45 0.1268,-0.62zM85.721,126.343l0.643,-0.75c5.301,5.37 7.148,13.9 4.663,21.28l-0.905,-0.39l-0.904,-0.38c2.236,-6.64 0.55,-14.27 -4.1394,-19.02zM90.122,146.483l0.905,0.39c-4.783,14.22 -22.742,17.18 -31.0448,4.73l0.7724,-0.59l0.7724,-0.58c7.2778,10.91 23.3614,8.53 27.691,-4.33zM60.7546,151.013l-0.7729,0.59c-2.817,-4.23 -3.9885,-9.59 -3.2387,-14.74l0.9495,0.2l0.9496,0.2c-0.6732,4.62 0.3839,9.41 2.8853,13.17zM57.6925,137.063l-0.9496,-0.2c0.1028,-0.71 0.3994,-1.48 0.7796,-2.25c0.3871,-0.78 0.8937,-1.62 1.469,-2.48c1.1508,-1.73 2.6146,-3.59 4.0492,-5.28c1.436,-1.69 2.8578,-3.22 3.933,-4.3c0.5345,-0.53 0.9979,-0.97 1.3411,-1.25c0.1627,-0.14 0.3383,-0.28 0.4987,-0.37c0.0574,-0.03 0.2281,-0.13 0.4476,-0.15c0.1145,-0.01 0.3711,-0.02 0.6386,0.16c0.3112,0.21 0.4415,0.54 0.477,0.78l-0.9492,0.12l-0.9492,0.12c0.0324,0.23 0.1544,0.53 0.4521,0.73c0.2539,0.17 0.4918,0.17 0.5826,0.16c0.103,-0.01 0.1747,-0.04 0.1987,-0.05c0.03,-0.01 0.0471,-0.02 0.048,-0.02c0.001,0 -0.0188,0.01 -0.0647,0.04c-0.0432,0.03 -0.0988,0.08 -0.1674,0.14c-0.2798,0.23 -0.6972,0.62 -1.218,1.14c-1.0355,1.04 -2.4228,2.53 -3.8294,4.19c-1.4079,1.65 -2.8201,3.45 -3.9136,5.09c-0.5469,0.82 -1.0045,1.59 -1.3407,2.27c-0.343,0.69 -0.5285,1.23 -0.5837,1.61zM69.4275,121.843l-0.9501,0.12l-3.1577,-22.47l0.9501,-0.11l0.9501,-0.12l3.1577,22.47zM66.2698,99.383l0.3531,0.97c-1.6483,0.64 -3.8565,0.75 -6.1533,0.65c-2.3201,-0.09 -4.8613,-0.39 -7.2197,-0.67c-2.385,-0.28 -4.5621,-0.52 -6.2398,-0.52c-0.8403,0 -1.497,0.07 -1.9654,0.2c-0.4914,0.14 -0.6066,0.3 -0.6231,0.33l-0.8407,-0.54l-0.8407,-0.54c0.3806,-0.72 1.0887,-1.07 1.7568,-1.26c0.6909,-0.19 1.5299,-0.26 2.4318,-0.26c1.8066,-0.01 4.0998,0.25 6.4534,0.53c2.3802,0.28 4.8457,0.57 7.0828,0.66c2.2605,0.09 4.1597,-0.04 5.4517,-0.53zM43.5809,99.803l0.8404,0.54c-0.9561,1.82 -1.0466,3.16 -0.7716,4.29c0.2917,1.2 1.0258,2.32 2.0372,3.67c1.9672,2.63 4.822,5.85 5.041,11.24h-0.9601l-0.9602,0.01c-0.1853,-4.56 -2.5218,-7.21 -4.5959,-9.98c-1.0093,-1.35 -2.0083,-2.8 -2.4201,-4.49c-0.4285,-1.76 -0.1929,-3.65 0.9489,-5.82zM49.7678,119.543h0.9601c0.2751,6.81 -2.0337,11.87 -5.643,15.15c-3.5861,3.25 -8.397,4.7 -13.0851,4.43c-4.6864,-0.26 -9.3432,-2.23 -12.5897,-5.93c-3.2728,-3.73 -5.017,-9.11 -4.0167,-15.96l0.9495,0.2l0.9495,0.2c-0.9172,6.28 0.6895,10.97 3.4886,14.17c2.8255,3.22 6.9618,5.01 11.2424,5.25c4.2789,0.24 8.6089,-1.08 11.7906,-3.97c3.1585,-2.87 5.2442,-7.33 4.9936,-13.53zM16.3429,117.433l0.9344,-0.2l0.0027,0.01l-0.9345,0.2l-0.9345,0.2l-0.0026,-0.01z" fill="white" mask="url(#path-576-inside-1_7842_53597)"/>
</g></svg>