<svg viewBox="0 0 1178.6172 420.4102" fill="none" xmlns="http://www.w3.org/2000/svg" xmlns:xlink="http://www.w3.org/1999/xlink" x="0" y="0"><defs><clipPath id="clip3_7842_53597">
<rect width="1440" height="423" fill="white" transform="translate(-141.3828, -2.5897999999999683)"/>
</clipPath></defs><g id="star" opacity="0.5" clip-path="url(#clip3_7842_53597)">
<path id="Vector_127" d="M905.6062,408.3102c0.37,-0.57 0.32,-1.34 -0.2,-1.75c-0.55,-0.45 -1.3,-0.35 -1.74,0.2c-0.45,0.55 -0.4,1.28 0.2,1.75c0.52,0.4 1.29,0.35 1.74,-0.2z" fill="currentColor"/>
<path id="Vector_128" d="M896.3942,386.6502c0.54,-0.71 0.46,-1.73 -0.25,-2.33c-0.71,-0.59 -1.78,-0.45 -2.36,0.21c-0.52,0.73 -0.43,1.78 0.29,2.3c0.75,0.63 1.74,0.48 2.32,-0.18z" fill="currentColor"/>
<path id="Vector_129" d="M876.9262,62.7102c0.43,-0.48 0.32,-1.18 -0.13,-1.54c-0.47,-0.38 -1.19,-0.29 -1.53,0.18c-0.39,0.47 -0.32,1.15 0.18,1.54c0.43,0.33 1.16,0.26 1.48,-0.18z" fill="currentColor"/>
<path id="Vector_130" d="M1134.7872,145.9902c0.98,-1.19 0.82,-2.94 -0.41,-3.89c-1.17,-1.01 -2.96,-0.78 -3.98,0.44c-0.96,1.21 -0.75,2.95 0.44,3.93c1.21,0.96 2.98,0.8 3.95,-0.48z" fill="currentColor"/>
<path id="Vector_131" d="M934.9342,304.8102c0.83,-1.05 0.69,-2.52 -0.36,-3.31c-1.03,-0.83 -2.47,-0.67 -3.31,0.33c-0.83,1.05 -0.67,2.49 0.33,3.33c1.06,0.79 2.53,0.69 3.34,-0.35z" fill="currentColor"/>
<path id="Vector_132" d="M830.4032,414.4902c0.79,-1.05 0.67,-2.49 -0.38,-3.3c-1,-0.81 -2.41,-0.61 -3.21,0.37c-0.82,1 -0.67,2.49 0.34,3.24c1.01,0.84 2.42,0.65 3.25,-0.31z" fill="currentColor"/>
<path id="Vector_133" d="M725.3272,265.9002c0.53,-0.68 0.42,-1.66 -0.26,-2.19c-0.68,-0.55 -1.66,-0.4 -2.19,0.23c-0.52,0.68 -0.42,1.66 0.26,2.19c0.66,0.55 1.64,0.47 2.19,-0.23z" fill="currentColor"/>
<path id="Vector_134" d="M630.7122,184.0002c0.71,-0.92 0.61,-2.25 -0.33,-2.96c-0.89,-0.71 -2.2,-0.59 -2.91,0.3c-0.71,0.89 -0.61,2.25 0.33,2.95c0.89,0.73 2.17,0.56 2.91,-0.29z" fill="currentColor"/>
<path id="Vector_135" d="M810.9162,2.7302c0.59,-0.71 0.45,-1.78 -0.26,-2.38c-0.71,-0.55 -1.76,-0.46 -2.35,0.28c-0.62,0.71 -0.48,1.78 0.24,2.38c0.73,0.57 1.8,0.43 2.37,-0.28z" fill="currentColor"/>
<path id="Vector_136" d="M819.7722,35.1302c0.36,-0.37 0.26,-0.9 -0.12,-1.26c-0.38,-0.26 -0.95,-0.26 -1.26,0.14c-0.33,0.35 -0.25,0.98 0.16,1.25c0.34,0.34 0.92,0.29 1.22,-0.13z" fill="currentColor"/>
<path id="Vector_137" d="M1096.2372,321.0502c0.74,-0.87 0.57,-2.15 -0.35,-2.9c-0.85,-0.7 -2.17,-0.55 -2.9,0.35c-0.71,0.9 -0.59,2.2 0.3,2.89c0.94,0.72 2.24,0.58 2.95,-0.34z" fill="currentColor"/>
<path id="Vector_138" d="M953.0252,227.3102c0.4,-0.52 0.36,-1.27 -0.18,-1.72c-0.52,-0.36 -1.24,-0.31 -1.69,0.22c-0.38,0.52 -0.29,1.21 0.23,1.64c0.53,0.41 1.25,0.36 1.64,-0.14z" fill="currentColor"/>
<path id="Vector_139" d="M982.0672,46.7702c0.7,-0.78 0.59,-2.01 -0.25,-2.68c-0.8,-0.72 -2.06,-0.56 -2.7,0.3c-0.683,0.82 -0.543,2.01 0.32,2.67c0.77,0.68 2.01,0.54 2.63,-0.29z" fill="currentColor"/>
<path id="Vector_140" d="M1077.5472,140.3502c0.88,-1.08 0.74,-2.67 -0.36,-3.56c-1.07,-0.78 -2.66,-0.67 -3.51,0.43c-0.9,1.08 -0.7,2.68 0.38,3.53c1.05,0.86 2.64,0.71 3.49,-0.4z" fill="currentColor"/>
<path id="Vector_141" d="M848.7452,57.4402c0.49,-0.63 0.44,-1.54 -0.24,-2.07c-0.63,-0.48 -1.56,-0.41 -2.04,0.24c-0.51,0.63 -0.44,1.54 0.21,2.03c0.62,0.58 1.54,0.43 2.07,-0.2z" fill="currentColor"/>
<path id="Vector_142" d="M792.2052,19.4702c0.71,-0.94 0.63,-2.23 -0.31,-2.93c-0.89,-0.71 -2.18,-0.64 -2.91,0.3c-0.7,0.84 -0.59,2.2 0.28,2.89c0.92,0.75 2.22,0.61 2.94,-0.26z" fill="currentColor"/>
<path id="Vector_143" d="M1105.7172,337.5302c0.74,-0.9 0.56,-2.22 -0.35,-2.93c-0.84,-0.69 -2.15,-0.57 -2.86,0.32c-0.74,0.9 -0.56,2.24 0.3,2.91c0.9,0.74 2.21,0.59 2.91,-0.3z" fill="currentColor"/>
<path id="Vector_144" d="M1181.5472,8.3502c0.67,-0.81 0.57,-2 -0.22,-2.63c-0.88,-0.66 -2.05,-0.56 -2.7,0.28c-0.63,0.81 -0.52,1.98 0.29,2.65c0.79,0.62 2.01,0.54 2.63,-0.3z" fill="currentColor"/>
<path id="Vector_145" d="M801.7162,52.3102c0.69,-0.87 0.54,-2.18 -0.35,-2.88c-0.87,-0.69 -2.17,-0.55 -2.88,0.35c-0.69,0.89 -0.53,2.14 0.32,2.89c0.9,0.72 2.17,0.51 2.91,-0.36z" fill="currentColor"/>
<path id="Vector_146" d="M1162.7372,24.9202c0.71,-0.92 0.59,-2.22 -0.31,-2.96c-0.91,-0.66 -2.21,-0.52 -2.93,0.38c-0.73,0.89 -0.57,2.17 0.33,2.91c0.89,0.71 2.17,0.54 2.91,-0.33z" fill="currentColor"/>
<path id="Vector_147" d="M1115.5072,162.2102c0.84,-1.01 0.67,-2.52 -0.41,-3.39c-1.02,-0.79 -2.52,-0.67 -3.32,0.4c-0.88,1.03 -0.75,2.58 0.34,3.38c1.05,0.86 2.52,0.69 3.39,-0.39z" fill="currentColor"/>
<path id="Vector_148" d="M200.6052,-4.2698c-0.29,0.58 -0.01,1.22 0.52,1.46c0.56,0.25 1.23,-0.02 1.44,-0.56c0.25,-0.55 0.02,-1.2 -0.56,-1.44c-0.52,-0.22 -1.2,0.04 -1.4,0.54z" fill="currentColor"/>
<path id="Vector_149" d="M636.2542,417.4402c-0.56,1.31 0.01,2.82 1.27,3.37c1.33,0.6 2.81,0.02 3.42,-1.29c0.55,-1.31 -0.02,-2.77 -1.32,-3.36c-1.28,-0.58 -2.78,0.01 -3.37,1.28z" fill="currentColor"/>
<path id="Vector_150" d="M380.2342,176.3602c-0.48,1 0,2.23 1.01,2.68c1.04,0.45 2.23,0.02 2.68,-0.99c0.48,-1.06 0.01,-2.28 -1.07,-2.69c-0.97,-0.53 -2.15,-0.02 -2.62,1z" fill="currentColor"/>
<path id="Vector_151" d="M143.2352,83.3302c-0.34,0.77 -0.01,1.65 0.76,1.94c0.67,0.36 1.6,0.03 1.92,-0.75c0.33,-0.74 0.02,-1.58 -0.73,-1.91c-0.77,-0.31 -1.63,0.01 -1.95,0.72z" fill="currentColor"/>
<path id="Vector_152" d="M247.8242,374.0402c-0.37,0.71 -0.02,1.58 0.72,1.83c0.7,0.35 1.54,0.06 1.84,-0.64c0.29,-0.77 0,-1.59 -0.69,-1.87c-0.75,-0.34 -1.58,-0.02 -1.87,0.68z" fill="currentColor"/>
<path id="Vector_153" d="M113.9232,115.8902c-0.5,1.19 -0.03,2.59 1.2,3.13c1.22,0.51 2.58,-0.05 3.1,-1.19c0.5,-1.19 0.02,-2.58 -1.17,-3.13c-1.22,-0.51 -2.58,-0.02 -3.13,1.19z" fill="currentColor"/>
<path id="Vector_154" d="M285.1762,165.3502c-0.49,1.08 -0.01,2.33 1.08,2.77c1.05,0.46 2.28,0.01 2.74,-1.03c0.5,-1.09 0.01,-2.33 -1.07,-2.77c-1.02,-0.5 -2.27,-0.02 -2.75,1.03z" fill="currentColor"/>
<path id="Vector_155" d="M324.1132,171.2602c-0.26,0.53 0,1.16 0.55,1.42c0.53,0.24 1.18,-0.03 1.42,-0.55c0.21,-0.54 -0.02,-1.17 -0.56,-1.38c-0.52,-0.28 -1.17,-0.02 -1.41,0.51z" fill="currentColor"/>
<path id="Vector_156" d="M123.8552,39.2802c-0.48,0.93 -0.06,2.09 0.93,2.53c0.96,0.5 2.13,0.02 2.53,-0.98c0.45,-0.96 0.01,-2.08 -0.99,-2.5c-0.92,-0.46 -2.08,-0.02 -2.47,0.95z" fill="currentColor"/>
<path id="Vector_157" d="M218.5662,104.9902c-0.54,1.1 -0.02,2.38 1.11,2.91c1.14,0.5 2.51,0.01 2.96,-1.11c0.47,-1.15 0.01,-2.46 -1.11,-2.93c-1.15,-0.49 -2.47,-0.01 -2.96,1.13z" fill="currentColor"/>
<path id="Vector_158" d="M428.8162,100.0602c-0.21,0.41 0,0.93 0.44,1.14c0.41,0.18 0.94,-0.06 1.09,-0.45c0.25,-0.45 0.04,-0.95 -0.39,-1.13c-0.44,-0.2 -0.95,0.03 -1.14,0.44z" fill="currentColor"/>
<path id="Vector_159" d="M655.6542,362.8202c-0.48,1.05 0.03,2.29 1.09,2.8c1.09,0.44 2.33,-0.04 2.81,-1.09c0.43,-1.05 -0.03,-2.31 -1.12,-2.81c-1.06,-0.51 -2.29,0.02 -2.78,1.1z" fill="currentColor"/>
<path id="Vector_160" d="M608.2952,390.2702c-0.45,1.01 0.03,2.19 0.98,2.61c0.99,0.43 2.16,-0.05 2.6,-1.01c0.45,-1.01 0.05,-2.19 -0.95,-2.59c-1.02,-0.45 -2.23,0 -2.63,0.99z" fill="currentColor"/>
<path id="Vector_161" d="M10.1831,253.3202c-0.35,0.75 -0.03,1.73 0.8,2.08c0.78,0.31 1.65,-0.04 2,-0.79c0.31,-0.79 0.02,-1.7 -0.75,-2.04c-0.8,-0.39 -1.72,0.01 -2.05,0.75z" fill="currentColor"/>
<path id="Vector_162" d="M95.2852,187.3502c-0.4,0.99 0.03,2.13 1,2.57c0.97,0.41 2.16,-0.04 2.55,-0.99c0.43,-0.99 0.01,-2.16 -0.97,-2.56c-0.99,-0.4 -2.13,0.04 -2.58,0.98z" fill="currentColor"/>
<path id="Vector_163" d="M693.6352,340.8802c-0.48,1.05 0.02,2.29 1.13,2.77c1.04,0.51 2.32,-0.01 2.78,-1.05c0.48,-1.11 0,-2.35 -1.08,-2.84c-1.11,-0.49 -2.37,0 -2.83,1.12z" fill="currentColor"/>
<path id="Vector_164" d="M209.2152,291.5302c-0.46,1.04 0.06,2.2 1.08,2.65c1,0.48 2.19,0.04 2.63,-0.99c0.46,-1.05 0.02,-2.26 -1.02,-2.69c-1.05,-0.42 -2.17,0.01 -2.69,1.03z" fill="currentColor"/>
<path id="Vector_165" d="M305.1842,324.8802c-0.22,0.44 -0.01,1.04 0.52,1.28c0.47,0.23 1.06,0 1.27,-0.49c0.22,-0.52 0.04,-1.08 -0.48,-1.32c-0.52,-0.2 -1.07,0 -1.31,0.53z" fill="currentColor"/>
<path id="Vector_166" d="M314.7552,209.7502c-0.16,0.41 0,0.91 0.47,1.15c0.46,0.19 0.96,-0.01 1.18,-0.46c0.2,-0.44 -0.04,-0.96 -0.44,-1.13c-0.48,-0.24 -0.98,-0.04 -1.21,0.44z" fill="currentColor"/>
<path id="Vector_167" d="M503.7052,313.4602c-0.46,1.05 0.03,2.24 1.04,2.69c1.05,0.46 2.28,0.01 2.72,-1.03c0.46,-1.04 -0.03,-2.24 -1.04,-2.69c-0.99,-0.45 -2.23,-0.02 -2.72,1.03z" fill="currentColor"/>
<path id="Vector_168" d="M237.2952,132.2802c-0.54,1.28 0.05,2.73 1.26,3.28c1.26,0.55 2.77,0.04 3.31,-1.25c0.55,-1.19 -0.02,-2.72 -1.28,-3.27c-1.24,-0.55 -2.7,0.02 -3.29,1.24z" fill="currentColor"/>
<path id="Vector_169" d="M162.1162,275.2402c-0.39,0.84 -0.02,1.75 0.84,2.13c0.78,0.36 1.71,0.03 2.09,-0.83c0.36,-0.8 0,-1.74 -0.78,-2.11c-0.83,-0.39 -1.78,0.02 -2.15,0.81z" fill="currentColor"/>
<path id="Vector_170" d="M0.1738,72.1302c-0.45,1.07 0,2.3 1.05,2.78c1.05,0.41 2.27,-0.07 2.73,-1.11c0.48,-1.05 -0.01,-2.25 -1.06,-2.73c-1.04,-0.45 -2.24,0.03 -2.72,1.06z" fill="currentColor"/>
<path id="Vector_171" d="M332.2842,148.7202c-0.52,1.27 0.01,2.76 1.27,3.31c1.28,0.59 2.73,0 3.32,-1.28c0.55,-1.26 0,-2.68 -1.28,-3.27c-1.26,-0.55 -2.72,0.02 -3.31,1.24z" fill="currentColor"/>
<path id="Vector_172" d="M389.8042,66.7202c-0.42,0.95 0.02,2.09 0.96,2.54c1,0.46 2.17,0 2.58,-0.99c0.46,-0.92 0.06,-2.1 -0.96,-2.55c-1.01,-0.43 -2.14,0.03 -2.58,1z" fill="currentColor"/>
<path id="Vector_173" d="M446.5032,231.0802c-0.54,1.16 -0.021,2.51 1.149,3.02c1.16,0.54 2.511,0.01 3.051,-1.14c0.47,-1.2 -0.021,-2.54 -1.181,-3.03c-1.12,-0.51 -2.519,0.02 -3.019,1.15z" fill="currentColor"/>
<path id="Vector_174" d="M255.4272,356.7402c-0.83,1.8 -0.01,3.84 1.76,4.63c1.75,0.76 3.79,-0.05 4.59,-1.76c0.76,-1.8 -0.04,-3.88 -1.8,-4.62c-1.72,-0.8 -3.8,0 -4.55,1.75z" fill="currentColor"/>
<path id="Vector_175" d="M57.2149,220.1902c-0.46,1.05 -0.01,2.28 1.04,2.76c1.03,0.42 2.19,-0.03 2.68,-1.06c0.42,-1.03 0.02,-2.25 -1.03,-2.66c-1.01,-0.53 -2.24,-0.05 -2.69,0.96z" fill="currentColor"/>
</g></svg>