<svg viewBox="0 0 87.5 87.5" fill="none" xmlns="http://www.w3.org/2000/svg" xmlns:xlink="http://www.w3.org/1999/xlink" x="0" y="0"><g id="Group 74">
<path id="Vector_307" d="M9.334,-0.497v9.25h9.836v-9.25h9.84v9.25h9.82v-9.25h9.84v9.25h9.83v-9.25h9.84v9.25h9.83v-9.25h9.83v84.5c0,2.21 -1.79,4 -4,4h-80.5c-2.209,0 -4,-1.79 -4,-4v-84.5z" fill="white" stroke="currentColor"/>
<g id="Vector_308">
<path d="M7.445,24.203h13.035v5.58h-13.035z" fill="currentColor"/>
<path d="M7.445,33.513h13.035v5.58h-13.035z" fill="currentColor"/>
<path d="M27.92,33.513h13.04v5.58h-13.04z" fill="currentColor"/>
<path d="M27.92,72.603h13.04v5.59h-13.04z" fill="currentColor"/>
<path d="M7.445,53.993h13.035v5.58h-13.035z" fill="currentColor"/>
<path d="M46.54,53.993h13.03v5.58h-13.03z" fill="currentColor"/>
<path d="M7.445,63.293h13.035v5.59h-13.035z" fill="currentColor"/>
<path d="M7.445,72.603h13.035v5.59h-13.035z" fill="currentColor"/>
<path d="M46.54,72.603h13.03v5.59h-13.03z" fill="currentColor"/>
<path d="M67.02,72.603h13.03v5.59h-13.03z" fill="currentColor"/>
</g>
</g></svg>