<svg viewBox="0 0 141.4073 48" fill="none" xmlns="http://www.w3.org/2000/svg" xmlns:xlink="http://www.w3.org/1999/xlink" x="0" y="0"><g id="Group_137">
<g id="Group_138">
<path id="Vector_502" fill-rule="evenodd" clip-rule="evenodd" d="M43.79,28.7421c5.103,-5.97 2.472,-14.58 -4.455,-16.92c1.004,-1.6 1.112,-3.23 -0.051,-4.79c-1.268,-1.71 -3.108,-1.64 -5.062,-1.52c0,0.29 0,0.57 0,0.86c-0.01,2.47 0.049,4.94 -0.047,7.41c-0.162,4.19 -3.431,7.53 -7.598,7.91c-0.434,0.04 -0.635,-0.08 -0.787,-0.51c-2.649,-7.46 2.455,-15.92 10.298,-17.05c8.307,-1.2 15.417,5.1 15.054,13.49c-0.211,4.87 -2.634,8.5 -6.877,10.91c-0.115,0.07 -0.245,0.11 -0.475,0.21z" fill="#3CA9D6"/>
<path id="Vector_503" fill-rule="evenodd" clip-rule="evenodd" d="M26.945,23.6821c5.705,-1.14 8.767,-4.55 9.305,-10.29c1.38,-0.06 2.664,0.31 3.872,0.95c3.12,1.66 4.896,5.26 4.302,8.67c-0.639,3.65 -3.392,6.46 -6.978,6.92c-0.897,0.12 -1.881,-0.12 -2.778,-0.37c-3.321,-0.9 -5.855,-2.88 -7.723,-5.88z" fill="#3CA9D6"/>
<path id="Vector_504" fill-rule="evenodd" clip-rule="evenodd" d="M32.136,29.6421c7.358,2.66 13.918,-0.51 17.212,-4.9c3.701,-4.93 4.003,-11.62 0.684,-16.85c-1.9,-2.99 -4.556,-5.05 -7.932,-6.15c-3.364,-1.09 -6.705,-0.93 -10.016,0.28c5.146,-3.12 13.619,-3.02 19.189,3.07c5.455,5.95 5.615,14.92 0.422,20.98c-5.405,6.31 -13.953,6.86 -19.559,3.57z" fill="#EA8D28"/>
<path id="Vector_505" fill-rule="evenodd" clip-rule="evenodd" d="M43.751,32.1221c-5.128,3.05 -13.443,2.83 -18.981,-3.07c-5.469,-5.83 -5.715,-14.86 -0.561,-20.99c5.221,-6.21 13.715,-7.05 19.533,-3.74c-7.555,-2.16 -13.853,-0.37 -18.032,6.48c-3.196,5.24 -2.954,10.81 0.603,15.82c4.344,6.12 10.404,7.6 17.438,5.5z" fill="#A2D738"/>
<path id="Vector_506" fill-rule="evenodd" clip-rule="evenodd" d="M36.209,7.5121c1.119,0 1.942,0.82 1.942,1.91c0,1.08 -0.809,1.89 -1.942,1.91z" fill="#3CA9D6"/>
</g>
<g id="Group_139">
<path id="Vector_507" d="M0,3.2721h7.775c3.652,0 6.294,0.54 7.925,1.63c1.631,1.1 2.449,2.82 2.449,5.18c0,1.63 -0.456,2.98 -1.365,4.04c-0.91,1.06 -2.237,1.75 -3.981,2.06v0.19c4.179,0.72 6.269,2.91 6.269,6.59c0,2.46 -0.83,4.38 -2.494,5.76c-1.663,1.38 -3.988,2.07 -6.974,2.07h-9.604zM3.2,15.0521h5.271c2.259,0 3.883,-0.35 4.876,-1.06c0.991,-0.71 1.487,-1.91 1.487,-3.59c0,-1.54 -0.552,-2.66 -1.656,-3.34c-1.104,-0.68 -2.862,-1.03 -5.271,-1.03h-4.707zM3.2,17.7621v10.3h5.742c2.222,0 3.893,-0.43 5.016,-1.29c1.123,-0.86 1.685,-2.2 1.685,-4.04c0,-1.7 -0.574,-2.96 -1.722,-3.76c-1.148,-0.81 -2.896,-1.21 -5.243,-1.21h-5.478z" fill="white"/>
</g>
<g id="Group_140">
<path id="Vector_508" d="M73.62,23.4821c0,2.42 -0.879,4.31 -2.635,5.66c-1.758,1.36 -4.142,2.03 -7.154,2.03c-3.264,0 -5.773,-0.42 -7.53,-1.26v-3.08c1.129,0.47 2.358,0.85 3.689,1.13c1.33,0.27 2.647,0.41 3.952,0.41c2.135,0 3.74,-0.4 4.819,-1.21c1.079,-0.81 1.619,-1.94 1.619,-3.38c0,-0.96 -0.19,-1.74 -0.574,-2.35c-0.383,-0.6 -1.023,-1.17 -1.919,-1.68c-0.899,-0.52 -2.263,-1.1 -4.095,-1.75c-2.559,-0.92 -4.39,-2 -5.487,-3.26c-1.098,-1.25 -1.648,-2.89 -1.648,-4.91c0,-2.12 0.797,-3.81 2.391,-5.07c1.594,-1.25 3.702,-1.88 6.325,-1.88c2.735,0 5.252,0.5 7.548,1.51l-0.994,2.78c-2.273,-0.95 -4.481,-1.43 -6.627,-1.43c-1.693,0 -3.019,0.37 -3.973,1.1c-0.954,0.72 -1.43,1.74 -1.43,3.03c0,0.95 0.176,1.73 0.527,2.34c0.351,0.61 0.944,1.17 1.779,1.68c0.835,0.5 2.111,1.07 3.831,1.68c2.888,1.03 4.873,2.13 5.959,3.31c1.084,1.18 1.627,2.71 1.627,4.6z" fill="white"/>
<path id="Vector_509" d="M87.719,30.8021h-3.201v-24.68h-8.715v-2.84h20.632v2.84h-8.716z" fill="white"/>
<path id="Vector_510" d="M115.921,30.8021h-15.341v-27.52h15.343v2.84h-12.143v8.87h11.408v2.82h-11.408v10.13h12.143v2.86z" fill="white"/>
<path id="Vector_511" d="M125.221,19.3521v11.45h-3.201v-27.52h7.548c3.376,0 5.871,0.64 7.483,1.94c1.613,1.29 2.42,3.23 2.42,5.83c0,3.64 -1.846,6.1 -5.535,7.38l7.473,12.37h-3.784l-6.664,-11.45h-5.74zM125.221,16.6121h4.386c2.259,0 3.916,-0.45 4.971,-1.35c1.053,-0.9 1.582,-2.24 1.582,-4.04c0,-1.82 -0.537,-3.13 -1.609,-3.93c-1.074,-0.81 -2.796,-1.21 -5.168,-1.21h-4.161v10.53z" fill="white"/>
</g>
<g id="Group_141">
<path id="Vector_512" d="M4.754,45.5221l-0.166,-0.78h-0.04c-0.275,0.35 -0.549,0.58 -0.823,0.7c-0.273,0.12 -0.614,0.19 -1.023,0.19c-0.547,0 -0.974,-0.14 -1.285,-0.43c-0.31,-0.28 -0.464,-0.68 -0.464,-1.2c0,-1.11 0.89,-1.7 2.669,-1.75l0.936,-0.03v-0.34c0,-0.43 -0.093,-0.75 -0.279,-0.96c-0.185,-0.2 -0.483,-0.31 -0.893,-0.31c-0.459,0 -0.979,0.14 -1.558,0.43l-0.257,-0.64c0.272,-0.15 0.569,-0.27 0.893,-0.35c0.324,-0.08 0.649,-0.13 0.973,-0.13c0.657,0 1.145,0.15 1.46,0.44c0.318,0.29 0.475,0.76 0.475,1.4v3.77h-0.618zM2.868,44.9421c0.52,0 0.928,-0.15 1.224,-0.43c0.297,-0.29 0.446,-0.69 0.446,-1.2v-0.5l-0.834,0.04c-0.664,0.02 -1.144,0.13 -1.436,0.31c-0.293,0.18 -0.44,0.46 -0.44,0.85c0,0.3 0.091,0.53 0.273,0.69c0.183,0.16 0.438,0.24 0.767,0.24z" fill="white"/>
<path id="Vector_513" d="M11.274,45.5221v-3.56c0,-0.45 -0.103,-0.79 -0.307,-1.01c-0.205,-0.22 -0.526,-0.33 -0.961,-0.33c-0.578,0 -1,0.16 -1.268,0.47c-0.269,0.31 -0.402,0.82 -0.402,1.54v2.89h-0.834v-5.51h0.679l0.135,0.76h0.04c0.171,-0.27 0.411,-0.48 0.72,-0.63c0.309,-0.15 0.651,-0.23 1.031,-0.23c0.664,0 1.163,0.16 1.499,0.48c0.336,0.32 0.504,0.83 0.504,1.54v3.59h-0.836z" fill="white"/>
<path id="Vector_514" d="M16.017,44.9421c0.147,0 0.29,-0.01 0.427,-0.04c0.137,-0.02 0.246,-0.04 0.328,-0.06v0.63c-0.092,0.05 -0.225,0.08 -0.401,0.11c-0.175,0.03 -0.334,0.04 -0.474,0.04c-1.065,0 -1.599,-0.56 -1.599,-1.68v-3.28h-0.79v-0.4l0.79,-0.35l0.351,-1.18h0.483v1.28h1.599v0.65h-1.599v3.24c0,0.33 0.079,0.59 0.236,0.77c0.157,0.18 0.374,0.27 0.649,0.27z" fill="white"/>
<path id="Vector_515" d="M18.213,38.5221c0,-0.19 0.047,-0.33 0.14,-0.42c0.095,-0.09 0.211,-0.13 0.351,-0.13c0.134,0 0.25,0.04 0.348,0.13c0.098,0.09 0.145,0.23 0.145,0.42c0,0.18 -0.049,0.32 -0.145,0.42c-0.098,0.09 -0.213,0.14 -0.348,0.14c-0.14,0 -0.258,-0.05 -0.351,-0.14c-0.093,-0.09 -0.14,-0.23 -0.14,-0.42zM19.118,45.5221h-0.834v-5.51h0.834z" fill="white"/>
<path id="Vector_516" d="M23.866,39.9221c0.724,0 1.286,0.25 1.686,0.74c0.401,0.5 0.602,1.2 0.602,2.1c0,0.91 -0.203,1.61 -0.607,2.11c-0.403,0.5 -0.964,0.75 -1.681,0.75c-0.36,0 -0.687,-0.06 -0.983,-0.2c-0.297,-0.13 -0.545,-0.33 -0.746,-0.61h-0.061l-0.176,0.71h-0.597v-7.82h0.834v1.9c0,0.42 -0.014,0.81 -0.041,1.14h0.041c0.388,-0.54 0.966,-0.82 1.729,-0.82zM23.746,40.6221c-0.571,0 -0.981,0.17 -1.233,0.49c-0.251,0.33 -0.376,0.88 -0.376,1.65c0,0.78 0.128,1.33 0.386,1.66c0.259,0.34 0.672,0.5 1.243,0.5c0.513,0 0.895,-0.18 1.147,-0.56c0.251,-0.37 0.376,-0.91 0.376,-1.61c0,-0.72 -0.125,-1.25 -0.376,-1.6c-0.252,-0.35 -0.64,-0.53 -1.167,-0.53z" fill="white"/>
<path id="Vector_517" d="M32.782,42.7621c0,0.9 -0.226,1.6 -0.678,2.11c-0.453,0.5 -1.078,0.75 -1.876,0.75c-0.493,0 -0.931,-0.11 -1.312,-0.34c-0.382,-0.23 -0.677,-0.57 -0.885,-1c-0.208,-0.43 -0.312,-0.94 -0.312,-1.52c0,-0.89 0.224,-1.59 0.673,-2.09c0.45,-0.51 1.073,-0.76 1.871,-0.76c0.772,0 1.385,0.26 1.839,0.77c0.452,0.51 0.68,1.21 0.68,2.08zM28.583,42.7621c0,0.71 0.14,1.24 0.422,1.61c0.282,0.37 0.696,0.56 1.243,0.56c0.547,0 0.961,-0.19 1.244,-0.55c0.284,-0.37 0.426,-0.91 0.426,-1.61c0,-0.71 -0.142,-1.24 -0.426,-1.6c-0.283,-0.36 -0.7,-0.55 -1.254,-0.55c-0.547,0 -0.959,0.18 -1.238,0.54c-0.278,0.36 -0.417,0.89 -0.417,1.6z" fill="white"/>
<path id="Vector_518" d="M38.407,44.7821h-0.046c-0.385,0.57 -0.962,0.84 -1.731,0.84c-0.721,0 -1.281,-0.24 -1.681,-0.74c-0.4,-0.49 -0.601,-1.19 -0.601,-2.1c0,-0.91 0.201,-1.61 0.602,-2.12c0.402,-0.5 0.963,-0.75 1.68,-0.75c0.748,0 1.321,0.27 1.721,0.82h0.066l-0.036,-0.4l-0.02,-0.39v-2.24h0.834v7.82h-0.679zM36.737,44.9221c0.57,0 0.982,-0.15 1.239,-0.46c0.257,-0.31 0.385,-0.81 0.385,-1.5v-0.18c0,-0.78 -0.13,-1.34 -0.39,-1.67c-0.26,-0.33 -0.675,-0.5 -1.244,-0.5c-0.49,0 -0.865,0.19 -1.125,0.57c-0.26,0.38 -0.39,0.92 -0.39,1.62c0,0.7 0.128,1.23 0.387,1.59c0.26,0.36 0.638,0.53 1.138,0.53z" fill="white"/>
<path id="Vector_519" d="M40.504,40.0121h0.895l1.207,3.15c0.265,0.71 0.429,1.23 0.493,1.55h0.041c0.043,-0.17 0.135,-0.46 0.273,-0.88c0.138,-0.41 0.594,-1.69 1.366,-3.82h0.895l-2.369,6.28c-0.235,0.62 -0.508,1.06 -0.822,1.32c-0.314,0.26 -0.699,0.39 -1.155,0.39c-0.255,0 -0.507,-0.03 -0.755,-0.09v-0.67c0.184,0.04 0.39,0.06 0.618,0.06c0.574,0 0.983,-0.32 1.228,-0.96l0.307,-0.79z" fill="white"/>
<path id="Vector_520" d="M53.457,45.5221l-0.166,-0.78h-0.04c-0.275,0.35 -0.549,0.58 -0.822,0.7c-0.274,0.12 -0.615,0.19 -1.024,0.19c-0.547,0 -0.974,-0.14 -1.284,-0.43c-0.311,-0.28 -0.465,-0.68 -0.465,-1.2c0,-1.11 0.89,-1.7 2.67,-1.75l0.935,-0.03v-0.34c0,-0.43 -0.093,-0.75 -0.279,-0.96c-0.185,-0.2 -0.482,-0.31 -0.893,-0.31c-0.459,0 -0.979,0.14 -1.558,0.43l-0.257,-0.64c0.272,-0.15 0.569,-0.27 0.893,-0.35c0.325,-0.08 0.649,-0.13 0.973,-0.13c0.657,0 1.145,0.15 1.46,0.44c0.318,0.29 0.475,0.76 0.475,1.4v3.77h-0.618zM51.573,44.9421c0.52,0 0.928,-0.15 1.224,-0.43c0.297,-0.29 0.445,-0.69 0.445,-1.2v-0.5l-0.834,0.04c-0.663,0.02 -1.143,0.13 -1.435,0.31c-0.294,0.18 -0.44,0.46 -0.44,0.85c0,0.3 0.091,0.53 0.273,0.69c0.182,0.16 0.437,0.24 0.767,0.24z" fill="white"/>
<path id="Vector_521" d="M59.979,45.5221v-3.56c0,-0.45 -0.103,-0.79 -0.307,-1.01c-0.205,-0.22 -0.525,-0.33 -0.961,-0.33c-0.578,0 -1,0.16 -1.268,0.47c-0.269,0.31 -0.402,0.82 -0.402,1.54v2.89h-0.834v-5.51h0.679l0.135,0.76h0.04c0.171,-0.27 0.411,-0.48 0.72,-0.63c0.309,-0.15 0.651,-0.23 1.031,-0.23c0.664,0 1.164,0.16 1.5,0.48c0.336,0.32 0.503,0.83 0.503,1.54v3.59h-0.836z" fill="white"/>
<path id="Vector_522" d="M66.692,44.7821h-0.046c-0.385,0.57 -0.962,0.84 -1.73,0.84c-0.721,0 -1.282,-0.24 -1.682,-0.74c-0.4,-0.49 -0.601,-1.19 -0.601,-2.1c0,-0.91 0.201,-1.61 0.603,-2.12c0.401,-0.5 0.962,-0.75 1.68,-0.75c0.747,0 1.32,0.27 1.72,0.82h0.066l-0.036,-0.4l-0.02,-0.39v-2.24h0.834v7.82h-0.679zM65.022,44.9221c0.571,0 0.983,-0.15 1.239,-0.46c0.257,-0.31 0.385,-0.81 0.385,-1.5v-0.18c0,-0.78 -0.13,-1.34 -0.39,-1.67c-0.26,-0.33 -0.675,-0.5 -1.244,-0.5c-0.49,0 -0.865,0.19 -1.125,0.57c-0.26,0.38 -0.39,0.92 -0.39,1.62c0,0.7 0.129,1.23 0.387,1.59c0.26,0.36 0.638,0.53 1.138,0.53z" fill="white"/>
<path id="Vector_523" d="M76.975,45.5221h-4.098v-7.35h4.098v0.76h-3.244v2.37h3.048v0.76h-3.048v2.7h3.244z" fill="white"/>
<path id="Vector_524" d="M79.016,45.5221v-7.35h0.854v6.58h3.243v0.78h-4.097z" fill="white"/>
<path id="Vector_525" d="M84.771,45.5221v-7.35h0.855v7.35z" fill="white"/>
<path id="Vector_526" d="M92.204,43.5721c0,0.64 -0.234,1.15 -0.704,1.51c-0.469,0.36 -1.106,0.54 -1.911,0.54c-0.871,0 -1.541,-0.11 -2.011,-0.33v-0.83c0.302,0.13 0.63,0.23 0.986,0.3c0.356,0.08 0.708,0.12 1.055,0.12c0.571,0 1,-0.11 1.287,-0.33c0.289,-0.21 0.432,-0.51 0.432,-0.9c0,-0.26 -0.05,-0.46 -0.153,-0.63c-0.103,-0.16 -0.274,-0.31 -0.514,-0.45c-0.239,-0.14 -0.604,-0.29 -1.094,-0.47c-0.684,-0.24 -1.172,-0.53 -1.465,-0.87c-0.294,-0.33 -0.441,-0.77 -0.441,-1.31c0,-0.56 0.213,-1.02 0.638,-1.35c0.426,-0.33 0.99,-0.5 1.69,-0.5c0.731,0 1.403,0.13 2.016,0.4l-0.267,0.74c-0.606,-0.25 -1.197,-0.38 -1.769,-0.38c-0.452,0 -0.807,0.1 -1.06,0.29c-0.255,0.2 -0.382,0.47 -0.382,0.81c0,0.26 0.047,0.47 0.14,0.63c0.095,0.16 0.252,0.31 0.475,0.45c0.223,0.13 0.564,0.28 1.023,0.45c0.771,0.27 1.302,0.57 1.592,0.88c0.292,0.32 0.437,0.72 0.437,1.23z" fill="white"/>
<path id="Vector_527" d="M98.74,45.5221l-0.915,-2.33h-2.946l-0.905,2.33h-0.865l2.906,-7.38h0.719l2.893,7.38zM97.558,42.4221l-0.854,-2.28c-0.111,-0.29 -0.225,-0.64 -0.343,-1.06c-0.074,0.32 -0.179,0.67 -0.317,1.06l-0.865,2.28z" fill="white"/>
<path id="Vector_528" d="M106.339,45.6221c-0.816,0 -1.457,-0.24 -1.928,-0.74c-0.471,-0.5 -0.706,-1.19 -0.706,-2.07c0,-0.89 0.22,-1.59 0.657,-2.11c0.437,-0.53 1.025,-0.79 1.763,-0.79c0.69,0 1.237,0.23 1.639,0.68c0.402,0.46 0.603,1.06 0.603,1.8v0.53h-3.797c0.016,0.65 0.18,1.14 0.489,1.47c0.311,0.34 0.746,0.51 1.31,0.51c0.593,0 1.181,-0.13 1.76,-0.38v0.75c-0.296,0.13 -0.574,0.22 -0.838,0.27c-0.263,0.06 -0.581,0.08 -0.952,0.08zM106.113,40.6121c-0.443,0 -0.795,0.14 -1.059,0.43c-0.263,0.29 -0.419,0.69 -0.464,1.2h2.882c0,-0.53 -0.118,-0.93 -0.351,-1.21c-0.237,-0.28 -0.573,-0.42 -1.008,-0.42z" fill="white"/>
<path id="Vector_529" d="M111.321,42.7021l-1.917,-2.69h0.951l1.454,2.12l1.448,-2.12h0.941l-1.917,2.69l2.016,2.82h-0.945l-1.543,-2.23l-1.559,2.23h-0.945z" fill="white"/>
<path id="Vector_530" d="M118.366,45.6221c-0.36,0 -0.687,-0.06 -0.983,-0.2c-0.297,-0.13 -0.545,-0.33 -0.746,-0.61h-0.061c0.041,0.33 0.061,0.63 0.061,0.92v2.27h-0.834v-7.99h0.678l0.115,0.75h0.041c0.214,-0.3 0.464,-0.52 0.749,-0.65c0.286,-0.13 0.612,-0.2 0.981,-0.2c0.732,0 1.295,0.25 1.692,0.75c0.397,0.5 0.596,1.2 0.596,2.1c0,0.91 -0.202,1.61 -0.606,2.11c-0.405,0.5 -0.967,0.75 -1.683,0.75zM118.244,40.6221c-0.564,0 -0.971,0.16 -1.222,0.47c-0.252,0.31 -0.38,0.81 -0.387,1.49v0.18c0,0.78 0.128,1.33 0.387,1.67c0.258,0.33 0.672,0.5 1.242,0.5c0.477,0 0.85,-0.2 1.12,-0.58c0.27,-0.39 0.405,-0.92 0.405,-1.6c0,-0.68 -0.135,-1.21 -0.405,-1.58c-0.27,-0.37 -0.65,-0.55 -1.14,-0.55z" fill="white"/>
<path id="Vector_531" d="M124.853,45.6221c-0.816,0 -1.457,-0.24 -1.928,-0.74c-0.472,-0.5 -0.706,-1.19 -0.706,-2.07c0,-0.89 0.219,-1.59 0.657,-2.11c0.437,-0.53 1.024,-0.79 1.762,-0.79c0.691,0 1.238,0.23 1.64,0.68c0.402,0.46 0.602,1.06 0.602,1.8v0.53h-3.797c0.017,0.65 0.181,1.14 0.49,1.47c0.311,0.34 0.746,0.51 1.31,0.51c0.593,0 1.18,-0.13 1.759,-0.38v0.75c-0.295,0.13 -0.574,0.22 -0.837,0.27c-0.262,0.06 -0.579,0.08 -0.952,0.08zM124.626,40.6121c-0.442,0 -0.795,0.14 -1.058,0.43c-0.264,0.29 -0.419,0.69 -0.465,1.2h2.883c0,-0.53 -0.119,-0.93 -0.352,-1.21c-0.236,-0.28 -0.57,-0.42 -1.008,-0.42z" fill="white"/>
<path id="Vector_532" d="M131.229,39.9121c0.245,0 0.464,0.02 0.658,0.06l-0.116,0.78c-0.228,-0.05 -0.429,-0.08 -0.603,-0.08c-0.446,0 -0.827,0.18 -1.145,0.55c-0.317,0.36 -0.474,0.81 -0.474,1.35v2.95h-0.834v-5.51h0.689l0.096,1.02h0.04c0.205,-0.35 0.451,-0.63 0.74,-0.82c0.285,-0.2 0.603,-0.3 0.949,-0.3z" fill="white"/>
<path id="Vector_533" d="M135.111,44.9421c0.146,0 0.29,-0.01 0.427,-0.04c0.136,-0.02 0.246,-0.04 0.327,-0.06v0.63c-0.091,0.05 -0.224,0.08 -0.4,0.11c-0.175,0.03 -0.334,0.04 -0.474,0.04c-1.066,0 -1.599,-0.56 -1.599,-1.68v-3.28h-0.79v-0.4l0.79,-0.35l0.351,-1.18h0.483v1.28h1.599v0.65h-1.599v3.24c0,0.33 0.079,0.59 0.236,0.77c0.157,0.18 0.373,0.27 0.649,0.27z" fill="white"/>
<path id="Vector_534" d="M140.932,44.0221c0,0.51 -0.191,0.91 -0.574,1.19c-0.383,0.28 -0.918,0.41 -1.609,0.41c-0.731,0 -1.3,-0.11 -1.71,-0.34v-0.78c0.265,0.14 0.548,0.24 0.852,0.32c0.304,0.08 0.596,0.12 0.878,0.12c0.436,0 0.772,-0.07 1.007,-0.21c0.234,-0.14 0.351,-0.35 0.351,-0.64c0,-0.21 -0.093,-0.4 -0.279,-0.55c-0.186,-0.15 -0.549,-0.33 -1.089,-0.54c-0.513,-0.19 -0.878,-0.36 -1.094,-0.5c-0.216,-0.14 -0.376,-0.3 -0.483,-0.49c-0.106,-0.18 -0.159,-0.39 -0.159,-0.64c0,-0.45 0.183,-0.81 0.549,-1.07c0.365,-0.26 0.866,-0.39 1.505,-0.39c0.592,0 1.173,0.12 1.739,0.36l-0.298,0.68c-0.553,-0.23 -1.055,-0.34 -1.504,-0.34c-0.395,0 -0.694,0.06 -0.895,0.19c-0.201,0.12 -0.302,0.29 -0.302,0.51c0,0.15 0.037,0.27 0.113,0.38c0.076,0.1 0.198,0.2 0.365,0.29c0.167,0.1 0.489,0.23 0.966,0.41c0.653,0.24 1.095,0.48 1.325,0.72c0.231,0.24 0.346,0.55 0.346,0.91z" fill="white"/>
</g>
</g></svg>