<svg viewBox="0 0 137.995 46" fill="none" xmlns="http://www.w3.org/2000/svg" xmlns:xlink="http://www.w3.org/1999/xlink" x="0" y="0"><g id="Vector_696">
<path fill-rule="evenodd" clip-rule="evenodd" d="M42.733,27.5424c4.979,-5.7197 2.412,-13.97 -4.349,-16.2094c0.981,-1.5404 1.086,-3.0985 -0.049,-4.5968c-1.237,-1.6326 -3.033,-1.5647 -4.94,-1.453c0,0.2799 0,0.5501 0,0.8203c-0.01,2.3672 0.048,4.7376 -0.046,7.1016c-0.158,4.0159 -3.348,7.2212 -7.414,7.5837c-0.424,0.0372 -0.62,-0.0793 -0.768,-0.4887c-2.585,-7.1484 2.396,-15.2613 10.049,-16.3437c8.107,-1.1456 15.045,4.8929 14.691,12.9297c-0.206,4.6696 -2.571,8.1516 -6.711,10.459c-0.112,0.0631 -0.239,0.1035 -0.463,0.1973z" fill="currentColor"/>
<path fill-rule="evenodd" clip-rule="evenodd" d="M26.293,22.6999c5.568,-1.0987 8.555,-4.3687 9.08,-9.87c1.347,-0.0485 2.6,0.3009 3.779,0.9174c3.044,1.5905 4.778,5.0386 4.198,8.3038c-0.623,3.4998 -3.31,6.1906 -6.81,6.6339c-0.875,0.1116 -1.836,-0.1197 -2.71,-0.3544c-3.241,-0.8672 -5.715,-2.7636 -7.537,-5.6307z" fill="currentColor"/>
<path fill-rule="evenodd" clip-rule="evenodd" d="M31.36,28.4065c7.181,2.5533 13.582,-0.487 16.797,-4.6955c3.611,-4.7263 3.906,-11.1337 0.667,-16.1464c-1.854,-2.8704 -4.446,-4.8411 -7.741,-5.8912c-3.282,-1.0453 -6.543,-0.8964 -9.774,0.2685c5.022,-2.9949 13.29,-2.8962 18.726,2.9335c5.324,5.7101 5.48,14.3035 0.412,20.1122c-5.274,6.0466 -13.617,6.5741 -19.087,3.4189z" fill="currentColor"/>
<path fill-rule="evenodd" clip-rule="evenodd" d="M42.694,30.7835c-5.003,2.9271 -13.118,2.7151 -18.523,-2.9432c-5.336,-5.5887 -5.577,-14.2387 -0.547,-20.1137c5.095,-5.9528 13.384,-6.7553 19.062,-3.5807c-7.373,-2.076 -13.519,-0.3544 -17.597,6.21c-3.119,5.0207 -2.883,10.3554 0.588,15.1577c4.24,5.8621 10.153,7.2812 17.017,5.2699z" fill="currentColor"/>
<path fill-rule="evenodd" clip-rule="evenodd" d="M35.335,7.1972c1.092,0 1.894,0.788 1.894,1.8316c0,1.0388 -0.789,1.8122 -1.894,1.8333z" fill="currentColor"/>
<path d="M0,3.1332h7.588c3.563,0 6.142,0.5226 7.734,1.5695c1.591,1.0469 2.389,2.7005 2.389,4.9609c0,1.563 -0.445,2.8542 -1.332,3.8703c-0.888,1.0161 -2.183,1.6747 -3.885,1.9756v0.1813c4.078,0.686 6.118,2.7911 6.118,6.3135c0,2.3575 -0.811,4.1972 -2.434,5.5207c-1.622,1.3236 -3.891,1.9838 -6.806,1.9838h-9.372zM3.122,14.4271h5.144c2.205,0 3.79,-0.3398 4.759,-1.0194c0.967,-0.6796 1.451,-1.8251 1.451,-3.4367c0,-1.4789 -0.538,-2.5468 -1.616,-3.2021c-1.078,-0.6553 -2.793,-0.9837 -5.144,-0.9837h-4.594zM3.122,26.894h5.604c2.168,0 3.8,-0.4126 4.895,-1.2362c1.096,-0.8235 1.645,-2.1131 1.645,-3.8703c0,-1.6358 -0.561,-2.838 -1.681,-3.6082c-1.12,-0.7702 -2.826,-1.1553 -5.116,-1.1553h-5.347z" fill="currentColor"/>
<path d="M71.843,22.4997c0,2.3219 -0.858,4.1308 -2.572,5.4301c-1.715,1.2993 -4.042,1.9481 -6.981,1.9481c-3.185,0 -5.634,-0.4029 -7.349,-1.2087v-2.9577c1.102,0.4579 2.302,0.8187 3.6,1.0824c1.299,0.2654 2.584,0.3965 3.858,0.3965c2.082,0 3.649,-0.3884 4.702,-1.1634c1.053,-0.775 1.58,-1.8543 1.58,-3.2377c0,-0.9142 -0.186,-1.6617 -0.56,-2.2458c-0.374,-0.5825 -0.999,-1.1213 -1.874,-1.6148c-0.876,-0.4935 -2.207,-1.0517 -3.995,-1.6779c-2.498,-0.877 -4.284,-1.9174 -5.355,-3.1212c-1.071,-1.2022 -1.608,-2.7717 -1.608,-4.7085c0,-2.0322 0.778,-3.6503 2.333,-4.8525c1.555,-1.2022 3.613,-1.8041 6.172,-1.8041c2.669,0 5.126,0.4806 7.367,1.4433l-0.971,2.6698c-2.217,-0.9142 -4.373,-1.3705 -6.467,-1.3705c-1.652,0 -2.946,0.3495 -3.877,1.0469c-0.931,0.6973 -1.395,1.6665 -1.395,2.9043c0,0.9142 0.171,1.6634 0.514,2.2459c0.343,0.5841 0.921,1.118 1.736,1.6051c0.814,0.487 2.06,1.0258 3.739,1.6147c2.818,0.987 4.755,2.0452 5.815,3.1746c1.057,1.131 1.588,2.5986 1.588,4.4011z" fill="currentColor"/>
<path d="M85.603,29.5184h-3.124v-23.6524h-8.506v-2.7232h20.135v2.7248h-8.505z" fill="currentColor"/>
<path d="M98.151,29.5184v-26.3756h14.973v2.7248h-11.85v8.4979h11.133v2.7053h-11.133v9.7066h11.85v2.741z" fill="currentColor"/>
<path d="M122.197,29.5193h-3.124v-26.3755h7.367c3.294,0 5.729,0.6197 7.302,1.8575c1.574,1.2394 2.362,3.1034 2.362,5.5919c0,3.4885 -1.801,5.846 -5.402,7.0724l7.293,11.8521h-3.692l-6.504,-10.9686h-5.602zM122.197,15.9165h4.281c2.204,0 3.821,-0.4304 4.851,-1.2895c1.028,-0.8592 1.543,-2.1504 1.543,-3.8704c0,-1.7442 -0.524,-3.0014 -1.57,-3.77c-1.048,-0.7702 -2.728,-1.1553 -5.043,-1.1553h-4.06v10.0852z" fill="currentColor"/>
<path d="M4.638,43.629l-0.162,-0.7524h-0.039c-0.269,0.3317 -0.536,0.555 -0.803,0.6731c-0.267,0.1165 -0.599,0.1764 -0.998,0.1764c-0.534,0 -0.951,-0.1343 -1.254,-0.4045c-0.303,-0.2702 -0.453,-0.6537 -0.453,-1.1521c0,-1.0662 0.868,-1.6261 2.605,-1.6762l0.913,-0.0292v-0.3284c0,-0.4142 -0.091,-0.72 -0.272,-0.9174c-0.181,-0.1974 -0.471,-0.2961 -0.872,-0.2961c-0.448,0 -0.955,0.1343 -1.521,0.4045l-0.25,-0.6117c0.265,-0.1407 0.555,-0.2524 0.872,-0.3316c0.316,-0.081 0.632,-0.1214 0.949,-0.1214c0.641,0 1.117,0.1391 1.425,0.4191c0.31,0.2799 0.463,0.7281 0.463,1.3446v3.6049h-0.603zM2.797,43.0643c0.508,0 0.907,-0.1359 1.195,-0.4093c0.29,-0.2735 0.435,-0.6553 0.435,-1.1472v-0.4773l-0.814,0.0339c-0.648,0.0227 -1.115,0.1214 -1.401,0.2961c-0.286,0.1748 -0.43,0.4466 -0.43,0.8171c0,0.2897 0.089,0.5097 0.267,0.6602c0.178,0.1521 0.427,0.2265 0.748,0.2265z" fill="currentColor"/>
<path d="M11.001,43.6298v-3.4173c0,-0.4304 -0.1,-0.7524 -0.3,-0.9644c-0.199,-0.2119 -0.512,-0.3171 -0.937,-0.3171c-0.564,0 -0.975,0.1488 -1.237,0.4482c-0.262,0.2993 -0.393,0.7912 -0.393,1.4789v2.7717h-0.814v-5.2813h0.663l0.132,0.7233h0.039c0.167,-0.2606 0.401,-0.4612 0.702,-0.6052c0.302,-0.1424 0.636,-0.2152 1.007,-0.2152c0.647,0 1.135,0.1537 1.463,0.4595c0.328,0.3075 0.491,0.7977 0.491,1.4724v3.4448h-0.816z" fill="currentColor"/>
<path d="M15.629,43.0644c0.143,0 0.283,-0.0097 0.417,-0.0308c0.133,-0.021 0.241,-0.042 0.32,-0.0647v0.6116c-0.089,0.0421 -0.22,0.0761 -0.391,0.1036c-0.171,0.0275 -0.326,0.0404 -0.463,0.0404c-1.04,0 -1.56,-0.5388 -1.56,-1.6148v-3.1422h-0.771v-0.3851l0.771,-0.3333l0.342,-1.1278h0.472v1.2233h1.56v0.6213h-1.56v3.1082c0,0.3188 0.077,0.5615 0.23,0.733c0.154,0.1731 0.365,0.2573 0.633,0.2573z" fill="currentColor"/>
<path d="M17.773,36.9157c0,-0.1829 0.046,-0.3172 0.137,-0.4029c0.092,-0.0858 0.206,-0.1278 0.343,-0.1278c0.13,0 0.243,0.0437 0.339,0.1294c0.096,0.0874 0.142,0.2201 0.142,0.3997c0,0.1796 -0.048,0.3139 -0.142,0.4029c-0.096,0.0889 -0.208,0.1326 -0.339,0.1326c-0.137,0 -0.252,-0.0437 -0.343,-0.1326c-0.091,-0.0874 -0.137,-0.2217 -0.137,-0.4013zM18.656,43.6289h-0.814v-5.2813h0.814z" fill="currentColor"/>
<path d="M23.288,38.2605c0.707,0 1.256,0.2363 1.646,0.7103c0.391,0.4741 0.587,1.144 0.587,2.0113c0,0.8672 -0.198,1.5419 -0.592,2.0209c-0.394,0.4805 -0.941,0.72 -1.641,0.72c-0.351,0 -0.67,-0.0631 -0.959,-0.1909c-0.29,-0.1262 -0.532,-0.322 -0.728,-0.5857h-0.059l-0.172,0.6795h-0.583v-7.4979h0.814v1.8219c0,0.4077 -0.013,0.775 -0.04,1.0986h0.04c0.379,-0.5242 0.942,-0.788 1.687,-0.788zM23.171,38.9304c-0.557,0 -0.957,0.1569 -1.203,0.4692c-0.245,0.3123 -0.367,0.8414 -0.367,1.5825c0,0.7426 0.125,1.2733 0.377,1.5921c0.252,0.3204 0.656,0.4789 1.213,0.4789c0.501,0 0.873,-0.1796 1.119,-0.5371c0.245,-0.3576 0.367,-0.8738 0.367,-1.5436c0,-0.6877 -0.122,-1.2006 -0.367,-1.5372c-0.246,-0.3365 -0.625,-0.5048 -1.139,-0.5048z" fill="currentColor"/>
<path d="M31.989,40.9836c0,0.8608 -0.221,1.5339 -0.662,2.0161c-0.442,0.4838 -1.051,0.7249 -1.831,0.7249c-0.481,0 -0.908,-0.1101 -1.28,-0.3317c-0.372,-0.2217 -0.661,-0.5405 -0.863,-0.9547c-0.203,-0.4142 -0.305,-0.8996 -0.305,-1.4546c0,-0.8608 0.219,-1.5323 0.657,-2.0112c0.439,-0.4806 1.047,-0.72 1.826,-0.72c0.753,0 1.351,0.2459 1.794,0.7378c0.442,0.4886 0.664,1.1537 0.664,1.9934zM27.891,40.9836c0,0.6747 0.137,1.1893 0.412,1.542c0.276,0.3527 0.679,0.5307 1.213,0.5307c0.534,0 0.938,-0.1764 1.214,-0.5275c0.277,-0.3511 0.416,-0.8672 0.416,-1.5436c0,-0.6715 -0.139,-1.1811 -0.416,-1.5306c-0.276,-0.3479 -0.683,-0.5227 -1.224,-0.5227c-0.534,0 -0.936,0.1716 -1.208,0.5162c-0.271,0.3414 -0.407,0.8543 -0.407,1.5355z" fill="currentColor"/>
<path d="M37.479,42.9201h-0.044c-0.376,0.5372 -0.94,0.8042 -1.689,0.8042c-0.704,0 -1.251,-0.2363 -1.641,-0.7087c-0.391,-0.4725 -0.587,-1.144 -0.587,-2.0145c0,-0.8705 0.196,-1.5468 0.588,-2.029c0.392,-0.4822 0.939,-0.7232 1.64,-0.7232c0.73,0 1.288,0.2605 1.679,0.7815h0.064l-0.035,-0.3803l-0.019,-0.3705v-2.1488h0.814v7.498h-0.663zM35.85,43.0544c0.556,0 0.958,-0.1489 1.209,-0.445c0.25,-0.2961 0.376,-0.7766 0.376,-1.4384v-0.1683c0,-0.7491 -0.127,-1.2831 -0.381,-1.6018c-0.254,-0.3204 -0.659,-0.4789 -1.214,-0.4789c-0.478,0 -0.844,0.1828 -1.098,0.5468c-0.253,0.3641 -0.38,0.8803 -0.38,1.5453c0,0.6747 0.125,1.1844 0.377,1.5274c0.254,0.3414 0.623,0.5129 1.111,0.5129z" fill="currentColor"/>
<path d="M39.526,38.3467h0.873l1.178,3.0128c0.259,0.6876 0.418,1.1844 0.481,1.4886h0.04c0.042,-0.1634 0.131,-0.4434 0.266,-0.8414c0.136,-0.3964 0.58,-1.6164 1.333,-3.66h0.874l-2.312,6.0142c-0.229,0.5939 -0.496,1.0162 -0.802,1.2653c-0.307,0.2492 -0.683,0.3738 -1.127,0.3738c-0.249,0 -0.495,-0.0275 -0.737,-0.0825v-0.6408c0.18,0.0389 0.381,0.0583 0.603,0.0583c0.56,0 0.959,-0.3091 1.198,-0.9255l0.3,-0.7524z" fill="currentColor"/>
<path d="M52.165,43.629l-0.161,-0.7524h-0.04c-0.268,0.3317 -0.535,0.555 -0.802,0.6731c-0.267,0.1165 -0.6,0.1764 -0.999,0.1764c-0.534,0 -0.95,-0.1343 -1.254,-0.4045c-0.303,-0.2702 -0.453,-0.6537 -0.453,-1.1521c0,-1.0662 0.869,-1.6261 2.605,-1.6762l0.913,-0.0292v-0.3284c0,-0.4142 -0.091,-0.72 -0.272,-0.9174c-0.181,-0.1974 -0.471,-0.2961 -0.871,-0.2961c-0.449,0 -0.956,0.1343 -1.521,0.4045l-0.251,-0.6117c0.266,-0.1407 0.556,-0.2524 0.872,-0.3316c0.316,-0.081 0.633,-0.1214 0.949,-0.1214c0.641,0 1.117,0.1391 1.425,0.4191c0.31,0.2799 0.463,0.7281 0.463,1.3446v3.6049h-0.603zM50.326,43.0643c0.508,0 0.907,-0.1359 1.195,-0.4093c0.29,-0.2735 0.435,-0.6553 0.435,-1.1472v-0.4773l-0.814,0.0339c-0.647,0.0227 -1.115,0.1214 -1.4,0.2961c-0.287,0.1748 -0.431,0.4466 -0.431,0.8171c0,0.2897 0.089,0.5097 0.267,0.6602c0.178,0.1521 0.427,0.2265 0.748,0.2265z" fill="currentColor"/>
<path d="M58.53,43.6298v-3.4173c0,-0.4304 -0.101,-0.7524 -0.3,-0.9644c-0.2,-0.2119 -0.513,-0.3171 -0.938,-0.3171c-0.563,0 -0.975,0.1488 -1.237,0.4482c-0.262,0.2993 -0.392,0.7912 -0.392,1.4789v2.7717h-0.814v-5.2813h0.662l0.132,0.7233h0.04c0.166,-0.2606 0.4,-0.4612 0.701,-0.6052c0.302,-0.1424 0.636,-0.2152 1.007,-0.2152c0.648,0 1.135,0.1537 1.463,0.4595c0.328,0.3075 0.491,0.7977 0.491,1.4724v3.4448h-0.815z" fill="currentColor"/>
<path d="M65.081,42.9201h-0.045c-0.375,0.5372 -0.939,0.8042 -1.689,0.8042c-0.703,0 -1.25,-0.2363 -1.641,-0.7087c-0.39,-0.4725 -0.586,-1.144 -0.586,-2.0145c0,-0.8705 0.196,-1.5468 0.588,-2.029c0.392,-0.4822 0.939,-0.7232 1.639,-0.7232c0.73,0 1.289,0.2605 1.679,0.7815h0.065l-0.035,-0.3803l-0.02,-0.3705v-2.1488h0.814v7.498h-0.662zM63.451,43.0544c0.557,0 0.959,-0.1489 1.21,-0.445c0.25,-0.2961 0.375,-0.7766 0.375,-1.4384v-0.1683c0,-0.7491 -0.127,-1.2831 -0.38,-1.6018c-0.254,-0.3204 -0.659,-0.4789 -1.215,-0.4789c-0.477,0 -0.843,0.1828 -1.097,0.5468c-0.254,0.3641 -0.381,0.8803 -0.381,1.5453c0,0.6747 0.126,1.1844 0.378,1.5274c0.253,0.3414 0.623,0.5129 1.11,0.5129z" fill="currentColor"/>
<path d="M75.115,43.6291h-3.999v-7.0449h3.999v0.7281h-3.165v2.2701h2.974v0.7233h-2.974v2.5921h3.165z" fill="currentColor"/>
<path d="M77.108,36.5842h0.833v6.3039h3.165v0.7427h-3.998z" fill="currentColor"/>
<path d="M82.726,43.6291v-7.0449h0.834v7.0449z" fill="currentColor"/>
<path d="M89.979,41.7537c0,0.6197 -0.229,1.1035 -0.687,1.4498c-0.458,0.3463 -1.079,0.521 -1.865,0.521c-0.85,0 -1.504,-0.1084 -1.962,-0.3236v-0.7896c0.295,0.1213 0.614,0.2184 0.962,0.2896c0.348,0.0712 0.69,0.1068 1.03,0.1068c0.557,0 0.975,-0.1035 1.255,-0.3106c0.282,-0.2072 0.422,-0.4952 0.422,-0.8657c0,-0.2443 -0.049,-0.4433 -0.15,-0.6003c-0.1,-0.1553 -0.267,-0.2993 -0.501,-0.432c-0.234,-0.1327 -0.59,-0.2815 -1.068,-0.4482c-0.667,-0.2346 -1.143,-0.5129 -1.43,-0.8333c-0.286,-0.322 -0.43,-0.741 -0.43,-1.2572c0,-0.542 0.208,-0.9757 0.623,-1.296c0.415,-0.3204 0.966,-0.4822 1.649,-0.4822c0.714,0 1.37,0.1278 1.968,0.3851l-0.261,0.7135c-0.591,-0.2443 -1.168,-0.3656 -1.726,-0.3656c-0.442,0 -0.788,0.0938 -1.035,0.2799c-0.249,0.186 -0.372,0.4449 -0.372,0.775c0,0.2443 0.046,0.445 0.136,0.6003c0.093,0.1553 0.246,0.2993 0.463,0.4288c0.218,0.1294 0.551,0.2734 0.999,0.432c0.753,0.2637 1.27,0.5469 1.554,0.8478c0.285,0.301 0.426,0.6926 0.426,1.1747z" fill="currentColor"/>
<path d="M96.357,43.6294l-0.893,-2.241h-2.875l-0.884,2.241h-0.843l2.835,-7.0741h0.702l2.823,7.0741zM95.203,40.6506l-0.833,-2.1827c-0.109,-0.2767 -0.219,-0.6149 -0.335,-1.0162c-0.072,0.3091 -0.174,0.6472 -0.309,1.0162l-0.844,2.1827z" fill="currentColor"/>
<path d="M103.772,43.7249c-0.796,0 -1.422,-0.2378 -1.882,-0.7135c-0.46,-0.4757 -0.689,-1.1359 -0.689,-1.9805c0,-0.8511 0.214,-1.5274 0.641,-2.029c0.427,-0.5016 1,-0.7524 1.72,-0.7524c0.674,0 1.208,0.2184 1.6,0.6537c0.392,0.4352 0.588,1.0096 0.588,1.7232v0.5064h-3.705c0.016,0.6197 0.176,1.0906 0.478,1.4126c0.303,0.322 0.728,0.4821 1.278,0.4821c0.579,0 1.152,-0.1181 1.717,-0.3559v0.7135c-0.288,0.1214 -0.56,0.2087 -0.817,0.2621c-0.257,0.0518 -0.567,0.0777 -0.929,0.0777zM103.551,38.921c-0.432,0 -0.776,0.1375 -1.033,0.4142c-0.257,0.2767 -0.409,0.6585 -0.453,1.1472h2.812c0,-0.5049 -0.115,-0.8899 -0.343,-1.1585c-0.23,-0.2686 -0.558,-0.4029 -0.983,-0.4029z" fill="currentColor"/>
<path d="M108.634,40.9252l-1.87,-2.5775h0.927l1.419,2.0241l1.414,-2.0241h0.917l-1.87,2.5775l1.968,2.7037h-0.923l-1.506,-2.139l-1.521,2.139h-0.923z" fill="currentColor"/>
<path d="M115.509,43.7249c-0.351,0 -0.67,-0.0631 -0.959,-0.1909c-0.29,-0.1262 -0.532,-0.322 -0.728,-0.5857h-0.059c0.039,0.309 0.059,0.6002 0.059,0.8769v2.173h-0.814v-7.6533h0.662l0.112,0.7233h0.04c0.209,-0.2896 0.453,-0.4983 0.731,-0.6262c0.279,-0.1278 0.597,-0.1925 0.958,-0.1925c0.713,0 1.264,0.2395 1.651,0.7184c0.387,0.4789 0.581,1.1504 0.581,2.0144c0,0.8673 -0.197,1.542 -0.591,2.021c-0.396,0.4821 -0.944,0.7216 -1.643,0.7216zM115.39,38.9307c-0.55,0 -0.947,0.1488 -1.192,0.4482c-0.246,0.2993 -0.371,0.775 -0.378,1.4271v0.178c0,0.7426 0.125,1.2734 0.378,1.5921c0.252,0.3204 0.655,0.4789 1.212,0.4789c0.465,0 0.829,-0.1844 1.093,-0.5533c0.263,-0.3689 0.395,-0.8786 0.395,-1.5274c0,-0.6586 -0.132,-1.1634 -0.395,-1.5161c-0.264,-0.3528 -0.635,-0.5275 -1.113,-0.5275z" fill="currentColor"/>
<path d="M121.838,43.7249c-0.796,0 -1.422,-0.2378 -1.881,-0.7135c-0.46,-0.4757 -0.689,-1.1359 -0.689,-1.9805c0,-0.8511 0.214,-1.5274 0.641,-2.029c0.427,-0.5016 1,-0.7524 1.72,-0.7524c0.674,0 1.208,0.2184 1.6,0.6537c0.392,0.4352 0.588,1.0096 0.588,1.7232v0.5064h-3.706c0.017,0.6197 0.177,1.0906 0.478,1.4126c0.303,0.322 0.729,0.4821 1.279,0.4821c0.578,0 1.152,-0.1181 1.717,-0.3559v0.7135c-0.289,0.1214 -0.56,0.2087 -0.818,0.2621c-0.255,0.0518 -0.565,0.0777 -0.929,0.0777zM121.617,38.921c-0.431,0 -0.776,0.1375 -1.033,0.4142c-0.257,0.2767 -0.408,0.6585 -0.453,1.1472h2.813c0,-0.5049 -0.116,-0.8899 -0.343,-1.1585c-0.231,-0.2686 -0.557,-0.4029 -0.984,-0.4029z" fill="currentColor"/>
<path d="M128.061,38.2514c0.239,0 0.454,0.0194 0.643,0.0583l-0.114,0.7426c-0.222,-0.0485 -0.418,-0.0728 -0.588,-0.0728c-0.435,0 -0.807,0.1732 -1.117,0.521c-0.31,0.3463 -0.463,0.7799 -0.463,1.2961v2.8332h-0.814v-5.2813h0.672l0.094,0.9789h0.04c0.199,-0.343 0.44,-0.6084 0.721,-0.7945c0.279,-0.1893 0.589,-0.2815 0.926,-0.2815z" fill="currentColor"/>
<path d="M131.849,43.0644c0.143,0 0.284,-0.0097 0.417,-0.0308c0.133,-0.021 0.241,-0.042 0.32,-0.0647v0.6116c-0.089,0.0421 -0.22,0.0761 -0.391,0.1036c-0.171,0.0275 -0.326,0.0404 -0.463,0.0404c-1.04,0 -1.56,-0.5388 -1.56,-1.6148v-3.1422h-0.771v-0.3851l0.771,-0.3333l0.342,-1.1278h0.472v1.2233h1.56v0.6213h-1.56v3.1082c0,0.3188 0.077,0.5615 0.23,0.733c0.154,0.1731 0.365,0.2573 0.633,0.2573z" fill="currentColor"/>
<path d="M137.531,42.1881c0,0.4919 -0.187,0.8705 -0.561,1.1375c-0.374,0.2669 -0.896,0.3996 -1.57,0.3996c-0.713,0 -1.269,-0.11 -1.669,-0.3317v-0.7427c0.259,0.1279 0.535,0.2298 0.832,0.3042c0.297,0.0745 0.582,0.1117 0.857,0.1117c0.425,0 0.753,-0.0664 0.982,-0.2007c0.229,-0.1326 0.343,-0.3365 0.343,-0.61c0,-0.2055 -0.091,-0.3818 -0.272,-0.5274c-0.182,-0.1457 -0.536,-0.3188 -1.063,-0.5178c-0.501,-0.1828 -0.857,-0.343 -1.068,-0.4789c-0.211,-0.136 -0.367,-0.2913 -0.471,-0.466c-0.104,-0.1732 -0.155,-0.3803 -0.155,-0.6214c0,-0.4304 0.178,-0.7701 0.536,-1.0193c0.356,-0.2492 0.845,-0.3738 1.468,-0.3738c0.578,0 1.145,0.1149 1.697,0.3463l-0.29,0.6504c-0.541,-0.2184 -1.03,-0.3268 -1.468,-0.3268c-0.386,0 -0.677,0.0598 -0.873,0.178c-0.197,0.1181 -0.295,0.2831 -0.295,0.4918c0,0.1408 0.036,0.2622 0.11,0.3609c0.074,0.1003 0.193,0.1941 0.356,0.2847c0.163,0.0906 0.478,0.2201 0.942,0.39c0.638,0.2281 1.07,0.4579 1.294,0.6893c0.225,0.2313 0.338,0.5226 0.338,0.8721z" fill="currentColor"/>
</g></svg>