<svg viewBox="0 0 56 56" fill="none" xmlns="http://www.w3.org/2000/svg" xmlns:xlink="http://www.w3.org/1999/xlink" x="0" y="0"><defs><clipPath id="clip39_6836_31544">
<rect width="34" height="34" fill="white" transform="translate(11, 11.0020999999997)"/>
</clipPath></defs><g id="Frame 362">
<circle id="Ellipse 55_2" cx="28" cy="28.0020999999997" r="28" fill="#EA8D28"/>
<g id="email" clip-path="url(#clip39_6836_31544)">
<g id="_x34_2_Email">
<g id="Group_142">
<path id="Vector_542" d="M43.092,24.7221l-15.091,13.78l-15.091,-13.78l13.484,-12.32c0.91,-0.83 2.304,-0.83 3.214,0z" fill="#F2F2F2"/>
<path id="Vector_543" d="M40.035,17.1221v22.96h-24.07v-22.96c0,-0.95 0.772,-1.72 1.726,-1.72h20.618c0.954,0 1.726,0.77 1.726,1.72z" fill="white"/>
<path id="Vector_544" d="M43.092,24.7221v17.12c0,0.67 -0.278,1.28 -0.73,1.72c-0.425,0.41 -1.009,0.66 -1.652,0.66h-25.417c-0.643,0 -1.227,-0.25 -1.652,-0.66c-0.453,-0.44 -0.731,-1.05 -0.731,-1.72v-17.12l15.091,13.78z" fill="#EA8D28"/>
<path id="Vector_545" d="M42.359,43.5621c-0.425,0.41 -1.008,0.66 -1.652,0.66h-25.416c-0.644,0 -1.227,-0.25 -1.652,-0.66l12.217,-11.16c1.214,-1.11 3.072,-1.11 4.286,0z" fill="#F2F2F2"/>
<g id="Group_143">
<path id="Vector_546" d="M18.615,24.0121h18.769c0.19,0 0.345,-0.16 0.345,-0.35c0,-0.19 -0.155,-0.34 -0.345,-0.34h-18.769c-0.191,0 -0.345,0.15 -0.345,0.34c0,0.19 0.154,0.35 0.345,0.35z" fill="#144B8C"/>
<path id="Vector_547" d="M18.615,21.6921h18.769c0.19,0 0.345,-0.15 0.345,-0.34c0,-0.19 -0.155,-0.35 -0.345,-0.35h-18.769c-0.191,0 -0.345,0.16 -0.345,0.35c0,0.19 0.154,0.34 0.345,0.34z" fill="#144B8C"/>
<path id="Vector_548" d="M18.615,19.3721h18.769c0.19,0 0.345,-0.15 0.345,-0.34c0,-0.19 -0.155,-0.35 -0.345,-0.35h-18.769c-0.191,0 -0.345,0.16 -0.345,0.35c0,0.19 0.154,0.34 0.345,0.34z" fill="#144B8C"/>
<path id="Vector_549" d="M18.615,26.3321h18.769c0.19,0 0.345,-0.16 0.345,-0.35c0,-0.19 -0.155,-0.34 -0.345,-0.34h-18.769c-0.191,0 -0.345,0.15 -0.345,0.34c0,0.19 0.154,0.35 0.345,0.35z" fill="#144B8C"/>
<path id="Vector_550" d="M32.014,27.9521h-8.03c-0.191,0 -0.345,0.16 -0.345,0.35c0,0.19 0.154,0.35 0.345,0.35h8.03c0.191,0 0.346,-0.16 0.346,-0.35c0,-0.19 -0.155,-0.35 -0.346,-0.35z" fill="#144B8C"/>
<path id="Vector_551" d="M41.386,13.5721c-0.134,-0.13 -0.353,-0.13 -0.488,0l-0.973,0.97c-0.134,0.14 -0.134,0.36 0,0.49c0.135,0.14 0.354,0.14 0.488,0l0.973,-0.97c0.135,-0.14 0.135,-0.35 0,-0.49z" fill="#144B8C"/>
<path id="Vector_552" d="M38.807,13.0221v0.7c0,0.19 0.154,0.34 0.345,0.34c0.191,0 0.345,-0.15 0.345,-0.34v-0.7c0,-0.19 -0.155,-0.35 -0.345,-0.35c-0.191,0 -0.345,0.16 -0.345,0.35z" fill="#144B8C"/>
<path id="Vector_553" d="M41.24,16.1521h0.7c0.19,0 0.345,-0.16 0.345,-0.35c0,-0.19 -0.155,-0.34 -0.345,-0.34h-0.7c-0.191,0 -0.345,0.15 -0.345,0.34c-0.001,0.19 0.154,0.35 0.345,0.35z" fill="#144B8C"/>
<path id="Vector_554" d="M43.437,24.7221c0,-0.09 -0.052,-0.2 -0.112,-0.26l-2.945,-2.69v-4.65c0,-1.14 -0.929,-2.07 -2.071,-2.07h-5.288l-3.181,-2.9c-1.05,-0.96 -2.632,-0.96 -3.679,0l-3.18,2.9h-5.291c-1.142,0 -2.071,0.93 -2.071,2.07v4.66l-2.942,2.68c-0.062,0.06 -0.113,0.17 -0.113,0.26v17.12c0,1.52 1.234,2.73 2.728,2.73h25.416c1.54,0 2.729,-1.26 2.729,-2.73v-17.12zM40.708,43.8821h-25.417c-0.371,0 -0.803,-0.13 -1.122,-0.34l11.921,-10.89c1.089,-0.99 2.731,-0.99 3.82,0l11.921,10.89c-0.315,0.18 -0.627,0.34 -1.123,0.34zM42.58,24.7221l-2.2,2.01v-4.02zM26.627,12.6621c0.782,-0.72 1.963,-0.72 2.748,0l2.622,2.39h-7.992zM17.69,15.7421h20.619c0.761,0 1.38,0.62 1.38,1.38v10.24l-7.276,6.64l-2.038,-1.86c-1.354,-1.24 -3.396,-1.24 -4.751,0l-2.038,1.86l-7.277,-6.65v-10.23c0,-0.76 0.619,-1.38 1.381,-1.38zM15.619,22.7121v4.01l-2.197,-2zM13.255,25.5021l9.82,8.97l-9.409,8.59c-0.266,-0.35 -0.411,-0.77 -0.411,-1.22zM42.747,41.8421c0,0.45 -0.146,0.87 -0.413,1.22l-9.41,-8.59l9.823,-8.97z" fill="#144B8C"/>
</g>
</g>
</g>
</g>
</g></svg>