<svg viewBox="0 0 95.9888 87.5001" fill="none" xmlns="http://www.w3.org/2000/svg" xmlns:xlink="http://www.w3.org/1999/xlink" x="0" y="0"><g id="Group 10">
<g id="Flat">
<g id="Antibodies_3">
<path id="Vector_222" d="M18.9008,23.82l-8.084,-8.18c-5.377,-5.44 -13.499,2.79 -8.125,8.22l8.084,8.19l6.441,-1.26z" fill="currentColor"/>
<path id="Vector_223" d="M18.8988,23.82c-2.949,2.99 -5.765,5.84 -8.125,8.23l8.074,8.17c5.301,5.36 13.571,-2.71 8.126,-8.22z" fill="white"/>
<path id="Vector_224" d="M30.1628,12.43l-9.585,-9.7c-5.374,-5.44 -13.503,2.78 -8.125,8.22l9.585,9.7l5.713,-1.76z" fill="currentColor"/>
<path id="Vector_225" d="M42.1918,24.6l-12.03,-12.17l-8.125,8.22l10.347,10.47v49.69c0,7.69 11.491,7.7 11.491,0v-52.1c0,-0.76 -0.148,-1.52 -0.437,-2.22c-0.289,-0.71 -0.712,-1.35 -1.246,-1.89z" fill="white"/>
<path id="Vector_226" d="M77.0818,23.82l8.084,-8.18c5.378,-5.44 13.499,2.79 8.126,8.23l-8.085,8.18l-6.44,-1.26z" fill="currentColor"/>
<path id="Vector_227" d="M77.0828,23.82c2.949,2.99 5.765,5.84 8.126,8.23l-8.075,8.17c-5.3,5.36 -13.571,-2.71 -8.125,-8.22z" fill="white"/>
<path id="Vector_228" d="M65.8238,12.43l9.586,-9.7c5.374,-5.44 13.502,2.78 8.125,8.22l-9.585,9.7l-5.713,-1.76z" fill="currentColor"/>
<path id="Vector_229" d="M53.7938,24.6l12.03,-12.17l8.126,8.22l-10.348,10.47v49.69c0,7.69 -11.49,7.7 -11.49,0v-52.1c0,-0.76 0.148,-1.52 0.437,-2.22c0.289,-0.71 0.712,-1.35 1.245,-1.89z" fill="white"/>
</g>
</g>
<g id="Antibodies_4">
<path id="Vector_230" d="M11.4678,14.98c-6.237,-6.31 -15.65,3.24 -9.426,9.54l16.159,16.36c6.14,6.21 15.752,-3.14 9.426,-9.54zM10.1678,16.3l7.434,7.52c-2.449,2.48 -4.785,4.85 -6.825,6.91l-7.435,-7.52c-4.508,-4.57 2.315,-11.47 6.826,-6.91zM19.5008,39.56l-7.424,-7.51c2.039,-2.07 4.377,-4.43 6.825,-6.91l7.425,7.51c4.599,4.66 -2.395,11.39 -6.826,6.91z" fill="currentColor"/>
<path id="Vector_231" d="M30.8128,11.77l-9.586,-9.7c-6.234,-6.31 -15.65,3.24 -9.425,9.54l9.586,9.7l10.078,10.2v49.3c0,8.92 13.329,8.91 13.329,0v-52.1c0.002,-0.88 -0.169,-1.76 -0.504,-2.58c-0.335,-0.82 -0.827,-1.56 -1.448,-2.19zM19.9268,3.39l8.936,9.04l-6.825,6.9l-8.936,-9.04c-4.504,-4.56 2.31,-11.47 6.825,-6.9zM42.9558,80.81c0,6.45 -9.652,6.46 -9.652,0v-49.69c0,-0.24 -0.097,-0.48 -0.269,-0.66l-9.697,-9.81l6.825,-6.91l11.38,11.52c0.449,0.45 0.806,0.99 1.049,1.58c0.242,0.6 0.366,1.23 0.364,1.87z" fill="currentColor"/>
<path id="Vector_232" d="M93.9438,24.52c6.235,-6.31 -3.2,-15.84 -9.426,-9.54l-16.158,16.36c-6.327,6.4 3.283,15.75 9.425,9.54zM76.4848,39.56c-4.42,4.47 -11.433,-2.24 -6.825,-6.91l7.424,-7.51c2.448,2.48 4.786,4.84 6.825,6.91zM92.6438,23.21l-7.434,7.52c-2.041,-2.06 -4.377,-4.43 -6.826,-6.91l7.435,-7.52c4.508,-4.56 11.335,2.34 6.825,6.91z" fill="currentColor"/>
<path id="Vector_233" d="M53.1418,23.94c-0.621,0.63 -1.113,1.37 -1.448,2.19c-0.335,0.82 -0.507,1.7 -0.504,2.58v52.1c0,8.93 13.329,8.91 13.329,0v-49.3l19.664,-19.9c6.232,-6.31 -3.2,-15.84 -9.426,-9.54zM76.0568,3.39c4.509,-4.57 11.336,2.34 6.825,6.9l-8.935,9.04l-6.825,-6.9zM62.9498,30.46c-0.173,0.18 -0.269,0.42 -0.269,0.66v49.69c0,6.44 -9.653,6.47 -9.653,0v-52.1c-0.001,-0.64 0.123,-1.27 0.365,-1.87c0.243,-0.59 0.599,-1.13 1.049,-1.58l11.38,-11.52l6.825,6.91z" fill="currentColor"/>
</g>
</g></svg>