<svg viewBox="0 0 87.5 87.5" fill="none" xmlns="http://www.w3.org/2000/svg" xmlns:xlink="http://www.w3.org/1999/xlink" x="0" y="0"><g id="Group 74">
<path id="Vector_237" d="M9.33,-0.5v9.26h9.84v-9.26h9.84v9.26h9.82v-9.26h9.84v9.26h9.83v-9.26h9.84v9.26h9.83v-9.26h9.83v84.5c0,2.21 -1.79,4 -4,4h-80.5c-2.21,0 -4,-1.79 -4,-4v-84.5z" fill="white" stroke="currentColor"/>
<g id="Vector_238">
<path d="M7.45,24.2h13.03v5.59h-13.03z" fill="currentColor"/>
<path d="M7.45,33.51h13.03v5.59h-13.03z" fill="currentColor"/>
<path d="M27.93,33.51h13.03v5.59h-13.03z" fill="currentColor"/>
<path d="M27.93,72.61h13.03v5.58h-13.03z" fill="currentColor"/>
<path d="M7.45,53.99h13.03v5.58h-13.03z" fill="currentColor"/>
<path d="M46.54,53.99h13.03v5.58h-13.03z" fill="currentColor"/>
<path d="M7.45,63.3h13.03v5.58h-13.03z" fill="currentColor"/>
<path d="M7.45,72.61h13.03v5.58h-13.03z" fill="currentColor"/>
<path d="M46.54,72.61h13.03v5.58h-13.03z" fill="currentColor"/>
<path d="M67.02,72.61h13.03v5.58h-13.03z" fill="currentColor"/>
</g>
</g></svg>