<svg viewBox="0 0 90 90" fill="none" xmlns="http://www.w3.org/2000/svg" xmlns:xlink="http://www.w3.org/1999/xlink" x="0" y="0"><defs><mask id="mask2_6836_31544" style="mask-type:alpha" maskUnits="userSpaceOnUse" x="0" y="0" width="90" height="90">
<path id="Ellipse 73" d="M90,45c0,24.85 -20.15,45 -45,45c-24.85,0 -45,-20.15 -45,-45c0,-24.85 20.15,-45 45,-45c24.85,0 45,20.15 45,45z" fill="white"/>
</mask><mask id="mask3_6836_31544" style="mask-type:alpha" maskUnits="userSpaceOnUse" x="28" y="65" width="34" height="34">
<path id="Ellipse 130" d="M61.92,81.87c0,9.27 -7.51,16.79 -16.79,16.79c-9.27,0 -16.79,-7.52 -16.79,-16.79c0,-9.28 7.52,-16.8 16.79,-16.8c9.28,0 16.79,7.52 16.79,16.8z" fill="#3CA9D6"/>
</mask><mask id="mask4_6836_31544" style="mask-type:alpha" maskUnits="userSpaceOnUse" x="62" y="38" width="43" height="43">
<path id="Ellipse 130_2" d="M104.96,59.83c0,11.59 -9.4,20.99 -20.99,20.99c-11.6,0 -21,-9.4 -21,-20.99c0,-11.6 9.4,-21 21,-21c11.59,0 20.99,9.4 20.99,21z" fill="#3CA9D6"/>
</mask><mask id="mask5_6836_31544" style="mask-type:alpha" maskUnits="userSpaceOnUse" x="25" y="26" width="38" height="39">
<path id="Ellipse 130_3" d="M62.97,45.13c0,10.44 -8.45,18.89 -18.89,18.89c-10.43,0 -18.89,-8.45 -18.89,-18.89c0,-10.43 8.46,-18.89 18.89,-18.89c10.44,0 18.89,8.46 18.89,18.89z" fill="#3CA9D6"/>
</mask><mask id="mask6_6836_31544" style="mask-type:alpha" maskUnits="userSpaceOnUse" x="17" y="-18" width="43" height="43">
<path id="Ellipse 130_4" d="M59.82,3.15c0,11.59 -9.39,20.99 -20.99,20.99c-11.59,0 -20.99,-9.4 -20.99,-20.99c0,-11.59 9.4,-20.99 20.99,-20.99c11.6,0 20.99,9.4 20.99,20.99z" fill="#3CA9D6"/>
</mask><mask id="mask7_6836_31544" style="mask-type:alpha" maskUnits="userSpaceOnUse" x="-5" y="49" width="35" height="34">
<path id="Ellipse 130_5" d="M29.39,66.12c0,9.28 -7.52,16.8 -16.8,16.8c-9.27,0 -16.79,-7.52 -16.79,-16.8c0,-9.27 7.52,-16.79 16.79,-16.79c9.28,0 16.8,7.52 16.8,16.79z" fill="#3CA9D6"/>
</mask><mask id="mask8_6836_31544" style="mask-type:alpha" maskUnits="userSpaceOnUse" x="-9" y="13" width="35" height="35">
<path id="Ellipse 130_6" d="M25.19,30.44c0,9.27 -7.52,16.79 -16.79,16.79c-9.28,0 -16.8,-7.52 -16.8,-16.79c0,-9.28 7.52,-16.8 16.8,-16.8c9.27,0 16.79,7.52 16.79,16.8z" fill="#3CA9D6"/>
</mask><mask id="mask9_6836_31544" style="mask-type:alpha" maskUnits="userSpaceOnUse" x="58" y="4" width="35" height="34">
<path id="Ellipse 130_7" d="M92.36,20.99c0,9.28 -7.52,16.79 -16.79,16.79c-9.28,0 -16.79,-7.51 -16.79,-16.79c0,-9.27 7.51,-16.79 16.79,-16.79c9.27,0 16.79,7.52 16.79,16.79z" fill="#3CA9D6"/>
</mask></defs><g id="Group 71">
<path id="Ellipse 72" d="M90,45c0,24.85 -20.15,45 -45,45c-24.85,0 -45,-20.15 -45,-45c0,-24.85 20.15,-45 45,-45c24.85,0 45,20.15 45,45z" fill="white"/>
<g id="Mask group">
<mask id="mask2_6836_31544" style="mask-type:alpha" maskUnits="userSpaceOnUse" x="1513" y="1431" width="90" height="90">
<path id="Ellipse 73" d="M1603 1476C1603 1500.85 1582.85 1521 1558 1521C1533.15 1521 1513 1500.85 1513 1476C1513 1451.15 1533.15 1431 1558 1431C1582.85 1431 1603 1451.15 1603 1476Z" fill="white"/>
</mask>
<g mask="url(#mask2_6836_31544)">
<g id="Mask group_2">
<mask id="mask3_6836_31544" style="mask-type:alpha" maskUnits="userSpaceOnUse" x="1541" y="1496" width="34" height="34">
<path id="Ellipse 130" d="M1574.92 1512.87C1574.92 1522.14 1567.41 1529.66 1558.13 1529.66C1548.86 1529.66 1541.34 1522.14 1541.34 1512.87C1541.34 1503.59 1548.86 1496.07 1558.13 1496.07C1567.41 1496.07 1574.92 1503.59 1574.92 1512.87Z" fill="#3CA9D6"/>
</mask>
<g mask="url(#mask3_6836_31544)">
<path id="Ellipse 78" d="M61.92,81.87c0,9.27 -7.51,16.79 -16.79,16.79c-9.27,0 -16.79,-7.52 -16.79,-16.79c0,-9.28 7.52,-16.8 16.79,-16.8c9.28,0 16.79,7.52 16.79,16.8z" fill="#3CA9D6"/>
<path id="Ellipse 79" d="M54.98,81.87c0,5.43 -4.41,9.84 -9.85,9.84c-5.44,0 -9.84,-4.41 -9.84,-9.84c0,-5.44 4.4,-9.85 9.84,-9.85c5.44,0 9.85,4.41 9.85,9.85z" fill="white"/>
<path id="Vector 16" d="M32.85,69.58l24.57,24.57" stroke="white" stroke-width="1.28682"/>
<path id="Vector 17" d="M45.13,64.49v34.75" stroke="white" stroke-width="1.28682"/>
<path id="Vector 18" d="M57.41,69.58l-24.56,24.57" stroke="white" stroke-width="1.28682"/>
<path id="Vector 19" d="M62.5,81.87h-34.74" stroke="white" stroke-width="1.28682"/>
<path id="Ellipse 122" d="M34.39,77.14c0,0.87 -0.7,1.58 -1.57,1.58c-0.87,0 -1.57,-0.71 -1.57,-1.58c0,-0.87 0.7,-1.57 1.57,-1.57c0.87,0 1.57,0.7 1.57,1.57z" fill="white"/>
<circle id="Ellipse 123" cx="40.41000000000008" cy="69.79999999999995" r="1.57434" fill="white"/>
<circle id="Ellipse 124" cx="49.84999999999991" cy="69.79999999999995" r="1.57434" fill="white"/>
<circle id="Ellipse 125" cx="57.200000000000045" cy="77.1400000000001" r="1.57434" fill="white"/>
<path id="Ellipse 126" d="M58.69,87.11c0,0.87 -0.71,1.58 -1.58,1.58c-0.87,0 -1.57,-0.71 -1.57,-1.58c0,-0.87 0.7,-1.57 1.57,-1.57c0.87,0 1.58,0.7 1.58,1.57z" fill="white"/>
<path id="Ellipse 129" d="M34.64,86.59c0,0.87 -0.71,1.57 -1.58,1.57c-0.87,0 -1.57,-0.7 -1.57,-1.57c0,-0.87 0.7,-1.58 1.57,-1.58c0.87,0 1.58,0.71 1.58,1.58z" fill="white"/>
</g>
</g>
<g id="Mask group_3">
<mask id="mask4_6836_31544" style="mask-type:alpha" maskUnits="userSpaceOnUse" x="1575" y="1469" width="43" height="43">
<path id="Ellipse 130_2" d="M1617.96 1490.83C1617.96 1502.42 1608.56 1511.82 1596.97 1511.82C1585.37 1511.82 1575.97 1502.42 1575.97 1490.83C1575.97 1479.23 1585.37 1469.83 1596.97 1469.83C1608.56 1469.83 1617.96 1479.23 1617.96 1490.83Z" fill="#3CA9D6"/>
</mask>
<g mask="url(#mask4_6836_31544)">
<path id="Ellipse 78_2" d="M104.96,59.83c0,11.59 -9.4,20.99 -20.99,20.99c-11.6,0 -21,-9.4 -21,-20.99c0,-11.6 9.4,-21 21,-21c11.59,0 20.99,9.4 20.99,21z" fill="#3CA9D6"/>
<path id="Ellipse 79_2" d="M96.27,59.83c0,6.79 -5.51,12.3 -12.3,12.3c-6.8,0 -12.31,-5.51 -12.31,-12.3c0,-6.8 5.51,-12.31 12.31,-12.31c6.79,0 12.3,5.51 12.3,12.31z" fill="white"/>
<path id="Vector 16_2" d="M68.61,44.47l30.71,30.71" stroke="white" stroke-width="1.60853"/>
<path id="Vector 17_2" d="M83.97,38.11v43.43" stroke="white" stroke-width="1.60853"/>
<path id="Vector 18_2" d="M99.32,44.47l-30.71,30.71" stroke="white" stroke-width="1.60853"/>
<path id="Vector 19_2" d="M105.68,59.83h-43.43" stroke="white" stroke-width="1.60853"/>
<path id="Ellipse 122_2" d="M70.55,53.92c0,1.09 -0.89,1.97 -1.97,1.97c-1.09,0 -1.97,-0.88 -1.97,-1.97c0,-1.09 0.88,-1.97 1.97,-1.97c1.08,0 1.97,0.88 1.97,1.97z" fill="white"/>
<circle id="Ellipse 123_2" cx="78.05999999999995" cy="44.74000000000001" r="1.96793" fill="white"/>
<circle id="Ellipse 124_2" cx="89.86999999999989" cy="44.74000000000001" r="1.96793" fill="white"/>
<path id="Ellipse 127" d="M92.15,75.01c0,1.08 -0.88,1.97 -1.97,1.97c-1.09,0 -1.97,-0.89 -1.97,-1.97c0,-1.09 0.88,-1.97 1.97,-1.97c1.09,0 1.97,0.88 1.97,1.97z" fill="white"/>
<path id="Ellipse 128" d="M79.56,75.1c0,1.09 -0.89,1.97 -1.97,1.97c-1.09,0 -1.97,-0.88 -1.97,-1.97c0,-1.09 0.88,-1.97 1.97,-1.97c1.08,0 1.97,0.88 1.97,1.97z" fill="white"/>
<path id="Ellipse 129_2" d="M70.85,65.73c0,1.09 -0.89,1.97 -1.97,1.97c-1.09,0 -1.97,-0.88 -1.97,-1.97c0,-1.09 0.88,-1.97 1.97,-1.97c1.08,0 1.97,0.88 1.97,1.97z" fill="white"/>
</g>
</g>
<g id="Mask group_4">
<mask id="mask5_6836_31544" style="mask-type:alpha" maskUnits="userSpaceOnUse" x="1538" y="1457" width="38" height="39">
<path id="Ellipse 130_3" d="M1575.97 1476.13C1575.97 1486.57 1567.52 1495.02 1557.08 1495.02C1546.65 1495.02 1538.19 1486.57 1538.19 1476.13C1538.19 1465.7 1546.65 1457.24 1557.08 1457.24C1567.52 1457.24 1575.97 1465.7 1575.97 1476.13Z" fill="#3CA9D6"/>
</mask>
<g mask="url(#mask5_6836_31544)">
<path id="Ellipse 78_3" d="M62.97,45.13c0,10.44 -8.45,18.89 -18.89,18.89c-10.43,0 -18.89,-8.45 -18.89,-18.89c0,-10.43 8.46,-18.89 18.89,-18.89c10.44,0 18.89,8.46 18.89,18.89z" fill="#3CA9D6"/>
<path id="Ellipse 79_3" d="M55.16,45.13c0,6.12 -4.96,11.08 -11.08,11.08c-6.11,0 -11.07,-4.96 -11.07,-11.08c0,-6.12 4.96,-11.07 11.07,-11.07c6.12,0 11.08,4.95 11.08,11.07z" fill="white"/>
<path id="Vector 16_3" d="M30.26,31.31l27.64,27.64" stroke="white" stroke-width="1.44767"/>
<path id="Vector 17_3" d="M44.08,25.59v39.08" stroke="white" stroke-width="1.44767"/>
<path id="Vector 18_3" d="M57.9,31.31l-27.64,27.64" stroke="white" stroke-width="1.44767"/>
<path id="Vector 19_3" d="M63.62,45.13h-39.08" stroke="white" stroke-width="1.44767"/>
<path id="Ellipse 122_3" d="M32,39.82c0,0.98 -0.79,1.77 -1.77,1.77c-0.98,0 -1.77,-0.79 -1.77,-1.77c0,-0.98 0.79,-1.77 1.77,-1.77c0.98,0 1.77,0.79 1.77,1.77z" fill="white"/>
<circle id="Ellipse 123_3" cx="38.76999999999998" cy="31.549999999999955" r="1.77114" fill="white"/>
<circle id="Ellipse 124_3" cx="49.3900000000001" cy="31.549999999999955" r="1.77114" fill="white"/>
<circle id="Ellipse 125_2" cx="57.66000000000008" cy="39.819999999999936" r="1.77114" fill="white"/>
<path id="Ellipse 126_2" d="M59.33,51.03c0,0.98 -0.79,1.78 -1.77,1.78c-0.98,0 -1.77,-0.8 -1.77,-1.78c0,-0.97 0.79,-1.77 1.77,-1.77c0.98,0 1.77,0.8 1.77,1.77z" fill="white"/>
<path id="Ellipse 127_2" d="M51.44,58.8c0,0.97 -0.79,1.77 -1.77,1.77c-0.97,0 -1.77,-0.8 -1.77,-1.77c0,-0.98 0.8,-1.78 1.77,-1.78c0.98,0 1.77,0.8 1.77,1.78z" fill="white"/>
<path id="Ellipse 128_2" d="M40.11,58.88c0,0.98 -0.79,1.77 -1.77,1.77c-0.98,0 -1.77,-0.79 -1.77,-1.77c0,-0.98 0.79,-1.77 1.77,-1.77c0.98,0 1.77,0.79 1.77,1.77z" fill="white"/>
<path id="Ellipse 129_3" d="M32.27,50.44c0,0.98 -0.79,1.78 -1.77,1.78c-0.97,0 -1.77,-0.8 -1.77,-1.78c0,-0.97 0.8,-1.77 1.77,-1.77c0.98,0 1.77,0.8 1.77,1.77z" fill="white"/>
</g>
</g>
<g id="Mask group_5">
<mask id="mask6_6836_31544" style="mask-type:alpha" maskUnits="userSpaceOnUse" x="1530" y="1413" width="43" height="43">
<path id="Ellipse 130_4" d="M1572.82 1434.15C1572.82 1445.74 1563.43 1455.14 1551.83 1455.14C1540.24 1455.14 1530.84 1445.74 1530.84 1434.15C1530.84 1422.56 1540.24 1413.16 1551.83 1413.16C1563.43 1413.16 1572.82 1422.56 1572.82 1434.15Z" fill="#3CA9D6"/>
</mask>
<g mask="url(#mask6_6836_31544)">
<path id="Ellipse 78_4" d="M59.82,3.15c0,11.59 -9.39,20.99 -20.99,20.99c-11.59,0 -20.99,-9.4 -20.99,-20.99c0,-11.59 9.4,-20.99 20.99,-20.99c11.6,0 20.99,9.4 20.99,20.99z" fill="#3CA9D6"/>
<path id="Ellipse 79_4" d="M51.14,3.15c0,6.79 -5.51,12.3 -12.31,12.3c-6.79,0 -12.3,-5.51 -12.3,-12.3c0,-6.8 5.51,-12.31 12.3,-12.31c6.8,0 12.31,5.51 12.31,12.31z" fill="white"/>
<path id="Vector 16_4" d="M23.48,-12.21l30.71,30.71" stroke="white" stroke-width="1.60853"/>
<path id="Vector 17_4" d="M38.83,-18.57v43.43" stroke="white" stroke-width="1.60853"/>
<path id="Vector 18_4" d="M54.19,-12.21l-30.71,30.71" stroke="white" stroke-width="1.60853"/>
<path id="Vector 19_4" d="M60.55,3.15h-43.43" stroke="white" stroke-width="1.60853"/>
<path id="Ellipse 126_3" d="M55.78,9.71c0,1.09 -0.89,1.97 -1.97,1.97c-1.09,0 -1.97,-0.88 -1.97,-1.97c0,-1.09 0.88,-1.97 1.97,-1.97c1.08,0 1.97,0.88 1.97,1.97z" fill="white"/>
<path id="Ellipse 127_3" d="M47.01,18.33c0,1.09 -0.88,1.97 -1.96,1.97c-1.09,0 -1.97,-0.88 -1.97,-1.97c0,-1.09 0.88,-1.97 1.97,-1.97c1.08,0 1.96,0.88 1.96,1.97z" fill="white"/>
<path id="Ellipse 128_3" d="M34.42,18.42c0,1.09 -0.88,1.97 -1.97,1.97c-1.08,0 -1.96,-0.88 -1.96,-1.97c0,-1.08 0.88,-1.97 1.96,-1.97c1.09,0 1.97,0.89 1.97,1.97z" fill="white"/>
<path id="Ellipse 129_4" d="M25.71,9.05c0,1.09 -0.88,1.97 -1.96,1.97c-1.09,0 -1.97,-0.88 -1.97,-1.97c0,-1.08 0.88,-1.97 1.97,-1.97c1.08,0 1.96,0.89 1.96,1.97z" fill="white"/>
</g>
</g>
<g id="Mask group_6">
<mask id="mask7_6836_31544" style="mask-type:alpha" maskUnits="userSpaceOnUse" x="1508" y="1480" width="35" height="34">
<path id="Ellipse 130_5" d="M1542.39 1497.12C1542.39 1506.4 1534.87 1513.92 1525.59 1513.92C1516.32 1513.92 1508.8 1506.4 1508.8 1497.12C1508.8 1487.85 1516.32 1480.33 1525.59 1480.33C1534.87 1480.33 1542.39 1487.85 1542.39 1497.12Z" fill="#3CA9D6"/>
</mask>
<g mask="url(#mask7_6836_31544)">
<path id="Ellipse 78_5" d="M29.39,66.12c0,9.28 -7.52,16.8 -16.8,16.8c-9.27,0 -16.79,-7.52 -16.79,-16.8c0,-9.27 7.52,-16.79 16.79,-16.79c9.28,0 16.8,7.52 16.8,16.79z" fill="#3CA9D6"/>
<path id="Ellipse 79_5" d="M22.44,66.12c0,5.44 -4.41,9.85 -9.85,9.85c-5.43,0 -9.84,-4.41 -9.84,-9.85c0,-5.43 4.41,-9.84 9.84,-9.84c5.44,0 9.85,4.41 9.85,9.84z" fill="white"/>
<path id="Vector 16_5" d="M0.31,53.84l24.57,24.57" stroke="white" stroke-width="1.28682"/>
<path id="Vector 17_5" d="M12.59,48.75v34.74" stroke="white" stroke-width="1.28682"/>
<path id="Vector 18_5" d="M24.88,53.84l-24.57,24.57" stroke="white" stroke-width="1.28682"/>
<path id="Vector 19_5" d="M29.97,66.12h-34.75" stroke="white" stroke-width="1.28682"/>
<path id="Ellipse 122_4" d="M1.86,61.4c0,0.87 -0.71,1.57 -1.58,1.57c-0.87,0 -1.57,-0.7 -1.57,-1.57c0,-0.87 0.7,-1.57 1.57,-1.57c0.87,0 1.58,0.7 1.58,1.57z" fill="white"/>
<circle id="Ellipse 123_4" cx="7.869999999999891" cy="54.049999999999955" r="1.57434" fill="white"/>
<circle id="Ellipse 124_4" cx="17.319999999999936" cy="54.049999999999955" r="1.57434" fill="white"/>
<circle id="Ellipse 125_3" cx="24.660000000000082" cy="61.40000000000009" r="1.57434" fill="white"/>
<path id="Ellipse 126_4" d="M26.15,71.37c0,0.87 -0.71,1.57 -1.58,1.57c-0.87,0 -1.57,-0.7 -1.57,-1.57c0,-0.87 0.7,-1.57 1.57,-1.57c0.87,0 1.58,0.7 1.58,1.57z" fill="white"/>
<path id="Ellipse 127_4" d="M19.14,78.27c0,0.87 -0.71,1.57 -1.58,1.57c-0.86,0 -1.57,-0.7 -1.57,-1.57c0,-0.87 0.71,-1.58 1.57,-1.58c0.87,0 1.58,0.71 1.58,1.58z" fill="white"/>
<path id="Ellipse 128_4" d="M9.06,78.34c0,0.87 -0.7,1.58 -1.57,1.58c-0.87,0 -1.57,-0.71 -1.57,-1.58c0,-0.87 0.7,-1.57 1.57,-1.57c0.87,0 1.57,0.7 1.57,1.57z" fill="white"/>
<path id="Ellipse 129_5" d="M2.1,70.85c0,0.87 -0.71,1.57 -1.58,1.57c-0.87,0 -1.57,-0.7 -1.57,-1.57c0,-0.87 0.7,-1.58 1.57,-1.58c0.87,0 1.58,0.71 1.58,1.58z" fill="white"/>
</g>
</g>
<g id="Mask group_7">
<mask id="mask8_6836_31544" style="mask-type:alpha" maskUnits="userSpaceOnUse" x="1504" y="1444" width="35" height="35">
<path id="Ellipse 130_6" d="M1538.19 1461.44C1538.19 1470.71 1530.67 1478.23 1521.4 1478.23C1512.12 1478.23 1504.6 1470.71 1504.6 1461.44C1504.6 1452.16 1512.12 1444.64 1521.4 1444.64C1530.67 1444.64 1538.19 1452.16 1538.19 1461.44Z" fill="#3CA9D6"/>
</mask>
<g mask="url(#mask8_6836_31544)">
<path id="Ellipse 78_6" d="M25.19,30.44c0,9.27 -7.52,16.79 -16.79,16.79c-9.28,0 -16.8,-7.52 -16.8,-16.79c0,-9.28 7.52,-16.8 16.8,-16.8c9.27,0 16.79,7.52 16.79,16.8z" fill="#3CA9D6"/>
<path id="Ellipse 79_6" d="M18.24,30.44c0,5.43 -4.41,9.84 -9.84,9.84c-5.44,0 -9.85,-4.41 -9.85,-9.84c0,-5.44 4.41,-9.85 9.85,-9.85c5.43,0 9.84,4.41 9.84,9.85z" fill="white"/>
<path id="Vector 16_6" d="M-3.89,18.15l24.57,24.57" stroke="white" stroke-width="1.28682"/>
<path id="Vector 17_6" d="M8.4,13.07v34.74" stroke="white" stroke-width="1.28682"/>
<path id="Vector 18_6" d="M20.68,18.15l-24.57,24.57" stroke="white" stroke-width="1.28682"/>
<path id="Vector 19_6" d="M25.77,30.44h-34.74" stroke="white" stroke-width="1.28682"/>
<circle id="Ellipse 123_5" cx="3.6700000000000728" cy="18.36999999999989" r="1.57434" fill="white"/>
<circle id="Ellipse 124_5" cx="13.11999999999989" cy="18.36999999999989" r="1.57434" fill="white"/>
<circle id="Ellipse 125_4" cx="20.470000000000027" cy="25.710000000000036" r="1.57434" fill="white"/>
<path id="Ellipse 126_5" d="M21.95,35.69c0,0.86 -0.7,1.57 -1.57,1.57c-0.87,0 -1.58,-0.71 -1.58,-1.57c0,-0.87 0.71,-1.58 1.58,-1.58c0.87,0 1.57,0.71 1.57,1.58z" fill="white"/>
<path id="Ellipse 127_5" d="M14.94,42.58c0,0.87 -0.7,1.58 -1.57,1.58c-0.87,0 -1.58,-0.71 -1.58,-1.58c0,-0.87 0.71,-1.57 1.58,-1.57c0.87,0 1.57,0.7 1.57,1.57z" fill="white"/>
<path id="Ellipse 128_5" d="M4.87,42.66c0,0.87 -0.71,1.57 -1.58,1.57c-0.87,0 -1.57,-0.7 -1.57,-1.57c0,-0.87 0.7,-1.58 1.57,-1.58c0.87,0 1.58,0.71 1.58,1.58z" fill="white"/>
</g>
</g>
<g id="Mask group_8">
<mask id="mask9_6836_31544" style="mask-type:alpha" maskUnits="userSpaceOnUse" x="1571" y="1435" width="35" height="34">
<path id="Ellipse 130_7" d="M1605.36 1451.99C1605.36 1461.27 1597.84 1468.78 1588.57 1468.78C1579.29 1468.78 1571.78 1461.27 1571.78 1451.99C1571.78 1442.72 1579.29 1435.2 1588.57 1435.2C1597.84 1435.2 1605.36 1442.72 1605.36 1451.99Z" fill="#3CA9D6"/>
</mask>
<g mask="url(#mask9_6836_31544)">
<path id="Ellipse 78_7" d="M92.36,20.99c0,9.28 -7.52,16.79 -16.79,16.79c-9.28,0 -16.79,-7.51 -16.79,-16.79c0,-9.27 7.51,-16.79 16.79,-16.79c9.27,0 16.79,7.52 16.79,16.79z" fill="#3CA9D6"/>
<path id="Ellipse 79_7" d="M85.41,20.99c0,5.44 -4.4,9.85 -9.84,9.85c-5.44,0 -9.85,-4.41 -9.85,-9.85c0,-5.44 4.41,-9.84 9.85,-9.84c5.44,0 9.84,4.4 9.84,9.84z" fill="white"/>
<path id="Vector 16_7" d="M63.29,8.71l24.56,24.57" stroke="white" stroke-width="1.28682"/>
<path id="Vector 17_7" d="M75.57,3.62v34.74" stroke="white" stroke-width="1.28682"/>
<path id="Vector 18_7" d="M87.85,8.71l-24.57,24.57" stroke="white" stroke-width="1.28682"/>
<path id="Vector 19_7" d="M92.94,20.99h-34.74" stroke="white" stroke-width="1.28682"/>
<path id="Ellipse 122_5" d="M64.83,16.27c0,0.87 -0.7,1.57 -1.57,1.57c-0.87,0 -1.58,-0.7 -1.58,-1.57c0,-0.87 0.71,-1.58 1.58,-1.58c0.87,0 1.57,0.71 1.57,1.58z" fill="white"/>
<circle id="Ellipse 123_6" cx="70.84999999999991" cy="8.920000000000073" r="1.57434" fill="white"/>
<circle id="Ellipse 124_6" cx="80.28999999999996" cy="8.920000000000073" r="1.57434" fill="white"/>
<circle id="Ellipse 125_5" cx="87.6400000000001" cy="16.269999999999982" r="1.57434" fill="white"/>
<path id="Ellipse 126_6" d="M89.12,26.24c0,0.87 -0.7,1.57 -1.57,1.57c-0.87,0 -1.58,-0.7 -1.58,-1.57c0,-0.87 0.71,-1.58 1.58,-1.58c0.87,0 1.57,0.71 1.57,1.58z" fill="white"/>
<path id="Ellipse 127_6" d="M82.11,33.14c0,0.87 -0.7,1.57 -1.57,1.57c-0.87,0 -1.58,-0.7 -1.58,-1.57c0,-0.87 0.71,-1.58 1.58,-1.58c0.87,0 1.57,0.71 1.57,1.58z" fill="white"/>
<path id="Ellipse 128_6" d="M72.04,33.21c0,0.87 -0.71,1.57 -1.58,1.57c-0.86,0 -1.57,-0.7 -1.57,-1.57c0,-0.87 0.71,-1.57 1.57,-1.57c0.87,0 1.58,0.7 1.58,1.57z" fill="white"/>
<path id="Ellipse 129_6" d="M65.07,25.71c0,0.87 -0.7,1.58 -1.57,1.58c-0.87,0 -1.58,-0.71 -1.58,-1.58c0,-0.87 0.71,-1.57 1.58,-1.57c0.87,0 1.57,0.7 1.57,1.57z" fill="white"/>
</g>
</g>
</g>
</g>
<path id="Ellipse 72 (Stroke)" fill-rule="evenodd" clip-rule="evenodd" d="M45,88.16c23.84,0 43.16,-19.32 43.16,-43.16c0,-23.84 -19.32,-43.16 -43.16,-43.16c-23.84,0 -43.16,19.32 -43.16,43.16c0,23.84 19.32,43.16 43.16,43.16zM45,90c24.85,0 45,-20.15 45,-45c0,-24.85 -20.15,-45 -45,-45c-24.85,0 -45,20.15 -45,45c0,24.85 20.15,45 45,45z" fill="#3CA9D6"/>
</g></svg>