<svg viewBox="0 0 93.3501 93.3337" fill="none" xmlns="http://www.w3.org/2000/svg" xmlns:xlink="http://www.w3.org/1999/xlink" x="0" y="0"><g id="Group 2">
<path id="path2769" d="M73.301,54.817l-4.833,4.83l-0.609,-0.16l1.582,3.38c0.789,1.69 2.484,2.77 4.348,2.77h5.005l10.825,-10.82z" fill="white"/>
<path id="path2773" d="M63.854,32.377l-4.833,4.83l-0.609,-0.15l1.581,3.38c0.79,1.68 2.485,2.76 4.349,2.76h5.005l10.825,-10.82z" fill="white"/>
<path id="path2777" d="M47.07,9.857l2.296,4.83l-0.609,-0.15v0c1.754,3.75 5.521,6.15 9.662,6.15h1.272l10.826,-10.83z" fill="white"/>
<path id="path2785" d="M89.623,54.807l-11.517,11.52c-3.117,3.12 -4.021,7.82 -2.283,11.87l1.415,3.3l0.92,0.23l13.774,-13.77c1.394,-1.4 1.804,-3.5 1.035,-5.31z" fill="#EA8D28"/>
<path id="path2789" d="M79.932,32.727l-11.518,11.51c-3.117,3.12 -4.021,7.82 -2.283,11.87l1.416,3.3l0.92,0.24l13.774,-13.78c1.394,-1.39 1.803,-3.49 1.034,-5.31z" fill="#EA8D28"/>
<path id="path2793" d="M70.242,10.637l-11.517,11.52c-3.117,3.12 -4.021,7.82 -2.283,11.87l1.416,3.3l0.919,0.23l13.774,-13.77c1.395,-1.4 1.804,-3.5 1.035,-5.31z" fill="#EA8D28"/>
<path id="path2797" d="M47.07,9.857l1.909,4.42c1.706,3.95 5.598,6.51 9.902,6.51h1.107" stroke="#EA8D28" stroke-width="1.05" stroke-miterlimit="10" stroke-linecap="round" stroke-linejoin="round"/>
<path id="path2801" d="M78.159,81.727l13.774,-13.77c1.394,-1.4 1.803,-3.5 1.034,-5.31l-2.076,-4.91c-0.758,-1.79 -2.514,-2.95 -4.458,-2.95h-13.155l9.299,-9.3c1.394,-1.39 1.803,-3.49 1.034,-5.31l-2.076,-4.9c-0.758,-1.79 -2.513,-2.96 -4.458,-2.96h-13.161l9.299,-9.29c1.394,-1.4 1.803,-3.5 1.034,-5.31l-2.076,-4.91c-0.758,-1.79 -2.513,-2.95 -4.457,-2.95h-3.568" stroke="#EA8D28" stroke-width="1.05" stroke-miterlimit="10" stroke-linecap="round" stroke-linejoin="round"/>
<path id="path2805" d="M69.532,11.247l-13.161,13.16c-1.398,1.39 -1.804,3.5 -1.024,5.32l4.547,10.6c0.762,1.77 2.509,2.92 4.442,2.92h5.015" stroke="#EA8D28" stroke-width="1.05" stroke-miterlimit="10" stroke-linecap="round" stroke-linejoin="round"/>
<path id="path2809" d="M78.976,33.627l-13.162,13.16c-1.398,1.4 -1.804,3.51 -1.024,5.33l4.547,10.59c0.762,1.78 2.509,2.93 4.442,2.93h5.015" stroke="#EA8D28" stroke-width="1.05" stroke-miterlimit="10" stroke-linecap="round" stroke-linejoin="round"/>
<path id="path2813" d="M88.421,56.007l-10.315,10.32c-3.117,3.12 -4.021,7.82 -2.283,11.87l1.415,3.3c1.699,3.96 5.594,6.52 9.902,6.52h1.1" stroke="#EA8D28" stroke-width="1.05" stroke-miterlimit="10" stroke-linecap="round" stroke-linejoin="round"/>
<path id="path2817" d="M48.757,-0.003c-2.5,2.5 -3.08,6.61 -1.686,9.86" stroke="#EA8D28" stroke-width="1.05" stroke-miterlimit="10" stroke-linecap="round" stroke-linejoin="round"/>
<path id="path2821" d="M70.714,25.517l-12.011,12.01" stroke="#EA8D28" stroke-width="1.05" stroke-miterlimit="10" stroke-linecap="round" stroke-linejoin="round"/>
<path id="path2825" d="M81.484,46.577l-12.029,12.03" stroke="#EA8D28" stroke-width="1.05" stroke-miterlimit="10" stroke-linecap="round" stroke-linejoin="round"/>
<path id="path2829" d="M48.958,70.047l-1.769,6.6l-0.605,0.17l2.763,1.93c1.709,1.2 3.954,1.29 5.76,0.25l4.02,-2.32l3.963,-14.79z" fill="white"/>
<path id="path2833" d="M29.556,55.347l-1.769,6.6l-0.605,0.17l2.762,1.93c1.71,1.19 3.955,1.29 5.76,0.25l4.021,-2.32l3.962,-14.79z" fill="white"/>
<path id="path2837" d="M3.762,44.227l4.404,3.04l-0.605,0.17l1.164,0.81c2.684,1.88 6.212,2.03 9.048,0.39l2.332,-1.34l3.962,-14.79z" fill="white"/>
<path id="path2845" d="M63.089,61.887l-4.215,15.73c-1.141,4.26 0.426,8.78 3.957,11.42l2.875,2.15l0.914,-0.26l5.041,-18.81c0.511,-1.91 -0.185,-3.93 -1.759,-5.12z" fill="#EA8D28"/>
<path id="path2849" d="M43.658,47.607l-4.216,15.73c-1.141,4.26 0.426,8.78 3.957,11.42l2.876,2.15l0.913,-0.26l5.042,-18.81c0.51,-1.91 -0.186,-3.93 -1.759,-5.12z" fill="#EA8D28"/>
<path id="path2853" d="M24.222,33.327l-4.216,15.73c-1.14,4.26 0.427,8.78 3.957,11.42l2.876,2.15l0.914,-0.26l5.041,-18.82c0.511,-1.9 -0.185,-3.92 -1.759,-5.11z" fill="#EA8D28"/>
<path id="path2857" d="M66.621,90.927l5.041,-18.81c0.511,-1.91 -0.185,-3.93 -1.759,-5.12l-4.25,-3.21c-1.552,-1.17 -3.654,-1.3 -5.337,-0.32l-11.393,6.57l3.403,-12.7c0.511,-1.9 -0.185,-3.93 -1.759,-5.12l-4.25,-3.2c-1.551,-1.18 -3.653,-1.31 -5.337,-0.33l-11.398,6.58l3.404,-12.71c0.51,-1.9 -0.186,-3.92 -1.759,-5.11l-4.25,-3.21c-1.552,-1.17 -3.654,-1.3 -5.337,-0.33l-17.878,10.32l3.864,2.88c3.453,2.57 8.103,2.84 11.831,0.68l0.959,-0.55" stroke="#EA8D28" stroke-width="1.05" stroke-miterlimit="10" stroke-linecap="round" stroke-linejoin="round"/>
<path id="path2861" d="M23.91,34.197l-4.817,17.98c-0.512,1.91 0.191,3.94 1.775,5.12l9.236,6.91c1.548,1.15 3.637,1.28 5.311,0.31l4.343,-2.51" stroke="#EA8D28" stroke-width="1.05" stroke-miterlimit="10" stroke-linecap="round" stroke-linejoin="round"/>
<path id="path2865" d="M43.281,48.867l-4.817,17.98c-0.512,1.91 0.191,3.94 1.775,5.12l9.236,6.9c1.548,1.16 3.637,1.28 5.311,0.32l4.343,-2.51" stroke="#EA8D28" stroke-width="1.05" stroke-miterlimit="10" stroke-linecap="round" stroke-linejoin="round"/>
<path id="path2869" d="M62.649,63.527l-3.775,14.09c-1.141,4.26 0.426,8.78 3.957,11.42l2.875,2.15c3.452,2.58 8.107,2.86 11.839,0.7l0.952,-0.55" stroke="#EA8D28" stroke-width="1.05" stroke-miterlimit="10" stroke-linecap="round" stroke-linejoin="round"/>
<path id="path2873" d="M0.295,34.847c-0.915,3.42 0.342,7.05 3.173,9.16" stroke="#EA8D28" stroke-width="1.05" stroke-miterlimit="10" stroke-linecap="round" stroke-linejoin="round"/>
<path id="path2877" d="M32.074,45.977l-4.396,16.4" stroke="#EA8D28" stroke-width="1.05" stroke-miterlimit="10" stroke-linecap="round" stroke-linejoin="round"/>
<path id="path2881" d="M51.928,58.827l-4.403,16.43" stroke="#EA8D28" stroke-width="1.05" stroke-miterlimit="10" stroke-linecap="round" stroke-linejoin="round"/>
</g></svg>