<svg viewBox="0 0 93.128 95.4333" fill="none" xmlns="http://www.w3.org/2000/svg" xmlns:xlink="http://www.w3.org/1999/xlink" x="0" y="0"><g id="Layer_11">
<path id="Vector_240" d="M46.5623,0.5267c0.88,0 1.77,0.3 2.45,0.91c0.69,0.63 1.13,1.56 1.13,2.74c0,0.94 -0.35,1.79 -0.92,2.44v0c-0.9,1.02 -1.35,2.41 -1.35,3.83v4.06c7.96,0.33 15.17,3.63 20.61,8.85l2.86,-2.93c0.98,-1.01 1.55,-2.38 1.68,-3.84v0c0.08,-0.86 0.47,-1.66 1.1,-2.3c0.79,-0.82 1.74,-1.14 2.65,-1.08c0.9,0.07 1.73,0.51 2.35,1.15c0.62,0.63 1.04,1.48 1.1,2.4c0.05,0.94 -0.27,1.91 -1.09,2.75l-0.01,0.01c-0.65,0.66 -1.49,1.02 -2.35,1.06h0.01c-1.34,0.07 -2.61,0.72 -3.59,1.72l-2.88,2.96c4.97,5.62 8.08,13 8.31,21.13h4.29c1.39,0 2.73,-0.55 3.83,-1.48c0.65,-0.56 1.48,-0.85 2.37,-0.85c1.14,0 2.03,0.46 2.62,1.17c0.59,0.69 0.87,1.6 0.87,2.49c0,0.89 -0.29,1.8 -0.89,2.5c-0.61,0.7 -1.52,1.16 -2.68,1.16c-0.93,0 -1.77,-0.36 -2.41,-0.95v0c-0.99,-0.92 -2.33,-1.38 -3.71,-1.38h-4.32c-0.4,8.02 -3.6,15.28 -8.62,20.78l3.22,3.31l0.19,0.18c0.97,0.9 2.22,1.42 3.54,1.55v0c0.74,0.07 1.44,0.38 2.02,0.89l0.25,0.23v0c1.63,1.68 1.16,3.84 -0.07,5.1c-0.62,0.63 -1.45,1.07 -2.36,1.12c-0.93,0.06 -1.89,-0.28 -2.71,-1.12c-0.65,-0.67 -0.99,-1.53 -1.03,-2.39l-0.02,-0.26c-0.13,-1.29 -0.75,-2.49 -1.66,-3.43v0l-3.23,-3.31c-5.39,5.02 -12.46,8.18 -20.24,8.5v4.79c0,1.44 0.54,2.82 1.45,3.94v0c0.54,0.67 0.82,1.52 0.82,2.42c0,1.15 -0.44,2.06 -1.13,2.67c-0.68,0.6 -1.57,0.89 -2.45,0.89c-0.88,0 -1.77,-0.3 -2.45,-0.91c-0.69,-0.63 -1.13,-1.56 -1.13,-2.74c0,-0.94 0.35,-1.79 0.92,-2.44c0.9,-1.02 1.35,-2.41 1.35,-3.83v-4.79c-7.78,-0.32 -14.84,-3.48 -20.24,-8.5l-3.22,3.31v0c-0.99,1.01 -1.56,2.38 -1.69,3.84v0c-0.08,0.86 -0.47,1.66 -1.09,2.3c-0.8,0.82 -1.74,1.15 -2.66,1.08c-0.9,-0.07 -1.73,-0.51 -2.35,-1.14c-0.61,-0.64 -1.04,-1.49 -1.09,-2.41c-0.06,-0.94 0.27,-1.91 1.09,-2.75v0c0.65,-0.67 1.49,-1.03 2.35,-1.07v0c1.34,-0.07 2.6,-0.72 3.58,-1.72l3.23,-3.31c-5.03,-5.49 -8.23,-12.76 -8.63,-20.78h-4.32c-1.39,0 -2.73,0.55 -3.83,1.48v0c-0.65,0.56 -1.48,0.85 -2.37,0.85c-1.14,0 -2.02,-0.46 -2.62,-1.17c-0.59,-0.69 -0.87,-1.6 -0.87,-2.49c0,-0.89 0.29,-1.8 0.89,-2.5c0.61,-0.7 1.52,-1.16 2.69,-1.16c0.93,0 1.76,0.36 2.4,0.95v0c0.99,0.92 2.33,1.38 3.71,1.38h4.29c0.23,-8.12 3.34,-15.51 8.32,-21.13l-2.89,-2.96c-0.99,-1.01 -2.32,-1.59 -3.73,-1.73c-0.85,-0.08 -1.64,-0.48 -2.26,-1.12v0c-1.64,-1.68 -1.17,-3.84 0.06,-5.09c0.62,-0.64 1.46,-1.08 2.37,-1.13c0.92,-0.06 1.88,0.28 2.7,1.12v0c0.65,0.67 1,1.53 1.04,2.4c0.06,1.38 0.7,2.68 1.68,3.68v0l2.86,2.93c5.43,-5.22 12.64,-8.52 20.6,-8.85v-4.06c0,-1.44 -0.53,-2.82 -1.45,-3.94c-0.54,-0.67 -0.82,-1.52 -0.82,-2.42c0,-1.15 0.44,-2.06 1.13,-2.67c0.68,-0.6 1.58,-0.89 2.45,-0.89z" fill="white" stroke="currentColor" stroke-width="1.05"/>
<g id="Group_54">
<path id="Vector_241" d="M40.6823,57.7167c2.24,0 4.04,1.86 4.04,4.14c0,2.28 -1.8,4.14 -4.04,4.14c-2.24,0 -4.04,-1.86 -4.04,-4.14c0,-2.28 1.8,-4.14 4.04,-4.14z" fill="currentColor" stroke="currentColor" stroke-width="0.7"/>
</g>
<g id="Group_55">
<path id="Vector_242" d="M58.1023,44.9567c1.4,-2.33 4.39,-3.06 6.67,-1.61c2.29,1.44 2.99,4.51 1.58,6.84c-1.41,2.33 -4.39,3.06 -6.67,1.61c-2.29,-1.45 -2.99,-4.51 -1.58,-6.84z" fill="currentColor" stroke="currentColor" stroke-width="0.7"/>
</g>
<g id="Group_56">
<path id="Vector_243" d="M37.9223,29.7867c4.83,0 8.74,4.02 8.74,8.96c0,4.94 -3.91,8.96 -8.74,8.96c-4.84,0 -8.75,-4.02 -8.75,-8.96c0,-4.94 3.91,-8.96 8.75,-8.96z" fill="currentColor" stroke="currentColor" stroke-width="0.7"/>
</g>
<g id="Group_57">
<g id="Group_58">
<path id="Vector_244" d="M61.9823,89.2167c1.5,0 2.69,1.23 2.69,2.75c0,1.51 -1.19,2.74 -2.69,2.74c-1.49,0 -2.69,-1.23 -2.69,-2.74c0,-1.52 1.2,-2.75 2.69,-2.75z" fill="currentColor" stroke="currentColor" stroke-width="0.7"/>
</g>
<g id="Group_59">
<path id="Vector_245" d="M86.7123,59.2767c3.18,0 5.74,2.65 5.74,5.89c0,3.23 -2.56,5.88 -5.74,5.88c-3.19,0 -5.75,-2.65 -5.75,-5.88c0,-3.24 2.56,-5.89 5.75,-5.89z" fill="currentColor" stroke="currentColor" stroke-width="0.7"/>
</g>
<g id="Group_60">
<path id="Vector_246" d="M4.7023,25.3967c2.34,0 4.22,1.94 4.22,4.33c0,2.37 -1.88,4.32 -4.22,4.32c-2.35,0 -4.23,-1.95 -4.23,-4.32c0,-2.39 1.88,-4.33 4.23,-4.33z" fill="currentColor" stroke="currentColor" stroke-width="0.7"/>
</g>
</g>
</g></svg>