<svg viewBox="0 0 155.9994 12" fill="none" xmlns="http://www.w3.org/2000/svg" xmlns:xlink="http://www.w3.org/1999/xlink" x="0" y="0"><g id="Group_53">
<g id="Group 82" opacity="0.2">
<path id="Vector_126" d="M141.5,4.92c-0.64,0 -1.17,0.48 -1.17,1.08c0,0.59 0.52,1.08 1.17,1.08c0.64,0 1.17,-0.48 1.17,-1.08c0,-0.59 -0.52,-1.08 -1.17,-1.08z" fill="#FAE3D3"/>
<path id="Vector_127" d="M143.85,7.52c-0.33,0.19 -0.55,0.53 -0.55,0.91c0,0.59 0.52,1.08 1.17,1.08c0.65,0 1.17,-0.48 1.17,-1.08c0,-0.38 -0.22,-0.72 -0.55,-0.91v-1.29h-1.24v1.29z" fill="#EA8C28"/>
<path id="Vector_128" d="M145.08,4.48c0.33,-0.19 0.55,-0.53 0.55,-0.91c0,-0.59 -0.52,-1.08 -1.17,-1.08c-0.64,0 -1.17,0.48 -1.17,1.08c0,0.38 0.23,0.72 0.55,0.91v1.29h1.24v-1.29z" fill="#FAE3D3"/>
<path id="Vector_129" d="M154.83,3.18c0.68,-0.23 1.17,-0.83 1.17,-1.54c0,-0.91 -0.8,-1.65 -1.79,-1.65c-0.99,0 -1.79,0.74 -1.79,1.65c0,0.71 0.49,1.31 1.17,1.54v2.59h1.24v-2.59z" fill="#FAE3D3"/>
<path id="Vector_130" d="M153.59,6.23v2.59c-0.68,0.23 -1.17,0.83 -1.17,1.54c0,0.91 0.8,1.65 1.79,1.65c0.99,0 1.79,-0.74 1.79,-1.65c0,-0.71 -0.49,-1.31 -1.17,-1.54v-2.59z" fill="#EA8C28"/>
<path id="Vector_131" d="M148.04,4.02c0.46,-0.21 0.78,-0.64 0.78,-1.15c0,-0.71 -0.63,-1.28 -1.4,-1.28c-0.77,0 -1.39,0.57 -1.39,1.28c0,0.51 0.31,0.94 0.77,1.15v1.75h1.24v-1.75z" fill="#FAE3D3"/>
<path id="Vector_132" d="M146.81,7.98c-0.46,0.21 -0.78,0.64 -0.78,1.15c0,0.71 0.63,1.28 1.4,1.28c0.77,0 1.39,-0.57 1.39,-1.28c0,-0.51 -0.31,-0.94 -0.77,-1.15v-1.75h-1.24v1.75z" fill="#EA8C28"/>
<path id="Vector_133" d="M151.24,3.55c0.54,-0.22 0.92,-0.72 0.92,-1.3c0,-0.78 -0.69,-1.42 -1.54,-1.42c-0.86,0 -1.54,0.63 -1.54,1.42c0,0.58 0.37,1.08 0.92,1.3v2.23h1.23v-2.23z" fill="#FAE3D3"/>
<path id="Vector_134" d="M150,8.45c-0.54,0.22 -0.92,0.72 -0.92,1.3c0,0.78 0.69,1.42 1.54,1.42c0.85,0 1.54,-0.63 1.54,-1.42c0,-0.58 -0.38,-1.08 -0.92,-1.3v-2.23h-1.23v2.23z" fill="#EA8C28"/>
</g>
<g id="Group 83" opacity="0.3">
<path id="Vector_135" d="M132.2,8.45c-0.54,0.22 -0.92,0.72 -0.92,1.3c0,0.78 0.69,1.42 1.54,1.42c0.86,0 1.54,-0.63 1.54,-1.42c0,-0.58 -0.37,-1.08 -0.92,-1.3v-2.23h-1.23v2.23z" fill="#FAE3D3"/>
<path id="Vector_136" d="M133.44,3.55c0.55,-0.22 0.92,-0.72 0.92,-1.3c0,-0.78 -0.68,-1.42 -1.54,-1.42c-0.84,0 -1.54,0.63 -1.54,1.42c0,0.58 0.38,1.08 0.92,1.3v2.23h1.24v-2.23z" fill="#EA8C28"/>
<path id="Vector_137" d="M129.84,3.18c0.68,-0.23 1.17,-0.83 1.17,-1.54c0,-0.91 -0.8,-1.65 -1.79,-1.65c-0.99,0 -1.79,0.74 -1.79,1.65c0,0.71 0.49,1.31 1.17,1.54v2.59h1.23v-2.59z" fill="#EA8C28"/>
<path id="Vector_138" d="M128.6,8.82c-0.68,0.23 -1.17,0.83 -1.17,1.54c0,0.91 0.8,1.65 1.79,1.65c0.98,0 1.79,-0.74 1.79,-1.65c0,-0.71 -0.49,-1.31 -1.17,-1.54v-2.59h-1.24v2.59z" fill="#FAE3D3"/>
<path id="Vector_139" d="M136.82,4.02c0.46,-0.21 0.78,-0.64 0.78,-1.15c0,-0.71 -0.63,-1.28 -1.4,-1.28c-0.77,0 -1.4,0.57 -1.4,1.28c0,0.51 0.32,0.94 0.78,1.15v1.75h1.23v-1.75z" fill="#EA8C28"/>
<path id="Vector_140" d="M135.58,7.98c-0.46,0.21 -0.78,0.64 -0.78,1.15c0,0.71 0.63,1.28 1.4,1.28c0.77,0 1.4,-0.57 1.4,-1.28c0,-0.51 -0.32,-0.94 -0.78,-1.15v-1.75h-1.23v1.75z" fill="#FAE3D3"/>
<path id="Vector_141" d="M139.78,4.48c0.33,-0.19 0.55,-0.53 0.55,-0.91c0,-0.59 -0.52,-1.08 -1.17,-1.08c-0.64,0 -1.16,0.48 -1.16,1.08c0,0.38 0.22,0.72 0.54,0.91v1.29h1.24v-1.29z" fill="#EA8C28"/>
<path id="Vector_142" d="M138.55,7.52c-0.33,0.19 -0.55,0.53 -0.55,0.91c0,0.59 0.52,1.08 1.17,1.08c0.64,0 1.17,-0.48 1.17,-1.08c0,-0.38 -0.22,-0.72 -0.55,-0.91v-1.29h-1.24v1.29z" fill="#FAE3D3"/>
<path id="Vector_143" d="M126.23,3.55c0.55,-0.22 0.92,-0.72 0.92,-1.3c0,-0.78 -0.68,-1.42 -1.54,-1.42c-0.84,0 -1.54,0.63 -1.54,1.42c0,0.58 0.38,1.08 0.92,1.3v2.23h1.24v-2.23z" fill="#EA8C28"/>
<path id="Vector_144" d="M124.99,8.45c-0.54,0.22 -0.92,0.72 -0.92,1.3c0,0.78 0.69,1.42 1.54,1.42c0.85,0 1.54,-0.63 1.54,-1.42c0,-0.58 -0.37,-1.08 -0.92,-1.3v-2.23h-1.23v2.23z" fill="#FAE3D3"/>
<path id="Vector_145" d="M121.61,7.98c-0.46,0.21 -0.77,0.64 -0.77,1.15c0,0.71 0.62,1.28 1.39,1.28c0.77,0 1.4,-0.57 1.4,-1.28c0,-0.51 -0.32,-0.94 -0.78,-1.15v-1.75h-1.23v1.75z" fill="#FAE3D3"/>
<path id="Vector_146" d="M122.85,4.02c0.46,-0.21 0.78,-0.64 0.78,-1.15c0,-0.71 -0.63,-1.28 -1.4,-1.28c-0.77,0 -1.39,0.57 -1.39,1.28c0,0.51 0.31,0.94 0.77,1.15v1.75h1.24v-1.75z" fill="#EA8C28"/>
<path id="Vector_147" d="M118.68,7.52c-0.33,0.19 -0.55,0.53 -0.55,0.91c0,0.59 0.52,1.08 1.17,1.08c0.64,0 1.17,-0.48 1.17,-1.08c0,-0.38 -0.22,-0.72 -0.55,-0.91v-1.29h-1.24v1.29z" fill="#FAE3D3"/>
<path id="Vector_148" d="M119.91,4.48c0.33,-0.19 0.55,-0.53 0.55,-0.91c0,-0.59 -0.52,-1.08 -1.17,-1.08c-0.64,0 -1.17,0.48 -1.17,1.08c0,0.38 0.23,0.72 0.55,0.91v1.29h1.24v-1.29z" fill="#EA8C28"/>
</g>
<g id="Group 81" opacity="0.4">
<path id="Vector_149" d="M106.911,3.18c0.681,-0.23 1.169,-0.83 1.169,-1.54c0,-0.91 -0.798,-1.65 -1.789,-1.65c-0.986,0 -1.789,0.74 -1.789,1.65c0,0.71 0.487,1.31 1.168,1.54v2.59h1.235v-2.59z" fill="#FAE3D3"/>
<path id="Vector_150" d="M105.676,8.82c-0.681,0.23 -1.168,0.83 -1.168,1.54c0,0.91 0.797,1.65 1.789,1.65c0.985,0 1.793,-0.74 1.793,-1.65c0,-0.71 -0.492,-1.31 -1.173,-1.54v-2.59h-1.235v2.59z" fill="#EA8C28"/>
<path id="Vector_151" d="M110.52,3.55c0.54,-0.22 0.91,-0.72 0.91,-1.3c0,-0.78 -0.68,-1.42 -1.53,-1.42c-0.85,0 -1.54,0.63 -1.54,1.42c0,0.58 0.37,1.08 0.91,1.3v2.23h1.24v-2.23z" fill="#FAE3D3"/>
<path id="Vector_152" d="M109.28,8.45c-0.54,0.22 -0.92,0.72 -0.92,1.3c0,0.78 0.69,1.42 1.54,1.42c0.85,0 1.54,-0.63 1.54,-1.42c0,-0.58 -0.38,-1.08 -0.92,-1.3v-2.23h-1.23v2.23z" fill="#EA8C28"/>
<path id="Vector_153" d="M113.89,4.02c0.46,-0.21 0.78,-0.64 0.78,-1.15c0,-0.71 -0.63,-1.28 -1.4,-1.28c-0.77,0 -1.39,0.57 -1.39,1.28c0,0.51 0.31,0.94 0.77,1.15v1.75h1.24v-1.75z" fill="#FAE3D3"/>
<path id="Vector_154" d="M112.66,7.98c-0.46,0.21 -0.78,0.64 -0.78,1.15c0,0.71 0.63,1.28 1.4,1.28c0.77,0 1.39,-0.57 1.39,-1.28c0,-0.51 -0.31,-0.94 -0.77,-1.15v-1.75h-1.24v1.75z" fill="#EA8C28"/>
<path id="Vector_155" d="M116.86,4.48c0.33,-0.19 0.55,-0.53 0.55,-0.91c0,-0.59 -0.52,-1.08 -1.17,-1.08c-0.65,0 -1.17,0.48 -1.17,1.08c0,0.38 0.23,0.72 0.55,0.91v1.29h1.24v-1.29z" fill="#FAE3D3"/>
<path id="Vector_156" d="M115.63,7.52c-0.33,0.19 -0.55,0.53 -0.55,0.91c0,0.59 0.52,1.08 1.17,1.08c0.64,0 1.17,-0.48 1.17,-1.08c0,-0.38 -0.22,-0.72 -0.55,-0.91v-1.29h-1.24v1.29z" fill="#EA8C28"/>
<path id="Vector_157" d="M103.306,3.55c0.543,-0.22 0.92,-0.72 0.92,-1.3c0,-0.78 -0.687,-1.42 -1.54,-1.42c-0.847,0 -1.54,0.63 -1.54,1.42c0,0.58 0.377,1.08 0.92,1.3v2.23h1.235v-2.23z" fill="#FAE3D3"/>
<path id="Vector_158" d="M102.072,8.45c-0.543,0.22 -0.92,0.72 -0.92,1.3c0,0.78 0.687,1.42 1.54,1.42c0.853,0 1.539,-0.63 1.539,-1.42c0,-0.58 -0.376,-1.08 -0.919,-1.3v-2.23h-1.235v2.23z" fill="#EA8C28"/>
<path id="Vector_159" d="M98.691,7.98c-0.459,0.21 -0.775,0.64 -0.775,1.15c0,0.71 0.626,1.28 1.396,1.28c0.769,0 1.395,-0.57 1.395,-1.28c0,-0.51 -0.315,-0.94 -0.775,-1.15v-1.75h-1.235v1.75z" fill="#EA8C28"/>
<path id="Vector_160" d="M99.928,4.02c0.46,-0.21 0.775,-0.64 0.775,-1.15c0,-0.71 -0.626,-1.28 -1.395,-1.28c-0.77,0 -1.396,0.57 -1.396,1.28c0,0.51 0.316,0.94 0.775,1.15v1.75h1.235v-1.75z" fill="#FAE3D3"/>
<path id="Vector_161" d="M96.992,4.48c0.327,-0.19 0.548,-0.53 0.548,-0.91c0,-0.59 -0.52,-1.08 -1.168,-1.08c-0.648,0 -1.169,0.48 -1.169,1.08c0,0.38 0.222,0.72 0.548,0.91v1.29h1.235v-1.29z" fill="#FAE3D3"/>
<path id="Vector_162" d="M95.751,7.52c-0.326,0.19 -0.548,0.53 -0.548,0.91c0,0.59 0.521,1.08 1.169,1.08c0.642,0 1.168,-0.48 1.168,-1.08c0,-0.38 -0.221,-0.72 -0.548,-0.91v-1.29h-1.235v1.29z" fill="#EA8C28"/>
<path id="Vector_163" d="M93.985,4.92c-0.642,0 -1.169,0.48 -1.169,1.08c0,0.59 0.521,1.08 1.169,1.08c0.648,0 1.168,-0.48 1.168,-1.08c0,-0.59 -0.526,-1.08 -1.168,-1.08z" fill="#FAE3D3"/>
</g>
<g id="Group 80" opacity="0.5">
<path id="Vector_164" d="M82.317,3.18c0.681,-0.23 1.169,-0.83 1.169,-1.54c0,-0.91 -0.798,-1.65 -1.789,-1.65c-0.986,0 -1.789,0.74 -1.789,1.65c0,0.71 0.488,1.31 1.169,1.54v2.59h1.235v-2.59z" fill="#EA8C28"/>
<path id="Vector_165" d="M81.081,8.82c-0.682,0.23 -1.169,0.83 -1.169,1.54c0,0.91 0.798,1.65 1.789,1.65c0.986,0 1.789,-0.74 1.789,-1.65c0,-0.71 -0.488,-1.31 -1.169,-1.54v-2.59h-1.235v2.59z" fill="#FAE3D3"/>
<path id="Vector_166" d="M85.922,3.55c0.542,-0.22 0.919,-0.72 0.919,-1.3c0,-0.78 -0.687,-1.42 -1.54,-1.42c-0.853,0 -1.539,0.63 -1.539,1.42c0,0.58 0.376,1.08 0.919,1.3v2.23h1.235v-2.23z" fill="#EA8C28"/>
<path id="Vector_167" d="M84.687,8.45c-0.543,0.22 -0.919,0.72 -0.919,1.3c0,0.78 0.686,1.42 1.539,1.42c0.847,0 1.54,-0.63 1.54,-1.42c0,-0.58 -0.377,-1.08 -0.92,-1.3v-2.23h-1.235v2.23z" fill="#FAE3D3"/>
<path id="Vector_168" d="M89.299,4.02c0.46,-0.21 0.775,-0.64 0.775,-1.15c0,-0.71 -0.625,-1.28 -1.395,-1.28c-0.77,0 -1.396,0.57 -1.396,1.28c0,0.51 0.316,0.94 0.776,1.15v1.75h1.235v-1.75z" fill="#EA8C28"/>
<path id="Vector_169" d="M88.064,7.98c-0.459,0.21 -0.775,0.64 -0.775,1.15c0,0.71 0.626,1.28 1.396,1.28c0.769,0 1.395,-0.57 1.395,-1.28c0,-0.51 -0.315,-0.94 -0.775,-1.15v-1.75h-1.235v1.75z" fill="#FAE3D3"/>
<path id="Vector_170" d="M91.027,7.52c-0.327,0.19 -0.548,0.53 -0.548,0.91c0,0.59 0.52,1.08 1.168,1.08c0.648,0 1.169,-0.48 1.169,-1.08c0,-0.38 -0.222,-0.72 -0.549,-0.91v-1.29h-1.235v1.29z" fill="#FAE3D3"/>
<path id="Vector_171" d="M92.267,4.48c0.327,-0.19 0.549,-0.53 0.549,-0.91c0,-0.59 -0.521,-1.08 -1.169,-1.08c-0.642,0 -1.168,0.48 -1.168,1.08c0,0.38 0.221,0.72 0.548,0.91v1.29h1.235v-1.29z" fill="#EA8C28"/>
<path id="Vector_172" d="M78.711,3.55c0.542,-0.22 0.919,-0.72 0.919,-1.3c0,-0.78 -0.687,-1.42 -1.54,-1.42c-0.853,0 -1.539,0.63 -1.539,1.42c0,0.58 0.376,1.08 0.919,1.3v2.23h1.235v-2.23z" fill="#EA8C28"/>
<path id="Vector_173" d="M77.476,8.45c-0.543,0.22 -0.919,0.72 -0.919,1.3c0,0.78 0.686,1.42 1.539,1.42c0.848,0 1.54,-0.63 1.54,-1.42c0,-0.58 -0.377,-1.08 -0.92,-1.3v-2.23h-1.235v2.23z" fill="#FAE3D3"/>
<path id="Vector_174" d="M75.332,4.02c0.46,-0.21 0.776,-0.64 0.776,-1.15c0,-0.71 -0.626,-1.28 -1.396,-1.28c-0.77,0 -1.396,0.57 -1.396,1.28c0,0.51 0.316,0.94 0.776,1.15v1.75h1.235v-1.75z" fill="#EA8C28"/>
<path id="Vector_175" d="M74.098,7.98c-0.46,0.21 -0.776,0.64 -0.776,1.15c0,0.71 0.626,1.28 1.396,1.28c0.77,0 1.395,-0.57 1.395,-1.28c0,-0.51 -0.315,-0.94 -0.775,-1.15v-1.75h-1.235v1.75z" fill="#FAE3D3"/>
<path id="Vector_176" d="M72.392,4.48c0.327,-0.19 0.549,-0.53 0.549,-0.91c0,-0.59 -0.521,-1.08 -1.169,-1.08c-0.642,0 -1.168,0.48 -1.168,1.08c0,0.38 0.221,0.72 0.548,0.91v1.29h1.235v-1.29z" fill="#EA8C28"/>
<path id="Vector_177" d="M71.158,7.52c-0.327,0.19 -0.549,0.53 -0.549,0.91c0,0.59 0.521,1.08 1.169,1.08c0.648,0 1.168,-0.48 1.168,-1.08c0,-0.38 -0.221,-0.72 -0.548,-0.91v-1.29h-1.235v1.29z" fill="#FAE3D3"/>
</g>
<g id="Group 79" opacity="0.6">
<path id="Vector_178" d="M58.161,8.82c-0.681,0.23 -1.169,0.83 -1.169,1.54c0,0.91 0.798,1.65 1.789,1.65c0.991,0 1.789,-0.74 1.789,-1.65c0,-0.71 -0.488,-1.31 -1.169,-1.54v-2.59h-1.235v2.59z" fill="#EA8C28"/>
<path id="Vector_179" d="M59.393,3.18c0.682,-0.23 1.169,-0.83 1.169,-1.54c0,-0.91 -0.798,-1.65 -1.789,-1.65c-0.991,0 -1.789,0.74 -1.789,1.65c0,0.71 0.488,1.31 1.169,1.54v2.59h1.235v-2.59z" fill="#FAE3D3"/>
<path id="Vector_180" d="M63,3.55c0.542,-0.22 0.919,-0.72 0.919,-1.3c0,-0.78 -0.687,-1.42 -1.54,-1.42c-0.852,0 -1.539,0.63 -1.539,1.42c0,0.58 0.376,1.08 0.919,1.3v2.23h1.235v-2.23z" fill="#FAE3D3"/>
<path id="Vector_181" d="M61.765,8.45c-0.543,0.22 -0.919,0.72 -0.919,1.3c0,0.78 0.686,1.42 1.539,1.42c0.853,0 1.54,-0.63 1.54,-1.42c0,-0.58 -0.377,-1.08 -0.919,-1.3v-2.23h-1.235v2.23z" fill="#EA8C28"/>
<path id="Vector_182" d="M65.143,7.98c-0.46,0.21 -0.776,0.64 -0.776,1.15c0,0.71 0.626,1.28 1.396,1.28c0.77,0 1.395,-0.57 1.395,-1.28c0,-0.51 -0.315,-0.94 -0.775,-1.15v-1.75h-1.235v1.75z" fill="#EA8C28"/>
<path id="Vector_183" d="M66.379,4.02c0.46,-0.21 0.775,-0.64 0.775,-1.15c0,-0.71 -0.625,-1.28 -1.395,-1.28c-0.77,0 -1.396,0.57 -1.396,1.28c0,0.51 0.316,0.94 0.776,1.15v1.75h1.235v-1.75z" fill="#FAE3D3"/>
<path id="Vector_184" d="M69.347,4.48c0.327,-0.19 0.549,-0.53 0.549,-0.91c0,-0.59 -0.521,-1.08 -1.169,-1.08c-0.648,0 -1.168,0.48 -1.168,1.08c0,0.38 0.221,0.72 0.548,0.91v1.29h1.235v-1.29z" fill="#FAE3D3"/>
<path id="Vector_185" d="M68.107,7.52c-0.327,0.19 -0.548,0.53 -0.548,0.91c0,0.59 0.52,1.08 1.168,1.08c0.648,0 1.169,-0.48 1.169,-1.08c0,-0.38 -0.222,-0.72 -0.549,-0.91v-1.29h-1.235v1.29z" fill="#EA8C28"/>
<path id="Vector_186" d="M55.789,3.55c0.542,-0.22 0.919,-0.72 0.919,-1.3c0,-0.78 -0.687,-1.42 -1.54,-1.42c-0.847,0 -1.539,0.63 -1.539,1.42c0,0.58 0.376,1.08 0.919,1.3v2.23h1.235v-2.23z" fill="#FAE3D3"/>
<path id="Vector_187" d="M54.556,8.45c-0.543,0.22 -0.919,0.72 -0.919,1.3c0,0.78 0.686,1.42 1.539,1.42c0.853,0 1.54,-0.63 1.54,-1.42c0,-0.58 -0.377,-1.08 -0.919,-1.3v-2.23h-1.235v2.23z" fill="#EA8C28"/>
<path id="Vector_188" d="M52.412,4.02c0.46,-0.21 0.776,-0.64 0.776,-1.15c0,-0.71 -0.626,-1.28 -1.396,-1.28c-0.77,0 -1.396,0.58 -1.396,1.29c0,0.5 0.316,0.93 0.776,1.15v1.75h1.235v-1.76z" fill="#FAE3D3"/>
<path id="Vector_189" d="M51.178,7.98c-0.46,0.21 -0.776,0.64 -0.776,1.15c0,0.71 0.626,1.28 1.396,1.28c0.77,0 1.395,-0.57 1.395,-1.28c0,-0.51 -0.315,-0.94 -0.775,-1.15v-1.75h-1.235v1.75z" fill="#EA8C28"/>
<path id="Vector_190" d="M48.236,7.52c-0.327,0.19 -0.548,0.53 -0.548,0.91c0,0.59 0.52,1.08 1.168,1.08c0.642,0 1.169,-0.48 1.169,-1.08c0,-0.38 -0.222,-0.72 -0.549,-0.91v-1.29h-1.24z" fill="#EA8C28"/>
<path id="Vector_191" d="M49.47,4.48c0.327,-0.19 0.549,-0.53 0.549,-0.91c0,-0.59 -0.521,-1.08 -1.169,-1.08c-0.642,0 -1.168,0.48 -1.168,1.08c0,0.38 0.221,0.72 0.548,0.91v1.29h1.235v-1.29z" fill="#FAE3D3"/>
<path id="Vector_192" d="M46.297,4.92c-0.642,0 -1.168,0.48 -1.168,1.08c0,0.59 0.52,1.08 1.168,1.08c0.648,0 1.169,-0.48 1.169,-1.08c0,-0.59 -0.521,-1.08 -1.169,-1.08z" fill="#FAE3D3"/>
</g>
<g id="Group 78" opacity="0.7">
<path id="Vector_193" d="M34.63,3.18c0.681,-0.23 1.169,-0.83 1.169,-1.54c0,-0.91 -0.798,-1.64 -1.784,-1.64c-0.985,0 -1.788,0.73 -1.788,1.65c0,0.71 0.487,1.3 1.168,1.54v2.59h1.235z" fill="#EA8C28"/>
<path id="Vector_194" d="M33.395,8.82c-0.681,0.23 -1.168,0.83 -1.168,1.54c0,0.91 0.797,1.65 1.788,1.65c0.992,0 1.789,-0.74 1.789,-1.65c0,-0.71 -0.487,-1.31 -1.168,-1.54v-2.59h-1.241z" fill="#FAE3D3"/>
<path id="Vector_195" d="M36.999,8.45c-0.542,0.22 -0.919,0.72 -0.919,1.3c0,0.78 0.687,1.42 1.54,1.42c0.852,0 1.539,-0.63 1.539,-1.42c0,-0.58 -0.376,-1.08 -0.919,-1.3v-2.23h-1.235v2.23z" fill="#FAE3D3"/>
<path id="Vector_196" d="M38.234,3.55c0.543,-0.22 0.919,-0.72 0.919,-1.3c0,-0.78 -0.686,-1.42 -1.539,-1.42c-0.853,0 -1.54,0.63 -1.54,1.42c0,0.58 0.377,1.08 0.92,1.3v2.23h1.235v-2.23z" fill="#EA8C28"/>
<path id="Vector_197" d="M40.377,7.98c-0.46,0.21 -0.775,0.64 -0.775,1.15c0,0.71 0.625,1.28 1.395,1.28c0.77,0 1.396,-0.57 1.396,-1.28c0,-0.51 -0.316,-0.94 -0.776,-1.15v-1.75h-1.235v1.75z" fill="#FAE3D3"/>
<path id="Vector_198" d="M41.613,4.02c0.46,-0.21 0.776,-0.64 0.776,-1.15c0,-0.71 -0.626,-1.28 -1.396,-1.28c-0.77,0 -1.395,0.57 -1.395,1.28c0,0.51 0.315,0.94 0.775,1.15v1.75h1.235v-1.75z" fill="#EA8C28"/>
<path id="Vector_199" d="M43.345,7.52c-0.327,0.19 -0.548,0.53 -0.548,0.91c0,0.59 0.52,1.08 1.168,1.08c0.648,0 1.169,-0.48 1.169,-1.08c0,-0.38 -0.222,-0.72 -0.548,-0.91v-1.29h-1.235v1.29z" fill="#FAE3D3"/>
<path id="Vector_200" d="M44.582,4.48c0.326,-0.19 0.548,-0.53 0.548,-0.91c0,-0.59 -0.521,-1.08 -1.169,-1.08c-0.647,0 -1.168,0.49 -1.168,1.08c0,0.38 0.221,0.72 0.548,0.91v1.29h1.235v-1.29z" fill="#EA8C28"/>
<path id="Vector_201" d="M29.79,8.45c-0.542,0.22 -0.919,0.72 -0.919,1.3c0,0.78 0.687,1.42 1.54,1.42c0.847,0 1.539,-0.63 1.539,-1.42c0,-0.58 -0.376,-1.08 -0.919,-1.3v-2.23h-1.235v2.23z" fill="#FAE3D3"/>
<path id="Vector_202" d="M31.023,3.55c0.543,-0.22 0.919,-0.72 0.919,-1.3c0,-0.78 -0.686,-1.42 -1.539,-1.42c-0.847,0 -1.54,0.63 -1.54,1.42c0,0.58 0.377,1.08 0.92,1.3v2.23h1.235v-2.23z" fill="#EA8C28"/>
<path id="Vector_203" d="M27.647,4.02c0.459,-0.21 0.775,-0.64 0.775,-1.15c0,-0.71 -0.626,-1.28 -1.396,-1.28c-0.769,0 -1.395,0.57 -1.395,1.28c0,0.51 0.316,0.94 0.775,1.15v1.75h1.235v-1.75z" fill="#EA8C28"/>
<path id="Vector_204" d="M26.41,7.98c-0.46,0.21 -0.775,0.64 -0.775,1.15c0,0.71 0.626,1.28 1.395,1.28c0.77,0 1.396,-0.57 1.396,-1.28c0,-0.51 -0.316,-0.94 -0.775,-1.15v-1.75h-1.235v1.75z" fill="#FAE3D3"/>
<path id="Vector_205" d="M23.47,7.52c-0.327,0.19 -0.548,0.53 -0.548,0.91c0,0.59 0.52,1.08 1.168,1.08c0.643,0 1.169,-0.48 1.169,-1.08c0,-0.38 -0.222,-0.72 -0.548,-0.91v-1.29h-1.235v1.29z" fill="#FAE3D3"/>
<path id="Vector_206" d="M24.711,4.48c0.326,-0.19 0.548,-0.53 0.548,-0.91c0,-0.59 -0.521,-1.08 -1.169,-1.08c-0.642,0 -1.168,0.48 -1.168,1.08c0,0.38 0.221,0.72 0.548,0.91v1.29h1.235v-1.29z" fill="#EA8C28"/>
</g>
<g id="Group 77">
<path id="Vector_207" d="M11.708,3.18c0.681,-0.23 1.168,-0.83 1.168,-1.54c0,-0.91 -0.797,-1.65 -1.788,-1.65c-0.986,0 -1.789,0.74 -1.789,1.65c0,0.71 0.487,1.31 1.168,1.54v2.59h1.235v-2.59z" fill="#FAE3D3"/>
<path id="Vector_208" d="M10.473,8.82c-0.681,0.23 -1.168,0.83 -1.168,1.54c0,0.91 0.797,1.65 1.788,1.65c0.986,0 1.789,-0.74 1.789,-1.65c0,-0.71 -0.487,-1.31 -1.168,-1.54v-2.59h-1.235v2.59z" fill="#EA8C28"/>
<path id="Vector_209" d="M15.312,3.55c0.543,-0.22 0.919,-0.72 0.919,-1.3c0,-0.78 -0.686,-1.42 -1.539,-1.42c-0.847,0 -1.54,0.63 -1.54,1.42c0,0.58 0.377,1.08 0.92,1.3v2.23h1.235v-2.23z" fill="#FAE3D3"/>
<path id="Vector_210" d="M14.078,8.45c-0.543,0.22 -0.92,0.72 -0.92,1.3c0,0.78 0.687,1.42 1.54,1.42c0.847,0 1.539,-0.63 1.539,-1.42c0,-0.58 -0.376,-1.08 -0.919,-1.3v-2.23h-1.235v2.23z" fill="#EA8C28"/>
<path id="Vector_211" d="M17.455,7.98c-0.46,0.21 -0.775,0.64 -0.775,1.15c0,0.71 0.625,1.28 1.395,1.28c0.77,0 1.396,-0.57 1.396,-1.28c0,-0.51 -0.316,-0.94 -0.775,-1.15v-1.75h-1.235v1.75z" fill="#EA8C28"/>
<path id="Vector_212" d="M18.692,4.02c0.459,-0.21 0.775,-0.64 0.775,-1.15c0,-0.71 -0.626,-1.28 -1.396,-1.28c-0.769,0 -1.395,0.57 -1.395,1.28c0,0.51 0.315,0.94 0.775,1.15v1.75h1.235v-1.75z" fill="#FAE3D3"/>
<path id="Vector_213" d="M20.423,7.52c-0.326,0.19 -0.548,0.53 -0.548,0.91c0,0.59 0.521,1.08 1.169,1.08c0.642,0 1.168,-0.48 1.168,-1.08c0,-0.38 -0.221,-0.72 -0.548,-0.91v-1.29h-1.235v1.29z" fill="#EA8C28"/>
<path id="Vector_214" d="M21.66,4.48c0.327,-0.19 0.548,-0.53 0.548,-0.91c0,-0.59 -0.52,-1.08 -1.168,-1.08c-0.648,0 -1.169,0.48 -1.169,1.08c0,0.38 0.222,0.72 0.548,0.91v1.29h1.235v-1.29z" fill="#FAE3D3"/>
<path id="Vector_215" d="M8.101,3.55c0.543,-0.22 0.92,-0.72 0.92,-1.3c0,-0.78 -0.687,-1.42 -1.54,-1.42c-0.853,0 -1.54,0.63 -1.54,1.42c0,0.58 0.377,1.08 0.92,1.3v2.23h1.235v-2.23z" fill="#FAE3D3"/>
<path id="Vector_216" d="M6.869,8.45c-0.543,0.22 -0.92,0.72 -0.92,1.3c0,0.78 0.687,1.42 1.54,1.42c0.853,0 1.539,-0.63 1.539,-1.42c0,-0.58 -0.376,-1.08 -0.919,-1.3v-2.23h-1.24z" fill="#EA8C28"/>
<path id="Vector_217" d="M3.49,7.98c-0.459,0.21 -0.775,0.64 -0.775,1.15c0,0.71 0.626,1.28 1.395,1.28c0.77,0 1.396,-0.57 1.396,-1.28c0,-0.51 -0.316,-0.94 -0.775,-1.15v-1.75h-1.241z" fill="#EA8C28"/>
<path id="Vector_218" d="M4.725,4.02c0.459,-0.21 0.775,-0.64 0.775,-1.15c0,-0.71 -0.626,-1.28 -1.395,-1.28c-0.77,0 -1.396,0.57 -1.396,1.28c0,0.51 0.316,0.94 0.775,1.15v1.75h1.235v-1.75z" fill="#FAE3D3"/>
<path id="Vector_219" d="M0.548,7.52c-0.326,0.19 -0.548,0.53 -0.548,0.91c0,0.59 0.521,1.08 1.169,1.08c0.642,0 1.168,-0.48 1.168,-1.08c0,-0.38 -0.221,-0.72 -0.548,-0.91v-1.29h-1.241z" fill="#EA8C28"/>
<path id="Vector_220" d="M1.789,4.48c0.327,-0.19 0.548,-0.53 0.548,-0.91c0,-0.59 -0.521,-1.08 -1.168,-1.08c-0.648,0 -1.169,0.49 -1.169,1.08c0,0.38 0.222,0.72 0.548,0.91v1.29h1.235v-1.29z" fill="#FAE3D3"/>
</g>
</g></svg>