<svg viewBox="0 0 368.0745 26.6745" fill="none" xmlns="http://www.w3.org/2000/svg" xmlns:xlink="http://www.w3.org/1999/xlink" x="0" y="0"><defs><linearGradient id="paint7_linear_6836_31544" x1="367.94030000000004" y1="11.758600000000001" x2="0.20229999999997972" y2="7.702599999999961" gradientUnits="userSpaceOnUse">
<stop stop-color="#EA8D28" stop-opacity="0.2"/>
<stop offset="1" stop-color="#EA8D28"/>
</linearGradient><clipPath id="clip1_6836_31544">
<rect width="367.755" height="18.6719" fill="white" transform="matrix(-0.999763, -0.0217726, -0.0217726, 0.999763, 368.07429999999994, 8.006600000000049)"/>
</clipPath></defs><g id="下划线" opacity="0.6" clip-path="url(#clip1_6836_31544)">
<path id="Vector_106" d="M366.9573,8.6326c-1.289,0.002 -95.789,0.501 -177.102,-0.183c-73.879,-0.619 -120.915,-0.326 -158.311,0.804c-4.473,0.136 -11.122,0.732 -17.238,0.496c-4.475,-0.169 -6.614,-0.503 -9.249,-0.739c-8.099,-0.722 -4.992,0.724 1.306,1.452c8.822,1.019 16.193,0.321 31.48,-0.11c15.938,-0.445 51.638,-1.125 96.742,-1.042c10.855,0.022 34.275,0.237 46.875,0.289c56.602,0.232 150.725,0.376 185.901,-0.625c0.864,-0.023 0.885,-0.35 -0.404,-0.342z" fill="url(#paint7_linear_6836_31544)"/>
<g id="Group 76">
<path id="Vector_107" d="M11.5113,13.4646c-1.709,-0.037 -3.065,-1.438 -3.028,-3.129c0.037,-1.691 1.452,-3.031 3.161,-2.994c1.709,0.037 3.064,1.438 3.028,3.129c-0.037,1.691 -1.452,3.031 -3.161,2.994z" fill="#EE8C29"/>
<path id="Vector_108" d="M13.9913,17.7776c-0.838,-0.018 -1.502,-0.705 -1.484,-1.533c0.018,-0.829 0.712,-1.486 1.549,-1.467c0.837,0.018 1.502,0.704 1.484,1.533c-0.018,0.828 -0.712,1.485 -1.549,1.467z" fill="#EE8C29"/>
<path id="Vector_109" d="M13.2453,12.4236l0.802,2.776l-0.87,0.37l-1.547,-2.543z" fill="#EE8C29"/>
</g>
<g id="Group 75">
<path id="Vector_110" d="M86.3783,13.3306c-1.709,-0.037 -3.065,-1.438 -3.028,-3.128c0.037,-1.691 1.452,-3.032 3.161,-2.994c1.709,0.037 3.065,1.438 3.028,3.128c-0.037,1.691 -1.452,3.032 -3.161,2.994z" fill="#EE8C29"/>
<path id="Vector_111" d="M89.3933,6.1456c-0.837,-0.019 -1.502,-0.705 -1.484,-1.534c0.018,-0.828 0.712,-1.485 1.549,-1.467c0.838,0.018 1.502,0.705 1.484,1.533c-0.018,0.829 -0.712,1.486 -1.549,1.468z" fill="#EE8C29"/>
<path id="Vector_112" d="M86.9373,7.7046l1.64,-2.389l0.844,0.422l-0.976,2.807z" fill="#EE8C29"/>
</g>
<g id="Group_50">
<path id="Vector_113" d="M113.4173,13.3076c-1.709,-0.037 -3.064,-1.438 -3.028,-3.129c0.037,-1.69 1.452,-3.031 3.161,-2.994c1.709,0.038 3.065,1.438 3.028,3.129c-0.037,1.691 -1.452,3.031 -3.161,2.994z" fill="#EE8C29"/>
<path id="Vector_114" d="M110.6103,17.4446c-0.838,-0.018 -1.502,-0.705 -1.484,-1.533c0.018,-0.829 0.712,-1.486 1.549,-1.467c0.838,0.018 1.502,0.704 1.484,1.533c-0.018,0.828 -0.712,1.485 -1.549,1.467z" fill="white"/>
<path id="Vector_115" d="M110.6623,15.0306c-0.227,-0.005 -0.442,0.07 -0.616,0.216c-0.391,0.324 -0.442,0.905 -0.109,1.292c0.171,0.201 0.425,0.319 0.69,0.325c0.228,0.005 0.443,-0.07 0.616,-0.217c0.189,-0.16 0.307,-0.378 0.327,-0.621c0.019,-0.244 -0.056,-0.48 -0.213,-0.666c-0.176,-0.206 -0.429,-0.324 -0.695,-0.329zM110.6753,14.4486c0.422,0.009 0.835,0.192 1.126,0.531c0.541,0.631 0.459,1.577 -0.178,2.112c-0.295,0.247 -0.653,0.361 -1.008,0.353c-0.422,-0.009 -0.835,-0.192 -1.127,-0.531c-0.541,-0.631 -0.458,-1.577 0.179,-2.111c0.295,-0.247 0.653,-0.362 1.008,-0.354z" fill="#EE8C29"/>
<path id="Vector_116" d="M113.0543,12.8216l-1.575,2.428l-0.859,-0.398l0.906,-2.828z" fill="#EE8C29"/>
<path id="Vector_117" d="M110.6423,16.6616c0.085,0.002 0.171,-0.01 0.257,-0.041c0.358,-0.133 0.547,-0.527 0.413,-0.887c-0.067,-0.179 -0.211,-0.328 -0.39,-0.398c-0.075,-0.029 -0.161,0.006 -0.191,0.081c-0.03,0.074 0.006,0.159 0.081,0.189c0.103,0.045 0.187,0.126 0.227,0.23c0.036,0.099 0.034,0.207 -0.011,0.305c-0.045,0.097 -0.127,0.171 -0.227,0.206c-0.053,0.018 -0.101,0.026 -0.157,0.025c-0.086,-0.007 -0.149,0.057 -0.155,0.137c-0.007,0.08 0.058,0.147 0.139,0.153c0.005,0 0.009,0 0.014,0z" fill="#EE8C29"/>
</g>
<g id="Group_51">
<path id="Vector_118" d="M36.7783,13.4666c-1.709,-0.038 -3.064,-1.438 -3.027,-3.129c0.036,-1.691 1.452,-3.031 3.161,-2.994c1.709,0.037 3.064,1.438 3.027,3.129c-0.037,1.69 -1.452,3.031 -3.161,2.994z" fill="white"/>
<path id="Vector_119" d="M36.8853,8.5056c-0.445,-0.009 -0.87,0.132 -1.223,0.405c-0.829,0.648 -0.978,1.841 -0.323,2.662c0.355,0.449 0.89,0.714 1.468,0.726c0.446,0.01 0.87,-0.131 1.223,-0.405c0.829,-0.648 0.978,-1.84 0.323,-2.661c-0.355,-0.449 -0.89,-0.714 -1.468,-0.727zM36.9103,7.3436c0.896,0.019 1.774,0.418 2.369,1.172c1.056,1.332 0.82,3.255 -0.52,4.3c-0.584,0.456 -1.286,0.666 -1.977,0.651c-0.896,-0.02 -1.774,-0.419 -2.369,-1.173c-1.057,-1.332 -0.82,-3.254 0.52,-4.299c0.589,-0.452 1.285,-0.666 1.977,-0.651z" fill="#EE8C29"/>
<path id="Vector_120" d="M36.7343,12.0206c0.156,0.003 0.287,-0.116 0.3,-0.27c0.013,-0.159 -0.107,-0.303 -0.268,-0.316c-0.289,-0.02 -0.561,-0.167 -0.741,-0.391c-0.355,-0.449 -0.279,-1.104 0.179,-1.455c0.111,-0.087 0.236,-0.15 0.369,-0.184c0.157,-0.044 0.251,-0.201 0.207,-0.357c-0.044,-0.156 -0.203,-0.248 -0.361,-0.205c-0.21,0.057 -0.406,0.156 -0.58,0.288c-0.342,0.264 -0.559,0.649 -0.611,1.079c-0.052,0.431 0.067,0.856 0.339,1.195c0.282,0.353 0.703,0.578 1.158,0.616c0,0 0.004,0 0.009,0z" fill="#EE8C29"/>
<path id="Vector_121" d="M39.8543,6.3096c-0.838,-0.018 -1.502,-0.704 -1.484,-1.533c0.018,-0.828 0.712,-1.485 1.549,-1.467c0.838,0.018 1.502,0.705 1.484,1.533c-0.018,0.829 -0.712,1.486 -1.549,1.467z" fill="#EE8C29"/>
<path id="Vector_122" d="M37.3703,7.8506l1.659,-2.375l0.839,0.431l-0.999,2.793z" fill="#EE8C29"/>
</g>
<g id="Group_52">
<path id="Vector_123" d="M62.0463,13.0126c-1.709,-0.038 -3.065,-1.439 -3.028,-3.129c0.037,-1.691 1.452,-3.032 3.161,-2.994c1.709,0.037 3.065,1.438 3.028,3.128c-0.037,1.691 -1.452,3.032 -3.161,2.995z" fill="white"/>
<path id="Vector_124" d="M62.1483,8.0516c-0.843,-0.018 -1.614,0.528 -1.868,1.325c-0.32,0.996 0.239,2.064 1.252,2.381c0.174,0.056 0.358,0.083 0.538,0.087c0.844,0.019 1.614,-0.528 1.869,-1.324c0.152,-0.485 0.111,-0.997 -0.125,-1.447c-0.237,-0.451 -0.637,-0.784 -1.122,-0.935c-0.18,-0.051 -0.359,-0.083 -0.544,-0.087zM62.1743,6.8896c0.289,0.006 0.581,0.055 0.869,0.14c1.629,0.51 2.53,2.232 2.016,3.844c-0.422,1.327 -1.678,2.168 -3.014,2.139c-0.289,-0.007 -0.582,-0.055 -0.869,-0.141c-1.63,-0.51 -2.531,-2.232 -2.017,-3.844c0.427,-1.327 1.678,-2.167 3.015,-2.138z" fill="#EE8C29"/>
<path id="Vector_125" d="M62.0773,11.5676c0.27,0.006 0.542,-0.053 0.786,-0.179c0.389,-0.198 0.676,-0.535 0.808,-0.949c0.137,-0.429 0.086,-0.899 -0.138,-1.293c-0.082,-0.138 -0.261,-0.189 -0.4,-0.107c-0.14,0.081 -0.191,0.258 -0.109,0.396c0.147,0.252 0.178,0.553 0.091,0.828c-0.086,0.265 -0.266,0.477 -0.515,0.608c-0.25,0.125 -0.535,0.152 -0.798,0.067c-0.132,-0.041 -0.254,-0.109 -0.361,-0.196c-0.121,-0.106 -0.311,-0.091 -0.413,0.033c-0.107,0.125 -0.092,0.308 0.033,0.409c0.168,0.14 0.356,0.242 0.567,0.308c0.142,0.05 0.298,0.072 0.449,0.075z" fill="#EE8C29"/>
</g>
</g></svg>