<svg viewBox="0 0 141.4073 48" fill="none" xmlns="http://www.w3.org/2000/svg" xmlns:xlink="http://www.w3.org/1999/xlink" x="0" y="0"><g id="Group_17">
<g id="Group_18">
<path id="Vector_78" fill-rule="evenodd" clip-rule="evenodd" d="M43.789,28.7428c5.102,-5.97 2.472,-14.58 -4.456,-16.92c1.005,-1.6 1.113,-3.23 -0.0507,-4.79c-1.268,-1.71 -3.1083,-1.64 -5.0618,-1.52c0,0.29 0,0.57 0,0.86c-0.0101,2.47 0.049,4.94 -0.0473,7.41c-0.1621,4.19 -3.4308,7.53 -7.5978,7.91c-0.4339,0.04 -0.6348,-0.08 -0.7868,-0.51c-2.6491,-7.46 2.4549,-15.92 10.2976,-17.05c8.3068,-1.2 15.4168,5.1 15.0538,13.49c-0.211,4.87 -2.634,8.5 -6.877,10.91c-0.115,0.07 -0.245,0.11 -0.474,0.21z" fill="#3CA9D6"/>
<path id="Vector_79" fill-rule="evenodd" clip-rule="evenodd" d="M26.9436,23.6828c5.7051,-1.14 8.7662,-4.55 9.3048,-10.3c1.3794,-0.05 2.6643,0.32 3.8716,0.96c3.12,1.66 4.896,5.26 4.302,8.67c-0.638,3.65 -3.392,6.46 -6.9782,6.92c-0.8965,0.12 -1.8809,-0.13 -2.7774,-0.37c-3.3211,-0.91 -5.8554,-2.88 -7.7228,-5.88z" fill="#3CA9D6"/>
<path id="Vector_80" fill-rule="evenodd" clip-rule="evenodd" d="M32.1353,29.6428c7.3581,2.66 13.9177,-0.51 17.2117,-4.9c3.701,-4.93 4.003,-11.62 0.684,-16.85c-1.9,-2.99 -4.556,-5.05 -7.932,-6.15c-3.3637,-1.09 -6.705,-0.93 -10.016,0.28c5.1463,-3.12 13.619,-3.02 19.189,3.06c5.455,5.96 5.615,14.93 0.422,20.99c-5.405,6.31 -13.9531,6.86 -19.5587,3.57z" fill="#EA8D28"/>
<path id="Vector_81" fill-rule="evenodd" clip-rule="evenodd" d="M43.75,32.1228c-5.1278,3.05 -13.4432,2.83 -18.9812,-3.07c-5.4687,-5.83 -5.7152,-14.86 -0.5605,-20.99c5.2205,-6.21 13.7149,-7.05 19.5327,-3.74c-7.5552,-2.16 -13.8529,-0.37 -18.0317,6.48c-3.1962,5.24 -2.9547,10.81 0.6027,15.82c4.3443,6.12 10.404,7.6 17.438,5.5z" fill="#A2D738"/>
<path id="Vector_82" fill-rule="evenodd" clip-rule="evenodd" d="M36.2079,7.5128c1.1194,0 1.9417,0.82 1.9417,1.91c0,1.08 -0.8088,1.89 -1.9417,1.91z" fill="#3CA9D6"/>
</g>
<g id="Group_19">
<path id="Vector_83" d="M0,3.2728h7.7751c3.652,0 6.2944,0.54 7.9254,1.63c1.631,1.1 2.4482,2.82 2.4482,5.18c0,1.63 -0.4559,2.98 -1.3643,4.04c-0.91,1.06 -2.2371,1.75 -3.9812,2.06v0.19c4.1788,0.72 6.269,2.91 6.269,6.59c0,2.46 -0.8307,4.38 -2.4937,5.76c-1.6631,1.38 -3.9881,2.07 -6.9749,2.07h-9.6036zM3.1995,15.0528h5.2712c2.2591,0 3.8834,-0.35 4.8761,-1.06c0.9911,-0.71 1.4875,-1.91 1.4875,-3.59c0,-1.54 -0.5521,-2.66 -1.6563,-3.34c-1.1042,-0.68 -2.8618,-1.03 -5.2712,-1.03h-4.7073zM3.1995,17.7628v10.3h5.7423c2.2219,0 3.8935,-0.43 5.0162,-1.29c1.1228,-0.86 1.6851,-2.2 1.6851,-4.04c0,-1.71 -0.5741,-2.96 -1.7222,-3.76c-1.1481,-0.81 -2.8956,-1.21 -5.2425,-1.21h-5.4789z" fill="white"/>
</g>
<g id="Group_20">
<path id="Vector_84" d="M73.619,23.4728c0,2.43 -0.879,4.32 -2.635,5.67c-1.758,1.36 -4.142,2.03 -7.154,2.03c-3.264,0 -5.773,-0.42 -7.53,-1.26v-3.08c1.129,0.47 2.359,0.85 3.689,1.13c1.33,0.27 2.647,0.41 3.953,0.41c2.134,0 3.739,-0.41 4.818,-1.21c1.079,-0.81 1.619,-1.94 1.619,-3.38c0,-0.96 -0.19,-1.74 -0.574,-2.35c-0.383,-0.6 -1.023,-1.17 -1.919,-1.68c-0.899,-0.52 -2.263,-1.1 -4.095,-1.75c-2.559,-0.92 -4.39,-2 -5.487,-3.26c-1.098,-1.25 -1.648,-2.89 -1.648,-4.91c0,-2.12 0.797,-3.81 2.391,-5.07c1.594,-1.25 3.703,-1.88 6.325,-1.88c2.735,0 5.252,0.5 7.548,1.51l-0.994,2.78c-2.273,-0.95 -4.481,-1.43 -6.627,-1.43c-1.693,0 -3.019,0.37 -3.973,1.1c-0.954,0.72 -1.43,1.73 -1.43,3.03c0,0.95 0.176,1.73 0.527,2.34c0.351,0.61 0.944,1.17 1.779,1.67c0.835,0.51 2.111,1.08 3.831,1.69c2.888,1.03 4.873,2.13 5.959,3.31c1.084,1.18 1.627,2.71 1.627,4.59z" fill="white"/>
<path id="Vector_85" d="M87.719,30.8028h-3.201v-24.68h-8.715v-2.84h20.632v2.84h-8.716z" fill="white"/>
<path id="Vector_86" d="M115.919,30.8028h-15.341v-27.52h15.343v2.84h-12.143v8.87h11.408v2.82h-11.408v10.13h12.143v2.86z" fill="white"/>
<path id="Vector_87" d="M125.219,19.3528v11.45h-3.201v-27.52h7.549c3.375,0 5.87,0.64 7.483,1.93c1.612,1.3 2.419,3.24 2.419,5.84c0,3.64 -1.845,6.1 -5.535,7.38l7.473,12.37h-3.783l-6.665,-11.45h-5.74zM125.219,16.6028h4.386c2.259,0 3.916,-0.44 4.971,-1.34c1.054,-0.9 1.582,-2.25 1.582,-4.04c0,-1.82 -0.537,-3.13 -1.609,-3.93c-1.074,-0.81 -2.796,-1.21 -5.168,-1.21h-4.16v10.52z" fill="white"/>
</g>
<g id="Group_21">
<path id="Vector_88" d="M4.753,45.5228l-0.1655,-0.78h-0.0405c-0.2752,0.34 -0.5487,0.58 -0.8222,0.7c-0.2736,0.12 -0.6146,0.18 -1.0232,0.18c-0.5471,0 -0.9742,-0.14 -1.2849,-0.42c-0.3107,-0.28 -0.4643,-0.68 -0.4643,-1.2c0,-1.11 0.8898,-1.7 2.6694,-1.75l0.9353,-0.03v-0.34c0,-0.43 -0.0928,-0.75 -0.2785,-0.96c-0.1858,-0.21 -0.4829,-0.31 -0.8932,-0.31c-0.4593,0 -0.9793,0.14 -1.5584,0.42l-0.2567,-0.63c0.2719,-0.15 0.569,-0.27 0.8932,-0.35c0.3242,-0.08 0.6484,-0.13 0.9725,-0.13c0.6568,0 1.1448,0.15 1.4605,0.44c0.3174,0.29 0.4744,0.76 0.4744,1.4v3.77h-0.6179zM2.867,44.9328c0.5201,0 0.9287,-0.14 1.2241,-0.42c0.2972,-0.29 0.4458,-0.69 0.4458,-1.2v-0.5l-0.8341,0.04c-0.6635,0.02 -1.143,0.12 -1.4351,0.31c-0.2938,0.18 -0.4407,0.46 -0.4407,0.85c0,0.3 0.0912,0.53 0.2735,0.69c0.1824,0.16 0.4373,0.23 0.7665,0.23z" fill="white"/>
<path id="Vector_89" d="M11.2736,45.5228v-3.56c0,-0.45 -0.103,-0.79 -0.3073,-1.01c-0.2043,-0.22 -0.5251,-0.33 -0.9607,-0.33c-0.5774,0 -0.9995,0.16 -1.268,0.47c-0.2684,0.31 -0.4018,0.82 -0.4018,1.54v2.89h-0.8341v-5.51h0.6787l0.1351,0.76h0.0405c0.1706,-0.27 0.4103,-0.48 0.7193,-0.63c0.309,-0.15 0.6517,-0.23 1.0316,-0.23c0.6636,0 1.1633,0.16 1.4993,0.48c0.336,0.32 0.5032,0.83 0.5032,1.54v3.59h-0.8358z" fill="white"/>
<path id="Vector_90" d="M16.0164,44.9328c0.1469,0 0.2904,-0.01 0.4272,-0.03c0.1367,-0.02 0.2465,-0.04 0.3275,-0.07v0.64c-0.0911,0.05 -0.2245,0.08 -0.4001,0.11c-0.1756,0.03 -0.3343,0.04 -0.4745,0.04c-1.0653,0 -1.5989,-0.56 -1.5989,-1.68v-3.28h-0.7902v-0.4l0.7902,-0.35l0.3512,-1.18h0.4829v1.28h1.5989v0.65h-1.5989v3.24c0,0.33 0.0793,0.59 0.2364,0.77c0.157,0.18 0.3731,0.26 0.6483,0.26z" fill="white"/>
<path id="Vector_91" d="M18.2129,38.5228c0,-0.19 0.0473,-0.33 0.1401,-0.42c0.0946,-0.09 0.2111,-0.14 0.3512,-0.14c0.1334,0 0.2499,0.05 0.3478,0.14c0.098,0.09 0.1452,0.23 0.1452,0.42c0,0.18 -0.0489,0.32 -0.1452,0.42c-0.0979,0.09 -0.2127,0.14 -0.3478,0.14c-0.1401,0 -0.2583,-0.05 -0.3512,-0.14c-0.0928,-0.09 -0.1401,-0.23 -0.1401,-0.42zM19.1179,45.5228h-0.8341v-5.51h0.8341z" fill="white"/>
<path id="Vector_92" d="M23.8639,39.9228c0.7243,0 1.2866,0.25 1.6867,0.74c0.4002,0.5 0.6011,1.2 0.6011,2.1c0,0.91 -0.2026,1.61 -0.6061,2.11c-0.4036,0.5 -0.9641,0.75 -1.6817,0.75c-0.3596,0 -0.6872,-0.06 -0.9826,-0.2c-0.2972,-0.13 -0.5454,-0.33 -0.7463,-0.61h-0.0608l-0.1756,0.71h-0.5977v-7.82h0.8341v1.9c0,0.42 -0.0135,0.81 -0.0405,1.14h0.0405c0.3883,-0.54 0.9657,-0.82 1.7289,-0.82zM23.744,40.6228c-0.5707,0 -0.9809,0.16 -1.2325,0.49c-0.2516,0.33 -0.3765,0.88 -0.3765,1.65c0,0.78 0.1283,1.33 0.3866,1.66c0.2583,0.34 0.672,0.5 1.2427,0.5c0.5133,0 0.8948,-0.19 1.1464,-0.56c0.2516,-0.37 0.3765,-0.91 0.3765,-1.61c0,-0.72 -0.1249,-1.25 -0.3765,-1.6c-0.2516,-0.35 -0.6399,-0.53 -1.1667,-0.53z" fill="white"/>
<path id="Vector_93" d="M32.7807,42.7628c0,0.9 -0.2263,1.6 -0.6787,2.11c-0.4525,0.5 -1.0773,0.75 -1.8759,0.75c-0.493,0 -0.9303,-0.11 -1.3119,-0.34c-0.3815,-0.23 -0.677,-0.57 -0.8847,-1c-0.2077,-0.43 -0.3123,-0.94 -0.3123,-1.52c0,-0.9 0.2245,-1.6 0.6736,-2.1c0.4492,-0.5 1.0722,-0.75 1.8708,-0.75c0.7716,0 1.3845,0.26 1.8387,0.77c0.4525,0.51 0.6804,1.21 0.6804,2.08zM28.5816,42.7628c0,0.71 0.1402,1.24 0.4221,1.61c0.282,0.37 0.6957,0.56 1.2427,0.56c0.547,0 0.9607,-0.19 1.2443,-0.55c0.2837,-0.37 0.4255,-0.91 0.4255,-1.62c0,-0.7 -0.1418,-1.23 -0.4255,-1.59c-0.2836,-0.37 -0.7006,-0.55 -1.2544,-0.55c-0.5471,0 -0.9591,0.18 -1.2376,0.54c-0.2786,0.36 -0.4171,0.89 -0.4171,1.6z" fill="white"/>
<path id="Vector_94" d="M38.4062,44.7828h-0.0456c-0.3849,0.56 -0.9624,0.84 -1.7306,0.84c-0.7209,0 -1.2815,-0.24 -1.6816,-0.74c-0.4002,-0.49 -0.6011,-1.19 -0.6011,-2.1c0,-0.91 0.2009,-1.61 0.6028,-2.12c0.4018,-0.5 0.9623,-0.75 1.6799,-0.75c0.748,0 1.3203,0.27 1.7205,0.81h0.0658l-0.0354,-0.39l-0.0203,-0.39v-2.24h0.8341v7.82h-0.6787zM36.7364,44.9228c0.5707,0 0.9826,-0.15 1.2393,-0.46c0.2566,-0.31 0.3849,-0.81 0.3849,-1.5v-0.18c0,-0.78 -0.13,-1.34 -0.39,-1.67c-0.26,-0.33 -0.6754,-0.5 -1.2443,-0.5c-0.4897,0 -0.8645,0.19 -1.1245,0.57c-0.26,0.38 -0.39,0.92 -0.39,1.61c0,0.71 0.1283,1.24 0.3866,1.6c0.26,0.36 0.6382,0.53 1.138,0.53z" fill="white"/>
<path id="Vector_95" d="M40.503,40.0128h0.895l1.207,3.14c0.265,0.72 0.429,1.24 0.493,1.56h0.041c0.044,-0.17 0.135,-0.46 0.273,-0.88c0.139,-0.41 0.595,-1.69 1.366,-3.82h0.895l-2.369,6.28c-0.234,0.62 -0.508,1.06 -0.822,1.32c-0.314,0.26 -0.699,0.39 -1.155,0.39c-0.255,0 -0.506,-0.03 -0.754,-0.09v-0.67c0.184,0.04 0.39,0.06 0.617,0.06c0.575,0 0.983,-0.32 1.228,-0.96l0.307,-0.79z" fill="white"/>
<path id="Vector_96" d="M53.455,45.5228l-0.165,-0.78h-0.041c-0.275,0.34 -0.549,0.58 -0.822,0.7c-0.274,0.12 -0.615,0.18 -1.023,0.18c-0.547,0 -0.974,-0.14 -1.285,-0.42c-0.311,-0.28 -0.464,-0.68 -0.464,-1.2c0,-1.11 0.889,-1.7 2.669,-1.75l0.935,-0.03v-0.34c0,-0.43 -0.093,-0.75 -0.278,-0.96c-0.186,-0.21 -0.483,-0.31 -0.893,-0.31c-0.46,0 -0.98,0.14 -1.559,0.42l-0.257,-0.63c0.272,-0.15 0.569,-0.27 0.894,-0.35c0.324,-0.08 0.648,-0.13 0.972,-0.13c0.657,0 1.145,0.15 1.461,0.44c0.317,0.29 0.474,0.76 0.474,1.4v3.77h-0.618zM51.571,44.9328c0.52,0 0.929,-0.14 1.224,-0.42c0.297,-0.29 0.446,-0.69 0.446,-1.2v-0.5l-0.834,0.04c-0.664,0.02 -1.143,0.12 -1.435,0.31c-0.294,0.18 -0.441,0.46 -0.441,0.85c0,0.3 0.091,0.53 0.273,0.69c0.183,0.16 0.438,0.23 0.767,0.23z" fill="white"/>
<path id="Vector_97" d="M59.977,45.5228v-3.56c0,-0.45 -0.103,-0.79 -0.307,-1.01c-0.204,-0.22 -0.525,-0.33 -0.961,-0.33c-0.577,0 -0.999,0.16 -1.268,0.47c-0.268,0.31 -0.401,0.82 -0.401,1.54v2.89h-0.834v-5.51h0.678l0.135,0.76h0.041c0.17,-0.27 0.41,-0.48 0.719,-0.63c0.309,-0.15 0.652,-0.23 1.032,-0.23c0.663,0 1.163,0.16 1.499,0.48c0.336,0.32 0.503,0.83 0.503,1.54v3.59h-0.836z" fill="white"/>
<path id="Vector_98" d="M66.691,44.7828h-0.046c-0.385,0.56 -0.962,0.84 -1.731,0.84c-0.721,0 -1.281,-0.24 -1.681,-0.74c-0.4,-0.49 -0.601,-1.19 -0.601,-2.1c0,-0.91 0.201,-1.61 0.602,-2.12c0.402,-0.5 0.963,-0.75 1.68,-0.75c0.748,0 1.321,0.27 1.721,0.81h0.066l-0.036,-0.39l-0.02,-0.39v-2.24h0.834v7.82h-0.679zM65.021,44.9228c0.57,0 0.982,-0.15 1.239,-0.46c0.257,-0.31 0.385,-0.81 0.385,-1.5v-0.18c0,-0.78 -0.13,-1.34 -0.39,-1.67c-0.26,-0.33 -0.675,-0.5 -1.244,-0.5c-0.49,0 -0.865,0.19 -1.125,0.57c-0.26,0.38 -0.39,0.92 -0.39,1.61c0,0.71 0.128,1.24 0.387,1.6c0.26,0.36 0.638,0.53 1.138,0.53z" fill="white"/>
<path id="Vector_99" d="M76.973,45.5228h-4.098v-7.35h4.098v0.76h-3.243v2.37h3.047v0.76h-3.047v2.7h3.243z" fill="white"/>
<path id="Vector_100" d="M79.014,45.5228v-7.35h0.854v6.58h3.244v0.78h-4.098z" fill="white"/>
<path id="Vector_101" d="M84.771,45.5228v-7.35h0.855v7.35z" fill="white"/>
<path id="Vector_102" d="M92.204,43.5728c0,0.64 -0.235,1.15 -0.704,1.51c-0.469,0.36 -1.106,0.54 -1.911,0.54c-0.871,0 -1.542,-0.11 -2.011,-0.33v-0.83c0.302,0.13 0.63,0.23 0.986,0.3c0.356,0.08 0.707,0.12 1.055,0.12c0.571,0 1,-0.11 1.287,-0.33c0.288,-0.22 0.432,-0.52 0.432,-0.9c0,-0.26 -0.051,-0.46 -0.154,-0.63c-0.103,-0.16 -0.273,-0.31 -0.513,-0.45c-0.24,-0.14 -0.604,-0.29 -1.094,-0.47c-0.684,-0.24 -1.172,-0.53 -1.466,-0.87c-0.293,-0.33 -0.44,-0.77 -0.44,-1.31c0,-0.56 0.212,-1.02 0.638,-1.35c0.425,-0.34 0.989,-0.5 1.69,-0.5c0.731,0 1.403,0.13 2.016,0.4l-0.267,0.74c-0.606,-0.25 -1.197,-0.38 -1.769,-0.38c-0.453,0 -0.807,0.1 -1.061,0.29c-0.254,0.2 -0.381,0.47 -0.381,0.81c0,0.26 0.047,0.47 0.14,0.63c0.095,0.16 0.252,0.31 0.474,0.45c0.223,0.13 0.564,0.28 1.024,0.45c0.771,0.27 1.301,0.57 1.592,0.88c0.292,0.31 0.437,0.72 0.437,1.23z" fill="white"/>
<path id="Vector_103" d="M98.74,45.5228l-0.915,-2.33h-2.947l-0.905,2.33h-0.864l2.906,-7.38h0.719l2.892,7.38zM97.558,42.4228l-0.855,-2.28c-0.111,-0.29 -0.224,-0.64 -0.342,-1.06c-0.075,0.32 -0.179,0.67 -0.318,1.06l-0.864,2.28z" fill="white"/>
<path id="Vector_104" d="M106.338,45.6228c-0.816,0 -1.457,-0.25 -1.929,-0.74c-0.471,-0.5 -0.705,-1.19 -0.705,-2.07c0,-0.89 0.219,-1.59 0.657,-2.12c0.437,-0.52 1.024,-0.78 1.762,-0.78c0.691,0 1.238,0.23 1.64,0.68c0.401,0.46 0.602,1.06 0.602,1.8v0.53h-3.797c0.017,0.64 0.181,1.14 0.49,1.47c0.31,0.34 0.746,0.51 1.31,0.51c0.593,0 1.18,-0.13 1.759,-0.38v0.75c-0.295,0.13 -0.574,0.22 -0.837,0.27c-0.263,0.06 -0.581,0.08 -0.952,0.08zM106.111,40.6128c-0.442,0 -0.795,0.14 -1.058,0.43c-0.264,0.29 -0.419,0.69 -0.465,1.2h2.883c0,-0.53 -0.119,-0.93 -0.352,-1.21c-0.236,-0.28 -0.572,-0.42 -1.008,-0.42z" fill="white"/>
<path id="Vector_105" d="M111.32,42.7028l-1.916,-2.69h0.95l1.454,2.11l1.449,-2.11h0.94l-1.916,2.69l2.016,2.82h-0.946l-1.543,-2.23l-1.558,2.23h-0.946z" fill="white"/>
<path id="Vector_106" d="M118.366,45.6228c-0.36,0 -0.687,-0.06 -0.983,-0.2c-0.297,-0.13 -0.545,-0.33 -0.746,-0.61h-0.061c0.041,0.33 0.061,0.63 0.061,0.92v2.27h-0.834v-7.99h0.678l0.115,0.75h0.041c0.214,-0.3 0.464,-0.52 0.749,-0.65c0.286,-0.13 0.612,-0.2 0.981,-0.2c0.732,0 1.295,0.25 1.692,0.75c0.397,0.5 0.596,1.2 0.596,2.1c0,0.91 -0.202,1.61 -0.606,2.11c-0.405,0.5 -0.967,0.75 -1.683,0.75zM118.244,40.6228c-0.564,0 -0.971,0.16 -1.222,0.47c-0.252,0.31 -0.38,0.81 -0.387,1.49v0.18c0,0.78 0.128,1.33 0.387,1.66c0.258,0.34 0.672,0.5 1.242,0.5c0.477,0 0.85,-0.19 1.12,-0.57c0.27,-0.39 0.405,-0.92 0.405,-1.6c0,-0.68 -0.135,-1.21 -0.405,-1.58c-0.27,-0.37 -0.65,-0.55 -1.14,-0.55z" fill="white"/>
<path id="Vector_107" d="M124.851,45.6228c-0.816,0 -1.457,-0.25 -1.928,-0.74c-0.471,-0.5 -0.706,-1.19 -0.706,-2.07c0,-0.89 0.22,-1.59 0.657,-2.12c0.437,-0.52 1.025,-0.78 1.763,-0.78c0.69,0 1.237,0.23 1.639,0.68c0.402,0.46 0.603,1.06 0.603,1.8v0.53h-3.797c0.016,0.64 0.18,1.14 0.489,1.47c0.311,0.34 0.746,0.51 1.31,0.51c0.593,0 1.181,-0.13 1.76,-0.38v0.75c-0.296,0.13 -0.574,0.22 -0.838,0.27c-0.261,0.06 -0.579,0.08 -0.952,0.08zM124.625,40.6128c-0.443,0 -0.796,0.14 -1.059,0.43c-0.263,0.29 -0.419,0.69 -0.464,1.2h2.882c0,-0.53 -0.118,-0.93 -0.351,-1.21c-0.237,-0.28 -0.571,-0.42 -1.008,-0.42z" fill="white"/>
<path id="Vector_108" d="M131.228,39.9128c0.245,0 0.464,0.02 0.659,0.06l-0.117,0.78c-0.228,-0.05 -0.429,-0.08 -0.603,-0.08c-0.445,0 -0.827,0.18 -1.144,0.54c-0.318,0.37 -0.475,0.82 -0.475,1.36v2.95h-0.834v-5.51h0.689l0.096,1.02h0.041c0.204,-0.35 0.451,-0.63 0.739,-0.82c0.286,-0.2 0.603,-0.3 0.949,-0.3z" fill="white"/>
<path id="Vector_109" d="M135.11,44.9328c0.146,0 0.29,-0.01 0.427,-0.03c0.136,-0.02 0.246,-0.04 0.327,-0.07v0.64c-0.091,0.05 -0.224,0.08 -0.4,0.11c-0.175,0.03 -0.334,0.04 -0.474,0.04c-1.066,0 -1.599,-0.56 -1.599,-1.68v-3.28h-0.79v-0.4l0.79,-0.35l0.351,-1.18h0.483v1.28h1.599v0.65h-1.599v3.24c0,0.33 0.079,0.59 0.236,0.77c0.157,0.18 0.373,0.26 0.649,0.26z" fill="white"/>
<path id="Vector_110" d="M140.931,44.0228c0,0.51 -0.19,0.91 -0.574,1.19c-0.383,0.27 -0.918,0.41 -1.609,0.41c-0.731,0 -1.3,-0.11 -1.71,-0.34v-0.78c0.265,0.14 0.549,0.24 0.853,0.32c0.303,0.08 0.596,0.12 0.878,0.12c0.435,0 0.771,-0.07 1.006,-0.21c0.234,-0.14 0.351,-0.35 0.351,-0.64c0,-0.21 -0.093,-0.4 -0.279,-0.55c-0.185,-0.15 -0.548,-0.33 -1.089,-0.54c-0.513,-0.19 -0.878,-0.36 -1.094,-0.5c-0.216,-0.14 -0.376,-0.3 -0.483,-0.49c-0.106,-0.18 -0.158,-0.39 -0.158,-0.65c0,-0.44 0.182,-0.8 0.548,-1.06c0.365,-0.26 0.867,-0.39 1.505,-0.39c0.592,0 1.173,0.12 1.739,0.36l-0.297,0.68c-0.554,-0.23 -1.056,-0.34 -1.505,-0.34c-0.395,0 -0.694,0.06 -0.895,0.19c-0.2,0.12 -0.302,0.29 -0.302,0.51c0,0.15 0.037,0.27 0.113,0.38c0.076,0.1 0.198,0.2 0.365,0.29c0.167,0.1 0.49,0.23 0.966,0.41c0.653,0.24 1.096,0.48 1.325,0.72c0.232,0.24 0.346,0.54 0.346,0.91z" fill="white"/>
</g>
</g></svg>