<svg viewBox="0 0 1920 641" fill="none" xmlns="http://www.w3.org/2000/svg" xmlns:xlink="http://www.w3.org/1999/xlink" x="0" y="0"><defs><filter id="filter12_d_6836_31544" x="1556" y="85.09000000000015" width="135" height="135" filterUnits="userSpaceOnUse" color-interpolation-filters="sRGB">
<feFlood flood-opacity="0" result="BackgroundImageFix"/>
<feColorMatrix in="SourceAlpha" type="matrix" values="0 0 0 0 0 0 0 0 0 0 0 0 0 0 0 0 0 0 127 0" result="hardAlpha"/>
<feOffset dy="4"/>
<feGaussianBlur stdDeviation="20"/>
<feComposite in2="hardAlpha" operator="out"/>
<feColorMatrix type="matrix" values="0 0 0 0 0.294531 0 0 0 0 0.470641 0 0 0 0 0.8125 0 0 0 0.13 0"/>
<feBlend mode="normal" in2="BackgroundImageFix" result="effect1_dropShadow_6836_31544"/>
<feBlend mode="normal" in="SourceGraphic" in2="effect1_dropShadow_6836_31544" result="shape"/>
</filter><linearGradient id="paint24_linear_6836_31544" x1="960" y1="0" x2="960" y2="621" gradientUnits="userSpaceOnUse">
<stop stop-color="#063172"/>
<stop offset="1" stop-color="#3D87D2"/>
</linearGradient><linearGradient id="paint25_linear_6836_31544" x1="1044" y1="513" x2="1044" y2="641" gradientUnits="userSpaceOnUse">
<stop stop-color="#2660B2" stop-opacity="0"/>
<stop offset="1" stop-color="#3665B1"/>
</linearGradient></defs><g id="hero">
<g id="background_3">
<rect width="1920" height="621" transform="translate(0, 20)" fill="url(#paint24_linear_6836_31544)"/>
<rect id="Rectangle 369" x="0" y="513" width="1920" height="128" fill="url(#paint25_linear_6836_31544)"/>
<g id="Ellipse 7" filter="url(#filter12_d_6836_31544)">
<circle cx="1623.5" cy="148.59000000000015" r="27.5" fill="#EA8D28"/>
</g>
<path id="Vector_456" d="M1613.33,152.19l9.24,-9.27c0.11,-0.11 0.22,-0.19 0.35,-0.23c0.13,-0.05 0.27,-0.07 0.42,-0.07c0.14,0 0.28,0.02 0.41,0.07c0.13,0.04 0.25,0.12 0.36,0.23l9.26,9.27c0.26,0.26 0.39,0.58 0.39,0.96c0,0.39 -0.14,0.72 -0.41,0.99c-0.28,0.28 -0.6,0.42 -0.97,0.42c-0.36,0 -0.68,-0.14 -0.96,-0.42l-8.08,-8.08l-8.09,8.08c-0.26,0.26 -0.57,0.39 -0.95,0.39c-0.37,0 -0.7,-0.14 -0.97,-0.41c-0.28,-0.28 -0.42,-0.6 -0.42,-0.97c0,-0.36 0.14,-0.68 0.42,-0.96z" fill="white"/>
</g>
<g id="star_23" opacity="0.5">
<path id="Vector_457" d="M1455.3,587.01c0.57,-0.87 0.49,-2.04 -0.3,-2.66c-0.84,-0.69 -1.98,-0.53 -2.65,0.3c-0.68,0.84 -0.6,1.95 0.31,2.66c0.79,0.61 1.96,0.54 2.64,-0.3z" fill="white"/>
<path id="Vector_458" d="M1441.3,554.07c0.82,-1.08 0.7,-2.63 -0.38,-3.54c-1.08,-0.9 -2.71,-0.69 -3.59,0.32c-0.79,1.11 -0.65,2.7 0.44,3.49c1.14,0.96 2.65,0.73 3.53,-0.27z" fill="white"/>
<path id="Vector_459" d="M1411.7,61.43c0.65,-0.73 0.49,-1.8 -0.2,-2.34c-0.71,-0.58 -1.81,-0.45 -2.32,0.27c-0.6,0.71 -0.49,1.75 0.27,2.34c0.65,0.5 1.76,0.4 2.25,-0.27z" fill="white"/>
<path id="Vector_460" d="M1803.73,188.08c1.49,-1.81 1.24,-4.47 -0.63,-5.92c-1.78,-1.53 -4.5,-1.18 -6.05,0.67c-1.46,1.84 -1.14,4.49 0.67,5.98c1.84,1.46 4.53,1.21 6.01,-0.73z" fill="white"/>
<path id="Vector_461" d="M1340.97,596.41c1.2,-1.6 1.02,-3.79 -0.58,-5.02c-1.52,-1.23 -3.66,-0.93 -4.88,0.56c-1.24,1.52 -1.01,3.79 0.52,4.93c1.54,1.28 3.68,0.99 4.94,-0.47z" fill="white"/>
<path id="Vector_462" d="M1181.22,370.43c0.81,-1.03 0.64,-2.52 -0.39,-3.33c-1.04,-0.83 -2.53,-0.6 -3.33,0.35c-0.79,1.04 -0.64,2.53 0.39,3.33c1,0.84 2.49,0.72 3.33,-0.35z" fill="white"/>
<path id="Vector_463" d="M1037.38,245.88c1.08,-1.4 0.93,-3.42 -0.5,-4.5c-1.35,-1.08 -3.34,-0.9 -4.42,0.46c-1.08,1.35 -0.93,3.42 0.5,4.48c1.35,1.11 3.3,0.86 4.42,-0.44z" fill="white"/>
<path id="Vector_464" d="M1324.81,19.48c0.55,-0.56 0.4,-1.36 -0.18,-1.91c-0.58,-0.4 -1.44,-0.4 -1.91,0.21c-0.51,0.53 -0.38,1.49 0.24,1.9c0.52,0.52 1.4,0.44 1.85,-0.2z" fill="white"/>
<path id="Vector_465" d="M1745.12,454.31c1.12,-1.33 0.86,-3.27 -0.53,-4.41c-1.3,-1.07 -3.3,-0.84 -4.41,0.53c-1.08,1.37 -0.9,3.34 0.45,4.39c1.43,1.1 3.41,0.88 4.49,-0.51z" fill="white"/>
<path id="Vector_466" d="M1571.55,37.19c1.06,-1.19 0.89,-3.06 -0.38,-4.08c-1.22,-1.09 -3.14,-0.85 -4.11,0.46c-1.03,1.24 -0.82,3.05 0.49,4.06c1.17,1.03 3.05,0.82 4,-0.44z" fill="white"/>
<path id="Vector_467" d="M1917.1,153.02c0.53,-0.68 0.41,-1.52 -0.2,-2.05c-0.64,-0.49 -1.57,-0.41 -2.02,0.21c-0.57,0.69 -0.46,1.49 0.16,2.1c0.63,0.43 1.6,0.38 2.06,-0.26z" fill="white"/>
<path id="Vector_468" d="M1716.7,179.5c1.34,-1.64 1.13,-4.06 -0.54,-5.41c-1.63,-1.19 -4.05,-1.02 -5.34,0.65c-1.37,1.64 -1.06,4.08 0.58,5.37c1.6,1.31 4.01,1.08 5.3,-0.61z" fill="white"/>
<path id="Vector_469" d="M1368.86,53.41c0.74,-0.95 0.67,-2.34 -0.37,-3.14c-0.95,-0.73 -2.37,-0.63 -3.1,0.36c-0.77,0.96 -0.67,2.34 0.32,3.09c0.94,0.88 2.34,0.65 3.15,-0.31z" fill="white"/>
<path id="Vector_470" d="M1904.77,296.43c1.43,-1.76 1.17,-4.35 -0.67,-5.76c-1.76,-1.43 -4.38,-1.16 -5.81,0.59c-1.41,1.84 -1.18,4.46 0.66,5.89c1.71,1.4 4.41,1.12 5.82,-0.72z" fill="white"/>
<path id="Vector_471" d="M1759.53,479.37c1.13,-1.37 0.85,-3.38 -0.53,-4.46c-1.28,-1.05 -3.27,-0.86 -4.35,0.49c-1.12,1.37 -0.85,3.41 0.46,4.43c1.37,1.12 3.36,0.89 4.42,-0.46z" fill="white"/>
<path id="Vector_472" d="M1297.36,45.61c1.04,-1.32 0.82,-3.31 -0.54,-4.38c-1.32,-1.05 -3.3,-0.84 -4.38,0.53c-1.04,1.36 -0.8,3.26 0.49,4.4c1.37,1.09 3.3,0.77 4.43,-0.55z" fill="white"/>
<path id="Vector_473" d="M1846.22,3.96c1.08,-1.4 0.9,-3.38 -0.47,-4.51c-1.38,-1 -3.36,-0.79 -4.45,0.58c-1.11,1.36 -0.87,3.3 0.5,4.43c1.35,1.08 3.3,0.82 4.42,-0.5z" fill="white"/>
<path id="Vector_474" d="M1774.42,212.75c1.27,-1.54 1.02,-3.84 -0.63,-5.16c-1.55,-1.2 -3.83,-1.02 -5.04,0.61c-1.34,1.56 -1.14,3.92 0.51,5.14c1.6,1.31 3.83,1.05 5.16,-0.59z" fill="white"/>
<path id="Vector_475" d="M916.198,334.16c-0.897,1.78 -0.046,3.94 1.748,4.7c1.794,0.81 3.862,-0.03 4.652,-1.78c0.745,-1.85 0.016,-3.92 -1.778,-4.77c-1.84,-0.75 -3.862,0.04 -4.622,1.85z" fill="white"/>
<path id="Vector_476" d="M1045.81,600.89c-0.86,2 0.01,4.29 1.93,5.13c2.02,0.91 4.27,0.03 5.2,-1.96c0.83,-1.99 -0.03,-4.22 -2.01,-5.11c-1.95,-0.88 -4.23,0.01 -5.12,1.94z" fill="white"/>
<path id="Vector_477" d="M296.261,92.79c-0.516,1.17 -0.015,2.51 1.156,2.95c1.019,0.54 2.432,0.04 2.919,-1.14c0.502,-1.13 0.03,-2.41 -1.11,-2.91c-1.171,-0.47 -2.478,0.02 -2.965,1.1z" fill="white"/>
<path id="Vector_478" d="M455.271,534.89c-0.562,1.08 -0.03,2.41 1.095,2.79c1.064,0.53 2.341,0.09 2.797,-0.98c0.441,-1.17 0,-2.42 -1.049,-2.84c-1.14,-0.52 -2.402,-0.03 -2.843,1.03z" fill="white"/>
<path id="Vector_479" d="M251.698,142.3c-0.76,1.81 -0.046,3.94 1.824,4.76c1.855,0.78 3.923,-0.07 4.713,-1.81c0.761,-1.81 0.031,-3.92 -1.778,-4.76c-1.855,-0.77 -3.923,-0.03 -4.759,1.81z" fill="white"/>
<path id="Vector_480" d="M512.053,217.52c-0.744,1.64 -0.015,3.54 1.642,4.21c1.597,0.7 3.467,0.02 4.166,-1.56c0.76,-1.66 0.015,-3.55 -1.627,-4.22c-1.55,-0.76 -3.451,-0.03 -4.181,1.57z" fill="white"/>
<path id="Vector_481" d="M571.254,226.51c-0.395,0.8 0,1.76 0.836,2.16c0.806,0.36 1.794,-0.05 2.159,-0.84c0.319,-0.82 -0.031,-1.78 -0.852,-2.1c-0.79,-0.42 -1.778,-0.03 -2.143,0.78z" fill="white"/>
<path id="Vector_482" d="M266.798,25.79c-0.729,1.42 -0.091,3.18 1.414,3.85c1.46,0.76 3.238,0.03 3.847,-1.49c0.684,-1.46 0.015,-3.16 -1.506,-3.8c-1.398,-0.7 -3.162,-0.03 -3.755,1.44z" fill="white"/>
<path id="Vector_483" d="M410.785,125.73c-0.821,1.67 -0.03,3.61 1.688,4.42c1.733,0.76 3.815,0.02 4.5,-1.69c0.714,-1.75 0.015,-3.74 -1.688,-4.45c-1.748,-0.75 -3.755,-0.02 -4.5,1.72z" fill="white"/>
<path id="Vector_484" d="M730.431,118.23c-0.319,0.62 0,1.41 0.669,1.73c0.624,0.28 1.429,-0.09 1.657,-0.68c0.38,-0.69 0.061,-1.45 -0.593,-1.72c-0.668,-0.3 -1.444,0.04 -1.733,0.67z" fill="white"/>
<path id="Vector_485" d="M888.043,401.25c-0.577,1.4 0,2.92 1.353,3.52c1.323,0.63 2.919,0 3.512,-1.27c0.624,-1.4 -0.015,-2.98 -1.322,-3.65c-1.353,-0.57 -2.935,0.04 -3.543,1.4z" fill="white"/>
<path id="Vector_486" d="M1003.3,559.57c-0.69,1.54 0.04,3.34 1.49,3.97c1.5,0.66 3.28,-0.07 3.95,-1.53c0.69,-1.54 0.08,-3.33 -1.44,-3.94c-1.55,-0.69 -3.39,0 -4,1.5z" fill="white"/>
<path id="Vector_487" d="M64.0315,609.38c-0.8362,1.84 -0.0304,3.82 1.7028,4.68c1.8091,0.76 3.9224,-0.09 4.6977,-1.87c0.745,-1.76 -0.0304,-3.75 -1.8396,-4.51c-1.7331,-0.84 -3.816,-0.11 -4.5609,1.7z" fill="white"/>
<path id="Vector_488" d="M223.363,250.98c-0.608,1.5 0.046,3.24 1.52,3.91c1.475,0.62 3.284,-0.07 3.877,-1.51c0.654,-1.51 0.015,-3.28 -1.474,-3.89c-1.506,-0.61 -3.239,0.06 -3.923,1.49z" fill="white"/>
<path id="Vector_489" d="M396.573,409.41c-0.699,1.58 0.091,3.35 1.642,4.03c1.52,0.73 3.329,0.06 3.998,-1.5c0.7,-1.6 0.031,-3.44 -1.55,-4.09c-1.597,-0.64 -3.299,0.01 -4.09,1.56z" fill="white"/>
<path id="Vector_490" d="M542.475,460.13c-0.334,0.67 -0.015,1.58 0.791,1.95c0.714,0.35 1.611,0 1.93,-0.75c0.335,-0.79 0.061,-1.64 -0.729,-2.01c-0.791,-0.3 -1.627,0 -1.992,0.81z" fill="white"/>
<path id="Vector_491" d="M557.027,285.04c-0.243,0.63 0,1.39 0.715,1.75c0.699,0.29 1.459,-0.01 1.794,-0.7c0.304,-0.67 -0.061,-1.46 -0.669,-1.72c-0.73,-0.36 -1.49,-0.06 -1.84,0.67z" fill="white"/>
<path id="Vector_492" d="M844.29,442.76c-0.7,1.6 0.045,3.41 1.581,4.09c1.596,0.7 3.466,0.02 4.135,-1.56c0.699,-1.58 -0.046,-3.41 -1.581,-4.09c-1.505,-0.69 -3.391,-0.03 -4.135,1.56z" fill="white"/>
<path id="Vector_493" d="M439.263,167.23c-0.821,1.94 0.076,4.15 1.915,4.99c1.916,0.83 4.212,0.06 5.033,-1.9c0.836,-1.81 -0.031,-4.14 -1.946,-4.98c-1.886,-0.83 -4.105,0.03 -5.002,1.89z" fill="white"/>
<path id="Vector_494" d="M7.2174,543.09c-0.6081,1.25 0,2.65 1.201,3.24c1.2923,0.59 2.7214,0.04 3.2687,-1.22c0.4713,-1.31 -0.0304,-2.72 -1.2771,-3.25c-1.2162,-0.53 -2.7213,0 -3.1926,1.23z" fill="white"/>
<path id="Vector_495" d="M425.606,617.93c-0.669,1.53 -0.015,3.27 1.475,3.91c1.52,0.69 3.238,0.04 3.907,-1.43c0.638,-1.54 -0.046,-3.33 -1.551,-3.94c-1.475,-0.66 -3.193,0.01 -3.831,1.46z" fill="white"/>
<path id="Vector_496" d="M324.966,384.64c-0.593,1.28 -0.03,2.66 1.277,3.24c1.186,0.55 2.6,0.04 3.178,-1.26c0.547,-1.22 0,-2.65 -1.186,-3.21c-1.262,-0.6 -2.706,0.03 -3.269,1.23z" fill="white"/>
<path id="Vector_497" d="M78.7642,75.75c-0.6842,1.63 0,3.5 1.5963,4.23c1.5963,0.62 3.4511,-0.11 4.1504,-1.69c0.7298,-1.59 -0.0152,-3.42 -1.6115,-4.15c-1.5811,-0.68 -3.4055,0.05 -4.1352,1.61z" fill="white"/>
<path id="Vector_498" d="M583.676,192.23c-0.79,1.93 0.016,4.2 1.931,5.03c1.946,0.9 4.151,0 5.048,-1.94c0.836,-1.92 0,-4.08 -1.946,-4.98c-1.916,-0.83 -4.136,0.03 -5.033,1.89z" fill="white"/>
<path id="Vector_499" d="M671.123,67.53c-0.638,1.44 0.031,3.17 1.46,3.86c1.52,0.7 3.299,0 3.922,-1.51c0.7,-1.4 0.092,-3.19 -1.459,-3.88c-1.536,-0.65 -3.254,0.05 -3.923,1.53z" fill="white"/>
<path id="Vector_500" d="M466.825,508.58c-1.262,2.74 -0.016,5.84 2.675,7.04c2.661,1.16 5.762,-0.07 6.979,-2.67c1.155,-2.74 -0.061,-5.9 -2.737,-7.03c-2.615,-1.21 -5.777,0 -6.917,2.66z" fill="white"/>
<path id="Vector_501" d="M36.0601,526.42c-0.5473,1.22 0,2.65 1.2162,3.27c1.2467,0.53 2.7062,-0.03 3.2991,-1.23c0.5321,-1.34 -0.0608,-2.71 -1.2314,-3.3c-1.3227,-0.53 -2.691,0.06 -3.2839,1.26z" fill="white"/>
</g>
</g></svg>