<svg viewBox="0 0 540.5894 360" fill="none" xmlns="http://www.w3.org/2000/svg" xmlns:xlink="http://www.w3.org/1999/xlink" x="0" y="0"><defs><linearGradient id="paint15_linear_6836_31544" x1="483.9200000000001" y1="128.2430999999999" x2="481.4200000000001" y2="76.56310000000008" gradientUnits="userSpaceOnUse">
<stop stop-color="#DDE56F"/>
<stop offset="1" stop-color="#187FC3" stop-opacity="0"/>
</linearGradient><linearGradient id="paint16_linear_6836_31544" x1="421.0999999999999" y1="136.12310000000002" x2="418.5999999999999" y2="84.43309999999997" gradientUnits="userSpaceOnUse">
<stop stop-color="#DDE56F"/>
<stop offset="1" stop-color="#187FC3" stop-opacity="0"/>
</linearGradient><linearGradient id="paint17_linear_6836_31544" x1="118.04999999999995" y1="305.75310000000013" x2="133.3699999999999" y2="261.3231000000003" gradientUnits="userSpaceOnUse">
<stop stop-color="#DDE56F"/>
<stop offset="1" stop-color="#187FC3" stop-opacity="0"/>
</linearGradient><linearGradient id="paint18_linear_6836_31544" x1="83.77999999999997" y1="298.1231" x2="99.09999999999991" y2="253.6931000000002" gradientUnits="userSpaceOnUse">
<stop stop-color="#DDE56F"/>
<stop offset="1" stop-color="#187FC3" stop-opacity="0"/>
</linearGradient><linearGradient id="paint19_linear_6836_31544" x1="261.0799999999999" y1="327.5531000000003" x2="286.8399999999999" y2="293.0330999999999" gradientUnits="userSpaceOnUse">
<stop stop-color="#DDE56F"/>
<stop offset="1" stop-color="#187FC3" stop-opacity="0"/>
</linearGradient><linearGradient id="paint20_linear_6836_31544" x1="233.93000000000006" y1="311.2931000000001" x2="259.69000000000005" y2="276.7731000000001" gradientUnits="userSpaceOnUse">
<stop stop-color="#DDE56F"/>
<stop offset="1" stop-color="#187FC3" stop-opacity="0"/>
</linearGradient><clipPath id="clip10_6836_31544">
<rect width="559" height="403" fill="white" transform="translate(0, -42.99689999999987)"/>
</clipPath><clipPath id="clip11_6836_31544">
<rect width="138" height="138" fill="white" transform="matrix(-1, 0, 0, 1, 334, 49.00310000000013)"/>
</clipPath></defs><g id="Illustration" clip-path="url(#clip10_6836_31544)">
<g id="Group_61">
<path id="Vector_281" d="M399.83,6.1131h-343.11v211.05h343.11z" fill="white"/>
<path id="Vector_282" d="M399.83,6.0331h-5.97c-1.65,16.93 -4.82,37.4 -10.87,59.98c-9.84,36.71 -17.28,64.42 -40.43,90.02c-29.13,32.2 -66.46,42.61 -77.6,45.72c-9.28,2.59 -16.58,3.74 -20.22,4.29c-24.36,3.64 -68.15,7.56 -113.35,11.04h268.45v-211.05z" fill="#F8FBFF"/>
<path id="Vector_283" d="M397.26,12.8031h-337.97c-2.92,0 -5.29,-2.37 -5.29,-5.3v-2.2c0,-2.93 2.37,-5.3 5.29,-5.3h337.97c2.93,0 5.3,2.37 5.3,5.3v2.19c0,2.94 -2.37,5.31 -5.3,5.31z" fill="#F9B84E"/>
<path id="Vector_284" d="M396.77,0.0031h-11.43c0.03,0.22 0.04,0.45 0.04,0.69v1.22c0,3.2 -2.59,5.8 -5.79,5.8h-325.55c0.33,2.87 2.77,5.1 5.74,5.1h336.99c3.2,0 5.79,-2.59 5.79,-5.79v-1.23c0,-3.2 -2.59,-5.79 -5.79,-5.79z" fill="#F39C00"/>
</g>
<g id="Group_62">
<path id="Vector_285" opacity="0.5" d="M455,245.0031c43.08,0 78,-4.26 78,-9.5c0,-5.25 -34.92,-9.5 -78,-9.5c-43.08,0 -78,4.25 -78,9.5c0,5.24 34.92,9.5 78,9.5z" fill="#6F6F6F"/>
<g id="Group_63">
<path id="Vector_286" d="M389.28,123.5531c0,0 1.8,-5.39 7.19,-9.21c5.37,-3.82 15.7,-4.04 19.51,-2.25c3.81,1.79 5.17,4.73 5.17,4.73c0,0 -5.39,6.96 -15.93,8.3c-10.55,1.36 -15.94,-1.57 -15.94,-1.57z" fill="#F39B00"/>
<path id="Vector_287" d="M399.83,127.0831c-7.31,0 -11.15,-2.03 -11.31,-2.12l-1.17,-0.63l0.43,-1.27c0.07,-0.24 2.02,-5.94 7.77,-10.02c3.2,-2.26 8.34,-3.63 13.77,-3.63c3.05,0 5.66,0.44 7.35,1.25c4.29,2.02 5.86,5.35 5.93,5.49l0.4,0.88l-0.59,0.77c-0.23,0.3 -5.92,7.5 -16.99,8.92c-1.92,0.23 -3.79,0.36 -5.59,0.36zM391.39,122.6931c1.54,0.51 4.37,1.2 8.44,1.2c1.66,0 3.4,-0.11 5.18,-0.35c7.68,-0.98 12.44,-5.13 14.15,-6.9c-0.62,-0.84 -1.83,-2.14 -3.86,-3.1c-1.25,-0.59 -3.48,-0.93 -6,-0.93c-3.69,0 -8.76,0.79 -11.92,3.04c-3.27,2.32 -5.13,5.32 -5.99,7.04z" fill="#0E3D50"/>
</g>
<g id="Group_64">
<g id="Group_65">
<path id="Vector_288" d="M445.48,75.9331c0,0 -37.48,1.79 -50.88,39.33c0,0 -10.12,-6.56 -10.71,-17.88c-0.59,-11.32 0.3,-16.39 -2.67,-16.39c-2.98,0 -10.71,11.62 -9.83,27.12c0.89,15.49 11.91,27.71 17.85,33.07c0,0 0,25.33 24.11,46.18c0,0 -8.63,-2.08 -7.14,8.65c1.49,10.72 10.71,17.28 17.26,21.45c0,0 -10.11,-1.49 -13.98,2.98c0,0 13.68,10.43 27.67,8.64c0,0 6.54,-8.64 -3.87,-22.34c0,0 22.32,2.08 34.82,9.54c12.5,7.45 16.07,13.71 16.07,13.71c0,0 -9.52,-4.17 -16.07,6.25c0,0 22.92,4.47 34.22,0.6c0,0 -9.22,-10.13 -6.26,-29.2c2.99,-19.08 11.62,-30.39 16.67,-34.57c0,0 13.69,9.83 22.32,8.64c8.63,-1.2 2.68,-5.66 -2.97,-11.92c-5.65,-6.25 -11.31,-16.69 -12.2,-32.48c-0.9,-15.79 -1.79,-28.01 -11.9,-38.43c-10.12,-10.43 -21.13,-16.39 -25,-25.04c-3.87,-8.64 -3.57,-17.28 -3.57,-17.28c0,0 -4.47,10.72 -2.68,16.99c0,0 -9.22,-9.54 -20.53,-10.74c0,0 8.93,6.27 11.9,12.52c0,0 -23.5,-11.32 -38.98,-8.35c-0.01,0 14.27,4.18 16.35,8.95z" fill="#62BEEC"/>
<path id="Vector_289" d="M489.83,239.6031c-10.57,0 -21.85,-2.17 -21.96,-2.2l-1.7,-0.34l0.92,-1.47c3.96,-6.31 9,-7.65 12.53,-7.65c0.55,0 1.08,0.03 1.55,0.09c-2.17,-2.44 -6.36,-6.4 -13.68,-10.75c-9.63,-5.74 -25.47,-8.26 -31.68,-9.08c8.57,13 2.57,21.22 2.29,21.58l-0.3,0.4l-0.49,0.07c-1.12,0.14 -2.28,0.21 -3.45,0.21c-13.01,0 -24.61,-8.71 -25.09,-9.09l-1.01,-0.76l0.83,-0.96c2.48,-2.88 7.05,-3.58 10.61,-3.63c-6.72,-4.76 -12.92,-10.89 -14.17,-19.86c-0.49,-3.59 0.03,-6.3 1.55,-8.05c1.05,-1.21 2.4,-1.76 3.63,-1.99c-20.35,-19.06 -22.01,-40.66 -22.14,-44.42c-5.36,-4.92 -16.93,-17.34 -17.87,-33.55c-0.73,-12.65 4.19,-22.74 7.67,-26.44c1.21,-1.29 2.33,-1.93 3.34,-1.93c3.38,0 3.47,3.6 3.62,10.15c0.04,2.11 0.1,4.52 0.25,7.37c0.43,8.29 6.35,13.93 8.95,16.03c12.02,-31.32 41.12,-37.32 49.25,-38.39c-2.89,-2.71 -9.99,-5.51 -14.49,-6.83l-4.73,-1.38l4.83,-0.93c1.8,-0.34 3.79,-0.52 5.9,-0.52c11.22,0 24.09,4.78 30.23,7.36c-3.65,-4.72 -9.43,-8.81 -9.5,-8.87l-3.77,-2.64l4.57,0.49c8.21,0.86 15.25,5.84 18.8,8.83c-0.12,-6.34 3.03,-13.98 3.19,-14.37l2.51,-6.01l-0.22,6.52c-0.01,0.08 -0.24,8.48 3.46,16.75c2.3,5.14 7.4,9.41 13.31,14.35c3.57,2.99 7.61,6.37 11.45,10.34c10.65,10.97 11.39,24.06 12.24,39.2c0.93,16.38 6.98,26.31 11.9,31.74c0.83,0.92 1.66,1.8 2.47,2.64c3.38,3.56 5.82,6.12 5,8.48c-0.67,1.93 -3.3,2.51 -5.22,2.77c-0.54,0.08 -1.1,0.12 -1.69,0.12c-7.72,0 -17.84,-6.48 -20.71,-8.44c-5.71,5.11 -12.96,16.6 -15.56,33.24c-2.85,18.3 5.87,28.12 5.95,28.22l1.23,1.34l-1.72,0.59c-3.19,1.11 -7.52,1.67 -12.88,1.67zM470.14,235.3831c3.57,0.61 11.83,1.83 19.69,1.83c4.21,0 7.73,-0.35 10.48,-1.04c-2.46,-3.5 -7.83,-13.23 -5.42,-28.73c3.62,-23.18 14.87,-33.47 17.09,-35.3l0.7,-0.59l0.75,0.54c0.12,0.08 11.97,8.52 20.09,8.52c0.48,0 0.94,-0.03 1.37,-0.09c2.88,-0.4 3.26,-1.07 3.29,-1.2c0.35,-0.98 -2.33,-3.8 -4.48,-6.06c-0.81,-0.85 -1.66,-1.74 -2.51,-2.69c-5.17,-5.72 -11.53,-16.13 -12.5,-33.2c-0.83,-14.68 -1.55,-27.35 -11.57,-37.68c-3.76,-3.88 -7.58,-7.08 -11.27,-10.17c-6.13,-5.13 -11.43,-9.56 -13.95,-15.21c-1.88,-4.21 -2.81,-8.38 -3.25,-11.64c-0.91,3.37 -1.62,7.54 -0.77,10.52l1.3,4.57l-3.3,-3.41c-0.08,-0.08 -6.49,-6.61 -14.93,-9.32c2.86,2.48 6.47,6.09 8.23,9.77l1.45,3.05l-3.04,-1.47c-0.19,-0.08 -18.27,-8.7 -32.75,-8.72c4.5,1.73 10.34,4.53 11.74,7.77l0.69,1.59l-1.72,0.08c-0.37,0.02 -36.86,2.21 -49.82,38.54l-0.51,1.42l-1.26,-0.82c-0.44,-0.28 -10.64,-7.01 -11.25,-18.81c-0.16,-2.88 -0.22,-5.3 -0.26,-7.45c-0.11,-5.13 -0.23,-7.81 -1.24,-7.81c-0.01,0 -2.16,1.04 -3.31,2.29c-3.15,3.44 -6,11.83 -5.32,23.56c0.9,15.73 12.52,27.8 17.46,32.26l0.39,0.35v0.53c0,0.25 0.31,25.05 23.69,45.28l3.83,1.83l-4.27,-0.06c-1.75,-0.25 -3.68,-0.44 -5.32,1.45c-1.05,1.21 -1.39,3.28 -0.99,6.15c1.33,9.62 9.2,15.82 16.72,20.61l4.69,2.98l-5.5,-0.8c-0.02,0 -1.56,-0.22 -3.63,-0.22c-3.62,0 -6.49,0.67 -8.27,1.91c3.22,2.17 12.56,7.78 22.46,7.78c0.89,0 1.76,-0.05 2.61,-0.14c1.05,-1.78 4.46,-9.22 -4.13,-20.51l-1.64,-2.16l2.7,0.26c0.93,0.08 22.73,2.19 35.32,9.69c12.62,7.53 16.34,13.87 16.49,14.14l1.78,3.13l-3.29,-1.45c-0.02,-0.01 -1.72,-0.72 -4.07,-0.72c-2.63,0.03 -6.3,0.95 -9.47,5.07z" fill="#004D5F"/>
</g>
<g id="Group_66">
<path id="Vector_290" d="M513.26,175.3031c-8.89,-7.29 -11.02,-21.02 -11.21,-21.56c0.04,0.13 4.36,12.88 12.71,19.72z" fill="#004D5F"/>
</g>
<g id="Group_67">
<path id="Vector_291" d="M431.43,198.8931c-0.1,-0.13 -10.25,-12.31 -19.38,-10.89l0.93,-1.77c10.53,-0.86 18.02,12.07 18.45,12.66z" fill="#004D5F"/>
</g>
<g id="Group_68">
<path id="Vector_292" d="M433.41,208.9931c-5,-7.51 -13.26,-5.11 -13.34,-5.08c1.59,-0.94 9.34,-5.22 15.32,3.76z" fill="#004D5F"/>
</g>
<path id="Vector_293" d="M421.31,218.3131c0,0 4.23,0.53 6.91,2.8c2.69,2.27 5.84,4.38 5.84,4.38c0,0 -2.68,-4.81 -6.58,-6.96c-3.9,-2.17 -6.17,-0.22 -6.17,-0.22z" fill="#004D5F"/>
<path id="Vector_294" opacity="0.33" d="M445.48,75.9331c0,0 17.39,-1.56 27.8,10.3c10.41,11.86 14.64,27.59 8.18,36.22l-4.28,25.02c0,0 -5.51,-2.23 -9.36,7.88c-3.84,10.11 2.42,1.41 -1.53,3.21c-3.96,1.8 -3.42,4.16 -6.29,1.03c-2.86,-3.13 -1.8,8.24 -2.17,6.81c-0.36,-1.44 -0.7,-5.72 -0.7,-5.72c0,0 -7.5,2.79 -12.2,-0.6c-4.69,-3.38 -11.15,-8.42 -11.15,-8.42c0,0 6.82,8.27 11.49,12.94c4.67,4.68 3.86,20.43 -4.04,19.36c-7.89,-1.09 -1.08,-1.09 -1.08,-1.09c0,0 6.57,3.99 12.57,4.68c6,0.69 5.75,0.36 5.75,0.36c0,0 3.54,0.95 2.23,2.94c-1.3,1.98 0.63,-0.7 -1.3,1.98c-1.93,2.68 -1.1,3.54 -3.5,3.3c-2.38,-0.25 -3.82,0.83 -4.54,-0.61c-0.71,-1.44 -2.15,-5.39 -2.15,-5.39c0,0 -0.38,-3.94 -1.27,-2.15c-0.88,1.78 -3.57,2.59 -3.57,2.59l-1.57,0.97l-3.28,-2.49l-2.06,-2.33c0,0 -1.17,1.61 -2.25,1.97c-1.08,0.36 -2.87,0 -3.94,-0.36c-1.07,-0.36 0.72,-0.36 -1.07,-0.36c-1.8,0 -3.24,-2.51 -3.24,-2.51c0,0 -0.36,-0.72 0,-2.16c0.36,-1.43 0.63,-1.85 1.35,-3.29c0.71,-1.44 1.08,-1.08 2.51,-1.8c1.44,-0.72 1.47,-1.42 1.47,-1.42l-0.54,0.03l-2.37,-5.09c0,0 -3.5,5.46 -11.76,7.25c-8.25,1.8 -16.5,-5.75 -16.5,-5.75c0,0 11.16,10.99 11.86,13c0.71,2.02 -4.74,-0.56 -5.77,4.62c0,0 5.54,-4.28 11.47,-0.53c5.92,3.75 1.39,13.61 1.39,13.61c0,0 11.3,3.11 12.27,10.49c0.97,7.38 -8.22,2.78 -8.22,2.78v1.7c0,0 7.74,2.91 8.34,6.3c0.61,3.39 -0.6,3.63 -0.6,3.63l5.2,-0.24l1.93,-3.75c0,0 -0.37,-3.63 -0.37,-4c0,-0.36 -0.6,-2.42 -0.72,-3.02c-0.13,-0.61 -0.73,-3.75 -0.85,-4.48c-0.12,-0.72 -1.58,-3.51 -1.58,-3.51c0,0 -0.97,-2.05 -1.09,-2.42c-0.12,-0.36 9.92,0.49 14.51,1.82c4.6,1.34 21.77,8.35 22.74,8.96c0.97,0.61 11.36,10.66 11.36,10.66l3.22,3.45c0,0 1.76,2.97 5.79,3.91c4.05,0.95 8.28,0 8.28,0c0,0 -0.74,-3.1 -1.95,-5.25c-1.21,-2.16 -2.65,-21.22 -0.85,-30.74c1.8,-9.52 11.49,-23 11.49,-23l3.77,-3.24c0,0 11.31,6.11 16.51,7.01c5.21,0.9 9.51,-1.26 9.51,-1.26c0,0 -0.54,-3.24 -2.69,-5.4c-2.15,-2.15 -10.41,-12.03 -12.39,-17.07c-1.97,-5.03 -4.05,-16.38 -3.94,-18.15c0.11,-1.76 -2.34,-20.85 -4.13,-27.32c-1.8,-6.46 -8.61,-15.1 -9.52,-15.63c-0.89,-0.54 -18.12,-13.12 -18.84,-14.91c-0.72,-1.81 -6.46,-10.79 -6.28,-11.69c0.18,-0.89 -2.16,-10.25 -2.16,-10.25c0,0 -2.15,3.96 -2.33,8.81c-0.17,4.86 0.23,5.46 0.23,5.46c0,0 -6.69,-4.21 -8.84,-6c-2.15,-1.8 -7.18,-3.59 -7.18,-3.59c0,0 -1.62,0.54 -0.9,0.72c0.72,0.18 4.13,5.21 5.02,6.47c0.9,1.26 2.34,3.77 2.34,3.77c0,0 -9.87,-3.77 -11.3,-4.32c-1.44,-0.54 -19.93,-3.78 -19.93,-3.78l-2.33,0.18c0,0 1.8,1.44 2.88,1.98c1.09,0.5 7.43,4.52 9.01,6.92z" fill="#004D5F"/>
<path id="Vector_295" d="M502.05,153.7431c0,0 4.47,12.85 12.43,19.24c7.96,6.39 16.26,8.02 20.4,7.54c4.14,-0.47 3.7,-2.6 1.56,-4.28c0,0 1.23,2.92 -3.81,2.24c-5.04,-0.67 -17.81,-7.75 -22.42,-12.24c-4.58,-4.49 -8.16,-12.5 -8.16,-12.5z" fill="#62BEEC"/>
<path id="Vector_296" d="M510.81,172.9631c0,0 -12.88,13.04 -15.15,29.06c-2.26,16.01 -1.26,22.96 1.56,28.9c0,0 -6.36,-9.49 -4.95,-24.51c1.42,-15.01 11.47,-30.04 16.7,-35.43z" fill="#62BEEC"/>
<path id="Vector_297" d="M376.53,88.2931c0,0 -7,12.68 -3.23,27.51c3.77,14.83 17.14,24.85 17.14,24.85c0,0 0.63,21.52 17.32,39.85c0,0 -17.45,-22.71 -15.73,-46.94l-1.5,4.89c0,-0.01 -25.85,-22.38 -14,-50.16z" fill="#FFFAC4"/>
<path id="Vector_298" d="M413.69,188.2431c0,0 -6.25,-1.45 -6.55,5.37c-0.3,6.82 5.43,15.43 12.89,20.18c0,0 -10.38,-9.21 -10.81,-16.77c-0.45,-7.57 4.47,-8.78 4.47,-8.78z" fill="#FFFAC4"/>
<g id="Group_69">
<g id="Group_70">
<g id="Group_71">
<path id="Vector_299" d="M404.95,143.5731c0,0 -0.36,-10.86 6.37,-13.81c0,0 3.13,0.79 15.21,5.73c12.09,4.93 33.65,8.76 45.87,-1.72c12.22,-10.47 12.1,-17.82 18.5,-21.48c0,0 5.22,0.87 7.88,5.15c0,0 -4.47,-5.64 -7.82,-3.58c-3.36,2.04 -7.02,8.95 -8.38,19.2c-1.36,10.23 2.05,20.13 -13.08,28c-15.12,7.88 -26.27,2.56 -34.6,-4.26c-8.32,-6.82 -18.66,-25.03 -22.44,-24.95c-3.77,0.08 -6.92,5.41 -7.51,11.72z" fill="#004D5F"/>
<path id="Vector_300" d="M454.05,166.1631c-6.71,-0.22 -13.23,-2.97 -19.89,-8.45c-4.06,-3.33 -8.55,-9.24 -12.51,-14.45c-3.26,-4.3 -7.73,-10.19 -9.15,-10.22c-2.97,0.06 -7.02,6 -7.56,11.79c-0.02,-0.47 -1.47,-12.94 5.93,-16.17l0.37,-0.17l0.39,0.1c0.13,0.04 3.34,0.88 15.36,5.78c6.96,2.85 15.16,4.6 22.47,4.84c9.32,0.28 16.99,-1.91 22.17,-6.35c6.44,-5.53 9.37,-10.15 11.72,-13.85c2.1,-3.31 3.76,-5.93 6.97,-7.77l0.36,-0.2l0.42,0.07c0.23,0.04 5.22,2.17 8.14,6.85c-0.78,-0.98 -4.61,-3.3 -6.6,-3.37c-0.39,-0.01 -0.74,0.09 -1.06,0.27c-2.81,1.72 -6.46,8.19 -7.81,18.34c-0.27,2.03 -0.34,4.1 -0.43,6.09c-0.3,7.98 -0.62,16.23 -13.28,22.82c-5.47,2.85 -10.86,4.21 -16.01,4.05zM416,132.6331c1.9,1.83 4.28,4.91 7.53,9.2c3.88,5.1 8.28,10.9 12.12,14.05c6.34,5.19 12.21,7.71 18.46,7.9c4.75,0.15 9.74,-1.12 14.84,-3.77c11.44,-5.95 11.7,-12.83 12.01,-20.8c0.07,-2.05 0.16,-4.17 0.44,-6.3c0.5,-3.74 1.32,-7.2 2.39,-10.2c-2.24,3.38 -5.26,7.37 -10.62,11.97c-5.65,4.83 -13.87,7.23 -23.8,6.92c-7.59,-0.24 -16.08,-2.06 -23.29,-5c-4.51,-1.85 -7.77,-3.12 -10.08,-3.97z" fill="#004D5F"/>
</g>
<g id="Group_72">
<path id="Vector_301" d="M455.15,166.1931c-0.76,-5.98 2.91,-10.5 2.99,-10.67c-0.02,0.04 -1.29,5.14 -0.63,10.36z" fill="#004D5F"/>
</g>
</g>
<g id="Group_73">
<g id="Group_74">
<path id="Vector_302" d="M436.95,189.7931c0,0 0.69,4.21 4.05,5.32c4.12,1.35 5.26,-3.4 5.26,-3.4c0,0 2.84,8.29 7.74,8.39c4.91,0.11 7.65,-6.29 4.19,-13.08c0,0 -6.78,1.15 -13.59,-0.81c-6.82,-1.96 -12.79,-8.22 -12.79,-8.22c0,0 -3.51,0.14 -6.05,5.77c-2.54,5.63 5.33,12.56 11.19,6.03z" fill="#F39C00"/>
<path id="Vector_303" d="M453.92,201.3031c-3.79,-0.12 -6.4,-4.06 -7.74,-6.75c-0.85,1.11 -2.13,2.04 -3.92,1.99c-0.52,-0.02 -1.07,-0.12 -1.63,-0.3c-2.37,-0.78 -3.62,-2.76 -4.26,-4.29c-1.85,1.42 -3.64,1.71 -4.91,1.68c-2.47,-0.08 -4.87,-1.51 -6.24,-3.71c-1.31,-2.1 -1.51,-4.53 -0.55,-6.64c2.81,-6.24 6.91,-6.47 7.08,-6.47l0.55,-0.03l0.37,0.39c0.05,0.06 5.85,6.05 12.26,7.9c2.22,0.64 4.66,1.01 7.29,1.08c3.32,0.1 5.75,-0.29 5.77,-0.3l0.86,-0.15l0.4,0.78c2.12,4.16 2.24,8.65 0.32,11.72c-1.27,2.02 -3.3,3.15 -5.6,3.11zM446.17,187.8331l1.21,3.5c0.71,2.07 3.3,7.49 6.61,7.59l-0.03,1.19l0.06,-1.19c1.45,0.04 2.69,-0.67 3.52,-2c1.09,-1.73 1.6,-4.85 -0.06,-8.61c-1.06,0.12 -2.97,0.28 -5.34,0.21c-2.09,-0.05 -4.09,-0.29 -5.97,-0.69zM437.72,187.1531l0.41,2.44c0,0.03 0.64,3.52 3.25,4.39c0.34,0.11 0.66,0.18 0.96,0.19c2.07,0.06 2.76,-2.7 2.76,-2.73l0.88,-3.66c-0.58,-0.12 -1.15,-0.27 -1.7,-0.43c-6.01,-1.72 -11.3,-6.54 -12.86,-8.07c-0.89,0.27 -2.9,1.28 -4.57,4.98c-0.62,1.39 -0.48,2.98 0.4,4.4c0.97,1.55 2.61,2.54 4.3,2.6c1.59,0.04 3.16,-0.73 4.53,-2.25z" fill="#004D5F"/>
</g>
<g id="Group_75">
<path id="Vector_304" d="M442.01,196.7131c-0.45,-0.01 -0.91,-0.12 -1.35,-0.3c-2.33,-0.95 -4.14,-3.92 -4.84,-6.28c-1.16,-3.91 2.75,-6.96 2.92,-7.08l1.45,1.89c-0.03,0.02 -2.77,2.19 -2.09,4.51c0.64,2.13 2.16,4.21 3.46,4.75c0.53,0.22 0.86,0.11 1.05,0c1.98,-1.09 3.56,-5.31 2.86,-6.67l2.12,-1.08c1.45,2.85 -1.03,8.3 -3.83,9.84c-0.55,0.29 -1.15,0.43 -1.75,0.42z" fill="#004D5F"/>
</g>
</g>
<path id="Vector_305" d="M429.03,170.2831c0,0 1.74,8.44 12.98,13.3c11.23,4.87 18.07,2.45 22.65,-0.03c0,0 -1.27,5.46 -12.51,4.98c-11.25,-0.48 -21.35,-6.79 -23.12,-18.25z" fill="#004D5F"/>
<path id="Vector_306" d="M421.45,134.7231c0,0 16.74,12.46 32.81,10.53c16.08,-1.92 22.33,-11.23 23.39,-15.49c0,0 -6.45,9.69 -21.04,11.83c-15.17,2.25 -30.95,-4.69 -35.16,-6.87z" fill="white"/>
<path id="Vector_307" d="M490.68,111.0531c0,0 6.06,1.89 8.56,6.92c-0.01,0 -2.05,-7.74 -8.56,-6.92z" fill="#FFFAC4"/>
<path id="Vector_308" d="M411.22,128.5031c0,0 -8.14,3.67 -6.27,15.72c0,0 -5.9,-13.15 6.27,-15.72z" fill="#FFFAC4"/>
</g>
<g id="Group_76">
<g id="Group_77">
<g id="Group_78">
<path id="Vector_309" d="M519.33,134.8231c7.3,-0.94 10.44,2.93 7.81,6.14c0,0 7.59,-3.72 5.88,-10.68c-1.66,-6.75 -11.88,-5.42 -11.88,-5.42c0,0 7.35,-0.84 12.28,-6.75c7.5,-8.98 5,-12.84 5,-12.84c-3.79,5.76 -11.08,5.8 -13.41,3.62c-2.34,-2.18 8.05,-8.22 8.05,-8.22c-4.6,-0.05 -8.73,1 -8.73,1c8.82,-9.25 5.2,-22.98 5.2,-22.98c1.11,9.19 -13.02,21.54 -13.02,21.54c0,0 6.35,-6.17 5.63,-20.23c-0.71,-14.07 -23.27,-36.05 -23.27,-36.05c7.49,7.65 -2.36,19.31 -2.36,19.31c3.13,-8.32 -8.33,-14.14 -16.96,-21.39c-8.64,-7.25 -6.21,-11.78 -6.21,-11.78c-5.9,7.27 -0.16,21.92 -0.16,21.92c0,0 0.19,4.56 -3.15,-5.63c-5.25,-16.01 3.62,-26.5 3.62,-26.5c-5.19,8.2 -31.09,7.57 -45.13,22.01c-11.87,12.21 -13.21,31.73 -13.21,31.73c-0.14,-11.95 -15.88,-19.13 -15.88,-19.13c7.7,6.71 6.48,20.42 -3.17,30.14c-9.65,9.73 -3.13,16.25 -3.13,16.25c-9.17,-1.75 -9.85,-7.4 -9.85,-7.4c0,0 -4.28,10.48 2.33,17.28c6.62,6.79 8.43,2.59 8.43,2.59c0,0 2.95,-4.54 4.95,-8.59c4.21,-8.47 8.74,-14.11 17.62,-18.08c7.38,-3.31 16.34,-6.73 22.77,-7.19c0,0 10.17,-2.26 21.15,-0.05c14.13,2.82 23.66,10.41 23.66,10.41c7.05,4.49 19.21,12.1 26.73,23.1c6.9,10.09 8.4,20.67 8.4,20.67z" fill="white"/>
<path id="Vector_310" d="M522.54,144.5931l3.63,-4.42c0.44,-0.55 0.89,-1.37 0.48,-2.22c-0.45,-0.93 -2.07,-2.02 -5.19,-2.02c-0.62,0 -1.29,0.05 -1.97,0.13l-0.8,1.32l-0.61,-3.65c-0.16,-0.97 -1.84,-10.8 -8.18,-20.07c-7.23,-10.56 -18.94,-18.02 -25.94,-22.47l-0.54,-0.36c-0.1,-0.07 -9.5,-7.44 -23.15,-10.17c-3.11,-0.63 -6.45,-0.94 -9.95,-0.94c-6.12,0 -10.63,0.98 -10.68,0.98l-0.18,0.03c-5.15,0.38 -12.67,2.76 -22.35,7.09c-8.92,3.99 -13.12,9.66 -17.01,17.49c-1.9,3.83 -4.57,8.02 -4.98,8.64c-0.38,0.76 -1.43,1.92 -3.26,1.92c-2.03,0 -4.37,-1.39 -7.16,-4.25c-7.1,-7.3 -2.77,-18.17 -2.6,-18.62l1.82,-4.46l0.57,4.77c0.03,0.16 0.6,3.63 5.98,5.56c-1.24,-3.11 -1.68,-8.52 4.88,-15.14c5.12,-5.16 8.04,-11.91 7.82,-18.05c-0.16,-4.25 -1.74,-7.79 -4.59,-10.28l-6.48,-5.64l7.82,3.57c0.55,0.25 11.05,5.13 15.07,13.7c1.39,-6.91 4.73,-17.95 12.6,-26.03c8.01,-8.23 19.79,-11.72 29.26,-14.51c6.8,-2.01 12.75,-3.32 15.23,-6.15c0.38,-0.53 2.88,-2.61 2.91,-2.64l0.69,-0.7c-0.19,0.3 -1.45,4.15 -1.69,4.44c-1.28,1.86 -4.37,7.13 -4.41,14.73c0.34,-2.51 1.16,-4.93 2.76,-6.88l3.07,-3.41c0,0.01 -2.68,8.64 4.9,15.01c1.78,1.49 3.7,2.95 5.58,4.35c5.37,4.05 10.52,7.93 11.97,12.55c1.56,-3.96 2.57,-13.17 -1.38,-17.2l0.42,0.7c0.99,0.93 25.73,24.22 26.47,38.62c0.27,5.35 -0.44,9.6 -1.47,12.84c3.43,-4.13 7.98,-11.35 7.45,-15.78c0.14,0.53 4.44,13.48 -1.94,22.82c1.49,-0.21 3.35,-0.39 5.3,-0.39h0.35l4.54,0.05l-3.93,2.27c-3.91,2.28 -7.52,5.21 -7.76,6.28c0.55,0.47 1.71,0.95 3.4,0.95c1.21,0 5.37,-0.32 8.05,-4.4l1.06,-1.59l1.04,1.6c0.31,0.48 2.78,4.92 -5.09,14.33c-2.02,2.41 -4.41,4.04 -6.59,5.11c3.48,0.91 5.72,2.94 6.45,5.95c1.55,6.28 -3.6,10.66 -6.54,12.1zM521.47,133.4231c3.64,0 6.42,1.29 7.44,3.45c0.17,0.36 0.28,0.71 0.35,1.07c1.67,-1.54 3.37,-4.04 2.55,-7.38c-0.98,-3.98 -5.84,-4.58 -8.64,-4.58c-1.02,0 -5.04,-0.43 -5.17,-0.41l0.14,-0.7l2.88,-1.28c0.27,-0.04 6.97,-0.95 11.44,-6.3c3.53,-4.23 4.7,-7.18 5.01,-9.02c-2.21,2.03 -5.1,3.18 -8.14,3.18c-2.14,0 -4.03,-0.62 -5.16,-1.67c-0.55,-0.52 -0.81,-1.22 -0.73,-1.97c0.2,-1.78 2.6,-3.92 4.96,-5.63c-2.2,0.28 -3.74,0.66 -3.76,0.67l-4.2,1.07l2.99,-3.14c4.13,-4.32 5.35,-9.75 5.55,-14.12c-3.6,7.38 -13.86,15.19 -14.3,15.58c0.05,-0.06 6.9,-8.96 6.22,-22.21c-0.49,-9.42 -12.19,-23.22 -19.17,-30.65c0.88,7.04 -3.92,14.16 -4.2,14.56l-5.8,8.44l3.6,-9.59c2.14,-5.71 -3.92,-10.27 -10.92,-15.55c-1.9,-1.42 -3.85,-2.9 -5.68,-4.44c-3.72,-3.12 -5.53,-5.84 -6.34,-8c-1.79,7.05 1.89,16.61 1.94,16.72l0.07,0.2l0.01,0.2c0.06,1.3 -0.37,1.74 -0.5,1.89c-0.27,0.28 -0.62,0.43 -1.01,0.43c-1.02,0 -1.72,-0.35 -4.07,-7.52c-3.12,-9.5 -1.42,-17.18 0.59,-21.99c-3.18,1.57 -7.32,2.79 -11.84,4.13c-9.19,2.72 -20.63,6.09 -28.18,13.86c-11.4,11.72 -12.67,30.87 -14.09,33.33c-0.07,-6.71 -6.88,-14.37 -11.24,-17.42c0.97,2.08 1.52,4.44 1.61,6.94c0.26,6.91 -2.86,14.17 -8.54,19.89c-8.67,8.75 -3.36,14.26 -3.13,14.49l2.87,2.87l-3.99,-0.75c-5.18,-0.99 -7.9,-3.17 -9.32,-5.07c-0.67,3.39 -0.93,8.88 2.92,12.85c2.97,3.05 4.65,3.51 5.38,3.51c0.77,0 1.03,-0.52 1.03,-0.53l0.09,-0.19c0.03,-0.04 2.94,-4.53 4.88,-8.46c4.02,-8.1 8.66,-14.38 18.23,-18.66c9.89,-4.43 17.67,-6.88 23.11,-7.29c0.71,-0.15 5.13,-1.03 11.13,-1.03c3.66,0 7.18,0.33 10.45,0.98c13.87,2.78 23.27,9.94 24.15,10.63l0.38,0.24c7.16,4.55 19.14,12.18 26.66,23.17c6.99,10.21 8.53,20.76 8.6,21.21c0.29,0 0.59,-0.01 0.89,-0.01z" fill="#004D5F"/>
</g>
</g>
<path id="Vector_311" d="M448.55,78.5031c0,0 -5.02,-13.14 -4.78,-22.62c0.24,-9.47 7.34,-18.15 11.76,-21.73c0,0 -10.05,9.69 -10.15,19.4c-0.1,9.69 3.93,19.04 5.35,22.02c1.42,2.99 1.76,2.31 1.76,2.31l2.06,-0.68c0,0 -1.64,-12.96 0.5,-22.39c2.13,-9.42 4.43,-12.9 4.43,-12.9c0,0 -4.78,9.81 -3.88,21.83c0.89,12.02 2.13,14.55 2.13,14.55l9.36,1.55c0,0 3.11,-4.81 3.33,-11.13c0.27,-7.15 -3.12,-13.41 -3.12,-13.41c0,0 5.29,6.92 4.55,14.37c-0.74,7.46 -1.94,11.95 -1.94,11.95c0,0 -2.62,-0.22 -6.28,-0.85c-3.64,-0.63 -15.08,-2.27 -15.08,-2.27z" fill="#004D5F"/>
</g>
<g id="Group_79">
<path id="Vector_312" d="M391.9,134.0531c0,-4.04 -1.83,-14.36 3.35,-22.86l2.03,1.23c-4.99,8.22 -5.38,18.64 -5.38,21.63z" fill="#004D5F"/>
</g>
<path id="Vector_313" opacity="0.33" d="M392.03,133.5531c0,0 -12.75,-12.02 -14.85,-27.65c-2.1,-15.62 4.76,-22.96 4.03,-23.72c-0.73,-0.77 1.52,-2.27 1.97,1.33c0.44,3.61 0.44,15.48 1.35,18.94c0.89,3.45 6.75,10.67 7.5,11.42c0.75,0.74 2.57,1.38 2.57,1.38c0,0 -3.76,12.14 -2.57,18.3z" fill="#004D5F"/>
<path id="Vector_314" d="M421.72,84.7331c0,0 -27.37,12.66 -29.69,48.82c0,0 5.15,-30.28 29.69,-48.82z" fill="#FFFAC4"/>
<g id="Group_80">
<g id="Group_81">
<path id="Vector_315" opacity="0.33" d="M435.22,112.5131c-4.79,11.16 -16.25,16.91 -25.6,12.85c-9.35,-4.06 -13.05,-16.39 -8.26,-27.54c4.78,-11.15 16.25,-16.9 25.6,-12.85c9.35,4.05 13.04,16.39 8.26,27.54z" fill="#004D5F"/>
<g id="Group_82">
<path id="Vector_316" d="M437.2,113.9531c-4.67,10.86 -15.78,16.49 -24.82,12.56c-9.05,-3.92 -12.6,-15.91 -7.94,-26.77c4.67,-10.87 15.78,-16.5 24.83,-12.57c9.04,3.93 12.59,15.93 7.93,26.78z" fill="white"/>
<path id="Vector_317" d="M414.53,128.0331c-0.84,-0.2 -1.66,-0.48 -2.45,-0.83c-9.35,-4.06 -13.04,-16.49 -8.22,-27.72c4.33,-10.1 14.32,-16.04 23.24,-13.83c0.84,0.21 1.66,0.49 2.46,0.83c9.35,4.06 13.03,16.49 8.23,27.72c-4.35,10.1 -14.34,16.05 -23.26,13.83zM426.67,87.1031c-8.31,-2.06 -17.62,3.48 -21.67,12.89c-4.49,10.46 -1.05,22.05 7.67,25.83c0.73,0.32 1.51,0.58 2.29,0.78c8.31,2.06 17.61,-3.49 21.66,-12.89c4.49,-10.47 1.05,-22.06 -7.66,-25.84c-0.74,-0.32 -1.51,-0.59 -2.29,-0.77z" fill="#004D5F"/>
</g>
<path id="Vector_318" d="M429.38,113.1731c-0.52,1.18 -1.75,2.1 -3.24,2.26c-2.08,0.24 -3.87,-1.06 -4.02,-2.89c-0.15,-1.83 1.41,-3.5 3.48,-3.73c0.13,-0.02 0.25,-0.02 0.37,-0.03c-0.1,-1.95 1.02,-3.77 2.78,-4.84c-1.85,-0.9 -3.99,-1.31 -6.22,-1.07c-6.28,0.7 -10.96,6.3 -10.45,12.5c0.5,6.2 6,10.66 12.27,9.96c6.28,-0.7 10.95,-6.3 10.45,-12.5c0,-0.03 -0.01,-0.05 -0.01,-0.08c-0.72,0.4 -1.55,0.66 -2.43,0.76c-1.06,0.13 -2.08,-0.01 -2.98,-0.34z" fill="#004D5F"/>
<path id="Vector_319" opacity="0.13" d="M420.19,127.1331c0,0 -13.07,-1.75 -13.96,-16.2c-0.88,-14.44 9.98,-21.89 18.43,-20.89c9.35,1.09 13.68,9.35 14.21,14.9c0,0 -0.97,-12.97 -7.1,-16.39c-6.12,-3.41 -16.35,-3.09 -22.07,3.75c-5.72,6.84 -7.87,15.25 -7.44,20.37c0.43,5.12 4.3,11.09 9.18,13.25c4.9,2.15 8.75,1.21 8.75,1.21z" fill="#004D5F"/>
</g>
<g id="Group_83">
<path id="Vector_320" opacity="0.33" d="M460.21,107.8531c4.17,11.29 15.42,17.11 25.13,13.01c9.71,-4.11 14.2,-16.59 10.04,-27.88c-4.17,-11.29 -15.42,-17.11 -25.13,-13c-9.71,4.09 -14.21,16.58 -10.04,27.87z" fill="#004D5F"/>
<g id="Group_84">
<path id="Vector_321" d="M458.12,109.3131c4.06,11 14.97,16.69 24.36,12.71c9.39,-3.97 13.72,-16.11 9.66,-27.1c-4.05,-10.99 -14.97,-16.69 -24.35,-12.71c-9.4,3.97 -13.72,16.11 -9.67,27.1z" fill="white"/>
<path id="Vector_322" d="M457.52,109.5631c-4.19,-11.36 0.29,-23.95 10.01,-28.05c0.82,-0.35 1.67,-0.63 2.53,-0.84c9.15,-2.24 18.9,3.78 22.68,14c4.19,11.37 -0.29,23.95 -10,28.05c-0.82,0.35 -1.68,0.63 -2.54,0.84c-9.15,2.24 -18.9,-3.78 -22.68,-14zM468.05,82.9131c-9.05,3.82 -13.24,15.56 -9.32,26.14c3.51,9.53 12.6,15.13 21.14,13.05c0.8,-0.2 1.59,-0.46 2.36,-0.79c9.05,-3.82 13.24,-15.55 9.32,-26.14c-3.51,-9.53 -12.6,-15.14 -21.14,-13.05c-0.8,0.2 -1.6,0.46 -2.36,0.79z" fill="#004D5F"/>
</g>
<path id="Vector_323" d="M476.87,109.6431c-0.66,1.13 -1.99,1.92 -3.52,1.92c-2.11,0 -3.78,-1.5 -3.73,-3.36c0.06,-1.86 1.82,-3.36 3.93,-3.36c0.13,0 0.26,0 0.38,0.01c0.12,-1.97 1.45,-3.68 3.34,-4.55c-1.77,-1.12 -3.87,-1.78 -6.15,-1.78c-6.39,0 -11.72,5.11 -11.91,11.4c-0.18,6.29 4.84,11.39 11.23,11.39c6.4,0 11.73,-5.1 11.91,-11.39c0,-0.03 0,-0.05 0,-0.08c-0.77,0.31 -1.63,0.49 -2.53,0.49c-1.07,0 -2.09,-0.25 -2.95,-0.69z" fill="#004D5F"/>
<path id="Vector_324" opacity="0.13" d="M474.53,122.6431c0,0 13.33,-1.77 15.1,-16.39c1.77,-14.62 -8.76,-22.16 -17.37,-21.15c-9.53,1.11 -14.42,9.46 -15.3,15.08c0,0 1.78,-13.13 8.18,-16.58c6.4,-3.46 16.73,-3.15 22.11,3.79c5.38,6.92 7.04,15.43 6.3,20.61c-0.76,5.18 -5.03,11.23 -10.11,13.42c-5.07,2.18 -8.91,1.22 -8.91,1.22z" fill="#004D5F"/>
</g>
<path id="Vector_325" d="M481.92,59.6031c0,0 -7.13,-2.59 -9.74,-0.39c-2.61,2.2 -0.66,6.07 4.25,6.71c4.91,0.65 10.53,3.03 12.75,3.84c2.22,0.81 3.36,-2.47 1.3,-4.49c-2.07,-2.02 -4.96,-4.68 -8.56,-5.67z" fill="#004D5F"/>
<path id="Vector_326" d="M418.8,58.8231c0,0 7.21,-2.5 9.63,-0.23c2.41,2.26 0.22,6.15 -4.66,6.72c-4.89,0.57 -10.6,2.89 -12.85,3.67c-2.24,0.79 -3.14,-2.55 -0.97,-4.56c2.18,-2.02 5.22,-4.66 8.85,-5.6z" fill="#004D5F"/>
</g>
<g id="Group_85">
<g id="Group_86">
<path id="Vector_327" d="M512.05,100.9831c0.69,14.27 -11.9,26.48 -28.13,27.26c-16.23,0.78 -29.94,-10.15 -30.63,-24.43c-0.69,-14.27 11.91,-26.47 28.14,-27.26c16.22,-0.78 29.93,10.16 30.62,24.43z" fill="url(#paint15_linear_6836_31544)"/>
<path id="Vector_328" d="M484,129.8031c-17.18,0.83 -31.75,-10.78 -32.48,-25.89c-0.72,-15.11 12.65,-28.08 29.83,-28.91c17.18,-0.83 31.73,10.78 32.47,25.89c0.73,15.11 -12.66,28.08 -29.82,28.91zM481.5,78.1131c-15.22,0.74 -27.09,12.24 -26.45,25.62c0.65,13.39 13.57,23.69 28.79,22.95c15.23,-0.74 27.08,-12.24 26.43,-25.62c-0.63,-13.38 -13.54,-23.69 -28.77,-22.95z" fill="#004D5F"/>
</g>
<g id="Group_87">
<path id="Vector_329" d="M449.23,108.8531c0.69,14.27 -11.9,26.48 -28.13,27.27c-16.23,0.78 -29.94,-10.15 -30.63,-24.42c-0.69,-14.27 11.9,-26.48 28.13,-27.26c16.23,-0.8 29.94,10.14 30.63,24.41z" fill="url(#paint16_linear_6836_31544)"/>
<path id="Vector_330" d="M421.17,137.6731c-17.17,0.84 -31.74,-10.78 -32.47,-25.89c-0.72,-15.1 12.65,-28.07 29.83,-28.9c17.18,-0.83 31.74,10.78 32.47,25.89c0.73,15.1 -12.66,28.07 -29.83,28.9zM418.68,85.9931c-15.23,0.74 -27.09,12.23 -26.45,25.62c0.65,13.39 13.57,23.68 28.79,22.95c15.22,-0.74 27.08,-12.24 26.43,-25.62c-0.63,-13.4 -13.55,-23.69 -28.77,-22.95z" fill="#004D5F"/>
</g>
<g id="Group_88">
<path id="Vector_331" d="M453.37,105.8431l-4.26,0.21l0.15,3.11l4.26,-0.21z" fill="#004D5F"/>
</g>
</g>
</g>
<path id="Vector_332" d="M377.74,82.7831c0,0 -7.71,-4.18 -10.54,-4.37c-2.83,-0.19 -3.58,0.95 -3.96,1.89c-0.38,0.95 -1.56,2.13 -1.16,3.41c0.53,1.69 1.25,1.75 2.7,2.66c1.66,1.05 2.25,1.19 3.18,1.88c1.22,0.91 4.35,2.83 4.35,2.83c0,0 4.68,-7.16 5.43,-8.3c0,0 2.86,4.7 2.86,5.27c0,0.57 -1.51,2.84 -1.13,3.97c0.38,1.13 -0.75,3.21 -0.19,3.78c0.57,0.57 2.26,0.38 2.83,0.38c0.57,0 4.35,-2.27 4.35,-4.92c0,-2.65 0.38,-5.1 -0.76,-5.48c-1.13,-0.37 -2.64,0.76 -2.64,0.76l-2.23,1.26" fill="#F39C00"/>
<path id="Vector_333" d="M445.11,161.6531c0,0 1.29,-5.27 10.52,-8.43c9.24,-3.16 16.56,5.78 16.56,5.78c0,0 -4.93,2.78 -13.46,5.06c-4.9,1.3 -13.62,-2.41 -13.62,-2.41z" fill="#F39C00"/>
</g>
<g id="Group_89">
<g id="Group_90">
<g id="Group_91">
<g id="Group_92">
<g id="Group_93">
<path id="Vector_334" d="M137.7,287.6731c-1.38,13.25 -10.71,21.16 -20.83,17.67c-10.13,-3.49 -14.88,-15.82 -13.5,-29.07c1.38,-13.26 8.37,-22.41 18.5,-18.92c10.12,3.5 17.21,17.07 15.83,30.32z" fill="url(#paint17_linear_6836_31544)"/>
<path id="Vector_335" d="M116.71,306.7931c-10.72,-3.69 -15.2,-16.46 -13.74,-30.5c1.46,-14.02 8.33,-24.08 19.04,-20.38c10.72,3.7 18.25,18.12 16.79,32.14c-1.46,14.03 -11.36,22.43 -22.09,18.74zM121.71,258.8031c-9.5,-3.27 -15.93,6.41 -17.23,18.85c-1.29,12.43 3.03,22.97 12.53,26.25c9.5,3.27 18.29,-4.18 19.58,-16.61c1.3,-12.43 -5.37,-25.22 -14.88,-28.49z" fill="#004D5F"/>
</g>
<g id="Group_94">
<path id="Vector_336" d="M104.62,280.4531c-1.38,13.25 -10.71,21.16 -20.84,17.67c-10.13,-3.49 -17.21,-17.06 -15.83,-30.32c1.38,-13.25 10.71,-21.16 20.83,-17.67c10.13,3.49 17.22,17.06 15.84,30.32z" fill="url(#paint18_linear_6836_31544)"/>
<path id="Vector_337" d="M83.63,299.5631c-10.71,-3.69 -18.25,-18.11 -16.77,-32.14c1.46,-14.02 11.37,-22.43 22.08,-18.73c10.72,3.69 18.24,18.11 16.79,32.14c-1.47,14.03 -11.38,22.43 -22.1,18.73zM88.64,251.5831c-9.5,-3.27 -18.29,4.18 -19.58,16.61c-1.3,12.44 5.37,25.22 14.88,28.49c9.5,3.28 18.28,-4.18 19.58,-16.61c1.29,-12.44 -5.38,-25.21 -14.88,-28.49z" fill="#004D5F"/>
</g>
<g id="Group_95">
<path id="Vector_338" d="M100.54,279.7831l-2.67,-0.92l0.3,-2.88l2.67,0.91z" fill="#004D5F"/>
</g>
</g>
<g id="Group_96">
<path id="Vector_339" d="M114.72,300.0631c4.01,23.67 -18.44,29.89 -18.44,29.89c3.53,-1.79 12.5,-3.47 12.77,6.16c0.26,9.62 -4.04,17.17 -4.04,17.17c0,0 6.55,-2.39 6.89,2.13c0.36,4.84 -11.77,8.07 -15.14,4.07c-1.64,-1.94 1.57,-6.64 1.57,-6.64c-6.5,14.92 -37.06,18.24 -48.13,8.47c-11.07,-9.77 -1.91,-28.6 -1.91,-28.6c-13.29,-2.95 -25.83,-24.2 -15.83,-52.66c0,0 5.62,-12.43 17.04,-19.19c11.43,-6.76 10.42,-15.82 10.42,-15.82c0,0 2.76,6.82 6.03,8c3.28,1.16 8.82,-5.56 8.82,-5.56c0,0 2.65,9.77 5.1,10.45c2.44,0.68 6.48,-4.09 12.25,-6.27c0,0 -3.46,10.64 0.11,12.32c3.56,1.69 11.08,7.2 14.41,14.53c3.33,7.34 4.36,16.8 4.36,16.8c0,0 3.5,3.41 3.72,4.75z" fill="#62BEEC"/>
<path id="Vector_340" d="M71.5,368.4231c-9.28,0.49 -17.64,-1.71 -22.38,-5.89c-9.92,-8.74 -5.16,-23.62 -3.09,-28.77c-5.35,-1.83 -10.27,-6.27 -13.7,-12.47c-6.27,-11.29 -6.78,-26.52 -1.41,-41.8l0.05,-0.13c0.24,-0.52 5.96,-12.98 17.7,-19.93c10.28,-6.09 9.65,-13.91 9.62,-14.24l-1.08,-11.19l4.23,10.41c1.04,2.55 3.3,6.43 5.08,7.06c0.08,0.03 0.2,0.05 0.33,0.04c1.78,-0.09 4.96,-3.03 6.66,-5.09l2.02,-2.45l0.83,3.07c1.19,4.4 3.04,8.71 3.99,9.31c0,0 0.03,0 0.05,-0.01c0.78,-0.04 2.36,-1.11 3.87,-2.15c1.97,-1.33 4.42,-3 7.27,-4.08l3.19,-1.2l-1.05,3.25c-1.54,4.76 -1.91,9.78 -0.75,10.33c4.06,1.92 11.77,7.79 15.2,15.33c2.96,6.51 4.13,14.5 4.42,16.72c1.46,1.46 3.53,3.76 3.78,5.24c2.52,14.84 -4.77,23.22 -11.17,27.6c1.08,0.35 2.02,0.89 2.81,1.62c1.71,1.58 2.62,3.96 2.71,7.06c0.17,6.33 -1.52,11.76 -2.81,14.96c0.04,0 0.07,0 0.11,-0.01c3.25,-0.17 5.32,1.43 5.54,4.27c0.1,1.3 -0.37,2.58 -1.36,3.7c-1.88,2.14 -5.7,3.71 -9.5,3.91c-3.19,0.17 -5.73,-0.67 -7.17,-2.36c-0.15,-0.19 -0.29,-0.39 -0.41,-0.6c-6.17,5.61 -15.78,8.08 -23.58,8.49zM33.98,280.6631c-5.04,14.37 -4.59,28.59 1.21,39.04c3.39,6.1 8.29,10.25 13.45,11.39l2.03,0.45l-0.91,1.87c-0.09,0.17 -8.47,17.83 1.52,26.65c4.11,3.63 11.6,5.52 20.05,5.09c10.7,-0.57 20.2,-4.76 24.26,-10.72c0.62,-1.38 1.36,-2.47 1.4,-2.52l2.85,1.58c-0.37,0.86 -0.84,1.71 -1.37,2.53c-0.68,1.61 -0.53,2.29 -0.45,2.39c0.73,0.87 2.4,1.32 4.49,1.21c2.88,-0.15 5.91,-1.32 7.21,-2.79c0.4,-0.46 0.58,-0.9 0.56,-1.3c-0.05,-0.56 -0.1,-1.34 -2.1,-1.23c-1.31,0.07 -2.58,0.51 -2.59,0.52l-4.18,1.51l2.2,-3.86c0.04,-0.07 4.07,-7.29 3.81,-16.31c-0.06,-2.18 -0.61,-3.77 -1.65,-4.73c-1.2,-1.11 -2.94,-1.26 -4.19,-1.19c-0.7,0.04 -1.44,0.15 -2.19,0.34c-1.57,0.67 -2.61,0.96 -2.66,0.97l-3.12,-1.1c0.81,-0.42 3.72,-2.72 4.72,-2.99c5.52,-2.4 17.72,-9.76 14.79,-27.1c-0.17,-0.51 -1.69,-2.34 -3.25,-3.85l-0.42,-0.41l-0.07,-0.58c-0.01,-0.1 -1.05,-9.31 -4.22,-16.31c-3.18,-7 -10.55,-12.27 -13.62,-13.73c-3.27,-1.55 -2.79,-6.89 -1.93,-10.79c-1.25,0.72 -2.41,1.51 -3.48,2.24c-2.16,1.46 -3.86,2.62 -5.55,2.71c-0.4,0.02 -0.78,-0.02 -1.14,-0.12c-2.31,-0.63 -4.19,-5.02 -5.42,-8.81c-1.82,1.79 -4.52,3.97 -7,4.1c-0.56,0.03 -1.1,-0.05 -1.61,-0.22c-1.81,-0.65 -3.4,-2.5 -4.61,-4.34c-1.14,3.51 -3.89,8.14 -10.47,12.03c-10.43,6.16 -15.92,17.47 -16.35,18.38z" fill="#0E3D50"/>
</g>
<g id="Group_97">
<path id="Vector_341" d="M101.24,328.3631c-1.37,0.92 -9.62,5.03 -14.63,6.42c-5,1.4 -11.27,0.31 -11.27,0.31" fill="#62BEEC"/>
<path id="Vector_342" d="M82.27,337.0931c-3.76,0.2 -7.01,-0.35 -8.79,-1.45c1.21,0.43 4.02,-0.02 12.7,-2.43c4.85,-1.35 12.95,-5.39 14.15,-6.2l1.82,2.73c-1.48,1 -9.86,5.18 -15.09,6.63c-1.56,0.43 -3.23,0.65 -4.79,0.72z" fill="#0E3D50"/>
</g>
<g id="Group_98">
<path id="Vector_343" d="M78.07,350.9631c0,0 4.29,-4.18 9.85,-5.89c5.56,-1.7 16.25,-2.26 21.9,-7.64c0,0 6.08,-4.21 5.16,-9.61c-0.91,-5.41 -5.36,-7.58 -5.36,-7.58l-4.59,5.51c0,0 2.05,1.03 2.75,2.28l-6.23,0.16" fill="#62BEEC"/>
<path id="Vector_344" d="M79.21,352.1331l-0.29,-0.25c-0.24,-1.91 2.65,-6.58 8.52,-8.38c1.59,-0.48 3.54,-0.88 5.62,-1.29c5.28,-1.07 11.86,-2.38 15.62,-5.97l0.2,-0.16c0.05,-0.04 5.23,-3.71 4.49,-7.99c-0.5,-2.98 -2.26,-4.79 -3.41,-5.69l-2.47,2.96c0.64,0.49 1.32,1.12 1.73,1.86l1.34,2.37l-11.36,0.55l2.32,-3.59l1.42,-0.04l-0.47,-0.24l7.97,-8.2l-0.08,0.69c0.2,0.1 5.2,2.61 6.25,8.77c1.02,5.99 -4.82,10.5 -5.75,11.17c-4.45,4.18 -11.49,5.59 -17.15,6.72c-1.99,0.4 -3.87,0.78 -5.3,1.22c-5.1,1.56 -9.16,5.45 -9.2,5.49z" fill="#0E3D50"/>
</g>
<g id="Group_99">
<path id="Vector_345" d="M82.64,336.2731c-2.02,0.11 -3.35,-0.01 -3.52,-0.03l0.13,-0.77c0.13,0.01 17.59,-3.48 26.01,-12.29l-2.37,4.32c-6.71,7.02 -15.45,8.51 -20.25,8.77z" fill="#0E3D50"/>
</g>
<g id="Group_100">
<path id="Vector_346" d="M99.99,342.2731c0,0 0.98,7.86 -4.57,15.22z" fill="#62BEEC"/>
<path id="Vector_347" d="M96.72,358.4831l-2.61,-1.98c5.05,-6.69 4.26,-13.96 4.25,-14.02l3.25,-0.41c0.04,0.35 1,8.62 -4.89,16.41z" fill="#0E3D50"/>
</g>
<path id="Vector_348" d="M46.51,247.0731c0,0 5.59,-2.53 7.83,-0.93c2.24,1.61 0.92,4.84 -3,5.68c-3.92,0.84 -8.3,3.1 -10.04,3.91c-1.74,0.79 -2.88,-1.78 -1.34,-3.54c1.54,-1.76 3.7,-4.08 6.55,-5.12z" fill="#004D5F"/>
<path id="Vector_349" d="M96.28,240.3231c0,0 -5.69,-2.32 -7.86,-0.62c-2.18,1.69 -0.73,4.88 3.21,5.55c3.95,0.68 8.42,2.78 10.19,3.51c1.77,0.72 2.8,-1.89 1.19,-3.59c-1.6,-1.7 -3.85,-3.93 -6.73,-4.85z" fill="#004D5F"/>
<g id="Group_101">
<path id="Vector_350" opacity="0.33" d="M110.79,288.9931c1.74,7.84 0.36,13.29 -3.08,12.15c-3.43,-1.14 -7.62,-8.42 -9.35,-16.27c-1.73,-7.84 -0.36,-13.28 3.08,-12.14c3.43,1.13 7.62,8.41 9.35,16.26z" fill="#004D5F"/>
<g id="Group_102">
<path id="Vector_351" d="M111.68,289.6031c1.69,7.64 0.36,12.94 -2.96,11.84c-3.32,-1.09 -7.38,-8.18 -9.07,-15.82c-1.69,-7.64 -0.36,-12.94 2.96,-11.84c3.32,1.1 7.37,8.19 9.07,15.82z" fill="white"/>
<path id="Vector_352" d="M109.66,302.0831c-0.27,0 -0.54,-0.06 -0.84,-0.15c-3.43,-1.14 -7.64,-8.49 -9.39,-16.38c-1.57,-7.1 -0.61,-12.44 2.22,-12.4c0.27,0 0.55,0.05 0.84,0.14c3.44,1.14 7.65,8.48 9.4,16.38c1.57,7.1 0.61,12.44 -2.23,12.41zM101.93,274.1331c-2.64,-0.03 -3.53,4.95 -2.07,11.56c1.62,7.36 5.55,14.21 8.75,15.27c0.27,0.08 0.54,0.13 0.79,0.13c2.64,0.03 3.53,-4.94 2.07,-11.56c-1.62,-7.36 -5.55,-14.21 -8.75,-15.27c-0.28,-0.09 -0.54,-0.13 -0.79,-0.13z" fill="#004D5F"/>
</g>
<path id="Vector_353" d="M107.99,286.8131c0.4,0.69 0.88,1.08 1.24,0.92c0.5,-0.21 0.56,-1.39 0.14,-2.63c-0.41,-1.24 -1.15,-2.06 -1.65,-1.85c-0.03,0.02 -0.06,0.04 -0.08,0.05c-0.46,-1.31 -1.14,-2.3 -1.77,-2.7c0.17,-0.93 0.52,-1.59 1.05,-1.82c1.5,-0.65 2.47,2.67 3.88,6.86c1.4,4.19 2.04,7.7 1.23,8.32c-1.31,0.98 -3.85,-2.21 -5.26,-6.4c-0.01,-0.01 -0.01,-0.03 -0.02,-0.04c0.26,0.12 0.49,0.15 0.7,0.06c0.25,-0.11 0.43,-0.39 0.54,-0.77z" fill="#004D5F"/>
<path id="Vector_354" opacity="0.13" d="M110.86,300.6331c0,0 -3.77,0.91 -7.81,-8.15c-4.03,-9.06 -3.25,-15.49 -0.85,-16.17c2.65,-0.74 5.93,3.84 7.52,7.3c0,0 -3.67,-8.11 -6.12,-9.34c-2.45,-1.22 -4.95,0.56 -4.59,5.8c0.36,5.24 2.03,10.93 3.5,14.13c1.46,3.19 4.01,6.4 5.81,7.01c1.81,0.61 2.54,-0.58 2.54,-0.58z" fill="#004D5F"/>
</g>
<path id="Vector_355" d="M98.47,269.8231c0,0 -2.67,2.41 -1.57,10.75c1.1,8.34 7.7,17.47 7.7,17.47l0.85,0.88c0,0 -6.47,-14.47 -6.44,-18.87c0.03,-4.4 2.65,-6.92 2.65,-6.92l-1.28,-2.62z" fill="#004D5F"/>
<path id="Vector_356" d="M30.8,298.1431c0,0 8.13,12.47 36.01,10.84c35.84,-2.1 63.28,-21.36 69.21,-31.76c0,0 3.16,0.81 2.37,4.68c0,0 -17.05,22 -53.35,28.61c-29.53,5.36 -44.93,0.36 -52.17,-2.9c0,0 -10.15,-2.5 -2.07,-9.47z" fill="#004D5F"/>
</g>
<path id="Vector_357" opacity="0.33" d="M99.78,319.9631c15.58,1.05 14.98,-12.52 14.98,-12.52c0,0 -0.19,3.72 -1.92,8.12c-1.73,4.39 -7.81,10.18 -7.81,10.18l5.53,3.85c0,0 -13.58,4 -10.85,7.77c2.74,3.77 8.74,2.68 8.74,2.68c0,0 -4.01,13.12 -4.17,13.72c-0.16,0.59 -2.41,2.47 -1.94,4.01c0.47,1.54 2.29,2.63 2.29,2.63c0,0 -4.65,0.82 -7.04,-0.23c-2.4,-1.05 0.65,-6.1 0.65,-6.1c0,0 -2.06,1.68 -2.62,2.29c-0.55,0.62 -3.5,3.9 -6.12,6.19c-2.62,2.29 -15.78,4.54 -19.11,4.32c-3.33,-0.21 -12.4,-1.69 -16.36,-10.29c-3.96,-8.6 3.57,-21.51 3.57,-21.51c1.35,-0.27 7.48,-2.73 7.48,-2.73c-8.14,1.4 -16.89,-1.66 -22.74,-8.99c-5.86,-7.32 -7.63,-15.05 -7.63,-15.05l1.27,-5.54c0,0 -2.37,-0.47 -0.19,-11.15c2.18,-10.68 17.2,-22.41 22.35,-28.56c5.15,-6.14 3.83,-12.71 3.83,-12.71c0,0 4.88,3.66 7.59,3.12c2.7,-0.53 4.88,-3.78 4.88,-3.78c0,0 2.88,6.5 6.48,8.07c3.6,1.58 9.6,-3.23 9.6,-3.23c0,0 -3.28,7.19 -1.05,9.47c2.23,2.26 4.77,5.05 4.6,6.91c-0.17,1.87 -2.37,10.47 2.05,18.99c4.41,8.51 7.45,11.01 7.45,11.01c0,0 -17.33,7.8 -28.61,9.98c-11.27,2.18 -17.18,0.63 -17.18,0.63c0,0 9.71,3.47 23.94,2.2c14.24,-1.28 24.1,-5.24 24.1,-5.24c0,0 -12.43,11.06 -6.04,11.49z" fill="#004D5F"/>
</g>
<path id="Vector_358" d="M83.34,357.1131c0.01,1.02 0.02,1.94 0.04,2.79h-81.8c0.03,-1.27 0.03,-2.86 -0.03,-4.89c-0.21,-8.48 -1.06,-15.57 -1.46,-28.14c-0.24,-7.47 -0.04,-9.18 1.22,-10.52c6.02,-6.41 21.12,0.99 43.42,2.85c6.04,0.5 35.21,3.76 36.16,4.52c4.63,3.64 2.28,11.92 2.45,33.39z" fill="#387694"/>
<path id="Vector_359" d="M1.3,317.1531c1.21,-1.28 2.79,-1.99 4.72,-2.31c0.56,6.56 2.23,11.69 4,15.54c6.02,13.18 18.49,23.31 35.02,29.52h-43.47c0.03,-1.25 0.03,-2.81 -0.03,-4.8c-0.21,-8.32 -1.05,-15.29 -1.45,-27.63c-0.24,-7.33 -0.04,-9.01 1.21,-10.32z" fill="#286375"/>
</g>
<g id="Group_103">
<g id="Group_104">
<g id="Group_105">
<path id="Vector_360" d="M297.91,310.1231c-0.55,0.95 -4.38,27.21 -4.38,27.21l-15.53,14.81l-20.09,-9.79c0,0 5.89,-7.51 8.3,-9.19c2.41,-1.67 3.32,-3.25 3.32,-3.25c0,0 3.24,-10.1 3.55,-13.55c0.3,-3.45 -0.99,-7.53 -0.99,-7.53l-4.47,-9.86z" fill="#0E3D50"/>
<path id="Vector_361" d="M294.6,312.1331l-3.92,22.67l-19.11,-7.23c0,0 2.11,-11.87 1.81,-14.66c-0.31,-2.8 -1.8,-6.57 -1.8,-6.57l-2,-3.22z" fill="#F39C00"/>
<g id="Group_106">
<g id="Group_107">
<path id="Vector_362" d="M282.94,317.2831c-4.8,11.26 -14.92,15.61 -22.61,9.72c-7.68,-5.89 -8.36,-18.05 -3.56,-29.31c4.81,-11.26 13.27,-17.36 20.96,-11.46c7.68,5.89 10.02,19.8 5.21,31.05z" fill="url(#paint19_linear_6836_31544)"/>
<path id="Vector_363" d="M259.81,328.2331c-8.13,-6.24 -8.46,-18.72 -3.37,-30.63c5.08,-11.92 13.68,-18.83 21.81,-12.59c8.13,6.23 10.61,21.01 5.53,32.92c-5.09,11.92 -15.84,16.53 -23.97,10.3zM277.2,287.4531c-7.2,-5.53 -15.34,1.19 -19.85,11.75c-4.5,10.57 -3.69,21.04 3.51,26.57c7.21,5.53 16.75,1.43 21.25,-9.13c4.5,-10.56 2.3,-23.65 -4.91,-29.19z" fill="#004D5F"/>
</g>
<g id="Group_108">
<path id="Vector_364" d="M256.7,301.7131c-4.81,11.26 -14.93,15.61 -22.6,9.71c-7.69,-5.89 -10.02,-19.8 -5.22,-31.06c4.81,-11.25 14.93,-15.61 22.61,-9.72c7.68,5.91 10.01,19.8 5.21,31.07z" fill="url(#paint20_linear_6836_31544)"/>
<path id="Vector_365" d="M233.57,312.6431c-8.13,-6.24 -10.61,-21 -5.53,-32.92c5.09,-11.92 15.84,-16.54 23.98,-10.3c8.13,6.23 10.61,21.01 5.52,32.92c-5.09,11.92 -15.84,16.55 -23.97,10.3zM250.97,271.8731c-7.21,-5.52 -16.74,-1.43 -21.25,9.13c-4.5,10.57 -2.31,23.66 4.9,29.2c7.21,5.53 16.74,1.43 21.25,-9.13c4.5,-10.57 2.31,-23.67 -4.9,-29.2z" fill="#004D5F"/>
</g>
<g id="Group_109">
<path id="Vector_366" d="M256.81,287.7431l-2.67,-0.65l0.02,-2.84l2.68,0.65z" fill="#004D5F"/>
</g>
</g>
<g id="Group_110">
<g id="Group_111">
<path id="Vector_367" d="M272.51,306.1631c6.33,25.48 -16.04,33.38 -16.04,33.38c3.27,-2.07 12.71,-7.13 13.87,2.22c1.15,9.35 10.92,4.1 10.92,4.1c0,0 11.47,4.95 10.61,9.29c-2.5,12.47 -11.6,-0.7 -20.93,2.34c-3.48,1.14 -4.85,2.7 -4.85,2.7c-8.11,14.47 -39,20.05 -50.69,11.57c-11.69,-8.47 -4.52,-27.66 -4.52,-27.66c-13.21,-1.62 -27.38,-21.14 -20.28,-49.76c0,0 4.3,-12.63 14.8,-20.27c10.49,-7.65 8.67,-16.37 8.67,-16.37c0,0 3.32,6.39 6.62,7.22c3.3,0.83 8.06,-6.22 8.06,-6.22c0,0 3.49,9.27 5.93,9.7c2.44,0.43 5.93,-4.59 11.35,-7.24c0,0 -2.38,10.67 1.25,11.98c3.63,1.31 11.46,5.97 15.38,12.79c3.92,6.83 7.04,10.71 7.04,10.71c0,0 2.49,8.22 2.81,9.52z" fill="#62BEEC"/>
<path id="Vector_368" d="M214.78,372.6331c-10.59,-7.68 -6.72,-23.17 -5.31,-27.68c-5.45,-1.11 -10.76,-4.97 -14.74,-10.76c-7.06,-10.27 -8.94,-24.89 -5.17,-40.11l0.03,-0.1c0.17,-0.52 4.53,-13.02 15.17,-20.78c9.76,-7.11 8.32,-14.96 8.26,-15.29l-1.59,-7.58l3.58,6.87c0.8,1.55 3.62,6.09 5.93,6.68c0.09,0.02 0.2,0.03 0.3,0.03c1.95,0 5.09,-3.57 6.61,-5.82l1.16,-1.71l0.73,1.93c1.74,4.64 4.13,8.85 5.11,9.02c0.04,0.01 0.08,0.01 0.12,0.01c0.87,0 2.38,-1.26 3.98,-2.58c1.78,-1.47 3.97,-3.29 6.6,-4.58l1.99,-0.98l-0.48,2.17c-0.87,3.94 -1.3,10.07 0.57,10.75c4.06,1.47 11.98,6.37 15.94,13.27c3.82,6.66 6.93,10.54 6.96,10.57l0.13,0.17l0.06,0.2c0.1,0.34 2.52,8.26 2.84,9.57c3.76,15.11 -2.24,24.27 -8.08,29.35c2.05,0.08 5.27,1.08 5.93,6.39c0.38,3.15 5.82,3.06 8.35,3.65c2.66,0.62 7.59,2.45 9.63,3.81c2.13,1.42 2.88,1.94 3.58,3.13c0.51,0.88 0.2,2.79 -0.37,3.9c-1.71,3.33 -2.61,5.29 -6.67,4.41c-1.02,-0.22 -6.94,-2.71 -9,-3.16c-1.42,-0.31 -3.12,-0.32 -4.62,-0.07c-2.67,0.43 -3.95,1.85 -5.32,3.5c-5.97,10.51 -22.51,16.02 -35.81,16.02c-6.86,-0.02 -12.68,-1.5 -16.4,-4.2zM286.92,358.6431c1.82,-0.21 3.53,-2.08 4.18,-4.7c0.19,-0.74 -0.56,-1.9 -3.04,-3.27c-2.99,-1.63 -5.85,-2.12 -8.55,-2.86c-2.06,-0.57 -9.53,-0.26 -10.23,-5.92c-0.5,-4.05 -2.57,-4.51 -4.1,-4.51c-1.04,0 -2.27,0.26 -3.65,0.78c-2.64,1.65 -4.63,2.36 -4.71,2.39l-8.92,3.15l7.99,-5.07c1.09,-0.69 2.79,-1.67 4.67,-2.4c5.96,-3.78 15.18,-12.65 10.91,-29.82c-0.29,-1.14 -2.38,-8.02 -2.76,-9.27c-0.64,-0.82 -3.49,-4.56 -7.01,-10.68c-3.68,-6.41 -11.03,-10.96 -14.81,-12.33c-3.33,-1.21 -2.91,-7.34 -2.35,-10.93c-1.57,1 -2.96,2.16 -4.23,3.21c-2.07,1.72 -3.7,3.07 -5.34,3.07c-0.17,0 -0.34,-0.01 -0.49,-0.04c-2.28,-0.4 -4.65,-5.24 -6.03,-8.57c-1.6,2.02 -4.53,5.18 -7.21,5.18c-0.28,0 -0.56,-0.04 -0.82,-0.1c-2.03,-0.52 -3.95,-2.64 -5.31,-4.55c-0.51,3.47 -2.48,8.71 -9.09,13.53c-9.8,7.14 -14.12,18.92 -14.4,19.71c-3.6,14.6 -1.83,28.58 4.87,38.34c3.95,5.74 9.24,9.41 14.53,10.06l1.34,0.16l-0.47,1.27c-0.07,0.19 -6.76,18.51 4.14,26.41c3.37,2.44 8.74,3.79 15.13,3.79c12.41,0 28.54,-5.27 34,-15.01l0.11,-0.16c0.21,-0.25 3.43,-4.12 7.34,-4.67c1.82,-0.25 4.25,0.08 5.44,0.59c2.37,1.01 8.2,3.3 8.87,3.22z" fill="#0E3D50"/>
</g>
</g>
<g id="Group_112">
<path id="Vector_369" d="M262.01,334.9631c-1.24,1.02 -8.89,5.78 -13.64,7.6c-4.73,1.82 -10.93,1.35 -10.93,1.35" fill="#62BEEC"/>
<path id="Vector_370" d="M244.36,345.2131c-3.64,0.54 -6.85,0.31 -8.68,-0.59c1.21,0.3 3.9,-0.39 12.12,-3.55c4.59,-1.76 15.1,-7.09 16.2,-7.99l-0.97,3.12c-1.36,1.11 -9.13,5.96 -14.08,7.87c-1.48,0.56 -3.07,0.92 -4.59,1.14z" fill="#0E3D50"/>
</g>
<g id="Group_113">
<path id="Vector_371" d="M241.56,359.0931c0,0 3.79,-4.47 9.04,-6.64c5.24,-2.18 15.6,-3.72 20.6,-9.48c0,0 5.53,-4.66 4.14,-9.84c-1.4,-5.17 -5.92,-6.87 -5.92,-6.87l-3.95,5.79c0,0 2.09,0.82 2.89,1.97l-6.05,0.74" fill="#62BEEC"/>
<path id="Vector_372" d="M242.78,360.1431l-0.3,-0.23c-0.41,-1.83 1.97,-6.65 7.52,-8.94c1.5,-0.63 3.36,-1.19 5.34,-1.78c5.05,-1.53 11.32,-3.42 14.66,-7.27l0.17,-0.18c0.05,-0.03 4.74,-4.08 3.63,-8.18c-0.77,-2.85 -2.64,-4.45 -3.85,-5.22l-2.13,3.1c0.67,0.42 1.38,0.97 1.86,1.65l1.53,2.18l-11.01,1.59l1.85,-2.64l2.07,-0.13l-0.57,-0.14l6.52,-6.86l0.38,0.13c0.22,0.09 1.27,1.2 6.45,5.49c4.57,3.79 -3.72,10.66 -4.56,11.4c-3.95,4.49 -10.66,6.52 -16.07,8.14c-1.9,0.58 -3.69,1.12 -5.04,1.68c-4.82,2 -8.41,6.17 -8.45,6.21z" fill="#0E3D50"/>
</g>
<g id="Group_114">
<path id="Vector_373" d="M244.65,344.3731c-1.97,0.3 -3.27,0.3 -3.44,0.3l0.05,-0.76c0.13,0 19.18,-3.11 26.55,-12.46l-4.28,2.51c-5.87,7.45 -14.23,9.72 -18.88,10.41z" fill="#0E3D50"/>
</g>
<g id="Group_115">
<path id="Vector_374" d="M257.84,364.1831c4.29,-6.99 2.7,-15.16 2.69,-15.23l3.12,-0.69c0.08,0.34 -0.82,7.79 -5.81,15.92z" fill="#0E3D50"/>
</g>
<path id="Vector_375" d="M201.2,260.9431c0,0 5.2,-2.99 7.53,-1.64c2.33,1.36 1.34,4.63 -2.39,5.81c-3.74,1.17 -7.8,3.79 -9.41,4.73c-1.62,0.94 -2.96,-1.47 -1.63,-3.32c1.33,-1.85 3.23,-4.31 5.9,-5.58z" fill="#004D5F"/>
<path id="Vector_376" d="M249,249.7331c0,0 -5.74,-1.73 -7.71,0.12c-1.96,1.85 -0.25,4.82 3.65,5.11c3.91,0.29 8.45,1.92 10.24,2.46c1.79,0.54 2.55,-2.1 0.82,-3.6c-1.7,-1.5 -4.11,-3.47 -7,-4.09z" fill="#004D5F"/>
<g id="Group_116">
<g id="Group_117">
<path id="Vector_377" d="M272.63,310.0931c0.09,5.94 -1.12,9.53 -2.72,8.02c-1.59,-1.51 -2.96,-7.55 -3.05,-13.49c-0.09,-5.94 1.13,-9.53 2.72,-8.02c1.59,1.52 2.96,7.55 3.05,13.49z" fill="white"/>
</g>
</g>
<path id="Vector_378" d="M268.42,293.8531c0,0 -1.73,1.33 -2.07,8.44c-0.34,7.13 2.22,16.23 2.22,16.23l0.36,0.93c0,0 -1.88,-13.46 -1.38,-17.06c0.51,-3.61 2.22,-5.05 2.22,-5.05l-0.4,-2.46z" fill="#004D5F"/>
<path id="Vector_379" d="M188.9,296.6431c0,0 3.53,13.23 27.75,19.58c30.98,8.13 59.24,-0.58 67.72,-8.58c0,0 2.47,1.6 0.74,4.78c0,0 -20.56,14.57 -53.32,10.23c-26.66,-3.52 -38.43,-12.22 -43.72,-17.11c0.01,0 -7.97,-5.03 0.83,-8.9z" fill="#004D5F"/>
<path id="Vector_380" opacity="0.33" d="M260.05,333.4831c15.26,-0.43 13.49,-19.8 13.49,-19.8c0,0 0.17,3.64 -1.11,8.08c-1.27,4.43 -6.66,10.65 -6.66,10.65l5.74,3.23c0,0 -12.84,5.16 -9.83,8.57c3.01,3.42 8.75,1.79 8.75,1.79c0,0 6.23,4.78 6.13,5.38c-0.1,0.59 -11.78,9.12 -11.18,10.57c0.6,1.45 -3.88,3.35 -3.88,3.35c0,0 0.65,-2.87 -1.79,-3.67c-2.44,-0.79 2.08,-1.02 2.08,-1.02c0,0 0.72,3.51 0.24,4.16c-0.48,0.65 -5.62,2.43 -7.95,4.9c-2.34,2.47 -14.94,5.89 -18.2,5.99c-3.26,0.1 -12.22,-0.5 -16.88,-8.5c-4.66,-8 1.47,-21.27 1.47,-21.27c1.3,-0.38 7.03,-3.36 7.03,-3.36c-7.79,2.12 -16.59,-0.04 -22.97,-6.62c-6.37,-6.58 -8.81,-13.94 -8.81,-13.94l0.72,-5.52c0,0 -2.35,-0.23 -1.22,-10.82c1.13,-10.6 14.66,-23.42 19.09,-29.88c4.45,-6.45 2.54,-12.73 2.54,-12.73c0,0 3.14,2.18 5.72,1.41c2.58,-0.77 6.46,-4.61 6.46,-4.61c0,0 1.88,6.95 5.53,8.15c3.65,1.19 10.75,-6.77 10.75,-6.77c0,0 -2.7,8.92 -0.31,10.92c2.39,2 15.81,9.55 15.82,11.38c0,1.83 8.89,12.75 7.21,13.23c-5.33,1.51 -1.53,20.29 -1.53,20.29c0,0 -16.87,2.83 -27.64,6c-10.76,3.17 -20.38,-0.07 -20.38,-0.07c0,0 9.78,2.48 23.51,-0.09c13.73,-2.57 22.95,-7.34 22.95,-7.34c0,0 -11.15,18.14 -4.89,17.96z" fill="#004D5F"/>
<g id="Group_118">
<path id="Vector_381" d="M250.07,343.1931c0,0 14.57,-5.92 21.13,-7.91c6.55,-2 10.99,1.8 8.2,2.85c-5.05,1.91 -7.35,7.49 -15.75,10.12c-8.4,2.64 -15.66,5.91 -15.66,5.91" fill="#62BEEC"/>
<path id="Vector_382" d="M248.43,355.1531c0.07,-0.03 7.3,-3.27 15.54,-5.86c5.08,-1.6 7.99,-4.19 10.56,-6.47c1.77,-1.58 3.31,-2.95 5.25,-3.68c1.42,-0.54 1.74,-1.69 1.44,-2.59c-0.7,-2.05 -4.97,-3.93 -10.32,-2.29c-6.53,1.99 -20.63,7.7 -21.23,7.95l-0.22,1.6c0.15,-0.06 15.63,-5.54 22.06,-7.5c3.02,-0.92 5.51,-0.49 6.83,0.22c0.42,0.23 0.66,0.44 0.77,0.58c-0.03,0.01 -0.05,0.02 -0.08,0.03c-2.31,0.88 -4.06,2.44 -5.92,4.08c-2.4,2.14 -5.13,4.57 -9.77,6.02c-8.37,2.63 -15.71,5.92 -15.78,5.96z" fill="#0E3D50"/>
</g>
<path id="Vector_383" opacity="0.33" d="M278.9,336.8031c0,0 -1.64,1.1 -10.9,4.37c-9.26,3.27 -13.81,5.09 -15.34,4.37c-1.52,-0.72 0.06,-2.85 0.06,-2.85c0,0 -1.91,-0.09 -2.15,0.23c-0.24,0.31 -0.4,-0.47 -0.4,-0.47l-1.98,10.76c0,0 9.67,-3.23 10.46,-3.63c0.8,-0.4 8.87,-3.4 11.82,-5.83c2.94,-2.44 12.09,-5.22 8.43,-6.95z" fill="#004D5F"/>
<path id="Vector_384" d="M289.71,340.8231l-20.04,13.95c0,0 -7.69,-5.58 -7.71,-5.21c-0.03,0.38 6.33,-2.39 8.65,-4.37c2.32,-1.97 8.44,-5.69 8.8,-6.15c0.37,-0.47 2.04,-1.65 1.91,-2.11c0,0 -2.69,-2.16 -3.98,-2.32c-1.28,-0.16 -8.88,2.45 -9.84,3.07c-0.95,0.63 -11.15,4.1 -11.56,4.03l1.56,-4.45c0,0 4.37,-2.93 5.45,-3.61c2.24,-1.42 3.5,-1.17 4,-2.54c0.49,-1.37 1.71,-2.81 1.71,-2.81l1.01,-0.88l0.33,-0.59c0,0 7.34,3.68 9.17,4.94c1.83,1.26 11.37,5.73 11.37,5.73z" fill="#0E3D50"/>
<path id="Vector_385" d="M270.42,310.7331c-0.14,2.55 0.85,6.63 1.72,6.69c0.88,0.06 1.35,-3.54 1.48,-6.1c0.13,-2.55 -0.5,-5.05 -1.38,-5.11c-0.87,-0.05 -1.69,1.97 -1.82,4.52z" fill="#0E3D50"/>
</g>
<path id="Vector_386" d="M188.9,296.6431c0,0 3.53,13.23 27.75,19.58c30.98,8.13 59.24,-0.58 67.72,-8.58c0,0 2.47,1.6 0.74,4.78c0,0 -20.56,14.57 -53.32,10.23c-26.66,-3.52 -38.43,-12.22 -43.72,-17.11c0.01,0 -7.97,-5.03 0.83,-8.9z" fill="#004D5F"/>
</g>
<path id="Vector_387" d="M253.34,357.1131c0.01,1.02 0.03,1.94 0.04,2.79h-81.8c0.03,-1.27 0.03,-2.86 -0.03,-4.89c-0.21,-8.48 -1.06,-15.57 -1.46,-28.14c-0.24,-7.47 -0.04,-9.18 1.22,-10.52c6.02,-6.41 21.12,0.99 43.42,2.85c6.04,0.5 35.21,3.76 36.17,4.52c4.62,3.64 2.27,11.92 2.44,33.39z" fill="#387694"/>
<path id="Vector_388" d="M171.3,317.1531c1.21,-1.28 2.78,-1.99 4.71,-2.31c0.56,6.56 2.24,11.69 4,15.54c6.03,13.18 18.49,23.31 35.03,29.52h-43.46c0.02,-1.25 0.02,-2.81 -0.03,-4.8c-0.22,-8.33 -1.06,-15.29 -1.46,-27.63c-0.24,-7.33 -0.04,-9.01 1.21,-10.32z" fill="#286375"/>
</g>
<g id="IHC_3">
<g id="Group_119">
<path id="Vector_389" d="M120.75,161.0231h-30.23c-1.39,0 -2.51,-1.12 -2.51,-2.51c0,-1.39 1.12,-2.51 2.51,-2.51h30.23c1.39,0 2.51,1.12 2.51,2.51c-0.01,1.39 -1.13,2.51 -2.51,2.51z" fill="#BCDFF3"/>
<path id="Vector_390" d="M111.02,175.5231h-20.51c-1.39,0 -2.51,-1.12 -2.51,-2.51c0,-1.39 1.12,-2.51 2.51,-2.51h20.51c1.39,0 2.51,1.12 2.51,2.51c0,1.39 -1.12,2.51 -2.51,2.51z" fill="#BCDFF3"/>
<path id="Vector_391" d="M171.19,190.4331h-20.52c-1.39,0 -2.51,-1.12 -2.51,-2.51c0,-1.39 1.12,-2.51 2.51,-2.51h20.52c1.38,0 2.5,1.12 2.5,2.51c0,1.39 -1.12,2.51 -2.5,2.51z" fill="#BCDFF3"/>
<path id="Vector_392" d="M168.33,175.5231h-44.42c-1.39,0 -2.51,-1.12 -2.51,-2.51c0,-1.39 1.12,-2.51 2.51,-2.51h44.42c1.39,0 2.51,1.12 2.51,2.51c0,1.39 -1.13,2.51 -2.51,2.51z" fill="#BCDFF3"/>
<path id="Vector_393" d="M136.6,190.4331h-44.42c-1.39,0 -2.51,-1.12 -2.51,-2.51c0,-1.39 1.12,-2.51 2.51,-2.51h44.42c1.39,0 2.5,1.12 2.5,2.51c0,1.39 -1.12,2.51 -2.5,2.51z" fill="#BCDFF3"/>
<path id="Vector_394" d="M149.07,161.0231h-19.65c-1.39,0 -2.51,-1.12 -2.51,-2.51c0,-1.39 1.12,-2.51 2.51,-2.51h19.65c1.39,0 2.51,1.12 2.51,2.51c0,1.39 -1.12,2.51 -2.51,2.51z" fill="#BCDFF3"/>
</g>
<g id="Frame" clip-path="url(#clip11_6836_31544)">
<g id="Group_120">
<path id="Vector_395" d="M306.98,166.2131h-9.79c0.16,-0.89 0.27,-1.81 0.27,-2.75c0,-9.28 -8.38,-16.81 -18.7,-16.81c-9.81,0 -17.83,6.77 -18.63,15.4l-47.2,-42.43c-1.3,-1.17 -3.41,-1.17 -4.71,0c-1.3,1.17 -1.3,3.07 0,4.24l47.12,42.35h-32.02c-9.01,0 -16.32,6.57 -16.32,14.67v6.12h116.31v-6.12c0,-8.1 -7.32,-14.67 -16.33,-14.67zM278.76,171.1031c-4.7,0 -8.51,-3.42 -8.51,-7.64c0,-4.22 3.81,-7.64 8.51,-7.64c4.69,0 8.5,3.42 8.5,7.64c0,4.22 -3.81,7.64 -8.5,7.64z" fill="#BCDFF3"/>
<path id="Vector_396" d="M302.21,101.6731c0,-7.22 -6.51,-13.06 -14.54,-13.06c-8.02,0 -14.53,5.84 -14.53,13.06c0,7.21 6.51,13.06 14.53,13.06c8.03,0 14.54,-5.85 14.54,-13.06zM287.67,107.1731c-3.38,0 -6.12,-2.46 -6.12,-5.5c0,-3.04 2.74,-5.5 6.12,-5.5c3.38,0 6.12,2.46 6.12,5.5c0,3.04 -2.74,5.5 -6.12,5.5z" fill="#BCDFF3"/>
<path id="Vector_397" d="M301.61,160.1831c13.37,-21.8 8.44,-42.73 4.19,-53.46c-2.28,6.57 -8.86,11.43 -16.76,11.94c1.32,5.14 2.21,14.67 -4.81,24.61c8.97,1.96 15.92,8.62 17.38,16.91z" fill="#BCDFF3"/>
<path id="Vector_398" d="M251.64,130.0031c1.72,1.55 4.55,1.55 6.27,0l17.27,-15.53c-3.96,-3.12 -6.48,-7.7 -6.48,-12.8c0,-9.41 8.51,-17.05 18.97,-17.05c5.68,0 10.77,2.26 14.25,5.83l5.35,-4.82c1.73,-1.55 1.73,-4.09 0.01,-5.64l-2.51,-2.25l19.07,-17.16l-12.89,-11.58l-19.08,17.14l-2.5,-2.25c-1.73,-1.55 -4.56,-1.55 -6.28,0l-49.37,44.37c-1.72,1.55 -1.72,4.09 0,5.64z" fill="#BCDFF3"/>
</g>
</g>
<g id="Group_121">
<path id="Vector_399" d="M99.58,49.2131h-1.58v9.13h1.58z" fill="#BCDFF3"/>
<path id="Vector_400" d="M103.85,64.0731l-0.89,1.31l7.59,5.12l-0.01,8.42h1.58v-7.09l11.31,-7.11l-0.84,-1.33l-10.47,6.57l0.01,-0.3h-0.01l-0.58,-0.4l10.77,-6.45l-0.81,-1.36l-11.41,6.84z" fill="#BCDFF3"/>
<path id="Vector_401" d="M106.13,86.3131l-7.32,3.45l-11.24,-6.47l0.21,-6.89v6.1h1.58v-11.89h-1.4l0.01,-0.51l7.03,-4.27l-0.82,-1.36l-7.09,4.32l-0.13,-0.05c-0.01,0.56 -0.23,1.04 -0.67,1.45l0.09,0.03l-0.38,12.88c0.36,0.46 0.55,1 0.82,1.52c0.01,0.03 0.02,0.04 0.03,0.07l10.16,5.85v13.38h1.58v-12.46l0.13,0.07l0.01,0.01v0h0.01v-0.01l0.48,-0.22l-0.01,12.6h1.58v-13.35l6,-2.83z" fill="#BCDFF3"/>
<path id="Vector_402" d="M115.84,86.3231l-0.67,1.43l8.06,3.81l0.68,-1.42z" fill="#BCDFF3"/>
<path id="Vector_403" d="M129.03,90.4931c0.74,0 1.23,0.19 1.46,0.3l0.44,0.22l0.5,-1.67l-0.31,-0.16c-0.23,-0.12 -0.91,-0.41 -2.13,-0.41c-2.76,0 -4.69,1.93 -4.7,4.72c0,2.77 1.75,4.56 4.46,4.56c1.1,0 1.93,-0.22 2.35,-0.43l0.3,-0.15l-0.43,-1.66l-0.46,0.22c-0.37,0.18 -0.98,0.3 -1.54,0.3c-1.73,0 -2.72,-1.05 -2.72,-2.87c0,-1.86 1.04,-2.97 2.78,-2.97z" fill="#BCDFF3"/>
<path id="Vector_404" d="M136.83,92.3331h-3.12v-3.43h-1.89v9.03h1.89v-3.84l3.12,0.01v3.83h1.9l0.01,-9.02l-1.91,-0.01z" fill="#BCDFF3"/>
<path id="Vector_405" d="M95.59,68.6931h1.83v-3.91c0,-0.6 0,-1.13 -0.01,-1.63c0.21,0.37 0.45,0.77 0.72,1.2l2.72,4.35h1.72v-9.02h-1.83v3.84c0,0.53 0,1.02 0.02,1.51c-0.19,-0.33 -0.4,-0.67 -0.62,-1.02l-2.74,-4.33h-1.8z" fill="#BCDFF3"/>
<path id="Vector_406" d="M112.66,84.1731c0,0.53 0,1.02 0.01,1.51c-0.18,-0.33 -0.39,-0.67 -0.61,-1.02l-2.74,-4.33h-1.8l-0.01,9.02h1.84v-3.91c0,-0.6 -0.01,-1.13 -0.01,-1.63c0.21,0.37 0.45,0.77 0.71,1.2l2.72,4.35h1.72l0.01,-9.02h-1.84z" fill="#BCDFF3"/>
<path id="Vector_407" d="M131.01,60.6231c0,-2.68 -1.69,-4.56 -4.09,-4.56c-2.49,0 -4.22,1.94 -4.22,4.72c0,2.69 1.68,4.57 4.09,4.57c2.1,0 4.22,-1.46 4.22,-4.73zM126.85,63.6531c-1.5,0 -2.19,-1.51 -2.19,-2.9c0,-1.38 0.58,-2.99 2.2,-2.99c1.5,0 2.19,1.51 2.19,2.91c0,1.49 -0.68,2.98 -2.2,2.98z" fill="#BCDFF3"/>
<path id="Vector_408" d="M99.3,104.8031c-2.48,0 -4.21,1.94 -4.22,4.72c0,2.69 1.69,4.57 4.1,4.57c2.09,0 4.21,-1.46 4.22,-4.73c0,-2.68 -1.69,-4.55 -4.1,-4.56zM101.44,109.4131c0,1.49 -0.68,2.98 -2.2,2.98c-1.5,0 -2.19,-1.5 -2.19,-2.9c0,-1.38 0.58,-2.99 2.2,-2.99c1.51,0 2.19,1.51 2.19,2.91z" fill="#BCDFF3"/>
<path id="Vector_409" d="M143.56,95.4431c0.37,-0.33 0.58,-0.78 0.58,-1.3c0,-0.87 -0.64,-1.79 -2.06,-1.79c-0.77,0 -1.42,0.28 -1.75,0.52l-0.25,0.19l0.5,1.38l0.45,-0.32c0.21,-0.16 0.57,-0.31 0.9,-0.3c0.59,0 0.59,0.33 0.59,0.44c0,0.45 -0.64,0.56 -0.87,0.56h-0.85v1.42h0.85c0.25,0 1.06,0.05 1.07,0.74c0,0.08 -0.01,0.29 -0.18,0.45c-0.14,0.16 -0.38,0.23 -0.7,0.23c-0.43,0 -0.86,-0.18 -1.05,-0.3l-0.44,-0.29l-0.5,1.42l0.27,0.18c0.32,0.21 0.97,0.46 1.72,0.46c1.73,0 2.51,-1.11 2.51,-2.15c0.01,-0.63 -0.29,-1.18 -0.79,-1.54z" fill="#BCDFF3"/>
<path id="Vector_410" d="M94.45,46.2731c1.1,0 1.93,-0.23 2.35,-0.43l0.3,-0.15l-0.43,-1.67l-0.46,0.23c-0.37,0.18 -0.98,0.3 -1.54,0.3c-1.73,0 -2.72,-1.05 -2.72,-2.88c0,-1.85 1.04,-2.95 2.77,-2.95c0.75,0 1.24,0.19 1.47,0.3l0.44,0.22l0.5,-1.67l-0.31,-0.16c-0.23,-0.12 -0.92,-0.41 -2.13,-0.41c-2.76,0 -4.69,1.93 -4.69,4.72c-0.01,2.75 1.75,4.54 4.45,4.55z" fill="#BCDFF3"/>
<path id="Vector_411" d="M99.41,42.3131h3.11v3.84h1.91v-9.02h-1.9v3.42h-3.12v-3.42l-1.89,-0.01l-0.01,9.03h1.9z" fill="#BCDFF3"/>
<path id="Vector_412" d="M107.54,45.8731c-0.43,0 -0.86,-0.17 -1.05,-0.29l-0.44,-0.29l-0.5,1.41l0.27,0.18c0.32,0.22 0.97,0.46 1.72,0.46c1.73,0 2.51,-1.11 2.51,-2.14c0,-0.64 -0.29,-1.2 -0.79,-1.54c0.37,-0.34 0.58,-0.79 0.58,-1.31c0,-0.86 -0.65,-1.79 -2.07,-1.79c-0.76,0 -1.42,0.28 -1.75,0.53l-0.25,0.18l0.5,1.38l0.45,-0.32c0.22,-0.15 0.57,-0.3 0.91,-0.3c0.59,0 0.58,0.34 0.58,0.45c0,0.45 -0.64,0.55 -0.86,0.55h-0.85v1.42h0.85c0.25,0 1.06,0.06 1.06,0.74c0,0.09 -0.01,0.29 -0.17,0.46c-0.15,0.15 -0.39,0.22 -0.7,0.22z" fill="#BCDFF3"/>
</g>
</g>
</g></svg>